G75*
%MOIN*%
%OFA0B0*%
%FSLAX24Y24*%
%IPPOS*%
%LPD*%
%AMOC8*
5,1,8,0,0,1.08239X$1,22.5*
%
%ADD10R,0.0740X0.0740*%
%ADD11C,0.0740*%
%ADD12C,0.0570*%
%ADD13C,0.0080*%
%ADD14C,0.0160*%
%ADD15C,0.0240*%
D10*
X022640Y004515D03*
X022640Y005515D03*
X022640Y006515D03*
X003640Y013515D03*
X003640Y014515D03*
X003640Y015515D03*
D11*
X004640Y015515D03*
X005640Y015515D03*
X006640Y015515D03*
X007640Y015515D03*
X008640Y015515D03*
X009640Y015515D03*
X010640Y015515D03*
X011640Y015515D03*
X012640Y015515D03*
X013640Y015515D03*
X014640Y015515D03*
X015640Y015515D03*
X016640Y015515D03*
X017640Y015515D03*
X018640Y015515D03*
X019640Y015515D03*
X020640Y015515D03*
X021640Y015515D03*
X022640Y015515D03*
X022640Y014515D03*
X021640Y014515D03*
X020640Y014515D03*
X019640Y014515D03*
X018640Y014515D03*
X017640Y014515D03*
X016640Y014515D03*
X015640Y014515D03*
X014640Y014515D03*
X013640Y014515D03*
X012640Y014515D03*
X011640Y014515D03*
X010640Y014515D03*
X009640Y014515D03*
X008640Y014515D03*
X007640Y014515D03*
X006640Y014515D03*
X005640Y014515D03*
X004640Y014515D03*
X004640Y013515D03*
X005640Y013515D03*
X006640Y013515D03*
X007640Y013515D03*
X008640Y013515D03*
X009640Y013515D03*
X010640Y013515D03*
X011640Y013515D03*
X012640Y013515D03*
X013640Y013515D03*
X014640Y013515D03*
X015640Y013515D03*
X016640Y013515D03*
X017640Y013515D03*
X018640Y013515D03*
X019640Y013515D03*
X020640Y013515D03*
X021640Y013515D03*
X022640Y013515D03*
X021640Y006515D03*
X020640Y006515D03*
X019640Y006515D03*
X018640Y006515D03*
X017640Y006515D03*
X016640Y006515D03*
X015640Y006515D03*
X014640Y006515D03*
X013640Y006515D03*
X012640Y006515D03*
X011640Y006515D03*
X010640Y006515D03*
X009640Y006515D03*
X008640Y006515D03*
X007640Y006515D03*
X006640Y006515D03*
X005640Y006515D03*
X004640Y006515D03*
X003640Y006515D03*
X003640Y005515D03*
X004640Y005515D03*
X005640Y005515D03*
X006640Y005515D03*
X007640Y005515D03*
X008640Y005515D03*
X009640Y005515D03*
X010640Y005515D03*
X011640Y005515D03*
X012640Y005515D03*
X013640Y005515D03*
X014640Y005515D03*
X015640Y005515D03*
X016640Y005515D03*
X017640Y005515D03*
X018640Y005515D03*
X019640Y005515D03*
X020640Y005515D03*
X021640Y005515D03*
X021640Y004515D03*
X020640Y004515D03*
X019640Y004515D03*
X018640Y004515D03*
X017640Y004515D03*
X016640Y004515D03*
X015640Y004515D03*
X014640Y004515D03*
X013640Y004515D03*
X012640Y004515D03*
X011640Y004515D03*
X010640Y004515D03*
X009640Y004515D03*
X008640Y004515D03*
X007640Y004515D03*
X006640Y004515D03*
X005640Y004515D03*
X004640Y004515D03*
X003640Y004515D03*
D12*
X007640Y009621D03*
X007640Y010409D03*
D13*
X001140Y003155D02*
X001005Y003166D01*
X000750Y003249D01*
X000532Y003407D01*
X000374Y003625D01*
X000291Y003880D01*
X000280Y004015D01*
X000280Y016015D01*
X000291Y016150D01*
X000374Y016405D01*
X000532Y016623D01*
X000750Y016781D01*
X001005Y016864D01*
X001140Y016875D01*
X023040Y016875D01*
X023040Y015832D01*
X023029Y015847D01*
X022972Y015904D01*
X022907Y015951D01*
X022836Y015988D01*
X022759Y016012D01*
X022680Y016025D01*
X022680Y015555D01*
X022600Y015555D01*
X022600Y016025D01*
X022600Y016025D01*
X022521Y016012D01*
X022444Y015988D01*
X022373Y015951D01*
X022308Y015904D01*
X022251Y015847D01*
X022204Y015782D01*
X022167Y015711D01*
X022143Y015634D01*
X022130Y015555D01*
X022600Y015555D01*
X022600Y015475D01*
X022130Y015475D01*
X022130Y015475D01*
X022143Y015396D01*
X022167Y015319D01*
X022204Y015248D01*
X022251Y015183D01*
X022308Y015126D01*
X022373Y015079D01*
X022444Y015042D01*
X022521Y015018D01*
X022537Y015015D01*
X022521Y015012D01*
X022444Y014988D01*
X022373Y014951D01*
X022308Y014904D01*
X022251Y014847D01*
X022204Y014782D01*
X022167Y014711D01*
X022143Y014634D01*
X022130Y014555D01*
X022600Y014555D01*
X022600Y015025D01*
X022600Y015475D01*
X022680Y015475D01*
X022680Y014555D01*
X022600Y014555D01*
X022600Y014475D01*
X022130Y014475D01*
X022130Y014475D01*
X022143Y014396D01*
X022167Y014319D01*
X022204Y014248D01*
X022251Y014183D01*
X022308Y014126D01*
X022373Y014079D01*
X022444Y014042D01*
X022521Y014018D01*
X022537Y014015D01*
X022521Y014012D01*
X022444Y013988D01*
X022373Y013951D01*
X022308Y013904D01*
X022251Y013847D01*
X022204Y013782D01*
X022167Y013711D01*
X022143Y013634D01*
X022130Y013555D01*
X022600Y013555D01*
X022600Y014475D01*
X022680Y014475D01*
X022680Y014005D01*
X022680Y013555D01*
X022600Y013555D01*
X022600Y013475D01*
X022130Y013475D01*
X022130Y013475D01*
X022143Y013396D01*
X022167Y013319D01*
X022204Y013248D01*
X022251Y013183D01*
X022308Y013126D01*
X022373Y013079D01*
X022444Y013042D01*
X022521Y013018D01*
X022600Y013005D01*
X022600Y013475D01*
X022680Y013475D01*
X022680Y013005D01*
X022680Y013005D01*
X022759Y013018D01*
X022836Y013042D01*
X022907Y013079D01*
X022972Y013126D01*
X023029Y013183D01*
X023040Y013198D01*
X023040Y007022D01*
X023028Y007025D01*
X022680Y007025D01*
X022680Y006555D01*
X022600Y006555D01*
X022600Y007025D01*
X022252Y007025D01*
X022216Y007015D01*
X022184Y006997D01*
X022158Y006971D01*
X022140Y006939D01*
X022130Y006903D01*
X022130Y006555D01*
X022600Y006555D01*
X022600Y006475D01*
X022130Y006475D01*
X022130Y006127D01*
X022140Y006091D01*
X022158Y006059D01*
X022184Y006033D01*
X022215Y006015D01*
X022184Y005997D01*
X022158Y005971D01*
X022140Y005939D01*
X022130Y005903D01*
X022130Y005555D01*
X022600Y005555D01*
X022600Y006475D01*
X022680Y006475D01*
X022680Y006005D01*
X022680Y005555D01*
X022600Y005555D01*
X022600Y005475D01*
X022680Y005475D01*
X022680Y005025D01*
X022680Y004555D01*
X022600Y004555D01*
X022600Y005475D01*
X022130Y005475D01*
X022130Y005127D01*
X022140Y005091D01*
X022158Y005059D01*
X022184Y005033D01*
X022215Y005015D01*
X022184Y004997D01*
X022158Y004971D01*
X022140Y004939D01*
X022130Y004903D01*
X022130Y004555D01*
X022600Y004555D01*
X022600Y004475D01*
X022680Y004475D01*
X022680Y004005D01*
X023028Y004005D01*
X023040Y004008D01*
X023040Y003155D01*
X001140Y003155D01*
X000986Y003172D02*
X023040Y003172D01*
X023040Y003251D02*
X000747Y003251D01*
X000639Y003329D02*
X023040Y003329D01*
X023040Y003408D02*
X000531Y003408D01*
X000474Y003486D02*
X023040Y003486D01*
X023040Y003565D02*
X000417Y003565D01*
X000368Y003643D02*
X023040Y003643D01*
X023040Y003722D02*
X001841Y003722D01*
X001801Y003705D02*
X002099Y003828D01*
X002327Y004056D01*
X002450Y004354D01*
X002450Y004676D01*
X002327Y004974D01*
X002099Y005202D01*
X002099Y005202D01*
X001801Y005325D01*
X001479Y005325D01*
X001181Y005202D01*
X000953Y004974D01*
X000830Y004676D01*
X000830Y004354D01*
X000953Y004056D01*
X001181Y003828D01*
X001479Y003705D01*
X001607Y003705D01*
X001801Y003705D01*
X002030Y003800D02*
X023040Y003800D01*
X023040Y003879D02*
X002149Y003879D01*
X002099Y003828D02*
X002099Y003828D01*
X002228Y003957D02*
X023040Y003957D01*
X022680Y004036D02*
X022600Y004036D01*
X022600Y004005D02*
X022600Y004475D01*
X022130Y004475D01*
X022130Y004127D01*
X022140Y004091D01*
X022158Y004059D01*
X022184Y004033D01*
X022216Y004015D01*
X022252Y004005D01*
X022600Y004005D01*
X022600Y004114D02*
X022680Y004114D01*
X022680Y004193D02*
X022600Y004193D01*
X022600Y004271D02*
X022680Y004271D01*
X022680Y004350D02*
X022600Y004350D01*
X022600Y004428D02*
X022680Y004428D01*
X022600Y004507D02*
X022130Y004507D01*
X022130Y004585D02*
X022130Y004585D01*
X022130Y004612D02*
X022055Y004793D01*
X021918Y004930D01*
X021840Y004963D01*
X021840Y005067D01*
X021918Y005100D01*
X022055Y005237D01*
X022130Y005418D01*
X022130Y005612D01*
X022055Y005793D01*
X021918Y005930D01*
X021840Y005963D01*
X021840Y006067D01*
X021918Y006100D01*
X022055Y006237D01*
X022130Y006418D01*
X022130Y006612D01*
X022055Y006793D01*
X021918Y006930D01*
X021737Y007005D01*
X021543Y007005D01*
X021362Y006930D01*
X021225Y006793D01*
X021150Y006612D01*
X021150Y006418D01*
X021225Y006237D01*
X021362Y006100D01*
X021440Y006067D01*
X021440Y005963D01*
X021362Y005930D01*
X021225Y005793D01*
X021150Y005612D01*
X021150Y005418D01*
X021225Y005237D01*
X021362Y005100D01*
X021440Y005067D01*
X021440Y004963D01*
X021362Y004930D01*
X021225Y004793D01*
X021150Y004612D01*
X021150Y004418D01*
X021225Y004237D01*
X021362Y004100D01*
X021543Y004025D01*
X021737Y004025D01*
X021918Y004100D01*
X022055Y004237D01*
X022130Y004418D01*
X022130Y004612D01*
X022130Y004664D02*
X022109Y004664D01*
X022130Y004742D02*
X022076Y004742D01*
X022027Y004821D02*
X022130Y004821D01*
X022130Y004899D02*
X021949Y004899D01*
X021840Y004978D02*
X022165Y004978D01*
X022161Y005056D02*
X021840Y005056D01*
X021952Y005135D02*
X022130Y005135D01*
X022130Y005213D02*
X022031Y005213D01*
X022078Y005292D02*
X022130Y005292D01*
X022130Y005370D02*
X022110Y005370D01*
X022130Y005449D02*
X022130Y005449D01*
X022130Y005527D02*
X022600Y005527D01*
X022600Y005449D02*
X022680Y005449D01*
X022680Y005370D02*
X022600Y005370D01*
X022600Y005292D02*
X022680Y005292D01*
X022680Y005213D02*
X022600Y005213D01*
X022600Y005135D02*
X022680Y005135D01*
X022680Y005056D02*
X022600Y005056D01*
X022600Y004978D02*
X022680Y004978D01*
X022680Y004899D02*
X022600Y004899D01*
X022600Y004821D02*
X022680Y004821D01*
X022680Y004742D02*
X022600Y004742D01*
X022600Y004664D02*
X022680Y004664D01*
X022680Y004585D02*
X022600Y004585D01*
X022130Y004428D02*
X022130Y004428D01*
X022130Y004350D02*
X022102Y004350D01*
X022130Y004271D02*
X022069Y004271D01*
X022010Y004193D02*
X022130Y004193D01*
X022133Y004114D02*
X021932Y004114D01*
X021763Y004036D02*
X022182Y004036D01*
X021517Y004036D02*
X020763Y004036D01*
X020737Y004025D02*
X020918Y004100D01*
X021055Y004237D01*
X021130Y004418D01*
X021130Y004612D01*
X021055Y004793D01*
X020918Y004930D01*
X020840Y004963D01*
X020840Y005067D01*
X020918Y005100D01*
X021055Y005237D01*
X021130Y005418D01*
X021130Y005612D01*
X021055Y005793D01*
X020918Y005930D01*
X020840Y005963D01*
X020840Y006067D01*
X020918Y006100D01*
X021055Y006237D01*
X021130Y006418D01*
X021130Y006612D01*
X021055Y006793D01*
X020918Y006930D01*
X020737Y007005D01*
X020543Y007005D01*
X020362Y006930D01*
X020225Y006793D01*
X020150Y006612D01*
X020150Y006418D01*
X020225Y006237D01*
X020362Y006100D01*
X020440Y006067D01*
X020440Y005963D01*
X020362Y005930D01*
X020225Y005793D01*
X020150Y005612D01*
X020150Y005418D01*
X020225Y005237D01*
X020362Y005100D01*
X020440Y005067D01*
X020440Y004963D01*
X020362Y004930D01*
X020225Y004793D01*
X020150Y004612D01*
X020150Y004418D01*
X020225Y004237D01*
X020362Y004100D01*
X020543Y004025D01*
X020737Y004025D01*
X020932Y004114D02*
X021348Y004114D01*
X021270Y004193D02*
X021010Y004193D01*
X021069Y004271D02*
X021211Y004271D01*
X021178Y004350D02*
X021102Y004350D01*
X021130Y004428D02*
X021150Y004428D01*
X021150Y004507D02*
X021130Y004507D01*
X021130Y004585D02*
X021150Y004585D01*
X021171Y004664D02*
X021109Y004664D01*
X021076Y004742D02*
X021204Y004742D01*
X021253Y004821D02*
X021027Y004821D01*
X020949Y004899D02*
X021331Y004899D01*
X021440Y004978D02*
X020840Y004978D01*
X020840Y005056D02*
X021440Y005056D01*
X021328Y005135D02*
X020952Y005135D01*
X021031Y005213D02*
X021249Y005213D01*
X021202Y005292D02*
X021078Y005292D01*
X021110Y005370D02*
X021170Y005370D01*
X021150Y005449D02*
X021130Y005449D01*
X021130Y005527D02*
X021150Y005527D01*
X021150Y005606D02*
X021130Y005606D01*
X021100Y005684D02*
X021180Y005684D01*
X021212Y005763D02*
X021068Y005763D01*
X021007Y005841D02*
X021273Y005841D01*
X021352Y005920D02*
X020928Y005920D01*
X020840Y005998D02*
X021440Y005998D01*
X021418Y006077D02*
X020862Y006077D01*
X020973Y006155D02*
X021307Y006155D01*
X021229Y006234D02*
X021051Y006234D01*
X021086Y006312D02*
X021194Y006312D01*
X021161Y006391D02*
X021119Y006391D01*
X021130Y006469D02*
X021150Y006469D01*
X021150Y006548D02*
X021130Y006548D01*
X021124Y006626D02*
X021156Y006626D01*
X021188Y006705D02*
X021092Y006705D01*
X021059Y006783D02*
X021221Y006783D01*
X021294Y006862D02*
X020986Y006862D01*
X020894Y006940D02*
X021386Y006940D01*
X021894Y006940D02*
X022140Y006940D01*
X022130Y006862D02*
X021986Y006862D01*
X022059Y006783D02*
X022130Y006783D01*
X022130Y006705D02*
X022092Y006705D01*
X022124Y006626D02*
X022130Y006626D01*
X022130Y006548D02*
X022600Y006548D01*
X022600Y006626D02*
X022680Y006626D01*
X022680Y006705D02*
X022600Y006705D01*
X022600Y006783D02*
X022680Y006783D01*
X022680Y006862D02*
X022600Y006862D01*
X022600Y006940D02*
X022680Y006940D01*
X022680Y007019D02*
X022600Y007019D01*
X022227Y007019D02*
X004880Y007019D01*
X004880Y006946D02*
X004880Y009409D01*
X004889Y009528D01*
X004963Y009754D01*
X005103Y009946D01*
X005295Y010086D01*
X005521Y010159D01*
X005640Y010169D01*
X007307Y010169D01*
X007411Y010065D01*
X007508Y010025D01*
X007477Y010015D01*
X007417Y009985D01*
X007363Y009945D01*
X007316Y009898D01*
X007277Y009844D01*
X007246Y009784D01*
X007225Y009721D01*
X007215Y009655D01*
X007215Y009650D01*
X007611Y009650D01*
X007611Y009592D01*
X007669Y009592D01*
X007669Y009196D01*
X007673Y009196D01*
X007740Y009207D01*
X007803Y009227D01*
X007863Y009258D01*
X007917Y009297D01*
X007964Y009344D01*
X008003Y009399D01*
X008034Y009458D01*
X008055Y009522D01*
X008065Y009588D01*
X008065Y009592D01*
X007669Y009592D01*
X007669Y009650D01*
X008065Y009650D01*
X008065Y009655D01*
X008055Y009721D01*
X008034Y009784D01*
X008003Y009844D01*
X007964Y009898D01*
X007917Y009945D01*
X007863Y009985D01*
X007803Y010015D01*
X007772Y010025D01*
X007869Y010065D01*
X007983Y010179D01*
X008045Y010328D01*
X008045Y010489D01*
X007983Y010638D01*
X007869Y010752D01*
X007721Y010814D01*
X007559Y010814D01*
X007411Y010752D01*
X007307Y010649D01*
X005444Y010649D01*
X005070Y010527D01*
X004752Y010296D01*
X004521Y009979D01*
X004521Y009979D01*
X004400Y009605D01*
X004400Y006946D01*
X004362Y006930D01*
X004225Y006793D01*
X004150Y006612D01*
X004150Y006418D01*
X004225Y006237D01*
X004362Y006100D01*
X004400Y006084D01*
X004400Y005967D01*
X004408Y005949D01*
X004362Y005930D01*
X004225Y005793D01*
X004150Y005612D01*
X004150Y005418D01*
X004225Y005237D01*
X004362Y005100D01*
X004440Y005067D01*
X004440Y004963D01*
X004362Y004930D01*
X004225Y004793D01*
X004150Y004612D01*
X004150Y004418D01*
X004225Y004237D01*
X004362Y004100D01*
X004543Y004025D01*
X004737Y004025D01*
X004918Y004100D01*
X005055Y004237D01*
X005130Y004418D01*
X005130Y004612D01*
X005055Y004793D01*
X004918Y004930D01*
X004840Y004963D01*
X004840Y005067D01*
X004918Y005100D01*
X005055Y005237D01*
X005130Y005418D01*
X005130Y005612D01*
X005055Y005793D01*
X004918Y005930D01*
X004872Y005949D01*
X004880Y005967D01*
X004880Y006084D01*
X004918Y006100D01*
X005055Y006237D01*
X005130Y006418D01*
X005130Y006612D01*
X005055Y006793D01*
X004918Y006930D01*
X004880Y006946D01*
X004894Y006940D02*
X005386Y006940D01*
X005362Y006930D02*
X005225Y006793D01*
X005150Y006612D01*
X005150Y006418D01*
X005225Y006237D01*
X005362Y006100D01*
X005440Y006067D01*
X005440Y005963D01*
X005362Y005930D01*
X005225Y005793D01*
X005150Y005612D01*
X005150Y005418D01*
X005225Y005237D01*
X005362Y005100D01*
X005440Y005067D01*
X005440Y004963D01*
X005362Y004930D01*
X005225Y004793D01*
X005150Y004612D01*
X005150Y004418D01*
X005225Y004237D01*
X005362Y004100D01*
X005543Y004025D01*
X005737Y004025D01*
X005918Y004100D01*
X006055Y004237D01*
X006130Y004418D01*
X006130Y004612D01*
X006055Y004793D01*
X005918Y004930D01*
X005840Y004963D01*
X005840Y005067D01*
X005918Y005100D01*
X006055Y005237D01*
X006130Y005418D01*
X006130Y005612D01*
X006055Y005793D01*
X005918Y005930D01*
X005840Y005963D01*
X005840Y006067D01*
X005918Y006100D01*
X006055Y006237D01*
X006130Y006418D01*
X006130Y006612D01*
X006055Y006793D01*
X005918Y006930D01*
X005737Y007005D01*
X005543Y007005D01*
X005362Y006930D01*
X005294Y006862D02*
X004986Y006862D01*
X005059Y006783D02*
X005221Y006783D01*
X005188Y006705D02*
X005092Y006705D01*
X005124Y006626D02*
X005156Y006626D01*
X005150Y006548D02*
X005130Y006548D01*
X005130Y006469D02*
X005150Y006469D01*
X005161Y006391D02*
X005119Y006391D01*
X005086Y006312D02*
X005194Y006312D01*
X005229Y006234D02*
X005051Y006234D01*
X004973Y006155D02*
X005307Y006155D01*
X005418Y006077D02*
X004880Y006077D01*
X004880Y005998D02*
X005440Y005998D01*
X005352Y005920D02*
X004928Y005920D01*
X005007Y005841D02*
X005273Y005841D01*
X005212Y005763D02*
X005068Y005763D01*
X005100Y005684D02*
X005180Y005684D01*
X005150Y005606D02*
X005130Y005606D01*
X005130Y005527D02*
X005150Y005527D01*
X005150Y005449D02*
X005130Y005449D01*
X005110Y005370D02*
X005170Y005370D01*
X005202Y005292D02*
X005078Y005292D01*
X005031Y005213D02*
X005249Y005213D01*
X005328Y005135D02*
X004952Y005135D01*
X004840Y005056D02*
X005440Y005056D01*
X005440Y004978D02*
X004840Y004978D01*
X004949Y004899D02*
X005331Y004899D01*
X005253Y004821D02*
X005027Y004821D01*
X005076Y004742D02*
X005204Y004742D01*
X005171Y004664D02*
X005109Y004664D01*
X005130Y004585D02*
X005150Y004585D01*
X005150Y004507D02*
X005130Y004507D01*
X005130Y004428D02*
X005150Y004428D01*
X005178Y004350D02*
X005102Y004350D01*
X005069Y004271D02*
X005211Y004271D01*
X005270Y004193D02*
X005010Y004193D01*
X004932Y004114D02*
X005348Y004114D01*
X005517Y004036D02*
X004763Y004036D01*
X004517Y004036D02*
X003815Y004036D01*
X003836Y004042D02*
X003907Y004079D01*
X003972Y004126D01*
X004029Y004183D01*
X004076Y004248D01*
X004113Y004319D01*
X004137Y004396D01*
X004150Y004475D01*
X003680Y004475D01*
X003680Y004555D01*
X004150Y004555D01*
X004150Y004555D01*
X004137Y004634D01*
X004113Y004711D01*
X004076Y004782D01*
X004029Y004847D01*
X003972Y004904D01*
X003907Y004951D01*
X003836Y004988D01*
X003759Y005012D01*
X003743Y005015D01*
X003759Y005018D01*
X003836Y005042D01*
X003907Y005079D01*
X003972Y005126D01*
X004029Y005183D01*
X004076Y005248D01*
X004113Y005319D01*
X004137Y005396D01*
X004150Y005475D01*
X003680Y005475D01*
X003680Y005555D01*
X004150Y005555D01*
X004150Y005555D01*
X004137Y005634D01*
X004113Y005711D01*
X004076Y005782D01*
X004029Y005847D01*
X003972Y005904D01*
X003907Y005951D01*
X003836Y005988D01*
X003759Y006012D01*
X003743Y006015D01*
X003759Y006018D01*
X003836Y006042D01*
X003907Y006079D01*
X003972Y006126D01*
X004029Y006183D01*
X004076Y006248D01*
X004113Y006319D01*
X004137Y006396D01*
X004150Y006475D01*
X003680Y006475D01*
X003680Y006555D01*
X004150Y006555D01*
X004150Y006555D01*
X004137Y006634D01*
X004113Y006711D01*
X004076Y006782D01*
X004029Y006847D01*
X003972Y006904D01*
X003907Y006951D01*
X003836Y006988D01*
X003759Y007012D01*
X003680Y007025D01*
X003680Y006555D01*
X003600Y006555D01*
X003600Y007025D01*
X003600Y007025D01*
X003521Y007012D01*
X003444Y006988D01*
X003373Y006951D01*
X003308Y006904D01*
X003251Y006847D01*
X003204Y006782D01*
X003167Y006711D01*
X003143Y006634D01*
X003130Y006555D01*
X003600Y006555D01*
X003600Y006475D01*
X003130Y006475D01*
X003130Y006475D01*
X003143Y006396D01*
X003167Y006319D01*
X003204Y006248D01*
X003251Y006183D01*
X003308Y006126D01*
X003373Y006079D01*
X003444Y006042D01*
X003521Y006018D01*
X003537Y006015D01*
X003521Y006012D01*
X003444Y005988D01*
X003373Y005951D01*
X003308Y005904D01*
X003251Y005847D01*
X003204Y005782D01*
X003167Y005711D01*
X003143Y005634D01*
X003130Y005555D01*
X003600Y005555D01*
X003600Y006475D01*
X003680Y006475D01*
X003680Y006025D01*
X003680Y005555D01*
X003600Y005555D01*
X003600Y005475D01*
X003130Y005475D01*
X003130Y005475D01*
X003143Y005396D01*
X003167Y005319D01*
X003204Y005248D01*
X003251Y005183D01*
X003308Y005126D01*
X003373Y005079D01*
X003444Y005042D01*
X003521Y005018D01*
X003537Y005015D01*
X003521Y005012D01*
X003444Y004988D01*
X003373Y004951D01*
X003308Y004904D01*
X003251Y004847D01*
X003204Y004782D01*
X003167Y004711D01*
X003143Y004634D01*
X003130Y004555D01*
X003600Y004555D01*
X003600Y005475D01*
X003680Y005475D01*
X003680Y005025D01*
X003680Y004555D01*
X003600Y004555D01*
X003600Y004475D01*
X003680Y004475D01*
X003680Y004005D01*
X003680Y004005D01*
X003759Y004018D01*
X003836Y004042D01*
X003956Y004114D02*
X004348Y004114D01*
X004270Y004193D02*
X004036Y004193D01*
X004088Y004271D02*
X004211Y004271D01*
X004178Y004350D02*
X004122Y004350D01*
X004143Y004428D02*
X004150Y004428D01*
X004150Y004475D02*
X004150Y004475D01*
X004150Y004507D02*
X003680Y004507D01*
X003680Y004585D02*
X003600Y004585D01*
X003600Y004507D02*
X002450Y004507D01*
X002450Y004585D02*
X003135Y004585D01*
X003130Y004555D02*
X003130Y004555D01*
X003130Y004475D02*
X003130Y004475D01*
X003600Y004475D01*
X003600Y004005D01*
X003600Y004005D01*
X003521Y004018D01*
X003444Y004042D01*
X003373Y004079D01*
X003308Y004126D01*
X003251Y004183D01*
X003204Y004248D01*
X003167Y004319D01*
X003143Y004396D01*
X003130Y004475D01*
X003137Y004428D02*
X002450Y004428D01*
X002448Y004350D02*
X003158Y004350D01*
X003192Y004271D02*
X002416Y004271D01*
X002383Y004193D02*
X003244Y004193D01*
X003324Y004114D02*
X002351Y004114D01*
X002327Y004056D02*
X002327Y004056D01*
X002306Y004036D02*
X003465Y004036D01*
X003600Y004036D02*
X003680Y004036D01*
X003680Y004114D02*
X003600Y004114D01*
X003600Y004193D02*
X003680Y004193D01*
X003680Y004271D02*
X003600Y004271D01*
X003600Y004350D02*
X003680Y004350D01*
X003680Y004428D02*
X003600Y004428D01*
X003600Y004664D02*
X003680Y004664D01*
X003680Y004742D02*
X003600Y004742D01*
X003600Y004821D02*
X003680Y004821D01*
X003680Y004899D02*
X003600Y004899D01*
X003600Y004978D02*
X003680Y004978D01*
X003680Y005056D02*
X003600Y005056D01*
X003600Y005135D02*
X003680Y005135D01*
X003680Y005213D02*
X003600Y005213D01*
X003600Y005292D02*
X003680Y005292D01*
X003680Y005370D02*
X003600Y005370D01*
X003600Y005449D02*
X003680Y005449D01*
X003680Y005527D02*
X004150Y005527D01*
X004150Y005475D02*
X004150Y005475D01*
X004146Y005449D02*
X004150Y005449D01*
X004129Y005370D02*
X004170Y005370D01*
X004202Y005292D02*
X004099Y005292D01*
X004051Y005213D02*
X004249Y005213D01*
X004328Y005135D02*
X003981Y005135D01*
X003863Y005056D02*
X004440Y005056D01*
X004440Y004978D02*
X003856Y004978D01*
X003977Y004899D02*
X004331Y004899D01*
X004253Y004821D02*
X004048Y004821D01*
X004097Y004742D02*
X004204Y004742D01*
X004171Y004664D02*
X004128Y004664D01*
X004145Y004585D02*
X004150Y004585D01*
X003303Y004899D02*
X002358Y004899D01*
X002327Y004974D02*
X002327Y004974D01*
X002323Y004978D02*
X003424Y004978D01*
X003417Y005056D02*
X002245Y005056D01*
X002166Y005135D02*
X003299Y005135D01*
X003229Y005213D02*
X002071Y005213D01*
X001882Y005292D02*
X003181Y005292D01*
X003151Y005370D02*
X000280Y005370D01*
X000280Y005292D02*
X001398Y005292D01*
X001479Y005325D02*
X001479Y005325D01*
X001209Y005213D02*
X000280Y005213D01*
X000280Y005135D02*
X001114Y005135D01*
X001035Y005056D02*
X000280Y005056D01*
X000280Y004978D02*
X000957Y004978D01*
X000953Y004974D02*
X000953Y004974D01*
X000922Y004899D02*
X000280Y004899D01*
X000280Y004821D02*
X000890Y004821D01*
X000857Y004742D02*
X000280Y004742D01*
X000280Y004664D02*
X000830Y004664D01*
X000830Y004585D02*
X000280Y004585D01*
X000280Y004507D02*
X000830Y004507D01*
X000830Y004428D02*
X000280Y004428D01*
X000280Y004350D02*
X000832Y004350D01*
X000864Y004271D02*
X000280Y004271D01*
X000280Y004193D02*
X000897Y004193D01*
X000929Y004114D02*
X000280Y004114D01*
X000280Y004036D02*
X000974Y004036D01*
X000953Y004056D02*
X000953Y004056D01*
X001052Y003957D02*
X000285Y003957D01*
X000291Y003879D02*
X001131Y003879D01*
X001181Y003828D02*
X001181Y003828D01*
X001250Y003800D02*
X000317Y003800D01*
X000342Y003722D02*
X001439Y003722D01*
X002450Y004664D02*
X003152Y004664D01*
X003183Y004742D02*
X002423Y004742D01*
X002390Y004821D02*
X003232Y004821D01*
X003134Y005449D02*
X000280Y005449D01*
X000280Y005527D02*
X003600Y005527D01*
X003600Y005606D02*
X003680Y005606D01*
X003680Y005684D02*
X003600Y005684D01*
X003600Y005763D02*
X003680Y005763D01*
X003680Y005841D02*
X003600Y005841D01*
X003600Y005920D02*
X003680Y005920D01*
X003680Y005998D02*
X003600Y005998D01*
X003600Y006077D02*
X003680Y006077D01*
X003680Y006155D02*
X003600Y006155D01*
X003600Y006234D02*
X003680Y006234D01*
X003680Y006312D02*
X003600Y006312D01*
X003600Y006391D02*
X003680Y006391D01*
X003680Y006469D02*
X003600Y006469D01*
X003600Y006548D02*
X000280Y006548D01*
X000280Y006626D02*
X003141Y006626D01*
X003130Y006555D02*
X003130Y006555D01*
X003131Y006469D02*
X000280Y006469D01*
X000280Y006391D02*
X003144Y006391D01*
X003171Y006312D02*
X000280Y006312D01*
X000280Y006234D02*
X003214Y006234D01*
X003279Y006155D02*
X000280Y006155D01*
X000280Y006077D02*
X003377Y006077D01*
X003476Y005998D02*
X000280Y005998D01*
X000280Y005920D02*
X003329Y005920D01*
X003246Y005841D02*
X000280Y005841D01*
X000280Y005763D02*
X003194Y005763D01*
X003159Y005684D02*
X000280Y005684D01*
X000280Y005606D02*
X003138Y005606D01*
X003130Y005555D02*
X003130Y005555D01*
X003804Y005998D02*
X004400Y005998D01*
X004400Y006077D02*
X003903Y006077D01*
X004001Y006155D02*
X004307Y006155D01*
X004229Y006234D02*
X004066Y006234D01*
X004109Y006312D02*
X004194Y006312D01*
X004161Y006391D02*
X004136Y006391D01*
X004149Y006469D02*
X004150Y006469D01*
X004150Y006475D02*
X004150Y006475D01*
X004150Y006548D02*
X003680Y006548D01*
X003680Y006626D02*
X003600Y006626D01*
X003600Y006705D02*
X003680Y006705D01*
X003680Y006783D02*
X003600Y006783D01*
X003600Y006862D02*
X003680Y006862D01*
X003680Y006940D02*
X003600Y006940D01*
X003600Y007019D02*
X003680Y007019D01*
X003680Y007025D02*
X003680Y007025D01*
X003721Y007019D02*
X004400Y007019D01*
X004400Y007097D02*
X000280Y007097D01*
X000280Y007019D02*
X003559Y007019D01*
X003357Y006940D02*
X000280Y006940D01*
X000280Y006862D02*
X003265Y006862D01*
X003204Y006783D02*
X000280Y006783D01*
X000280Y006705D02*
X003165Y006705D01*
X003923Y006940D02*
X004386Y006940D01*
X004294Y006862D02*
X004015Y006862D01*
X004076Y006783D02*
X004221Y006783D01*
X004188Y006705D02*
X004115Y006705D01*
X004139Y006626D02*
X004156Y006626D01*
X004880Y007097D02*
X023040Y007097D01*
X023040Y007176D02*
X004880Y007176D01*
X004880Y007254D02*
X023040Y007254D01*
X023040Y007333D02*
X004880Y007333D01*
X004880Y007411D02*
X023040Y007411D01*
X023040Y007490D02*
X004880Y007490D01*
X004880Y007568D02*
X023040Y007568D01*
X023040Y007647D02*
X004880Y007647D01*
X004880Y007725D02*
X023040Y007725D01*
X023040Y007804D02*
X004880Y007804D01*
X004880Y007882D02*
X023040Y007882D01*
X023040Y007961D02*
X004880Y007961D01*
X004880Y008039D02*
X023040Y008039D01*
X023040Y008118D02*
X004880Y008118D01*
X004880Y008196D02*
X023040Y008196D01*
X023040Y008275D02*
X004880Y008275D01*
X004880Y008353D02*
X023040Y008353D01*
X023040Y008432D02*
X004880Y008432D01*
X004880Y008510D02*
X023040Y008510D01*
X023040Y008589D02*
X004880Y008589D01*
X004880Y008667D02*
X023040Y008667D01*
X023040Y008746D02*
X004880Y008746D01*
X004880Y008824D02*
X023040Y008824D01*
X023040Y008903D02*
X004880Y008903D01*
X004880Y008981D02*
X023040Y008981D01*
X023040Y009060D02*
X004880Y009060D01*
X004880Y009138D02*
X023040Y009138D01*
X023040Y009217D02*
X007770Y009217D01*
X007669Y009217D02*
X007611Y009217D01*
X007611Y009196D02*
X007611Y009592D01*
X007215Y009592D01*
X007215Y009588D01*
X007225Y009522D01*
X007246Y009458D01*
X007277Y009399D01*
X007316Y009344D01*
X007363Y009297D01*
X007417Y009258D01*
X007477Y009227D01*
X007540Y009207D01*
X007607Y009196D01*
X007611Y009196D01*
X007611Y009295D02*
X007669Y009295D01*
X007669Y009374D02*
X007611Y009374D01*
X007611Y009452D02*
X007669Y009452D01*
X007669Y009531D02*
X007611Y009531D01*
X007611Y009609D02*
X004916Y009609D01*
X004941Y009688D02*
X007220Y009688D01*
X007240Y009766D02*
X004972Y009766D01*
X005029Y009845D02*
X007277Y009845D01*
X007341Y009923D02*
X005086Y009923D01*
X005179Y010002D02*
X007450Y010002D01*
X007396Y010080D02*
X005287Y010080D01*
X005519Y010159D02*
X007317Y010159D01*
X007830Y010002D02*
X023040Y010002D01*
X023040Y010080D02*
X007884Y010080D01*
X007963Y010159D02*
X023040Y010159D01*
X023040Y010237D02*
X008007Y010237D01*
X008040Y010316D02*
X023040Y010316D01*
X023040Y010394D02*
X008045Y010394D01*
X008045Y010473D02*
X023040Y010473D01*
X023040Y010551D02*
X008019Y010551D01*
X007987Y010630D02*
X023040Y010630D01*
X023040Y010708D02*
X007913Y010708D01*
X007786Y010787D02*
X023040Y010787D01*
X023040Y010865D02*
X000280Y010865D01*
X000280Y010787D02*
X007494Y010787D01*
X007367Y010708D02*
X000280Y010708D01*
X000280Y010630D02*
X005385Y010630D01*
X005143Y010551D02*
X000280Y010551D01*
X000280Y010473D02*
X004995Y010473D01*
X005070Y010527D02*
X005070Y010527D01*
X004887Y010394D02*
X000280Y010394D01*
X000280Y010316D02*
X004779Y010316D01*
X004752Y010296D02*
X004752Y010296D01*
X004752Y010296D01*
X004709Y010237D02*
X000280Y010237D01*
X000280Y010159D02*
X004652Y010159D01*
X004595Y010080D02*
X000280Y010080D01*
X000280Y010002D02*
X004538Y010002D01*
X004503Y009923D02*
X000280Y009923D01*
X000280Y009845D02*
X004478Y009845D01*
X004452Y009766D02*
X000280Y009766D01*
X000280Y009688D02*
X004427Y009688D01*
X004401Y009609D02*
X000280Y009609D01*
X000280Y009531D02*
X004400Y009531D01*
X004400Y009452D02*
X000280Y009452D01*
X000280Y009374D02*
X004400Y009374D01*
X004400Y009295D02*
X000280Y009295D01*
X000280Y009217D02*
X004400Y009217D01*
X004400Y009138D02*
X000280Y009138D01*
X000280Y009060D02*
X004400Y009060D01*
X004400Y008981D02*
X000280Y008981D01*
X000280Y008903D02*
X004400Y008903D01*
X004400Y008824D02*
X000280Y008824D01*
X000280Y008746D02*
X004400Y008746D01*
X004400Y008667D02*
X000280Y008667D01*
X000280Y008589D02*
X004400Y008589D01*
X004400Y008510D02*
X000280Y008510D01*
X000280Y008432D02*
X004400Y008432D01*
X004400Y008353D02*
X000280Y008353D01*
X000280Y008275D02*
X004400Y008275D01*
X004400Y008196D02*
X000280Y008196D01*
X000280Y008118D02*
X004400Y008118D01*
X004400Y008039D02*
X000280Y008039D01*
X000280Y007961D02*
X004400Y007961D01*
X004400Y007882D02*
X000280Y007882D01*
X000280Y007804D02*
X004400Y007804D01*
X004400Y007725D02*
X000280Y007725D01*
X000280Y007647D02*
X004400Y007647D01*
X004400Y007568D02*
X000280Y007568D01*
X000280Y007490D02*
X004400Y007490D01*
X004400Y007411D02*
X000280Y007411D01*
X000280Y007333D02*
X004400Y007333D01*
X004400Y007254D02*
X000280Y007254D01*
X000280Y007176D02*
X004400Y007176D01*
X005894Y006940D02*
X006386Y006940D01*
X006362Y006930D02*
X006225Y006793D01*
X006150Y006612D01*
X006150Y006418D01*
X006225Y006237D01*
X006362Y006100D01*
X006440Y006067D01*
X006440Y005963D01*
X006362Y005930D01*
X006225Y005793D01*
X006150Y005612D01*
X006150Y005418D01*
X006225Y005237D01*
X006362Y005100D01*
X006440Y005067D01*
X006440Y004963D01*
X006362Y004930D01*
X006225Y004793D01*
X006150Y004612D01*
X006150Y004418D01*
X006225Y004237D01*
X006362Y004100D01*
X006543Y004025D01*
X006737Y004025D01*
X006918Y004100D01*
X007055Y004237D01*
X007130Y004418D01*
X007130Y004612D01*
X007055Y004793D01*
X006918Y004930D01*
X006840Y004963D01*
X006840Y005067D01*
X006918Y005100D01*
X007055Y005237D01*
X007130Y005418D01*
X007130Y005612D01*
X007055Y005793D01*
X006918Y005930D01*
X006840Y005963D01*
X006840Y006067D01*
X006918Y006100D01*
X007055Y006237D01*
X007130Y006418D01*
X007130Y006612D01*
X007055Y006793D01*
X006918Y006930D01*
X006737Y007005D01*
X006543Y007005D01*
X006362Y006930D01*
X006294Y006862D02*
X005986Y006862D01*
X006059Y006783D02*
X006221Y006783D01*
X006188Y006705D02*
X006092Y006705D01*
X006124Y006626D02*
X006156Y006626D01*
X006150Y006548D02*
X006130Y006548D01*
X006130Y006469D02*
X006150Y006469D01*
X006161Y006391D02*
X006119Y006391D01*
X006086Y006312D02*
X006194Y006312D01*
X006229Y006234D02*
X006051Y006234D01*
X005973Y006155D02*
X006307Y006155D01*
X006418Y006077D02*
X005862Y006077D01*
X005840Y005998D02*
X006440Y005998D01*
X006352Y005920D02*
X005928Y005920D01*
X006007Y005841D02*
X006273Y005841D01*
X006212Y005763D02*
X006068Y005763D01*
X006100Y005684D02*
X006180Y005684D01*
X006150Y005606D02*
X006130Y005606D01*
X006130Y005527D02*
X006150Y005527D01*
X006150Y005449D02*
X006130Y005449D01*
X006110Y005370D02*
X006170Y005370D01*
X006202Y005292D02*
X006078Y005292D01*
X006031Y005213D02*
X006249Y005213D01*
X006328Y005135D02*
X005952Y005135D01*
X005840Y005056D02*
X006440Y005056D01*
X006440Y004978D02*
X005840Y004978D01*
X005949Y004899D02*
X006331Y004899D01*
X006253Y004821D02*
X006027Y004821D01*
X006076Y004742D02*
X006204Y004742D01*
X006171Y004664D02*
X006109Y004664D01*
X006130Y004585D02*
X006150Y004585D01*
X006150Y004507D02*
X006130Y004507D01*
X006130Y004428D02*
X006150Y004428D01*
X006178Y004350D02*
X006102Y004350D01*
X006069Y004271D02*
X006211Y004271D01*
X006270Y004193D02*
X006010Y004193D01*
X005932Y004114D02*
X006348Y004114D01*
X006517Y004036D02*
X005763Y004036D01*
X006763Y004036D02*
X007517Y004036D01*
X007543Y004025D02*
X007737Y004025D01*
X007918Y004100D01*
X008055Y004237D01*
X008130Y004418D01*
X008130Y004612D01*
X008055Y004793D01*
X007918Y004930D01*
X007840Y004963D01*
X007840Y005067D01*
X007918Y005100D01*
X008055Y005237D01*
X008130Y005418D01*
X008130Y005612D01*
X008055Y005793D01*
X007918Y005930D01*
X007840Y005963D01*
X007840Y006067D01*
X007918Y006100D01*
X008055Y006237D01*
X008130Y006418D01*
X008130Y006612D01*
X008055Y006793D01*
X007918Y006930D01*
X007737Y007005D01*
X007543Y007005D01*
X007362Y006930D01*
X007225Y006793D01*
X007150Y006612D01*
X007150Y006418D01*
X007225Y006237D01*
X007362Y006100D01*
X007440Y006067D01*
X007440Y005963D01*
X007362Y005930D01*
X007225Y005793D01*
X007150Y005612D01*
X007150Y005418D01*
X007225Y005237D01*
X007362Y005100D01*
X007440Y005067D01*
X007440Y004963D01*
X007362Y004930D01*
X007225Y004793D01*
X007150Y004612D01*
X007150Y004418D01*
X007225Y004237D01*
X007362Y004100D01*
X007543Y004025D01*
X007348Y004114D02*
X006932Y004114D01*
X007010Y004193D02*
X007270Y004193D01*
X007211Y004271D02*
X007069Y004271D01*
X007102Y004350D02*
X007178Y004350D01*
X007150Y004428D02*
X007130Y004428D01*
X007130Y004507D02*
X007150Y004507D01*
X007150Y004585D02*
X007130Y004585D01*
X007109Y004664D02*
X007171Y004664D01*
X007204Y004742D02*
X007076Y004742D01*
X007027Y004821D02*
X007253Y004821D01*
X007331Y004899D02*
X006949Y004899D01*
X006840Y004978D02*
X007440Y004978D01*
X007440Y005056D02*
X006840Y005056D01*
X006952Y005135D02*
X007328Y005135D01*
X007249Y005213D02*
X007031Y005213D01*
X007078Y005292D02*
X007202Y005292D01*
X007170Y005370D02*
X007110Y005370D01*
X007130Y005449D02*
X007150Y005449D01*
X007150Y005527D02*
X007130Y005527D01*
X007130Y005606D02*
X007150Y005606D01*
X007180Y005684D02*
X007100Y005684D01*
X007068Y005763D02*
X007212Y005763D01*
X007273Y005841D02*
X007007Y005841D01*
X006928Y005920D02*
X007352Y005920D01*
X007440Y005998D02*
X006840Y005998D01*
X006862Y006077D02*
X007418Y006077D01*
X007307Y006155D02*
X006973Y006155D01*
X007051Y006234D02*
X007229Y006234D01*
X007194Y006312D02*
X007086Y006312D01*
X007119Y006391D02*
X007161Y006391D01*
X007150Y006469D02*
X007130Y006469D01*
X007130Y006548D02*
X007150Y006548D01*
X007156Y006626D02*
X007124Y006626D01*
X007092Y006705D02*
X007188Y006705D01*
X007221Y006783D02*
X007059Y006783D01*
X006986Y006862D02*
X007294Y006862D01*
X007386Y006940D02*
X006894Y006940D01*
X007894Y006940D02*
X008386Y006940D01*
X008362Y006930D02*
X008225Y006793D01*
X008150Y006612D01*
X008150Y006418D01*
X008225Y006237D01*
X008362Y006100D01*
X008440Y006067D01*
X008440Y005963D01*
X008362Y005930D01*
X008225Y005793D01*
X008150Y005612D01*
X008150Y005418D01*
X008225Y005237D01*
X008362Y005100D01*
X008440Y005067D01*
X008440Y004963D01*
X008362Y004930D01*
X008225Y004793D01*
X008150Y004612D01*
X008150Y004418D01*
X008225Y004237D01*
X008362Y004100D01*
X008543Y004025D01*
X008737Y004025D01*
X008918Y004100D01*
X009055Y004237D01*
X009130Y004418D01*
X009130Y004612D01*
X009055Y004793D01*
X008918Y004930D01*
X008840Y004963D01*
X008840Y005067D01*
X008918Y005100D01*
X009055Y005237D01*
X009130Y005418D01*
X009130Y005612D01*
X009055Y005793D01*
X008918Y005930D01*
X008840Y005963D01*
X008840Y006067D01*
X008918Y006100D01*
X009055Y006237D01*
X009130Y006418D01*
X009130Y006612D01*
X009055Y006793D01*
X008918Y006930D01*
X008737Y007005D01*
X008543Y007005D01*
X008362Y006930D01*
X008294Y006862D02*
X007986Y006862D01*
X008059Y006783D02*
X008221Y006783D01*
X008188Y006705D02*
X008092Y006705D01*
X008124Y006626D02*
X008156Y006626D01*
X008150Y006548D02*
X008130Y006548D01*
X008130Y006469D02*
X008150Y006469D01*
X008161Y006391D02*
X008119Y006391D01*
X008086Y006312D02*
X008194Y006312D01*
X008229Y006234D02*
X008051Y006234D01*
X007973Y006155D02*
X008307Y006155D01*
X008418Y006077D02*
X007862Y006077D01*
X007840Y005998D02*
X008440Y005998D01*
X008352Y005920D02*
X007928Y005920D01*
X008007Y005841D02*
X008273Y005841D01*
X008212Y005763D02*
X008068Y005763D01*
X008100Y005684D02*
X008180Y005684D01*
X008150Y005606D02*
X008130Y005606D01*
X008130Y005527D02*
X008150Y005527D01*
X008150Y005449D02*
X008130Y005449D01*
X008110Y005370D02*
X008170Y005370D01*
X008202Y005292D02*
X008078Y005292D01*
X008031Y005213D02*
X008249Y005213D01*
X008328Y005135D02*
X007952Y005135D01*
X007840Y005056D02*
X008440Y005056D01*
X008440Y004978D02*
X007840Y004978D01*
X007949Y004899D02*
X008331Y004899D01*
X008253Y004821D02*
X008027Y004821D01*
X008076Y004742D02*
X008204Y004742D01*
X008171Y004664D02*
X008109Y004664D01*
X008130Y004585D02*
X008150Y004585D01*
X008150Y004507D02*
X008130Y004507D01*
X008130Y004428D02*
X008150Y004428D01*
X008178Y004350D02*
X008102Y004350D01*
X008069Y004271D02*
X008211Y004271D01*
X008270Y004193D02*
X008010Y004193D01*
X007932Y004114D02*
X008348Y004114D01*
X008517Y004036D02*
X007763Y004036D01*
X008763Y004036D02*
X009517Y004036D01*
X009543Y004025D02*
X009737Y004025D01*
X009918Y004100D01*
X010055Y004237D01*
X010130Y004418D01*
X010130Y004612D01*
X010055Y004793D01*
X009918Y004930D01*
X009840Y004963D01*
X009840Y005067D01*
X009918Y005100D01*
X010055Y005237D01*
X010130Y005418D01*
X010130Y005612D01*
X010055Y005793D01*
X009918Y005930D01*
X009840Y005963D01*
X009840Y006067D01*
X009918Y006100D01*
X010055Y006237D01*
X010130Y006418D01*
X010130Y006612D01*
X010055Y006793D01*
X009918Y006930D01*
X009737Y007005D01*
X009543Y007005D01*
X009362Y006930D01*
X009225Y006793D01*
X009150Y006612D01*
X009150Y006418D01*
X009225Y006237D01*
X009362Y006100D01*
X009440Y006067D01*
X009440Y005963D01*
X009362Y005930D01*
X009225Y005793D01*
X009150Y005612D01*
X009150Y005418D01*
X009225Y005237D01*
X009362Y005100D01*
X009440Y005067D01*
X009440Y004963D01*
X009362Y004930D01*
X009225Y004793D01*
X009150Y004612D01*
X009150Y004418D01*
X009225Y004237D01*
X009362Y004100D01*
X009543Y004025D01*
X009348Y004114D02*
X008932Y004114D01*
X009010Y004193D02*
X009270Y004193D01*
X009211Y004271D02*
X009069Y004271D01*
X009102Y004350D02*
X009178Y004350D01*
X009150Y004428D02*
X009130Y004428D01*
X009130Y004507D02*
X009150Y004507D01*
X009150Y004585D02*
X009130Y004585D01*
X009109Y004664D02*
X009171Y004664D01*
X009204Y004742D02*
X009076Y004742D01*
X009027Y004821D02*
X009253Y004821D01*
X009331Y004899D02*
X008949Y004899D01*
X008840Y004978D02*
X009440Y004978D01*
X009440Y005056D02*
X008840Y005056D01*
X008952Y005135D02*
X009328Y005135D01*
X009249Y005213D02*
X009031Y005213D01*
X009078Y005292D02*
X009202Y005292D01*
X009170Y005370D02*
X009110Y005370D01*
X009130Y005449D02*
X009150Y005449D01*
X009150Y005527D02*
X009130Y005527D01*
X009130Y005606D02*
X009150Y005606D01*
X009180Y005684D02*
X009100Y005684D01*
X009068Y005763D02*
X009212Y005763D01*
X009273Y005841D02*
X009007Y005841D01*
X008928Y005920D02*
X009352Y005920D01*
X009440Y005998D02*
X008840Y005998D01*
X008862Y006077D02*
X009418Y006077D01*
X009307Y006155D02*
X008973Y006155D01*
X009051Y006234D02*
X009229Y006234D01*
X009194Y006312D02*
X009086Y006312D01*
X009119Y006391D02*
X009161Y006391D01*
X009150Y006469D02*
X009130Y006469D01*
X009130Y006548D02*
X009150Y006548D01*
X009156Y006626D02*
X009124Y006626D01*
X009092Y006705D02*
X009188Y006705D01*
X009221Y006783D02*
X009059Y006783D01*
X008986Y006862D02*
X009294Y006862D01*
X009386Y006940D02*
X008894Y006940D01*
X009894Y006940D02*
X010386Y006940D01*
X010362Y006930D02*
X010225Y006793D01*
X010150Y006612D01*
X010150Y006418D01*
X010225Y006237D01*
X010362Y006100D01*
X010440Y006067D01*
X010440Y005963D01*
X010362Y005930D01*
X010225Y005793D01*
X010150Y005612D01*
X010150Y005418D01*
X010225Y005237D01*
X010362Y005100D01*
X010440Y005067D01*
X010440Y004963D01*
X010362Y004930D01*
X010225Y004793D01*
X010150Y004612D01*
X010150Y004418D01*
X010225Y004237D01*
X010362Y004100D01*
X010543Y004025D01*
X010737Y004025D01*
X010918Y004100D01*
X011055Y004237D01*
X011130Y004418D01*
X011130Y004612D01*
X011055Y004793D01*
X010918Y004930D01*
X010840Y004963D01*
X010840Y005067D01*
X010918Y005100D01*
X011055Y005237D01*
X011130Y005418D01*
X011130Y005612D01*
X011055Y005793D01*
X010918Y005930D01*
X010840Y005963D01*
X010840Y006067D01*
X010918Y006100D01*
X011055Y006237D01*
X011130Y006418D01*
X011130Y006612D01*
X011055Y006793D01*
X010918Y006930D01*
X010737Y007005D01*
X010543Y007005D01*
X010362Y006930D01*
X010294Y006862D02*
X009986Y006862D01*
X010059Y006783D02*
X010221Y006783D01*
X010188Y006705D02*
X010092Y006705D01*
X010124Y006626D02*
X010156Y006626D01*
X010150Y006548D02*
X010130Y006548D01*
X010130Y006469D02*
X010150Y006469D01*
X010161Y006391D02*
X010119Y006391D01*
X010086Y006312D02*
X010194Y006312D01*
X010229Y006234D02*
X010051Y006234D01*
X009973Y006155D02*
X010307Y006155D01*
X010418Y006077D02*
X009862Y006077D01*
X009840Y005998D02*
X010440Y005998D01*
X010352Y005920D02*
X009928Y005920D01*
X010007Y005841D02*
X010273Y005841D01*
X010212Y005763D02*
X010068Y005763D01*
X010100Y005684D02*
X010180Y005684D01*
X010150Y005606D02*
X010130Y005606D01*
X010130Y005527D02*
X010150Y005527D01*
X010150Y005449D02*
X010130Y005449D01*
X010110Y005370D02*
X010170Y005370D01*
X010202Y005292D02*
X010078Y005292D01*
X010031Y005213D02*
X010249Y005213D01*
X010328Y005135D02*
X009952Y005135D01*
X009840Y005056D02*
X010440Y005056D01*
X010440Y004978D02*
X009840Y004978D01*
X009949Y004899D02*
X010331Y004899D01*
X010253Y004821D02*
X010027Y004821D01*
X010076Y004742D02*
X010204Y004742D01*
X010171Y004664D02*
X010109Y004664D01*
X010130Y004585D02*
X010150Y004585D01*
X010150Y004507D02*
X010130Y004507D01*
X010130Y004428D02*
X010150Y004428D01*
X010178Y004350D02*
X010102Y004350D01*
X010069Y004271D02*
X010211Y004271D01*
X010270Y004193D02*
X010010Y004193D01*
X009932Y004114D02*
X010348Y004114D01*
X010517Y004036D02*
X009763Y004036D01*
X010763Y004036D02*
X011517Y004036D01*
X011543Y004025D02*
X011737Y004025D01*
X011918Y004100D01*
X012055Y004237D01*
X012130Y004418D01*
X012130Y004612D01*
X012055Y004793D01*
X011918Y004930D01*
X011840Y004963D01*
X011840Y005067D01*
X011918Y005100D01*
X012055Y005237D01*
X012130Y005418D01*
X012130Y005612D01*
X012055Y005793D01*
X011918Y005930D01*
X011840Y005963D01*
X011840Y006067D01*
X011918Y006100D01*
X012055Y006237D01*
X012130Y006418D01*
X012130Y006612D01*
X012055Y006793D01*
X011918Y006930D01*
X011737Y007005D01*
X011543Y007005D01*
X011362Y006930D01*
X011225Y006793D01*
X011150Y006612D01*
X011150Y006418D01*
X011225Y006237D01*
X011362Y006100D01*
X011440Y006067D01*
X011440Y005963D01*
X011362Y005930D01*
X011225Y005793D01*
X011150Y005612D01*
X011150Y005418D01*
X011225Y005237D01*
X011362Y005100D01*
X011440Y005067D01*
X011440Y004963D01*
X011362Y004930D01*
X011225Y004793D01*
X011150Y004612D01*
X011150Y004418D01*
X011225Y004237D01*
X011362Y004100D01*
X011543Y004025D01*
X011348Y004114D02*
X010932Y004114D01*
X011010Y004193D02*
X011270Y004193D01*
X011211Y004271D02*
X011069Y004271D01*
X011102Y004350D02*
X011178Y004350D01*
X011150Y004428D02*
X011130Y004428D01*
X011130Y004507D02*
X011150Y004507D01*
X011150Y004585D02*
X011130Y004585D01*
X011109Y004664D02*
X011171Y004664D01*
X011204Y004742D02*
X011076Y004742D01*
X011027Y004821D02*
X011253Y004821D01*
X011331Y004899D02*
X010949Y004899D01*
X010840Y004978D02*
X011440Y004978D01*
X011440Y005056D02*
X010840Y005056D01*
X010952Y005135D02*
X011328Y005135D01*
X011249Y005213D02*
X011031Y005213D01*
X011078Y005292D02*
X011202Y005292D01*
X011170Y005370D02*
X011110Y005370D01*
X011130Y005449D02*
X011150Y005449D01*
X011150Y005527D02*
X011130Y005527D01*
X011130Y005606D02*
X011150Y005606D01*
X011180Y005684D02*
X011100Y005684D01*
X011068Y005763D02*
X011212Y005763D01*
X011273Y005841D02*
X011007Y005841D01*
X010928Y005920D02*
X011352Y005920D01*
X011440Y005998D02*
X010840Y005998D01*
X010862Y006077D02*
X011418Y006077D01*
X011307Y006155D02*
X010973Y006155D01*
X011051Y006234D02*
X011229Y006234D01*
X011194Y006312D02*
X011086Y006312D01*
X011119Y006391D02*
X011161Y006391D01*
X011150Y006469D02*
X011130Y006469D01*
X011130Y006548D02*
X011150Y006548D01*
X011156Y006626D02*
X011124Y006626D01*
X011092Y006705D02*
X011188Y006705D01*
X011221Y006783D02*
X011059Y006783D01*
X010986Y006862D02*
X011294Y006862D01*
X011386Y006940D02*
X010894Y006940D01*
X011894Y006940D02*
X012386Y006940D01*
X012362Y006930D02*
X012225Y006793D01*
X012150Y006612D01*
X012150Y006418D01*
X012225Y006237D01*
X012362Y006100D01*
X012440Y006067D01*
X012440Y005963D01*
X012362Y005930D01*
X012225Y005793D01*
X012150Y005612D01*
X012150Y005418D01*
X012225Y005237D01*
X012362Y005100D01*
X012440Y005067D01*
X012440Y004963D01*
X012362Y004930D01*
X012225Y004793D01*
X012150Y004612D01*
X012150Y004418D01*
X012225Y004237D01*
X012362Y004100D01*
X012543Y004025D01*
X012737Y004025D01*
X012918Y004100D01*
X013055Y004237D01*
X013130Y004418D01*
X013130Y004612D01*
X013055Y004793D01*
X012918Y004930D01*
X012840Y004963D01*
X012840Y005067D01*
X012918Y005100D01*
X013055Y005237D01*
X013130Y005418D01*
X013130Y005612D01*
X013055Y005793D01*
X012918Y005930D01*
X012840Y005963D01*
X012840Y006067D01*
X012918Y006100D01*
X013055Y006237D01*
X013130Y006418D01*
X013130Y006612D01*
X013055Y006793D01*
X012918Y006930D01*
X012737Y007005D01*
X012543Y007005D01*
X012362Y006930D01*
X012294Y006862D02*
X011986Y006862D01*
X012059Y006783D02*
X012221Y006783D01*
X012188Y006705D02*
X012092Y006705D01*
X012124Y006626D02*
X012156Y006626D01*
X012150Y006548D02*
X012130Y006548D01*
X012130Y006469D02*
X012150Y006469D01*
X012161Y006391D02*
X012119Y006391D01*
X012086Y006312D02*
X012194Y006312D01*
X012229Y006234D02*
X012051Y006234D01*
X011973Y006155D02*
X012307Y006155D01*
X012418Y006077D02*
X011862Y006077D01*
X011840Y005998D02*
X012440Y005998D01*
X012352Y005920D02*
X011928Y005920D01*
X012007Y005841D02*
X012273Y005841D01*
X012212Y005763D02*
X012068Y005763D01*
X012100Y005684D02*
X012180Y005684D01*
X012150Y005606D02*
X012130Y005606D01*
X012130Y005527D02*
X012150Y005527D01*
X012150Y005449D02*
X012130Y005449D01*
X012110Y005370D02*
X012170Y005370D01*
X012202Y005292D02*
X012078Y005292D01*
X012031Y005213D02*
X012249Y005213D01*
X012328Y005135D02*
X011952Y005135D01*
X011840Y005056D02*
X012440Y005056D01*
X012440Y004978D02*
X011840Y004978D01*
X011949Y004899D02*
X012331Y004899D01*
X012253Y004821D02*
X012027Y004821D01*
X012076Y004742D02*
X012204Y004742D01*
X012171Y004664D02*
X012109Y004664D01*
X012130Y004585D02*
X012150Y004585D01*
X012150Y004507D02*
X012130Y004507D01*
X012130Y004428D02*
X012150Y004428D01*
X012178Y004350D02*
X012102Y004350D01*
X012069Y004271D02*
X012211Y004271D01*
X012270Y004193D02*
X012010Y004193D01*
X011932Y004114D02*
X012348Y004114D01*
X012517Y004036D02*
X011763Y004036D01*
X012763Y004036D02*
X013517Y004036D01*
X013543Y004025D02*
X013737Y004025D01*
X013918Y004100D01*
X014055Y004237D01*
X014130Y004418D01*
X014130Y004612D01*
X014055Y004793D01*
X013918Y004930D01*
X013840Y004963D01*
X013840Y005067D01*
X013918Y005100D01*
X014055Y005237D01*
X014130Y005418D01*
X014130Y005612D01*
X014055Y005793D01*
X013918Y005930D01*
X013840Y005963D01*
X013840Y006067D01*
X013918Y006100D01*
X014055Y006237D01*
X014130Y006418D01*
X014130Y006612D01*
X014055Y006793D01*
X013918Y006930D01*
X013737Y007005D01*
X013543Y007005D01*
X013362Y006930D01*
X013225Y006793D01*
X013150Y006612D01*
X013150Y006418D01*
X013225Y006237D01*
X013362Y006100D01*
X013440Y006067D01*
X013440Y005963D01*
X013362Y005930D01*
X013225Y005793D01*
X013150Y005612D01*
X013150Y005418D01*
X013225Y005237D01*
X013362Y005100D01*
X013440Y005067D01*
X013440Y004963D01*
X013362Y004930D01*
X013225Y004793D01*
X013150Y004612D01*
X013150Y004418D01*
X013225Y004237D01*
X013362Y004100D01*
X013543Y004025D01*
X013348Y004114D02*
X012932Y004114D01*
X013010Y004193D02*
X013270Y004193D01*
X013211Y004271D02*
X013069Y004271D01*
X013102Y004350D02*
X013178Y004350D01*
X013150Y004428D02*
X013130Y004428D01*
X013130Y004507D02*
X013150Y004507D01*
X013150Y004585D02*
X013130Y004585D01*
X013109Y004664D02*
X013171Y004664D01*
X013204Y004742D02*
X013076Y004742D01*
X013027Y004821D02*
X013253Y004821D01*
X013331Y004899D02*
X012949Y004899D01*
X012840Y004978D02*
X013440Y004978D01*
X013440Y005056D02*
X012840Y005056D01*
X012952Y005135D02*
X013328Y005135D01*
X013249Y005213D02*
X013031Y005213D01*
X013078Y005292D02*
X013202Y005292D01*
X013170Y005370D02*
X013110Y005370D01*
X013130Y005449D02*
X013150Y005449D01*
X013150Y005527D02*
X013130Y005527D01*
X013130Y005606D02*
X013150Y005606D01*
X013180Y005684D02*
X013100Y005684D01*
X013068Y005763D02*
X013212Y005763D01*
X013273Y005841D02*
X013007Y005841D01*
X012928Y005920D02*
X013352Y005920D01*
X013440Y005998D02*
X012840Y005998D01*
X012862Y006077D02*
X013418Y006077D01*
X013307Y006155D02*
X012973Y006155D01*
X013051Y006234D02*
X013229Y006234D01*
X013194Y006312D02*
X013086Y006312D01*
X013119Y006391D02*
X013161Y006391D01*
X013150Y006469D02*
X013130Y006469D01*
X013130Y006548D02*
X013150Y006548D01*
X013156Y006626D02*
X013124Y006626D01*
X013092Y006705D02*
X013188Y006705D01*
X013221Y006783D02*
X013059Y006783D01*
X012986Y006862D02*
X013294Y006862D01*
X013386Y006940D02*
X012894Y006940D01*
X013894Y006940D02*
X014386Y006940D01*
X014362Y006930D02*
X014225Y006793D01*
X014150Y006612D01*
X014150Y006418D01*
X014225Y006237D01*
X014362Y006100D01*
X014440Y006067D01*
X014440Y005963D01*
X014362Y005930D01*
X014225Y005793D01*
X014150Y005612D01*
X014150Y005418D01*
X014225Y005237D01*
X014362Y005100D01*
X014440Y005067D01*
X014440Y004963D01*
X014362Y004930D01*
X014225Y004793D01*
X014150Y004612D01*
X014150Y004418D01*
X014225Y004237D01*
X014362Y004100D01*
X014543Y004025D01*
X014737Y004025D01*
X014918Y004100D01*
X015055Y004237D01*
X015130Y004418D01*
X015130Y004612D01*
X015055Y004793D01*
X014918Y004930D01*
X014840Y004963D01*
X014840Y005067D01*
X014918Y005100D01*
X015055Y005237D01*
X015130Y005418D01*
X015130Y005612D01*
X015055Y005793D01*
X014918Y005930D01*
X014840Y005963D01*
X014840Y006067D01*
X014918Y006100D01*
X015055Y006237D01*
X015130Y006418D01*
X015130Y006612D01*
X015055Y006793D01*
X014918Y006930D01*
X014737Y007005D01*
X014543Y007005D01*
X014362Y006930D01*
X014294Y006862D02*
X013986Y006862D01*
X014059Y006783D02*
X014221Y006783D01*
X014188Y006705D02*
X014092Y006705D01*
X014124Y006626D02*
X014156Y006626D01*
X014150Y006548D02*
X014130Y006548D01*
X014130Y006469D02*
X014150Y006469D01*
X014161Y006391D02*
X014119Y006391D01*
X014086Y006312D02*
X014194Y006312D01*
X014229Y006234D02*
X014051Y006234D01*
X013973Y006155D02*
X014307Y006155D01*
X014418Y006077D02*
X013862Y006077D01*
X013840Y005998D02*
X014440Y005998D01*
X014352Y005920D02*
X013928Y005920D01*
X014007Y005841D02*
X014273Y005841D01*
X014212Y005763D02*
X014068Y005763D01*
X014100Y005684D02*
X014180Y005684D01*
X014150Y005606D02*
X014130Y005606D01*
X014130Y005527D02*
X014150Y005527D01*
X014150Y005449D02*
X014130Y005449D01*
X014110Y005370D02*
X014170Y005370D01*
X014202Y005292D02*
X014078Y005292D01*
X014031Y005213D02*
X014249Y005213D01*
X014328Y005135D02*
X013952Y005135D01*
X013840Y005056D02*
X014440Y005056D01*
X014440Y004978D02*
X013840Y004978D01*
X013949Y004899D02*
X014331Y004899D01*
X014253Y004821D02*
X014027Y004821D01*
X014076Y004742D02*
X014204Y004742D01*
X014171Y004664D02*
X014109Y004664D01*
X014130Y004585D02*
X014150Y004585D01*
X014150Y004507D02*
X014130Y004507D01*
X014130Y004428D02*
X014150Y004428D01*
X014178Y004350D02*
X014102Y004350D01*
X014069Y004271D02*
X014211Y004271D01*
X014270Y004193D02*
X014010Y004193D01*
X013932Y004114D02*
X014348Y004114D01*
X014517Y004036D02*
X013763Y004036D01*
X014763Y004036D02*
X015517Y004036D01*
X015543Y004025D02*
X015737Y004025D01*
X015918Y004100D01*
X016055Y004237D01*
X016130Y004418D01*
X016130Y004612D01*
X016055Y004793D01*
X015918Y004930D01*
X015840Y004963D01*
X015840Y005067D01*
X015918Y005100D01*
X016055Y005237D01*
X016130Y005418D01*
X016130Y005612D01*
X016055Y005793D01*
X015918Y005930D01*
X015840Y005963D01*
X015840Y006067D01*
X015918Y006100D01*
X016055Y006237D01*
X016130Y006418D01*
X016130Y006612D01*
X016055Y006793D01*
X015918Y006930D01*
X015737Y007005D01*
X015543Y007005D01*
X015362Y006930D01*
X015225Y006793D01*
X015150Y006612D01*
X015150Y006418D01*
X015225Y006237D01*
X015362Y006100D01*
X015440Y006067D01*
X015440Y005963D01*
X015362Y005930D01*
X015225Y005793D01*
X015150Y005612D01*
X015150Y005418D01*
X015225Y005237D01*
X015362Y005100D01*
X015440Y005067D01*
X015440Y004963D01*
X015362Y004930D01*
X015225Y004793D01*
X015150Y004612D01*
X015150Y004418D01*
X015225Y004237D01*
X015362Y004100D01*
X015543Y004025D01*
X015348Y004114D02*
X014932Y004114D01*
X015010Y004193D02*
X015270Y004193D01*
X015211Y004271D02*
X015069Y004271D01*
X015102Y004350D02*
X015178Y004350D01*
X015150Y004428D02*
X015130Y004428D01*
X015130Y004507D02*
X015150Y004507D01*
X015150Y004585D02*
X015130Y004585D01*
X015109Y004664D02*
X015171Y004664D01*
X015204Y004742D02*
X015076Y004742D01*
X015027Y004821D02*
X015253Y004821D01*
X015331Y004899D02*
X014949Y004899D01*
X014840Y004978D02*
X015440Y004978D01*
X015440Y005056D02*
X014840Y005056D01*
X014952Y005135D02*
X015328Y005135D01*
X015249Y005213D02*
X015031Y005213D01*
X015078Y005292D02*
X015202Y005292D01*
X015170Y005370D02*
X015110Y005370D01*
X015130Y005449D02*
X015150Y005449D01*
X015150Y005527D02*
X015130Y005527D01*
X015130Y005606D02*
X015150Y005606D01*
X015180Y005684D02*
X015100Y005684D01*
X015068Y005763D02*
X015212Y005763D01*
X015273Y005841D02*
X015007Y005841D01*
X014928Y005920D02*
X015352Y005920D01*
X015440Y005998D02*
X014840Y005998D01*
X014862Y006077D02*
X015418Y006077D01*
X015307Y006155D02*
X014973Y006155D01*
X015051Y006234D02*
X015229Y006234D01*
X015194Y006312D02*
X015086Y006312D01*
X015119Y006391D02*
X015161Y006391D01*
X015150Y006469D02*
X015130Y006469D01*
X015130Y006548D02*
X015150Y006548D01*
X015156Y006626D02*
X015124Y006626D01*
X015092Y006705D02*
X015188Y006705D01*
X015221Y006783D02*
X015059Y006783D01*
X014986Y006862D02*
X015294Y006862D01*
X015386Y006940D02*
X014894Y006940D01*
X015894Y006940D02*
X016386Y006940D01*
X016362Y006930D02*
X016225Y006793D01*
X016150Y006612D01*
X016150Y006418D01*
X016225Y006237D01*
X016362Y006100D01*
X016440Y006067D01*
X016440Y005963D01*
X016362Y005930D01*
X016225Y005793D01*
X016150Y005612D01*
X016150Y005418D01*
X016225Y005237D01*
X016362Y005100D01*
X016440Y005067D01*
X016440Y004963D01*
X016362Y004930D01*
X016225Y004793D01*
X016150Y004612D01*
X016150Y004418D01*
X016225Y004237D01*
X016362Y004100D01*
X016543Y004025D01*
X016737Y004025D01*
X016918Y004100D01*
X017055Y004237D01*
X017130Y004418D01*
X017130Y004612D01*
X017055Y004793D01*
X016918Y004930D01*
X016840Y004963D01*
X016840Y005067D01*
X016918Y005100D01*
X017055Y005237D01*
X017130Y005418D01*
X017130Y005612D01*
X017055Y005793D01*
X016918Y005930D01*
X016840Y005963D01*
X016840Y006067D01*
X016918Y006100D01*
X017055Y006237D01*
X017130Y006418D01*
X017130Y006612D01*
X017055Y006793D01*
X016918Y006930D01*
X016737Y007005D01*
X016543Y007005D01*
X016362Y006930D01*
X016294Y006862D02*
X015986Y006862D01*
X016059Y006783D02*
X016221Y006783D01*
X016188Y006705D02*
X016092Y006705D01*
X016124Y006626D02*
X016156Y006626D01*
X016150Y006548D02*
X016130Y006548D01*
X016130Y006469D02*
X016150Y006469D01*
X016161Y006391D02*
X016119Y006391D01*
X016086Y006312D02*
X016194Y006312D01*
X016229Y006234D02*
X016051Y006234D01*
X015973Y006155D02*
X016307Y006155D01*
X016418Y006077D02*
X015862Y006077D01*
X015840Y005998D02*
X016440Y005998D01*
X016352Y005920D02*
X015928Y005920D01*
X016007Y005841D02*
X016273Y005841D01*
X016212Y005763D02*
X016068Y005763D01*
X016100Y005684D02*
X016180Y005684D01*
X016150Y005606D02*
X016130Y005606D01*
X016130Y005527D02*
X016150Y005527D01*
X016150Y005449D02*
X016130Y005449D01*
X016110Y005370D02*
X016170Y005370D01*
X016202Y005292D02*
X016078Y005292D01*
X016031Y005213D02*
X016249Y005213D01*
X016328Y005135D02*
X015952Y005135D01*
X015840Y005056D02*
X016440Y005056D01*
X016440Y004978D02*
X015840Y004978D01*
X015949Y004899D02*
X016331Y004899D01*
X016253Y004821D02*
X016027Y004821D01*
X016076Y004742D02*
X016204Y004742D01*
X016171Y004664D02*
X016109Y004664D01*
X016130Y004585D02*
X016150Y004585D01*
X016150Y004507D02*
X016130Y004507D01*
X016130Y004428D02*
X016150Y004428D01*
X016178Y004350D02*
X016102Y004350D01*
X016069Y004271D02*
X016211Y004271D01*
X016270Y004193D02*
X016010Y004193D01*
X015932Y004114D02*
X016348Y004114D01*
X016517Y004036D02*
X015763Y004036D01*
X016763Y004036D02*
X017517Y004036D01*
X017543Y004025D02*
X017737Y004025D01*
X017918Y004100D01*
X018055Y004237D01*
X018130Y004418D01*
X018130Y004612D01*
X018055Y004793D01*
X017918Y004930D01*
X017840Y004963D01*
X017840Y005067D01*
X017918Y005100D01*
X018055Y005237D01*
X018130Y005418D01*
X018130Y005612D01*
X018055Y005793D01*
X017918Y005930D01*
X017840Y005963D01*
X017840Y006067D01*
X017918Y006100D01*
X018055Y006237D01*
X018130Y006418D01*
X018130Y006612D01*
X018055Y006793D01*
X017918Y006930D01*
X017737Y007005D01*
X017543Y007005D01*
X017362Y006930D01*
X017225Y006793D01*
X017150Y006612D01*
X017150Y006418D01*
X017225Y006237D01*
X017362Y006100D01*
X017440Y006067D01*
X017440Y005963D01*
X017362Y005930D01*
X017225Y005793D01*
X017150Y005612D01*
X017150Y005418D01*
X017225Y005237D01*
X017362Y005100D01*
X017440Y005067D01*
X017440Y004963D01*
X017362Y004930D01*
X017225Y004793D01*
X017150Y004612D01*
X017150Y004418D01*
X017225Y004237D01*
X017362Y004100D01*
X017543Y004025D01*
X017348Y004114D02*
X016932Y004114D01*
X017010Y004193D02*
X017270Y004193D01*
X017211Y004271D02*
X017069Y004271D01*
X017102Y004350D02*
X017178Y004350D01*
X017150Y004428D02*
X017130Y004428D01*
X017130Y004507D02*
X017150Y004507D01*
X017150Y004585D02*
X017130Y004585D01*
X017109Y004664D02*
X017171Y004664D01*
X017204Y004742D02*
X017076Y004742D01*
X017027Y004821D02*
X017253Y004821D01*
X017331Y004899D02*
X016949Y004899D01*
X016840Y004978D02*
X017440Y004978D01*
X017440Y005056D02*
X016840Y005056D01*
X016952Y005135D02*
X017328Y005135D01*
X017249Y005213D02*
X017031Y005213D01*
X017078Y005292D02*
X017202Y005292D01*
X017170Y005370D02*
X017110Y005370D01*
X017130Y005449D02*
X017150Y005449D01*
X017150Y005527D02*
X017130Y005527D01*
X017130Y005606D02*
X017150Y005606D01*
X017180Y005684D02*
X017100Y005684D01*
X017068Y005763D02*
X017212Y005763D01*
X017273Y005841D02*
X017007Y005841D01*
X016928Y005920D02*
X017352Y005920D01*
X017440Y005998D02*
X016840Y005998D01*
X016862Y006077D02*
X017418Y006077D01*
X017307Y006155D02*
X016973Y006155D01*
X017051Y006234D02*
X017229Y006234D01*
X017194Y006312D02*
X017086Y006312D01*
X017119Y006391D02*
X017161Y006391D01*
X017150Y006469D02*
X017130Y006469D01*
X017130Y006548D02*
X017150Y006548D01*
X017156Y006626D02*
X017124Y006626D01*
X017092Y006705D02*
X017188Y006705D01*
X017221Y006783D02*
X017059Y006783D01*
X016986Y006862D02*
X017294Y006862D01*
X017386Y006940D02*
X016894Y006940D01*
X017894Y006940D02*
X018386Y006940D01*
X018362Y006930D02*
X018225Y006793D01*
X018150Y006612D01*
X018150Y006418D01*
X018225Y006237D01*
X018362Y006100D01*
X018440Y006067D01*
X018440Y005963D01*
X018362Y005930D01*
X018225Y005793D01*
X018150Y005612D01*
X018150Y005418D01*
X018225Y005237D01*
X018362Y005100D01*
X018440Y005067D01*
X018440Y004963D01*
X018362Y004930D01*
X018225Y004793D01*
X018150Y004612D01*
X018150Y004418D01*
X018225Y004237D01*
X018362Y004100D01*
X018543Y004025D01*
X018737Y004025D01*
X018918Y004100D01*
X019055Y004237D01*
X019130Y004418D01*
X019130Y004612D01*
X019055Y004793D01*
X018918Y004930D01*
X018840Y004963D01*
X018840Y005067D01*
X018918Y005100D01*
X019055Y005237D01*
X019130Y005418D01*
X019130Y005612D01*
X019055Y005793D01*
X018918Y005930D01*
X018840Y005963D01*
X018840Y006067D01*
X018918Y006100D01*
X019055Y006237D01*
X019130Y006418D01*
X019130Y006612D01*
X019055Y006793D01*
X018918Y006930D01*
X018737Y007005D01*
X018543Y007005D01*
X018362Y006930D01*
X018294Y006862D02*
X017986Y006862D01*
X018059Y006783D02*
X018221Y006783D01*
X018188Y006705D02*
X018092Y006705D01*
X018124Y006626D02*
X018156Y006626D01*
X018150Y006548D02*
X018130Y006548D01*
X018130Y006469D02*
X018150Y006469D01*
X018161Y006391D02*
X018119Y006391D01*
X018086Y006312D02*
X018194Y006312D01*
X018229Y006234D02*
X018051Y006234D01*
X017973Y006155D02*
X018307Y006155D01*
X018418Y006077D02*
X017862Y006077D01*
X017840Y005998D02*
X018440Y005998D01*
X018352Y005920D02*
X017928Y005920D01*
X018007Y005841D02*
X018273Y005841D01*
X018212Y005763D02*
X018068Y005763D01*
X018100Y005684D02*
X018180Y005684D01*
X018150Y005606D02*
X018130Y005606D01*
X018130Y005527D02*
X018150Y005527D01*
X018150Y005449D02*
X018130Y005449D01*
X018110Y005370D02*
X018170Y005370D01*
X018202Y005292D02*
X018078Y005292D01*
X018031Y005213D02*
X018249Y005213D01*
X018328Y005135D02*
X017952Y005135D01*
X017840Y005056D02*
X018440Y005056D01*
X018440Y004978D02*
X017840Y004978D01*
X017949Y004899D02*
X018331Y004899D01*
X018253Y004821D02*
X018027Y004821D01*
X018076Y004742D02*
X018204Y004742D01*
X018171Y004664D02*
X018109Y004664D01*
X018130Y004585D02*
X018150Y004585D01*
X018150Y004507D02*
X018130Y004507D01*
X018130Y004428D02*
X018150Y004428D01*
X018178Y004350D02*
X018102Y004350D01*
X018069Y004271D02*
X018211Y004271D01*
X018270Y004193D02*
X018010Y004193D01*
X017932Y004114D02*
X018348Y004114D01*
X018517Y004036D02*
X017763Y004036D01*
X018763Y004036D02*
X019517Y004036D01*
X019543Y004025D02*
X019737Y004025D01*
X019918Y004100D01*
X020055Y004237D01*
X020130Y004418D01*
X020130Y004612D01*
X020055Y004793D01*
X019918Y004930D01*
X019840Y004963D01*
X019840Y005067D01*
X019918Y005100D01*
X020055Y005237D01*
X020130Y005418D01*
X020130Y005612D01*
X020055Y005793D01*
X019918Y005930D01*
X019840Y005963D01*
X019840Y006067D01*
X019918Y006100D01*
X020055Y006237D01*
X020130Y006418D01*
X020130Y006612D01*
X020055Y006793D01*
X019918Y006930D01*
X019737Y007005D01*
X019543Y007005D01*
X019362Y006930D01*
X019225Y006793D01*
X019150Y006612D01*
X019150Y006418D01*
X019225Y006237D01*
X019362Y006100D01*
X019440Y006067D01*
X019440Y005963D01*
X019362Y005930D01*
X019225Y005793D01*
X019150Y005612D01*
X019150Y005418D01*
X019225Y005237D01*
X019362Y005100D01*
X019440Y005067D01*
X019440Y004963D01*
X019362Y004930D01*
X019225Y004793D01*
X019150Y004612D01*
X019150Y004418D01*
X019225Y004237D01*
X019362Y004100D01*
X019543Y004025D01*
X019348Y004114D02*
X018932Y004114D01*
X019010Y004193D02*
X019270Y004193D01*
X019211Y004271D02*
X019069Y004271D01*
X019102Y004350D02*
X019178Y004350D01*
X019150Y004428D02*
X019130Y004428D01*
X019130Y004507D02*
X019150Y004507D01*
X019150Y004585D02*
X019130Y004585D01*
X019109Y004664D02*
X019171Y004664D01*
X019204Y004742D02*
X019076Y004742D01*
X019027Y004821D02*
X019253Y004821D01*
X019331Y004899D02*
X018949Y004899D01*
X018840Y004978D02*
X019440Y004978D01*
X019440Y005056D02*
X018840Y005056D01*
X018952Y005135D02*
X019328Y005135D01*
X019249Y005213D02*
X019031Y005213D01*
X019078Y005292D02*
X019202Y005292D01*
X019170Y005370D02*
X019110Y005370D01*
X019130Y005449D02*
X019150Y005449D01*
X019150Y005527D02*
X019130Y005527D01*
X019130Y005606D02*
X019150Y005606D01*
X019180Y005684D02*
X019100Y005684D01*
X019068Y005763D02*
X019212Y005763D01*
X019273Y005841D02*
X019007Y005841D01*
X018928Y005920D02*
X019352Y005920D01*
X019440Y005998D02*
X018840Y005998D01*
X018862Y006077D02*
X019418Y006077D01*
X019307Y006155D02*
X018973Y006155D01*
X019051Y006234D02*
X019229Y006234D01*
X019194Y006312D02*
X019086Y006312D01*
X019119Y006391D02*
X019161Y006391D01*
X019150Y006469D02*
X019130Y006469D01*
X019130Y006548D02*
X019150Y006548D01*
X019156Y006626D02*
X019124Y006626D01*
X019092Y006705D02*
X019188Y006705D01*
X019221Y006783D02*
X019059Y006783D01*
X018986Y006862D02*
X019294Y006862D01*
X019386Y006940D02*
X018894Y006940D01*
X019894Y006940D02*
X020386Y006940D01*
X020294Y006862D02*
X019986Y006862D01*
X020059Y006783D02*
X020221Y006783D01*
X020188Y006705D02*
X020092Y006705D01*
X020124Y006626D02*
X020156Y006626D01*
X020150Y006548D02*
X020130Y006548D01*
X020130Y006469D02*
X020150Y006469D01*
X020161Y006391D02*
X020119Y006391D01*
X020086Y006312D02*
X020194Y006312D01*
X020229Y006234D02*
X020051Y006234D01*
X019973Y006155D02*
X020307Y006155D01*
X020418Y006077D02*
X019862Y006077D01*
X019840Y005998D02*
X020440Y005998D01*
X020352Y005920D02*
X019928Y005920D01*
X020007Y005841D02*
X020273Y005841D01*
X020212Y005763D02*
X020068Y005763D01*
X020100Y005684D02*
X020180Y005684D01*
X020150Y005606D02*
X020130Y005606D01*
X020130Y005527D02*
X020150Y005527D01*
X020150Y005449D02*
X020130Y005449D01*
X020110Y005370D02*
X020170Y005370D01*
X020202Y005292D02*
X020078Y005292D01*
X020031Y005213D02*
X020249Y005213D01*
X020328Y005135D02*
X019952Y005135D01*
X019840Y005056D02*
X020440Y005056D01*
X020440Y004978D02*
X019840Y004978D01*
X019949Y004899D02*
X020331Y004899D01*
X020253Y004821D02*
X020027Y004821D01*
X020076Y004742D02*
X020204Y004742D01*
X020171Y004664D02*
X020109Y004664D01*
X020130Y004585D02*
X020150Y004585D01*
X020150Y004507D02*
X020130Y004507D01*
X020130Y004428D02*
X020150Y004428D01*
X020178Y004350D02*
X020102Y004350D01*
X020069Y004271D02*
X020211Y004271D01*
X020270Y004193D02*
X020010Y004193D01*
X019932Y004114D02*
X020348Y004114D01*
X020517Y004036D02*
X019763Y004036D01*
X022130Y005606D02*
X022130Y005606D01*
X022130Y005684D02*
X022100Y005684D01*
X022130Y005763D02*
X022068Y005763D01*
X022007Y005841D02*
X022130Y005841D01*
X022134Y005920D02*
X021928Y005920D01*
X021840Y005998D02*
X022186Y005998D01*
X022148Y006077D02*
X021862Y006077D01*
X021973Y006155D02*
X022130Y006155D01*
X022130Y006234D02*
X022051Y006234D01*
X022086Y006312D02*
X022130Y006312D01*
X022119Y006391D02*
X022130Y006391D01*
X022130Y006469D02*
X022130Y006469D01*
X022600Y006469D02*
X022680Y006469D01*
X022680Y006391D02*
X022600Y006391D01*
X022600Y006312D02*
X022680Y006312D01*
X022680Y006234D02*
X022600Y006234D01*
X022600Y006155D02*
X022680Y006155D01*
X022680Y006077D02*
X022600Y006077D01*
X022600Y005998D02*
X022680Y005998D01*
X022680Y005920D02*
X022600Y005920D01*
X022600Y005841D02*
X022680Y005841D01*
X022680Y005763D02*
X022600Y005763D01*
X022600Y005684D02*
X022680Y005684D01*
X022680Y005606D02*
X022600Y005606D01*
X023040Y009295D02*
X007914Y009295D01*
X007985Y009374D02*
X023040Y009374D01*
X023040Y009452D02*
X008031Y009452D01*
X008056Y009531D02*
X023040Y009531D01*
X023040Y009609D02*
X007669Y009609D01*
X008060Y009688D02*
X023040Y009688D01*
X023040Y009766D02*
X008040Y009766D01*
X008003Y009845D02*
X023040Y009845D01*
X023040Y009923D02*
X007939Y009923D01*
X007224Y009531D02*
X004890Y009531D01*
X004883Y009452D02*
X007249Y009452D01*
X007295Y009374D02*
X004880Y009374D01*
X004880Y009295D02*
X007366Y009295D01*
X007510Y009217D02*
X004880Y009217D01*
X000280Y010944D02*
X023040Y010944D01*
X023040Y011022D02*
X000280Y011022D01*
X000280Y011101D02*
X023040Y011101D01*
X023040Y011179D02*
X000280Y011179D01*
X000280Y011258D02*
X023040Y011258D01*
X023040Y011336D02*
X000280Y011336D01*
X000280Y011415D02*
X023040Y011415D01*
X023040Y011493D02*
X000280Y011493D01*
X000280Y011572D02*
X023040Y011572D01*
X023040Y011650D02*
X000280Y011650D01*
X000280Y011729D02*
X023040Y011729D01*
X023040Y011807D02*
X000280Y011807D01*
X000280Y011886D02*
X023040Y011886D01*
X023040Y011964D02*
X000280Y011964D01*
X000280Y012043D02*
X023040Y012043D01*
X023040Y012121D02*
X000280Y012121D01*
X000280Y012200D02*
X023040Y012200D01*
X023040Y012278D02*
X000280Y012278D01*
X000280Y012357D02*
X023040Y012357D01*
X023040Y012435D02*
X000280Y012435D01*
X000280Y012514D02*
X023040Y012514D01*
X023040Y012592D02*
X000280Y012592D01*
X000280Y012671D02*
X023040Y012671D01*
X023040Y012749D02*
X000280Y012749D01*
X000280Y012828D02*
X023040Y012828D01*
X023040Y012906D02*
X000280Y012906D01*
X000280Y012985D02*
X023040Y012985D01*
X023040Y013063D02*
X022876Y013063D01*
X022988Y013142D02*
X023040Y013142D01*
X022680Y013142D02*
X022600Y013142D01*
X022600Y013220D02*
X022680Y013220D01*
X022680Y013299D02*
X022600Y013299D01*
X022600Y013377D02*
X022680Y013377D01*
X022680Y013456D02*
X022600Y013456D01*
X022600Y013534D02*
X022130Y013534D01*
X022130Y013555D02*
X022130Y013555D01*
X022130Y013612D02*
X022055Y013793D01*
X021918Y013930D01*
X021840Y013963D01*
X021840Y014067D01*
X021918Y014100D01*
X022055Y014237D01*
X022130Y014418D01*
X022130Y014612D01*
X022055Y014793D01*
X021918Y014930D01*
X021840Y014963D01*
X021840Y015067D01*
X021918Y015100D01*
X022055Y015237D01*
X022130Y015418D01*
X022139Y015418D01*
X022130Y015418D02*
X022130Y015612D01*
X022055Y015793D01*
X021918Y015930D01*
X021737Y016005D01*
X021543Y016005D01*
X021362Y015930D01*
X021225Y015793D01*
X021150Y015612D01*
X021150Y015418D01*
X021130Y015418D01*
X021130Y015612D01*
X021055Y015793D01*
X020918Y015930D01*
X020737Y016005D01*
X020543Y016005D01*
X020362Y015930D01*
X020225Y015793D01*
X020150Y015612D01*
X020150Y015418D01*
X020130Y015418D01*
X020130Y015612D01*
X020055Y015793D01*
X019918Y015930D01*
X019737Y016005D01*
X019543Y016005D01*
X019362Y015930D01*
X019225Y015793D01*
X019150Y015612D01*
X019150Y015418D01*
X019130Y015418D01*
X019130Y015612D01*
X019055Y015793D01*
X018918Y015930D01*
X018737Y016005D01*
X018543Y016005D01*
X018362Y015930D01*
X018225Y015793D01*
X018150Y015612D01*
X018150Y015418D01*
X018130Y015418D01*
X018130Y015612D01*
X018055Y015793D01*
X017918Y015930D01*
X017737Y016005D01*
X017543Y016005D01*
X017362Y015930D01*
X017225Y015793D01*
X017150Y015612D01*
X017150Y015418D01*
X017130Y015418D01*
X017130Y015612D01*
X017055Y015793D01*
X016918Y015930D01*
X016737Y016005D01*
X016543Y016005D01*
X016362Y015930D01*
X016225Y015793D01*
X016150Y015612D01*
X016150Y015418D01*
X016130Y015418D01*
X016055Y015237D01*
X015918Y015100D01*
X015840Y015067D01*
X015840Y014963D01*
X015918Y014930D01*
X016055Y014793D01*
X016130Y014612D01*
X016130Y014418D01*
X016055Y014237D01*
X015918Y014100D01*
X015840Y014067D01*
X015840Y013963D01*
X015918Y013930D01*
X016055Y013793D01*
X016130Y013612D01*
X016130Y013418D01*
X016055Y013237D01*
X015918Y013100D01*
X015737Y013025D01*
X015543Y013025D01*
X015362Y013100D01*
X015225Y013237D01*
X015150Y013418D01*
X015150Y013612D01*
X015225Y013793D01*
X015362Y013930D01*
X015440Y013963D01*
X015440Y014067D01*
X015362Y014100D01*
X015225Y014237D01*
X015150Y014418D01*
X015150Y014612D01*
X015225Y014793D01*
X015362Y014930D01*
X015440Y014963D01*
X015440Y015067D01*
X015362Y015100D01*
X015225Y015237D01*
X015150Y015418D01*
X015130Y015418D01*
X015130Y015612D01*
X015055Y015793D01*
X014918Y015930D01*
X014737Y016005D01*
X014543Y016005D01*
X014362Y015930D01*
X014225Y015793D01*
X014150Y015612D01*
X014150Y015418D01*
X014130Y015418D01*
X014055Y015237D01*
X013918Y015100D01*
X013840Y015067D01*
X013840Y014963D01*
X013918Y014930D01*
X014055Y014793D01*
X014130Y014612D01*
X014130Y014418D01*
X014055Y014237D01*
X013918Y014100D01*
X013840Y014067D01*
X013840Y013963D01*
X013918Y013930D01*
X014055Y013793D01*
X014130Y013612D01*
X014130Y013418D01*
X014055Y013237D01*
X013918Y013100D01*
X013737Y013025D01*
X013543Y013025D01*
X013362Y013100D01*
X013225Y013237D01*
X013150Y013418D01*
X013150Y013612D01*
X013225Y013793D01*
X013362Y013930D01*
X013440Y013963D01*
X013440Y014067D01*
X013362Y014100D01*
X013225Y014237D01*
X013150Y014418D01*
X013150Y014612D01*
X013225Y014793D01*
X013362Y014930D01*
X013440Y014963D01*
X013440Y015067D01*
X013362Y015100D01*
X013225Y015237D01*
X013150Y015418D01*
X013130Y015418D01*
X013130Y015612D01*
X013055Y015793D01*
X012918Y015930D01*
X012737Y016005D01*
X012543Y016005D01*
X012362Y015930D01*
X012225Y015793D01*
X012150Y015612D01*
X012150Y015418D01*
X012130Y015418D01*
X012055Y015237D01*
X011918Y015100D01*
X011840Y015067D01*
X011840Y014963D01*
X011918Y014930D01*
X012055Y014793D01*
X012130Y014612D01*
X012130Y014418D01*
X012055Y014237D01*
X011918Y014100D01*
X011840Y014067D01*
X011840Y013963D01*
X011918Y013930D01*
X012055Y013793D01*
X012130Y013612D01*
X012130Y013418D01*
X012055Y013237D01*
X011918Y013100D01*
X011737Y013025D01*
X011543Y013025D01*
X011362Y013100D01*
X011225Y013237D01*
X011150Y013418D01*
X011150Y013612D01*
X011225Y013793D01*
X011362Y013930D01*
X011440Y013963D01*
X011440Y014067D01*
X011362Y014100D01*
X011225Y014237D01*
X011150Y014418D01*
X011150Y014612D01*
X011225Y014793D01*
X011362Y014930D01*
X011440Y014963D01*
X011440Y015067D01*
X011362Y015100D01*
X011225Y015237D01*
X011150Y015418D01*
X011130Y015418D01*
X011130Y015612D01*
X011055Y015793D01*
X010918Y015930D01*
X010737Y016005D01*
X010543Y016005D01*
X010362Y015930D01*
X010225Y015793D01*
X010150Y015612D01*
X010150Y015418D01*
X010130Y015418D01*
X010055Y015237D01*
X009918Y015100D01*
X009840Y015067D01*
X009840Y014963D01*
X009918Y014930D01*
X010055Y014793D01*
X010130Y014612D01*
X010130Y014418D01*
X010055Y014237D01*
X009918Y014100D01*
X009840Y014067D01*
X009840Y013963D01*
X009918Y013930D01*
X010055Y013793D01*
X010130Y013612D01*
X010130Y013418D01*
X010055Y013237D01*
X009918Y013100D01*
X009737Y013025D01*
X009543Y013025D01*
X009362Y013100D01*
X009225Y013237D01*
X009150Y013418D01*
X009150Y013612D01*
X009225Y013793D01*
X009362Y013930D01*
X009440Y013963D01*
X009440Y014067D01*
X009362Y014100D01*
X009225Y014237D01*
X009150Y014418D01*
X009150Y014612D01*
X009225Y014793D01*
X009362Y014930D01*
X009440Y014963D01*
X009440Y015067D01*
X009362Y015100D01*
X009225Y015237D01*
X009150Y015418D01*
X009130Y015418D01*
X009055Y015237D01*
X008918Y015100D01*
X008840Y015067D01*
X008840Y014963D01*
X008918Y014930D01*
X009055Y014793D01*
X009130Y014612D01*
X009130Y014418D01*
X009055Y014237D01*
X008918Y014100D01*
X008840Y014067D01*
X008840Y013963D01*
X008918Y013930D01*
X009055Y013793D01*
X009130Y013612D01*
X009130Y013418D01*
X009055Y013237D01*
X008918Y013100D01*
X008737Y013025D01*
X008543Y013025D01*
X008362Y013100D01*
X008225Y013237D01*
X008150Y013418D01*
X008150Y013612D01*
X008225Y013793D01*
X008362Y013930D01*
X008440Y013963D01*
X008440Y014067D01*
X008362Y014100D01*
X008225Y014237D01*
X008150Y014418D01*
X008150Y014612D01*
X008225Y014793D01*
X008362Y014930D01*
X008440Y014963D01*
X008440Y015067D01*
X008362Y015100D01*
X008225Y015237D01*
X008150Y015418D01*
X008130Y015418D01*
X008055Y015237D01*
X007918Y015100D01*
X007840Y015067D01*
X007840Y014963D01*
X007918Y014930D01*
X008055Y014793D01*
X008130Y014612D01*
X008130Y014418D01*
X008055Y014237D01*
X007918Y014100D01*
X007840Y014067D01*
X007840Y013963D01*
X007918Y013930D01*
X008055Y013793D01*
X008130Y013612D01*
X008130Y013418D01*
X008055Y013237D01*
X007918Y013100D01*
X007737Y013025D01*
X007543Y013025D01*
X007362Y013100D01*
X007225Y013237D01*
X007150Y013418D01*
X007150Y013612D01*
X007225Y013793D01*
X007362Y013930D01*
X007440Y013963D01*
X007440Y014067D01*
X007362Y014100D01*
X007225Y014237D01*
X007150Y014418D01*
X007150Y014612D01*
X007225Y014793D01*
X007362Y014930D01*
X007440Y014963D01*
X007440Y015067D01*
X007362Y015100D01*
X007225Y015237D01*
X007150Y015418D01*
X007130Y015418D01*
X007130Y015612D01*
X007055Y015793D01*
X006918Y015930D01*
X006737Y016005D01*
X006543Y016005D01*
X006362Y015930D01*
X006225Y015793D01*
X006150Y015612D01*
X006150Y015418D01*
X006130Y015418D01*
X006055Y015237D01*
X005918Y015100D01*
X005840Y015067D01*
X005840Y014963D01*
X005918Y014930D01*
X006055Y014793D01*
X006130Y014612D01*
X006130Y014418D01*
X006055Y014237D01*
X005918Y014100D01*
X005840Y014067D01*
X005840Y013963D01*
X005918Y013930D01*
X006055Y013793D01*
X006130Y013612D01*
X006130Y013418D01*
X006055Y013237D01*
X005918Y013100D01*
X005737Y013025D01*
X005543Y013025D01*
X005362Y013100D01*
X005225Y013237D01*
X005150Y013418D01*
X005150Y013612D01*
X005225Y013793D01*
X005362Y013930D01*
X005440Y013963D01*
X005440Y014067D01*
X005362Y014100D01*
X005225Y014237D01*
X005150Y014418D01*
X005150Y014612D01*
X005225Y014793D01*
X005362Y014930D01*
X005440Y014963D01*
X005440Y015067D01*
X005362Y015100D01*
X005225Y015237D01*
X005150Y015418D01*
X005130Y015418D01*
X005055Y015237D01*
X004918Y015100D01*
X004840Y015067D01*
X004840Y014963D01*
X004918Y014930D01*
X005055Y014793D01*
X005130Y014612D01*
X005130Y014418D01*
X005055Y014237D01*
X004918Y014100D01*
X004840Y014067D01*
X004840Y013963D01*
X004918Y013930D01*
X005055Y013793D01*
X005130Y013612D01*
X005130Y013418D01*
X005055Y013237D01*
X004918Y013100D01*
X004737Y013025D01*
X004543Y013025D01*
X004362Y013100D01*
X004225Y013237D01*
X004150Y013418D01*
X004150Y013612D01*
X004225Y013793D01*
X004362Y013930D01*
X004440Y013963D01*
X004440Y014067D01*
X004362Y014100D01*
X004225Y014237D01*
X004150Y014418D01*
X004150Y014612D01*
X004225Y014793D01*
X004362Y014930D01*
X004440Y014963D01*
X004440Y015067D01*
X004362Y015100D01*
X004225Y015237D01*
X004150Y015418D01*
X004150Y015418D01*
X004150Y015612D01*
X004225Y015793D01*
X004362Y015930D01*
X004543Y016005D01*
X004737Y016005D01*
X004918Y015930D01*
X005055Y015793D01*
X005130Y015612D01*
X005130Y015418D01*
X005150Y015418D02*
X005150Y015612D01*
X005225Y015793D01*
X005362Y015930D01*
X005543Y016005D01*
X005737Y016005D01*
X005918Y015930D01*
X006055Y015793D01*
X006130Y015612D01*
X006130Y015418D01*
X006150Y015418D02*
X006225Y015237D01*
X006362Y015100D01*
X006440Y015067D01*
X006440Y014963D01*
X006362Y014930D01*
X006225Y014793D01*
X006150Y014612D01*
X006150Y014418D01*
X006225Y014237D01*
X006362Y014100D01*
X006440Y014067D01*
X006440Y013963D01*
X006362Y013930D01*
X006225Y013793D01*
X006150Y013612D01*
X006150Y013418D01*
X006225Y013237D01*
X006362Y013100D01*
X006543Y013025D01*
X006737Y013025D01*
X006918Y013100D01*
X007055Y013237D01*
X007130Y013418D01*
X007130Y013612D01*
X007055Y013793D01*
X006918Y013930D01*
X006840Y013963D01*
X006840Y014067D01*
X006918Y014100D01*
X007055Y014237D01*
X007130Y014418D01*
X007130Y014612D01*
X007055Y014793D01*
X006918Y014930D01*
X006840Y014963D01*
X006840Y015067D01*
X006918Y015100D01*
X007055Y015237D01*
X007130Y015418D01*
X007150Y015418D02*
X007150Y015612D01*
X007225Y015793D01*
X007362Y015930D01*
X007543Y016005D01*
X007737Y016005D01*
X007918Y015930D01*
X008055Y015793D01*
X008130Y015612D01*
X008130Y015418D01*
X008150Y015418D02*
X008150Y015612D01*
X008225Y015793D01*
X008362Y015930D01*
X008543Y016005D01*
X008737Y016005D01*
X008918Y015930D01*
X009055Y015793D01*
X009130Y015612D01*
X009130Y015418D01*
X009150Y015418D02*
X009150Y015612D01*
X009225Y015793D01*
X009362Y015930D01*
X009543Y016005D01*
X009737Y016005D01*
X009918Y015930D01*
X010055Y015793D01*
X010130Y015612D01*
X010130Y015418D01*
X010150Y015418D02*
X010225Y015237D01*
X010362Y015100D01*
X010440Y015067D01*
X010440Y014963D01*
X010362Y014930D01*
X010225Y014793D01*
X010150Y014612D01*
X010150Y014418D01*
X010225Y014237D01*
X010362Y014100D01*
X010440Y014067D01*
X010440Y013963D01*
X010362Y013930D01*
X010225Y013793D01*
X010150Y013612D01*
X010150Y013418D01*
X010225Y013237D01*
X010362Y013100D01*
X010543Y013025D01*
X010737Y013025D01*
X010918Y013100D01*
X011055Y013237D01*
X011130Y013418D01*
X011130Y013612D01*
X011055Y013793D01*
X010918Y013930D01*
X010840Y013963D01*
X010840Y014067D01*
X010918Y014100D01*
X011055Y014237D01*
X011130Y014418D01*
X011130Y014612D01*
X011055Y014793D01*
X010918Y014930D01*
X010840Y014963D01*
X010840Y015067D01*
X010918Y015100D01*
X011055Y015237D01*
X011130Y015418D01*
X011150Y015418D02*
X011150Y015612D01*
X011225Y015793D01*
X011362Y015930D01*
X011543Y016005D01*
X011737Y016005D01*
X011918Y015930D01*
X012055Y015793D01*
X012130Y015612D01*
X012130Y015418D01*
X012150Y015418D02*
X012225Y015237D01*
X012362Y015100D01*
X012440Y015067D01*
X012440Y014963D01*
X012362Y014930D01*
X012225Y014793D01*
X012150Y014612D01*
X012150Y014418D01*
X012225Y014237D01*
X012362Y014100D01*
X012440Y014067D01*
X012440Y013963D01*
X012362Y013930D01*
X012225Y013793D01*
X012150Y013612D01*
X012150Y013418D01*
X012225Y013237D01*
X012362Y013100D01*
X012543Y013025D01*
X012737Y013025D01*
X012918Y013100D01*
X013055Y013237D01*
X013130Y013418D01*
X013130Y013612D01*
X013055Y013793D01*
X012918Y013930D01*
X012840Y013963D01*
X012840Y014067D01*
X012918Y014100D01*
X013055Y014237D01*
X013130Y014418D01*
X013130Y014612D01*
X013055Y014793D01*
X012918Y014930D01*
X012840Y014963D01*
X012840Y015067D01*
X012918Y015100D01*
X013055Y015237D01*
X013130Y015418D01*
X013150Y015418D02*
X013150Y015612D01*
X013225Y015793D01*
X013362Y015930D01*
X013543Y016005D01*
X013737Y016005D01*
X013918Y015930D01*
X014055Y015793D01*
X014130Y015612D01*
X014130Y015418D01*
X014150Y015418D02*
X014225Y015237D01*
X014362Y015100D01*
X014440Y015067D01*
X014440Y014963D01*
X014362Y014930D01*
X014225Y014793D01*
X014150Y014612D01*
X014150Y014418D01*
X014225Y014237D01*
X014362Y014100D01*
X014440Y014067D01*
X014440Y013963D01*
X014362Y013930D01*
X014225Y013793D01*
X014150Y013612D01*
X014150Y013418D01*
X014225Y013237D01*
X014362Y013100D01*
X014543Y013025D01*
X014737Y013025D01*
X014918Y013100D01*
X015055Y013237D01*
X015130Y013418D01*
X015130Y013612D01*
X015055Y013793D01*
X014918Y013930D01*
X014840Y013963D01*
X014840Y014067D01*
X014918Y014100D01*
X015055Y014237D01*
X015130Y014418D01*
X015130Y014612D01*
X015055Y014793D01*
X014918Y014930D01*
X014840Y014963D01*
X014840Y015067D01*
X014918Y015100D01*
X015055Y015237D01*
X015130Y015418D01*
X015150Y015418D02*
X015150Y015612D01*
X015225Y015793D01*
X015362Y015930D01*
X015543Y016005D01*
X015737Y016005D01*
X015918Y015930D01*
X016055Y015793D01*
X016130Y015612D01*
X016130Y015418D01*
X016150Y015418D02*
X016225Y015237D01*
X016362Y015100D01*
X016440Y015067D01*
X016440Y014963D01*
X016362Y014930D01*
X016225Y014793D01*
X016150Y014612D01*
X016150Y014418D01*
X016225Y014237D01*
X016362Y014100D01*
X016440Y014067D01*
X016440Y013963D01*
X016362Y013930D01*
X016225Y013793D01*
X016150Y013612D01*
X016150Y013418D01*
X016225Y013237D01*
X016362Y013100D01*
X016543Y013025D01*
X016737Y013025D01*
X016918Y013100D01*
X017055Y013237D01*
X017130Y013418D01*
X017130Y013612D01*
X017055Y013793D01*
X016918Y013930D01*
X016840Y013963D01*
X016840Y014067D01*
X016918Y014100D01*
X017055Y014237D01*
X017130Y014418D01*
X017130Y014612D01*
X017055Y014793D01*
X016918Y014930D01*
X016840Y014963D01*
X016840Y015067D01*
X016918Y015100D01*
X017055Y015237D01*
X017130Y015418D01*
X017150Y015418D02*
X017225Y015237D01*
X017362Y015100D01*
X017440Y015067D01*
X017440Y014963D01*
X017362Y014930D01*
X017225Y014793D01*
X017150Y014612D01*
X017150Y014418D01*
X017225Y014237D01*
X017362Y014100D01*
X017440Y014067D01*
X017440Y013963D01*
X017362Y013930D01*
X017225Y013793D01*
X017150Y013612D01*
X017150Y013418D01*
X017225Y013237D01*
X017362Y013100D01*
X017543Y013025D01*
X017737Y013025D01*
X017918Y013100D01*
X018055Y013237D01*
X018130Y013418D01*
X018130Y013612D01*
X018055Y013793D01*
X017918Y013930D01*
X017840Y013963D01*
X017840Y014067D01*
X017918Y014100D01*
X018055Y014237D01*
X018130Y014418D01*
X018130Y014612D01*
X018055Y014793D01*
X017918Y014930D01*
X017840Y014963D01*
X017840Y015067D01*
X017918Y015100D01*
X018055Y015237D01*
X018130Y015418D01*
X018150Y015418D02*
X018225Y015237D01*
X018362Y015100D01*
X018440Y015067D01*
X018440Y014963D01*
X018362Y014930D01*
X018225Y014793D01*
X018150Y014612D01*
X018150Y014418D01*
X018225Y014237D01*
X018362Y014100D01*
X018440Y014067D01*
X018440Y013963D01*
X018362Y013930D01*
X018225Y013793D01*
X018150Y013612D01*
X018150Y013418D01*
X018225Y013237D01*
X018362Y013100D01*
X018543Y013025D01*
X018737Y013025D01*
X018918Y013100D01*
X019055Y013237D01*
X019130Y013418D01*
X019130Y013612D01*
X019055Y013793D01*
X018918Y013930D01*
X018840Y013963D01*
X018840Y014067D01*
X018918Y014100D01*
X019055Y014237D01*
X019130Y014418D01*
X019130Y014612D01*
X019055Y014793D01*
X018918Y014930D01*
X018840Y014963D01*
X018840Y015067D01*
X018918Y015100D01*
X019055Y015237D01*
X019130Y015418D01*
X019150Y015418D02*
X019225Y015237D01*
X019362Y015100D01*
X019440Y015067D01*
X019440Y014963D01*
X019362Y014930D01*
X019225Y014793D01*
X019150Y014612D01*
X019150Y014418D01*
X019225Y014237D01*
X019362Y014100D01*
X019440Y014067D01*
X019440Y013963D01*
X019362Y013930D01*
X019225Y013793D01*
X019150Y013612D01*
X019150Y013418D01*
X019225Y013237D01*
X019362Y013100D01*
X019543Y013025D01*
X019737Y013025D01*
X019918Y013100D01*
X020055Y013237D01*
X020130Y013418D01*
X020130Y013612D01*
X020055Y013793D01*
X019918Y013930D01*
X019840Y013963D01*
X019840Y014067D01*
X019918Y014100D01*
X020055Y014237D01*
X020130Y014418D01*
X020130Y014612D01*
X020055Y014793D01*
X019918Y014930D01*
X019840Y014963D01*
X019840Y015067D01*
X019918Y015100D01*
X020055Y015237D01*
X020130Y015418D01*
X020150Y015418D02*
X020225Y015237D01*
X020362Y015100D01*
X020440Y015067D01*
X020440Y014963D01*
X020362Y014930D01*
X020225Y014793D01*
X020150Y014612D01*
X020150Y014418D01*
X020225Y014237D01*
X020362Y014100D01*
X020440Y014067D01*
X020440Y013963D01*
X020362Y013930D01*
X020225Y013793D01*
X020150Y013612D01*
X020150Y013418D01*
X020225Y013237D01*
X020362Y013100D01*
X020543Y013025D01*
X020737Y013025D01*
X020918Y013100D01*
X021055Y013237D01*
X021130Y013418D01*
X021130Y013612D01*
X021055Y013793D01*
X020918Y013930D01*
X020840Y013963D01*
X020840Y014067D01*
X020918Y014100D01*
X021055Y014237D01*
X021130Y014418D01*
X021130Y014612D01*
X021055Y014793D01*
X020918Y014930D01*
X020840Y014963D01*
X020840Y015067D01*
X020918Y015100D01*
X021055Y015237D01*
X021130Y015418D01*
X021150Y015418D02*
X021225Y015237D01*
X021362Y015100D01*
X021440Y015067D01*
X021440Y014963D01*
X021362Y014930D01*
X021225Y014793D01*
X021150Y014612D01*
X021150Y014418D01*
X021225Y014237D01*
X021362Y014100D01*
X021440Y014067D01*
X021440Y013963D01*
X021362Y013930D01*
X021225Y013793D01*
X021150Y013612D01*
X021150Y013418D01*
X021225Y013237D01*
X021362Y013100D01*
X021543Y013025D01*
X021737Y013025D01*
X021918Y013100D01*
X022055Y013237D01*
X022130Y013418D01*
X022130Y013612D01*
X022130Y013613D02*
X022139Y013613D01*
X022161Y013691D02*
X022097Y013691D01*
X022065Y013770D02*
X022197Y013770D01*
X022252Y013848D02*
X022000Y013848D01*
X021921Y013927D02*
X022339Y013927D01*
X022366Y014084D02*
X021879Y014084D01*
X021840Y014005D02*
X022498Y014005D01*
X022600Y014005D02*
X022680Y014005D01*
X022680Y013927D02*
X022600Y013927D01*
X022600Y013848D02*
X022680Y013848D01*
X022680Y013770D02*
X022600Y013770D01*
X022600Y013691D02*
X022680Y013691D01*
X022680Y013613D02*
X022600Y013613D01*
X022133Y013456D02*
X022130Y013456D01*
X022113Y013377D02*
X022149Y013377D01*
X022178Y013299D02*
X022081Y013299D01*
X022038Y013220D02*
X022224Y013220D01*
X022292Y013142D02*
X021959Y013142D01*
X021829Y013063D02*
X022404Y013063D01*
X022600Y013063D02*
X022680Y013063D01*
X022600Y013005D02*
X022600Y013005D01*
X021451Y013063D02*
X020829Y013063D01*
X020959Y013142D02*
X021321Y013142D01*
X021242Y013220D02*
X021038Y013220D01*
X021081Y013299D02*
X021199Y013299D01*
X021167Y013377D02*
X021113Y013377D01*
X021130Y013456D02*
X021150Y013456D01*
X021150Y013534D02*
X021130Y013534D01*
X021130Y013613D02*
X021150Y013613D01*
X021183Y013691D02*
X021097Y013691D01*
X021065Y013770D02*
X021215Y013770D01*
X021280Y013848D02*
X021000Y013848D01*
X020921Y013927D02*
X021359Y013927D01*
X021440Y014005D02*
X020840Y014005D01*
X020879Y014084D02*
X021401Y014084D01*
X021300Y014162D02*
X020980Y014162D01*
X021057Y014241D02*
X021223Y014241D01*
X021191Y014319D02*
X021089Y014319D01*
X021122Y014398D02*
X021158Y014398D01*
X021150Y014476D02*
X021130Y014476D01*
X021130Y014555D02*
X021150Y014555D01*
X021159Y014633D02*
X021121Y014633D01*
X021089Y014712D02*
X021191Y014712D01*
X021224Y014790D02*
X021056Y014790D01*
X020979Y014869D02*
X021301Y014869D01*
X021403Y014947D02*
X020877Y014947D01*
X020840Y015026D02*
X021440Y015026D01*
X021358Y015104D02*
X020922Y015104D01*
X021001Y015183D02*
X021279Y015183D01*
X021215Y015261D02*
X021065Y015261D01*
X021098Y015340D02*
X021182Y015340D01*
X021150Y015497D02*
X021130Y015497D01*
X021130Y015575D02*
X021150Y015575D01*
X021167Y015654D02*
X021113Y015654D01*
X021080Y015732D02*
X021200Y015732D01*
X021243Y015811D02*
X021037Y015811D01*
X020959Y015889D02*
X021321Y015889D01*
X021452Y015968D02*
X020828Y015968D01*
X020452Y015968D02*
X019828Y015968D01*
X019959Y015889D02*
X020321Y015889D01*
X020243Y015811D02*
X020037Y015811D01*
X020080Y015732D02*
X020200Y015732D01*
X020167Y015654D02*
X020113Y015654D01*
X020130Y015575D02*
X020150Y015575D01*
X020150Y015497D02*
X020130Y015497D01*
X020098Y015340D02*
X020182Y015340D01*
X020215Y015261D02*
X020065Y015261D01*
X020001Y015183D02*
X020279Y015183D01*
X020358Y015104D02*
X019922Y015104D01*
X019840Y015026D02*
X020440Y015026D01*
X020403Y014947D02*
X019877Y014947D01*
X019979Y014869D02*
X020301Y014869D01*
X020224Y014790D02*
X020056Y014790D01*
X020089Y014712D02*
X020191Y014712D01*
X020159Y014633D02*
X020121Y014633D01*
X020130Y014555D02*
X020150Y014555D01*
X020150Y014476D02*
X020130Y014476D01*
X020122Y014398D02*
X020158Y014398D01*
X020191Y014319D02*
X020089Y014319D01*
X020057Y014241D02*
X020223Y014241D01*
X020300Y014162D02*
X019980Y014162D01*
X019879Y014084D02*
X020401Y014084D01*
X020440Y014005D02*
X019840Y014005D01*
X019921Y013927D02*
X020359Y013927D01*
X020280Y013848D02*
X020000Y013848D01*
X020065Y013770D02*
X020215Y013770D01*
X020183Y013691D02*
X020097Y013691D01*
X020130Y013613D02*
X020150Y013613D01*
X020150Y013534D02*
X020130Y013534D01*
X020130Y013456D02*
X020150Y013456D01*
X020167Y013377D02*
X020113Y013377D01*
X020081Y013299D02*
X020199Y013299D01*
X020242Y013220D02*
X020038Y013220D01*
X019959Y013142D02*
X020321Y013142D01*
X020451Y013063D02*
X019829Y013063D01*
X019451Y013063D02*
X018829Y013063D01*
X018959Y013142D02*
X019321Y013142D01*
X019242Y013220D02*
X019038Y013220D01*
X019081Y013299D02*
X019199Y013299D01*
X019167Y013377D02*
X019113Y013377D01*
X019130Y013456D02*
X019150Y013456D01*
X019150Y013534D02*
X019130Y013534D01*
X019130Y013613D02*
X019150Y013613D01*
X019183Y013691D02*
X019097Y013691D01*
X019065Y013770D02*
X019215Y013770D01*
X019280Y013848D02*
X019000Y013848D01*
X018921Y013927D02*
X019359Y013927D01*
X019440Y014005D02*
X018840Y014005D01*
X018879Y014084D02*
X019401Y014084D01*
X019300Y014162D02*
X018980Y014162D01*
X019057Y014241D02*
X019223Y014241D01*
X019191Y014319D02*
X019089Y014319D01*
X019122Y014398D02*
X019158Y014398D01*
X019150Y014476D02*
X019130Y014476D01*
X019130Y014555D02*
X019150Y014555D01*
X019159Y014633D02*
X019121Y014633D01*
X019089Y014712D02*
X019191Y014712D01*
X019224Y014790D02*
X019056Y014790D01*
X018979Y014869D02*
X019301Y014869D01*
X019403Y014947D02*
X018877Y014947D01*
X018840Y015026D02*
X019440Y015026D01*
X019358Y015104D02*
X018922Y015104D01*
X019001Y015183D02*
X019279Y015183D01*
X019215Y015261D02*
X019065Y015261D01*
X019098Y015340D02*
X019182Y015340D01*
X019150Y015497D02*
X019130Y015497D01*
X019130Y015575D02*
X019150Y015575D01*
X019167Y015654D02*
X019113Y015654D01*
X019080Y015732D02*
X019200Y015732D01*
X019243Y015811D02*
X019037Y015811D01*
X018959Y015889D02*
X019321Y015889D01*
X019452Y015968D02*
X018828Y015968D01*
X018452Y015968D02*
X017828Y015968D01*
X017959Y015889D02*
X018321Y015889D01*
X018243Y015811D02*
X018037Y015811D01*
X018080Y015732D02*
X018200Y015732D01*
X018167Y015654D02*
X018113Y015654D01*
X018130Y015575D02*
X018150Y015575D01*
X018150Y015497D02*
X018130Y015497D01*
X018098Y015340D02*
X018182Y015340D01*
X018215Y015261D02*
X018065Y015261D01*
X018001Y015183D02*
X018279Y015183D01*
X018358Y015104D02*
X017922Y015104D01*
X017840Y015026D02*
X018440Y015026D01*
X018403Y014947D02*
X017877Y014947D01*
X017979Y014869D02*
X018301Y014869D01*
X018224Y014790D02*
X018056Y014790D01*
X018089Y014712D02*
X018191Y014712D01*
X018159Y014633D02*
X018121Y014633D01*
X018130Y014555D02*
X018150Y014555D01*
X018150Y014476D02*
X018130Y014476D01*
X018122Y014398D02*
X018158Y014398D01*
X018191Y014319D02*
X018089Y014319D01*
X018057Y014241D02*
X018223Y014241D01*
X018300Y014162D02*
X017980Y014162D01*
X017879Y014084D02*
X018401Y014084D01*
X018440Y014005D02*
X017840Y014005D01*
X017921Y013927D02*
X018359Y013927D01*
X018280Y013848D02*
X018000Y013848D01*
X018065Y013770D02*
X018215Y013770D01*
X018183Y013691D02*
X018097Y013691D01*
X018130Y013613D02*
X018150Y013613D01*
X018150Y013534D02*
X018130Y013534D01*
X018130Y013456D02*
X018150Y013456D01*
X018167Y013377D02*
X018113Y013377D01*
X018081Y013299D02*
X018199Y013299D01*
X018242Y013220D02*
X018038Y013220D01*
X017959Y013142D02*
X018321Y013142D01*
X018451Y013063D02*
X017829Y013063D01*
X017451Y013063D02*
X016829Y013063D01*
X016959Y013142D02*
X017321Y013142D01*
X017242Y013220D02*
X017038Y013220D01*
X017081Y013299D02*
X017199Y013299D01*
X017167Y013377D02*
X017113Y013377D01*
X017130Y013456D02*
X017150Y013456D01*
X017150Y013534D02*
X017130Y013534D01*
X017130Y013613D02*
X017150Y013613D01*
X017183Y013691D02*
X017097Y013691D01*
X017065Y013770D02*
X017215Y013770D01*
X017280Y013848D02*
X017000Y013848D01*
X016921Y013927D02*
X017359Y013927D01*
X017440Y014005D02*
X016840Y014005D01*
X016879Y014084D02*
X017401Y014084D01*
X017300Y014162D02*
X016980Y014162D01*
X017057Y014241D02*
X017223Y014241D01*
X017191Y014319D02*
X017089Y014319D01*
X017122Y014398D02*
X017158Y014398D01*
X017150Y014476D02*
X017130Y014476D01*
X017130Y014555D02*
X017150Y014555D01*
X017159Y014633D02*
X017121Y014633D01*
X017089Y014712D02*
X017191Y014712D01*
X017224Y014790D02*
X017056Y014790D01*
X016979Y014869D02*
X017301Y014869D01*
X017403Y014947D02*
X016877Y014947D01*
X016840Y015026D02*
X017440Y015026D01*
X017358Y015104D02*
X016922Y015104D01*
X017001Y015183D02*
X017279Y015183D01*
X017215Y015261D02*
X017065Y015261D01*
X017098Y015340D02*
X017182Y015340D01*
X017150Y015497D02*
X017130Y015497D01*
X017130Y015575D02*
X017150Y015575D01*
X017167Y015654D02*
X017113Y015654D01*
X017080Y015732D02*
X017200Y015732D01*
X017243Y015811D02*
X017037Y015811D01*
X016959Y015889D02*
X017321Y015889D01*
X017452Y015968D02*
X016828Y015968D01*
X016452Y015968D02*
X015828Y015968D01*
X015959Y015889D02*
X016321Y015889D01*
X016243Y015811D02*
X016037Y015811D01*
X016080Y015732D02*
X016200Y015732D01*
X016167Y015654D02*
X016113Y015654D01*
X016130Y015575D02*
X016150Y015575D01*
X016150Y015497D02*
X016130Y015497D01*
X016098Y015340D02*
X016182Y015340D01*
X016215Y015261D02*
X016065Y015261D01*
X016001Y015183D02*
X016279Y015183D01*
X016358Y015104D02*
X015922Y015104D01*
X015840Y015026D02*
X016440Y015026D01*
X016403Y014947D02*
X015877Y014947D01*
X015979Y014869D02*
X016301Y014869D01*
X016224Y014790D02*
X016056Y014790D01*
X016089Y014712D02*
X016191Y014712D01*
X016159Y014633D02*
X016121Y014633D01*
X016130Y014555D02*
X016150Y014555D01*
X016150Y014476D02*
X016130Y014476D01*
X016122Y014398D02*
X016158Y014398D01*
X016191Y014319D02*
X016089Y014319D01*
X016057Y014241D02*
X016223Y014241D01*
X016300Y014162D02*
X015980Y014162D01*
X015879Y014084D02*
X016401Y014084D01*
X016440Y014005D02*
X015840Y014005D01*
X015921Y013927D02*
X016359Y013927D01*
X016280Y013848D02*
X016000Y013848D01*
X016065Y013770D02*
X016215Y013770D01*
X016183Y013691D02*
X016097Y013691D01*
X016130Y013613D02*
X016150Y013613D01*
X016150Y013534D02*
X016130Y013534D01*
X016130Y013456D02*
X016150Y013456D01*
X016167Y013377D02*
X016113Y013377D01*
X016081Y013299D02*
X016199Y013299D01*
X016242Y013220D02*
X016038Y013220D01*
X015959Y013142D02*
X016321Y013142D01*
X016451Y013063D02*
X015829Y013063D01*
X015451Y013063D02*
X014829Y013063D01*
X014959Y013142D02*
X015321Y013142D01*
X015242Y013220D02*
X015038Y013220D01*
X015081Y013299D02*
X015199Y013299D01*
X015167Y013377D02*
X015113Y013377D01*
X015130Y013456D02*
X015150Y013456D01*
X015150Y013534D02*
X015130Y013534D01*
X015130Y013613D02*
X015150Y013613D01*
X015183Y013691D02*
X015097Y013691D01*
X015065Y013770D02*
X015215Y013770D01*
X015280Y013848D02*
X015000Y013848D01*
X014921Y013927D02*
X015359Y013927D01*
X015440Y014005D02*
X014840Y014005D01*
X014879Y014084D02*
X015401Y014084D01*
X015300Y014162D02*
X014980Y014162D01*
X015057Y014241D02*
X015223Y014241D01*
X015191Y014319D02*
X015089Y014319D01*
X015122Y014398D02*
X015158Y014398D01*
X015150Y014476D02*
X015130Y014476D01*
X015130Y014555D02*
X015150Y014555D01*
X015159Y014633D02*
X015121Y014633D01*
X015089Y014712D02*
X015191Y014712D01*
X015224Y014790D02*
X015056Y014790D01*
X014979Y014869D02*
X015301Y014869D01*
X015403Y014947D02*
X014877Y014947D01*
X014840Y015026D02*
X015440Y015026D01*
X015358Y015104D02*
X014922Y015104D01*
X015001Y015183D02*
X015279Y015183D01*
X015215Y015261D02*
X015065Y015261D01*
X015098Y015340D02*
X015182Y015340D01*
X015150Y015497D02*
X015130Y015497D01*
X015130Y015575D02*
X015150Y015575D01*
X015167Y015654D02*
X015113Y015654D01*
X015080Y015732D02*
X015200Y015732D01*
X015243Y015811D02*
X015037Y015811D01*
X014959Y015889D02*
X015321Y015889D01*
X015452Y015968D02*
X014828Y015968D01*
X014452Y015968D02*
X013828Y015968D01*
X013959Y015889D02*
X014321Y015889D01*
X014243Y015811D02*
X014037Y015811D01*
X014080Y015732D02*
X014200Y015732D01*
X014167Y015654D02*
X014113Y015654D01*
X014130Y015575D02*
X014150Y015575D01*
X014150Y015497D02*
X014130Y015497D01*
X014098Y015340D02*
X014182Y015340D01*
X014215Y015261D02*
X014065Y015261D01*
X014001Y015183D02*
X014279Y015183D01*
X014358Y015104D02*
X013922Y015104D01*
X013840Y015026D02*
X014440Y015026D01*
X014403Y014947D02*
X013877Y014947D01*
X013979Y014869D02*
X014301Y014869D01*
X014224Y014790D02*
X014056Y014790D01*
X014089Y014712D02*
X014191Y014712D01*
X014159Y014633D02*
X014121Y014633D01*
X014130Y014555D02*
X014150Y014555D01*
X014150Y014476D02*
X014130Y014476D01*
X014122Y014398D02*
X014158Y014398D01*
X014191Y014319D02*
X014089Y014319D01*
X014057Y014241D02*
X014223Y014241D01*
X014300Y014162D02*
X013980Y014162D01*
X013879Y014084D02*
X014401Y014084D01*
X014440Y014005D02*
X013840Y014005D01*
X013921Y013927D02*
X014359Y013927D01*
X014280Y013848D02*
X014000Y013848D01*
X014065Y013770D02*
X014215Y013770D01*
X014183Y013691D02*
X014097Y013691D01*
X014130Y013613D02*
X014150Y013613D01*
X014150Y013534D02*
X014130Y013534D01*
X014130Y013456D02*
X014150Y013456D01*
X014167Y013377D02*
X014113Y013377D01*
X014081Y013299D02*
X014199Y013299D01*
X014242Y013220D02*
X014038Y013220D01*
X013959Y013142D02*
X014321Y013142D01*
X014451Y013063D02*
X013829Y013063D01*
X013451Y013063D02*
X012829Y013063D01*
X012959Y013142D02*
X013321Y013142D01*
X013242Y013220D02*
X013038Y013220D01*
X013081Y013299D02*
X013199Y013299D01*
X013167Y013377D02*
X013113Y013377D01*
X013130Y013456D02*
X013150Y013456D01*
X013150Y013534D02*
X013130Y013534D01*
X013130Y013613D02*
X013150Y013613D01*
X013183Y013691D02*
X013097Y013691D01*
X013065Y013770D02*
X013215Y013770D01*
X013280Y013848D02*
X013000Y013848D01*
X012921Y013927D02*
X013359Y013927D01*
X013440Y014005D02*
X012840Y014005D01*
X012879Y014084D02*
X013401Y014084D01*
X013300Y014162D02*
X012980Y014162D01*
X013057Y014241D02*
X013223Y014241D01*
X013191Y014319D02*
X013089Y014319D01*
X013122Y014398D02*
X013158Y014398D01*
X013150Y014476D02*
X013130Y014476D01*
X013130Y014555D02*
X013150Y014555D01*
X013159Y014633D02*
X013121Y014633D01*
X013089Y014712D02*
X013191Y014712D01*
X013224Y014790D02*
X013056Y014790D01*
X012979Y014869D02*
X013301Y014869D01*
X013403Y014947D02*
X012877Y014947D01*
X012840Y015026D02*
X013440Y015026D01*
X013358Y015104D02*
X012922Y015104D01*
X013001Y015183D02*
X013279Y015183D01*
X013215Y015261D02*
X013065Y015261D01*
X013098Y015340D02*
X013182Y015340D01*
X013150Y015497D02*
X013130Y015497D01*
X013130Y015575D02*
X013150Y015575D01*
X013167Y015654D02*
X013113Y015654D01*
X013080Y015732D02*
X013200Y015732D01*
X013243Y015811D02*
X013037Y015811D01*
X012959Y015889D02*
X013321Y015889D01*
X013452Y015968D02*
X012828Y015968D01*
X012452Y015968D02*
X011828Y015968D01*
X011959Y015889D02*
X012321Y015889D01*
X012243Y015811D02*
X012037Y015811D01*
X012080Y015732D02*
X012200Y015732D01*
X012167Y015654D02*
X012113Y015654D01*
X012130Y015575D02*
X012150Y015575D01*
X012150Y015497D02*
X012130Y015497D01*
X012098Y015340D02*
X012182Y015340D01*
X012215Y015261D02*
X012065Y015261D01*
X012001Y015183D02*
X012279Y015183D01*
X012358Y015104D02*
X011922Y015104D01*
X011840Y015026D02*
X012440Y015026D01*
X012403Y014947D02*
X011877Y014947D01*
X011979Y014869D02*
X012301Y014869D01*
X012224Y014790D02*
X012056Y014790D01*
X012089Y014712D02*
X012191Y014712D01*
X012159Y014633D02*
X012121Y014633D01*
X012130Y014555D02*
X012150Y014555D01*
X012150Y014476D02*
X012130Y014476D01*
X012122Y014398D02*
X012158Y014398D01*
X012191Y014319D02*
X012089Y014319D01*
X012057Y014241D02*
X012223Y014241D01*
X012300Y014162D02*
X011980Y014162D01*
X011879Y014084D02*
X012401Y014084D01*
X012440Y014005D02*
X011840Y014005D01*
X011921Y013927D02*
X012359Y013927D01*
X012280Y013848D02*
X012000Y013848D01*
X012065Y013770D02*
X012215Y013770D01*
X012183Y013691D02*
X012097Y013691D01*
X012130Y013613D02*
X012150Y013613D01*
X012150Y013534D02*
X012130Y013534D01*
X012130Y013456D02*
X012150Y013456D01*
X012167Y013377D02*
X012113Y013377D01*
X012081Y013299D02*
X012199Y013299D01*
X012242Y013220D02*
X012038Y013220D01*
X011959Y013142D02*
X012321Y013142D01*
X012451Y013063D02*
X011829Y013063D01*
X011451Y013063D02*
X010829Y013063D01*
X010959Y013142D02*
X011321Y013142D01*
X011242Y013220D02*
X011038Y013220D01*
X011081Y013299D02*
X011199Y013299D01*
X011167Y013377D02*
X011113Y013377D01*
X011130Y013456D02*
X011150Y013456D01*
X011150Y013534D02*
X011130Y013534D01*
X011130Y013613D02*
X011150Y013613D01*
X011183Y013691D02*
X011097Y013691D01*
X011065Y013770D02*
X011215Y013770D01*
X011280Y013848D02*
X011000Y013848D01*
X010921Y013927D02*
X011359Y013927D01*
X011440Y014005D02*
X010840Y014005D01*
X010879Y014084D02*
X011401Y014084D01*
X011300Y014162D02*
X010980Y014162D01*
X011057Y014241D02*
X011223Y014241D01*
X011191Y014319D02*
X011089Y014319D01*
X011122Y014398D02*
X011158Y014398D01*
X011150Y014476D02*
X011130Y014476D01*
X011130Y014555D02*
X011150Y014555D01*
X011159Y014633D02*
X011121Y014633D01*
X011089Y014712D02*
X011191Y014712D01*
X011224Y014790D02*
X011056Y014790D01*
X010979Y014869D02*
X011301Y014869D01*
X011403Y014947D02*
X010877Y014947D01*
X010840Y015026D02*
X011440Y015026D01*
X011358Y015104D02*
X010922Y015104D01*
X011001Y015183D02*
X011279Y015183D01*
X011215Y015261D02*
X011065Y015261D01*
X011098Y015340D02*
X011182Y015340D01*
X011150Y015497D02*
X011130Y015497D01*
X011130Y015575D02*
X011150Y015575D01*
X011167Y015654D02*
X011113Y015654D01*
X011080Y015732D02*
X011200Y015732D01*
X011243Y015811D02*
X011037Y015811D01*
X010959Y015889D02*
X011321Y015889D01*
X011452Y015968D02*
X010828Y015968D01*
X010452Y015968D02*
X009828Y015968D01*
X009959Y015889D02*
X010321Y015889D01*
X010243Y015811D02*
X010037Y015811D01*
X010080Y015732D02*
X010200Y015732D01*
X010167Y015654D02*
X010113Y015654D01*
X010130Y015575D02*
X010150Y015575D01*
X010150Y015497D02*
X010130Y015497D01*
X010098Y015340D02*
X010182Y015340D01*
X010215Y015261D02*
X010065Y015261D01*
X010001Y015183D02*
X010279Y015183D01*
X010358Y015104D02*
X009922Y015104D01*
X009840Y015026D02*
X010440Y015026D01*
X010403Y014947D02*
X009877Y014947D01*
X009979Y014869D02*
X010301Y014869D01*
X010224Y014790D02*
X010056Y014790D01*
X010089Y014712D02*
X010191Y014712D01*
X010159Y014633D02*
X010121Y014633D01*
X010130Y014555D02*
X010150Y014555D01*
X010150Y014476D02*
X010130Y014476D01*
X010122Y014398D02*
X010158Y014398D01*
X010191Y014319D02*
X010089Y014319D01*
X010057Y014241D02*
X010223Y014241D01*
X010300Y014162D02*
X009980Y014162D01*
X009879Y014084D02*
X010401Y014084D01*
X010440Y014005D02*
X009840Y014005D01*
X009921Y013927D02*
X010359Y013927D01*
X010280Y013848D02*
X010000Y013848D01*
X010065Y013770D02*
X010215Y013770D01*
X010183Y013691D02*
X010097Y013691D01*
X010130Y013613D02*
X010150Y013613D01*
X010150Y013534D02*
X010130Y013534D01*
X010130Y013456D02*
X010150Y013456D01*
X010167Y013377D02*
X010113Y013377D01*
X010081Y013299D02*
X010199Y013299D01*
X010242Y013220D02*
X010038Y013220D01*
X009959Y013142D02*
X010321Y013142D01*
X010451Y013063D02*
X009829Y013063D01*
X009451Y013063D02*
X008829Y013063D01*
X008959Y013142D02*
X009321Y013142D01*
X009242Y013220D02*
X009038Y013220D01*
X009081Y013299D02*
X009199Y013299D01*
X009167Y013377D02*
X009113Y013377D01*
X009130Y013456D02*
X009150Y013456D01*
X009150Y013534D02*
X009130Y013534D01*
X009130Y013613D02*
X009150Y013613D01*
X009183Y013691D02*
X009097Y013691D01*
X009065Y013770D02*
X009215Y013770D01*
X009280Y013848D02*
X009000Y013848D01*
X008921Y013927D02*
X009359Y013927D01*
X009440Y014005D02*
X008840Y014005D01*
X008879Y014084D02*
X009401Y014084D01*
X009300Y014162D02*
X008980Y014162D01*
X009057Y014241D02*
X009223Y014241D01*
X009191Y014319D02*
X009089Y014319D01*
X009122Y014398D02*
X009158Y014398D01*
X009150Y014476D02*
X009130Y014476D01*
X009130Y014555D02*
X009150Y014555D01*
X009159Y014633D02*
X009121Y014633D01*
X009089Y014712D02*
X009191Y014712D01*
X009224Y014790D02*
X009056Y014790D01*
X008979Y014869D02*
X009301Y014869D01*
X009403Y014947D02*
X008877Y014947D01*
X008840Y015026D02*
X009440Y015026D01*
X009358Y015104D02*
X008922Y015104D01*
X009001Y015183D02*
X009279Y015183D01*
X009215Y015261D02*
X009065Y015261D01*
X009098Y015340D02*
X009182Y015340D01*
X009150Y015497D02*
X009130Y015497D01*
X009130Y015575D02*
X009150Y015575D01*
X009167Y015654D02*
X009113Y015654D01*
X009080Y015732D02*
X009200Y015732D01*
X009243Y015811D02*
X009037Y015811D01*
X008959Y015889D02*
X009321Y015889D01*
X009452Y015968D02*
X008828Y015968D01*
X008452Y015968D02*
X007828Y015968D01*
X007959Y015889D02*
X008321Y015889D01*
X008243Y015811D02*
X008037Y015811D01*
X008080Y015732D02*
X008200Y015732D01*
X008167Y015654D02*
X008113Y015654D01*
X008130Y015575D02*
X008150Y015575D01*
X008150Y015497D02*
X008130Y015497D01*
X008098Y015340D02*
X008182Y015340D01*
X008215Y015261D02*
X008065Y015261D01*
X008001Y015183D02*
X008279Y015183D01*
X008358Y015104D02*
X007922Y015104D01*
X007840Y015026D02*
X008440Y015026D01*
X008403Y014947D02*
X007877Y014947D01*
X007979Y014869D02*
X008301Y014869D01*
X008224Y014790D02*
X008056Y014790D01*
X008089Y014712D02*
X008191Y014712D01*
X008159Y014633D02*
X008121Y014633D01*
X008130Y014555D02*
X008150Y014555D01*
X008150Y014476D02*
X008130Y014476D01*
X008122Y014398D02*
X008158Y014398D01*
X008191Y014319D02*
X008089Y014319D01*
X008057Y014241D02*
X008223Y014241D01*
X008300Y014162D02*
X007980Y014162D01*
X007879Y014084D02*
X008401Y014084D01*
X008440Y014005D02*
X007840Y014005D01*
X007921Y013927D02*
X008359Y013927D01*
X008280Y013848D02*
X008000Y013848D01*
X008065Y013770D02*
X008215Y013770D01*
X008183Y013691D02*
X008097Y013691D01*
X008130Y013613D02*
X008150Y013613D01*
X008150Y013534D02*
X008130Y013534D01*
X008130Y013456D02*
X008150Y013456D01*
X008167Y013377D02*
X008113Y013377D01*
X008081Y013299D02*
X008199Y013299D01*
X008242Y013220D02*
X008038Y013220D01*
X007959Y013142D02*
X008321Y013142D01*
X008451Y013063D02*
X007829Y013063D01*
X007451Y013063D02*
X006829Y013063D01*
X006959Y013142D02*
X007321Y013142D01*
X007242Y013220D02*
X007038Y013220D01*
X007081Y013299D02*
X007199Y013299D01*
X007167Y013377D02*
X007113Y013377D01*
X007130Y013456D02*
X007150Y013456D01*
X007150Y013534D02*
X007130Y013534D01*
X007130Y013613D02*
X007150Y013613D01*
X007183Y013691D02*
X007097Y013691D01*
X007065Y013770D02*
X007215Y013770D01*
X007280Y013848D02*
X007000Y013848D01*
X006921Y013927D02*
X007359Y013927D01*
X007440Y014005D02*
X006840Y014005D01*
X006879Y014084D02*
X007401Y014084D01*
X007300Y014162D02*
X006980Y014162D01*
X007057Y014241D02*
X007223Y014241D01*
X007191Y014319D02*
X007089Y014319D01*
X007122Y014398D02*
X007158Y014398D01*
X007150Y014476D02*
X007130Y014476D01*
X007130Y014555D02*
X007150Y014555D01*
X007159Y014633D02*
X007121Y014633D01*
X007089Y014712D02*
X007191Y014712D01*
X007224Y014790D02*
X007056Y014790D01*
X006979Y014869D02*
X007301Y014869D01*
X007403Y014947D02*
X006877Y014947D01*
X006840Y015026D02*
X007440Y015026D01*
X007358Y015104D02*
X006922Y015104D01*
X007001Y015183D02*
X007279Y015183D01*
X007215Y015261D02*
X007065Y015261D01*
X007098Y015340D02*
X007182Y015340D01*
X007150Y015497D02*
X007130Y015497D01*
X007130Y015575D02*
X007150Y015575D01*
X007167Y015654D02*
X007113Y015654D01*
X007080Y015732D02*
X007200Y015732D01*
X007243Y015811D02*
X007037Y015811D01*
X006959Y015889D02*
X007321Y015889D01*
X007452Y015968D02*
X006828Y015968D01*
X006452Y015968D02*
X005828Y015968D01*
X005959Y015889D02*
X006321Y015889D01*
X006243Y015811D02*
X006037Y015811D01*
X006080Y015732D02*
X006200Y015732D01*
X006167Y015654D02*
X006113Y015654D01*
X006130Y015575D02*
X006150Y015575D01*
X006150Y015497D02*
X006130Y015497D01*
X006098Y015340D02*
X006182Y015340D01*
X006215Y015261D02*
X006065Y015261D01*
X006001Y015183D02*
X006279Y015183D01*
X006358Y015104D02*
X005922Y015104D01*
X005840Y015026D02*
X006440Y015026D01*
X006403Y014947D02*
X005877Y014947D01*
X005979Y014869D02*
X006301Y014869D01*
X006224Y014790D02*
X006056Y014790D01*
X006089Y014712D02*
X006191Y014712D01*
X006159Y014633D02*
X006121Y014633D01*
X006130Y014555D02*
X006150Y014555D01*
X006150Y014476D02*
X006130Y014476D01*
X006122Y014398D02*
X006158Y014398D01*
X006191Y014319D02*
X006089Y014319D01*
X006057Y014241D02*
X006223Y014241D01*
X006300Y014162D02*
X005980Y014162D01*
X005879Y014084D02*
X006401Y014084D01*
X006440Y014005D02*
X005840Y014005D01*
X005921Y013927D02*
X006359Y013927D01*
X006280Y013848D02*
X006000Y013848D01*
X006065Y013770D02*
X006215Y013770D01*
X006183Y013691D02*
X006097Y013691D01*
X006130Y013613D02*
X006150Y013613D01*
X006150Y013534D02*
X006130Y013534D01*
X006130Y013456D02*
X006150Y013456D01*
X006167Y013377D02*
X006113Y013377D01*
X006081Y013299D02*
X006199Y013299D01*
X006242Y013220D02*
X006038Y013220D01*
X005959Y013142D02*
X006321Y013142D01*
X006451Y013063D02*
X005829Y013063D01*
X005451Y013063D02*
X004829Y013063D01*
X004959Y013142D02*
X005321Y013142D01*
X005242Y013220D02*
X005038Y013220D01*
X005081Y013299D02*
X005199Y013299D01*
X005167Y013377D02*
X005113Y013377D01*
X005130Y013456D02*
X005150Y013456D01*
X005150Y013534D02*
X005130Y013534D01*
X005130Y013613D02*
X005150Y013613D01*
X005183Y013691D02*
X005097Y013691D01*
X005065Y013770D02*
X005215Y013770D01*
X005280Y013848D02*
X005000Y013848D01*
X004921Y013927D02*
X005359Y013927D01*
X005440Y014005D02*
X004840Y014005D01*
X004879Y014084D02*
X005401Y014084D01*
X005300Y014162D02*
X004980Y014162D01*
X005057Y014241D02*
X005223Y014241D01*
X005191Y014319D02*
X005089Y014319D01*
X005122Y014398D02*
X005158Y014398D01*
X005150Y014476D02*
X005130Y014476D01*
X005130Y014555D02*
X005150Y014555D01*
X005159Y014633D02*
X005121Y014633D01*
X005089Y014712D02*
X005191Y014712D01*
X005224Y014790D02*
X005056Y014790D01*
X004979Y014869D02*
X005301Y014869D01*
X005403Y014947D02*
X004877Y014947D01*
X004840Y015026D02*
X005440Y015026D01*
X005358Y015104D02*
X004922Y015104D01*
X005001Y015183D02*
X005279Y015183D01*
X005215Y015261D02*
X005065Y015261D01*
X005098Y015340D02*
X005182Y015340D01*
X005150Y015497D02*
X005130Y015497D01*
X005130Y015575D02*
X005150Y015575D01*
X005167Y015654D02*
X005113Y015654D01*
X005080Y015732D02*
X005200Y015732D01*
X005243Y015811D02*
X005037Y015811D01*
X004959Y015889D02*
X005321Y015889D01*
X005452Y015968D02*
X004828Y015968D01*
X004452Y015968D02*
X004124Y015968D01*
X004122Y015971D02*
X004096Y015997D01*
X004064Y016015D01*
X004028Y016025D01*
X003680Y016025D01*
X003680Y015555D01*
X003600Y015555D01*
X003600Y016025D01*
X003252Y016025D01*
X003216Y016015D01*
X003184Y015997D01*
X003158Y015971D01*
X003140Y015939D01*
X003130Y015903D01*
X003130Y015555D01*
X003600Y015555D01*
X003600Y015475D01*
X003130Y015475D01*
X003130Y015127D01*
X003140Y015091D01*
X003158Y015059D01*
X003184Y015033D01*
X003215Y015015D01*
X003184Y014997D01*
X003158Y014971D01*
X003140Y014939D01*
X003130Y014903D01*
X003130Y014555D01*
X003600Y014555D01*
X003600Y015025D01*
X003600Y015475D01*
X003680Y015475D01*
X003680Y015555D01*
X004150Y015555D01*
X004150Y015903D01*
X004140Y015939D01*
X004122Y015971D01*
X004150Y015889D02*
X004321Y015889D01*
X004243Y015811D02*
X004150Y015811D01*
X004150Y015732D02*
X004200Y015732D01*
X004167Y015654D02*
X004150Y015654D01*
X004150Y015575D02*
X004150Y015575D01*
X004150Y015497D02*
X003680Y015497D01*
X003680Y015475D02*
X004150Y015475D01*
X004150Y015127D01*
X004140Y015091D01*
X004122Y015059D01*
X004096Y015033D01*
X004065Y015015D01*
X004096Y014997D01*
X004122Y014971D01*
X004140Y014939D01*
X004150Y014903D01*
X004150Y014555D01*
X003680Y014555D01*
X003680Y014475D01*
X004150Y014475D01*
X004150Y014127D01*
X004140Y014091D01*
X004122Y014059D01*
X004096Y014033D01*
X004065Y014015D01*
X004096Y013997D01*
X004122Y013971D01*
X004140Y013939D01*
X004150Y013903D01*
X004150Y013555D01*
X003680Y013555D01*
X003680Y013475D01*
X004150Y013475D01*
X004150Y013127D01*
X004140Y013091D01*
X004122Y013059D01*
X004096Y013033D01*
X004064Y013015D01*
X004028Y013005D01*
X003680Y013005D01*
X003680Y013475D01*
X003600Y013475D01*
X003600Y013005D01*
X003252Y013005D01*
X003216Y013015D01*
X003184Y013033D01*
X003158Y013059D01*
X003140Y013091D01*
X003130Y013127D01*
X003130Y013475D01*
X003600Y013475D01*
X003600Y013555D01*
X003600Y014475D01*
X003130Y014475D01*
X003130Y014127D01*
X003140Y014091D01*
X003158Y014059D01*
X003184Y014033D01*
X003215Y014015D01*
X003184Y013997D01*
X003158Y013971D01*
X003140Y013939D01*
X003130Y013903D01*
X003130Y013555D01*
X003600Y013555D01*
X003680Y013555D01*
X003680Y014025D01*
X003680Y014475D01*
X003600Y014475D01*
X003600Y014555D01*
X003680Y014555D01*
X003680Y015475D01*
X003680Y015418D02*
X003600Y015418D01*
X003600Y015340D02*
X003680Y015340D01*
X003680Y015261D02*
X003600Y015261D01*
X003600Y015183D02*
X003680Y015183D01*
X003680Y015104D02*
X003600Y015104D01*
X003600Y015026D02*
X003680Y015026D01*
X003680Y014947D02*
X003600Y014947D01*
X003600Y014869D02*
X003680Y014869D01*
X003680Y014790D02*
X003600Y014790D01*
X003600Y014712D02*
X003680Y014712D01*
X003680Y014633D02*
X003600Y014633D01*
X003600Y014555D02*
X000280Y014555D01*
X000280Y014633D02*
X003130Y014633D01*
X003130Y014712D02*
X001817Y014712D01*
X001801Y014705D02*
X002099Y014828D01*
X002327Y015056D01*
X002450Y015354D01*
X002450Y015676D01*
X002327Y015974D01*
X002099Y016202D01*
X002099Y016202D01*
X001801Y016325D01*
X001479Y016325D01*
X001181Y016202D01*
X000953Y015974D01*
X000953Y015974D01*
X000830Y015676D01*
X000830Y015354D01*
X000953Y015056D01*
X001181Y014828D01*
X001479Y014705D01*
X001607Y014705D01*
X001801Y014705D01*
X002006Y014790D02*
X003130Y014790D01*
X003130Y014869D02*
X002139Y014869D01*
X002099Y014828D02*
X002099Y014828D01*
X002218Y014947D02*
X003144Y014947D01*
X003197Y015026D02*
X002296Y015026D01*
X002327Y015056D02*
X002327Y015056D01*
X002347Y015104D02*
X003136Y015104D01*
X003130Y015183D02*
X002379Y015183D01*
X002412Y015261D02*
X003130Y015261D01*
X003130Y015340D02*
X002444Y015340D01*
X002450Y015418D02*
X003130Y015418D01*
X003130Y015575D02*
X002450Y015575D01*
X002450Y015497D02*
X003600Y015497D01*
X003600Y015575D02*
X003680Y015575D01*
X003680Y015654D02*
X003600Y015654D01*
X003600Y015732D02*
X003680Y015732D01*
X003680Y015811D02*
X003600Y015811D01*
X003600Y015889D02*
X003680Y015889D01*
X003680Y015968D02*
X003600Y015968D01*
X003156Y015968D02*
X002329Y015968D01*
X002327Y015974D02*
X002327Y015974D01*
X002362Y015889D02*
X003130Y015889D01*
X003130Y015811D02*
X002394Y015811D01*
X002427Y015732D02*
X003130Y015732D01*
X003130Y015654D02*
X002450Y015654D01*
X002254Y016046D02*
X023040Y016046D01*
X023040Y015968D02*
X022875Y015968D01*
X022987Y015889D02*
X023040Y015889D01*
X023040Y016125D02*
X002176Y016125D01*
X002096Y016203D02*
X023040Y016203D01*
X023040Y016282D02*
X001906Y016282D01*
X001374Y016282D02*
X000333Y016282D01*
X000359Y016360D02*
X023040Y016360D01*
X023040Y016439D02*
X000398Y016439D01*
X000455Y016517D02*
X023040Y016517D01*
X023040Y016596D02*
X000512Y016596D01*
X000602Y016674D02*
X023040Y016674D01*
X023040Y016753D02*
X000710Y016753D01*
X000903Y016831D02*
X023040Y016831D01*
X022680Y016025D02*
X022680Y016025D01*
X022680Y015968D02*
X022600Y015968D01*
X022600Y015889D02*
X022680Y015889D01*
X022680Y015811D02*
X022600Y015811D01*
X022600Y015732D02*
X022680Y015732D01*
X022680Y015654D02*
X022600Y015654D01*
X022600Y015575D02*
X022680Y015575D01*
X022600Y015497D02*
X022130Y015497D01*
X022130Y015555D02*
X022130Y015555D01*
X022130Y015575D02*
X022133Y015575D01*
X022149Y015654D02*
X022113Y015654D01*
X022080Y015732D02*
X022178Y015732D01*
X022224Y015811D02*
X022037Y015811D01*
X021959Y015889D02*
X022293Y015889D01*
X022405Y015968D02*
X021828Y015968D01*
X022600Y015418D02*
X022680Y015418D01*
X022680Y015340D02*
X022600Y015340D01*
X022600Y015261D02*
X022680Y015261D01*
X022680Y015183D02*
X022600Y015183D01*
X022600Y015104D02*
X022680Y015104D01*
X022680Y015026D02*
X022600Y015026D01*
X022600Y014947D02*
X022680Y014947D01*
X022680Y014869D02*
X022600Y014869D01*
X022600Y014790D02*
X022680Y014790D01*
X022680Y014712D02*
X022600Y014712D01*
X022600Y014633D02*
X022680Y014633D01*
X022600Y014555D02*
X022130Y014555D01*
X022130Y014555D01*
X022121Y014633D02*
X022142Y014633D01*
X022168Y014712D02*
X022089Y014712D01*
X022056Y014790D02*
X022209Y014790D01*
X022272Y014869D02*
X021979Y014869D01*
X021877Y014947D02*
X022367Y014947D01*
X022496Y015026D02*
X021840Y015026D01*
X021922Y015104D02*
X022338Y015104D01*
X022251Y015183D02*
X022001Y015183D01*
X022065Y015261D02*
X022197Y015261D01*
X022161Y015340D02*
X022098Y015340D01*
X022130Y014476D02*
X022600Y014476D01*
X022600Y014398D02*
X022680Y014398D01*
X022680Y014319D02*
X022600Y014319D01*
X022600Y014241D02*
X022680Y014241D01*
X022680Y014162D02*
X022600Y014162D01*
X022600Y014084D02*
X022680Y014084D01*
X022272Y014162D02*
X021980Y014162D01*
X022057Y014241D02*
X022209Y014241D01*
X022167Y014319D02*
X022089Y014319D01*
X022122Y014398D02*
X022142Y014398D01*
X004440Y014005D02*
X004082Y014005D01*
X004136Y014084D02*
X004401Y014084D01*
X004300Y014162D02*
X004150Y014162D01*
X004150Y014241D02*
X004223Y014241D01*
X004191Y014319D02*
X004150Y014319D01*
X004150Y014398D02*
X004158Y014398D01*
X004150Y014476D02*
X003680Y014476D01*
X003680Y014398D02*
X003600Y014398D01*
X003600Y014476D02*
X000280Y014476D01*
X000280Y014398D02*
X003130Y014398D01*
X003130Y014319D02*
X000280Y014319D01*
X000280Y014241D02*
X003130Y014241D01*
X003130Y014162D02*
X000280Y014162D01*
X000280Y014084D02*
X003144Y014084D01*
X003198Y014005D02*
X000280Y014005D01*
X000280Y013927D02*
X003136Y013927D01*
X003130Y013848D02*
X000280Y013848D01*
X000280Y013770D02*
X003130Y013770D01*
X003130Y013691D02*
X000280Y013691D01*
X000280Y013613D02*
X003130Y013613D01*
X003130Y013456D02*
X000280Y013456D01*
X000280Y013534D02*
X003600Y013534D01*
X003600Y013456D02*
X003680Y013456D01*
X003680Y013534D02*
X004150Y013534D01*
X004150Y013456D02*
X004150Y013456D01*
X004150Y013377D02*
X004167Y013377D01*
X004150Y013299D02*
X004199Y013299D01*
X004242Y013220D02*
X004150Y013220D01*
X004150Y013142D02*
X004321Y013142D01*
X004451Y013063D02*
X004124Y013063D01*
X003680Y013063D02*
X003600Y013063D01*
X003600Y013142D02*
X003680Y013142D01*
X003680Y013220D02*
X003600Y013220D01*
X003600Y013299D02*
X003680Y013299D01*
X003680Y013377D02*
X003600Y013377D01*
X003600Y013613D02*
X003680Y013613D01*
X003680Y013691D02*
X003600Y013691D01*
X003600Y013770D02*
X003680Y013770D01*
X003680Y013848D02*
X003600Y013848D01*
X003600Y013927D02*
X003680Y013927D01*
X003680Y014005D02*
X003600Y014005D01*
X003600Y014084D02*
X003680Y014084D01*
X003680Y014162D02*
X003600Y014162D01*
X003600Y014241D02*
X003680Y014241D01*
X003680Y014319D02*
X003600Y014319D01*
X003680Y014555D02*
X004150Y014555D01*
X004150Y014633D02*
X004159Y014633D01*
X004150Y014712D02*
X004191Y014712D01*
X004224Y014790D02*
X004150Y014790D01*
X004150Y014869D02*
X004301Y014869D01*
X004403Y014947D02*
X004136Y014947D01*
X004083Y015026D02*
X004440Y015026D01*
X004358Y015104D02*
X004144Y015104D01*
X004150Y015183D02*
X004279Y015183D01*
X004215Y015261D02*
X004150Y015261D01*
X004150Y015340D02*
X004182Y015340D01*
X001463Y014712D02*
X000280Y014712D01*
X000280Y014790D02*
X001274Y014790D01*
X001181Y014828D02*
X001181Y014828D01*
X001181Y014828D01*
X001141Y014869D02*
X000280Y014869D01*
X000280Y014947D02*
X001062Y014947D01*
X000984Y015026D02*
X000280Y015026D01*
X000280Y015104D02*
X000933Y015104D01*
X000901Y015183D02*
X000280Y015183D01*
X000280Y015261D02*
X000868Y015261D01*
X000836Y015340D02*
X000280Y015340D01*
X000280Y015418D02*
X000830Y015418D01*
X000830Y015497D02*
X000280Y015497D01*
X000280Y015575D02*
X000830Y015575D01*
X000830Y015654D02*
X000280Y015654D01*
X000280Y015732D02*
X000853Y015732D01*
X000886Y015811D02*
X000280Y015811D01*
X000280Y015889D02*
X000918Y015889D01*
X000951Y015968D02*
X000280Y015968D01*
X000282Y016046D02*
X001026Y016046D01*
X001104Y016125D02*
X000289Y016125D01*
X000308Y016203D02*
X001184Y016203D01*
X001181Y016202D02*
X001181Y016202D01*
X004144Y013927D02*
X004359Y013927D01*
X004280Y013848D02*
X004150Y013848D01*
X004150Y013770D02*
X004215Y013770D01*
X004183Y013691D02*
X004150Y013691D01*
X004150Y013613D02*
X004150Y013613D01*
X003130Y013377D02*
X000280Y013377D01*
X000280Y013299D02*
X003130Y013299D01*
X003130Y013220D02*
X000280Y013220D01*
X000280Y013142D02*
X003130Y013142D01*
X003156Y013063D02*
X000280Y013063D01*
X003951Y005920D02*
X004352Y005920D01*
X004273Y005841D02*
X004034Y005841D01*
X004086Y005763D02*
X004212Y005763D01*
X004180Y005684D02*
X004121Y005684D01*
X004142Y005606D02*
X004150Y005606D01*
D14*
X004640Y005515D02*
X004640Y006015D01*
X004640Y006515D01*
X005640Y006515D02*
X005640Y005515D01*
X005640Y004515D01*
X004640Y004515D02*
X004640Y005515D01*
X006640Y005515D02*
X006640Y004515D01*
X007640Y004515D02*
X007640Y005515D01*
X007640Y006515D01*
X006640Y006515D02*
X006640Y005515D01*
X008640Y005515D02*
X008640Y004515D01*
X009640Y004515D02*
X009640Y005515D01*
X009640Y006515D01*
X008640Y006515D02*
X008640Y005515D01*
X010640Y005515D02*
X010640Y004515D01*
X011640Y004515D02*
X011640Y005515D01*
X011640Y006515D01*
X010640Y006515D02*
X010640Y005515D01*
X012640Y005515D02*
X012640Y004515D01*
X013640Y004515D02*
X013640Y005515D01*
X013640Y006515D01*
X012640Y006515D02*
X012640Y005515D01*
X014640Y005515D02*
X014640Y004515D01*
X015640Y004515D02*
X015640Y005515D01*
X015640Y006515D01*
X014640Y006515D02*
X014640Y005515D01*
X016640Y005515D02*
X016640Y004515D01*
X017640Y004515D02*
X017640Y005515D01*
X017640Y006515D01*
X016640Y006515D02*
X016640Y005515D01*
X018640Y005515D02*
X018640Y004515D01*
X019640Y004515D02*
X019640Y005515D01*
X019640Y006515D01*
X018640Y006515D02*
X018640Y005515D01*
X020640Y005515D02*
X020640Y004515D01*
X021640Y004515D02*
X021640Y005515D01*
X021640Y006515D01*
X020640Y006515D02*
X020640Y005515D01*
X020640Y013515D02*
X020640Y014515D01*
X020640Y015515D01*
X019640Y015515D02*
X019640Y014515D01*
X019640Y013515D01*
X018640Y013515D02*
X018640Y014515D01*
X018640Y015515D01*
X017640Y015515D02*
X017640Y014515D01*
X017640Y013515D01*
X016640Y013515D02*
X016640Y014515D01*
X016640Y015515D01*
X015640Y015515D02*
X015640Y014515D01*
X015640Y013515D01*
X014640Y013515D02*
X014640Y014515D01*
X014640Y015515D01*
X013640Y015515D02*
X013640Y014515D01*
X013640Y013515D01*
X012640Y013515D02*
X012640Y014515D01*
X012640Y015515D01*
X011640Y015515D02*
X011640Y014515D01*
X011640Y013515D01*
X010640Y013515D02*
X010640Y014515D01*
X010640Y015515D01*
X009640Y015515D02*
X009640Y014515D01*
X009640Y013515D01*
X008640Y013515D02*
X008640Y014515D01*
X008640Y015515D01*
X007640Y015515D02*
X007640Y014515D01*
X007640Y013515D01*
X006640Y013515D02*
X006640Y014515D01*
X006640Y015515D01*
X005640Y015515D02*
X005640Y014515D01*
X005640Y013515D01*
X004640Y013515D02*
X004640Y014515D01*
X004640Y015515D01*
X021640Y015515D02*
X021640Y014515D01*
X021640Y013515D01*
D15*
X007640Y010409D02*
X005640Y010409D01*
X005580Y010407D01*
X005519Y010402D01*
X005460Y010393D01*
X005401Y010380D01*
X005342Y010364D01*
X005285Y010344D01*
X005230Y010321D01*
X005175Y010294D01*
X005123Y010265D01*
X005072Y010232D01*
X005023Y010196D01*
X004977Y010158D01*
X004933Y010116D01*
X004891Y010072D01*
X004853Y010026D01*
X004817Y009977D01*
X004784Y009926D01*
X004755Y009874D01*
X004728Y009819D01*
X004705Y009764D01*
X004685Y009707D01*
X004669Y009648D01*
X004656Y009589D01*
X004647Y009530D01*
X004642Y009469D01*
X004640Y009409D01*
X004640Y006015D01*
M02*
