G75*
%MOIN*%
%OFA0B0*%
%FSLAX24Y24*%
%IPPOS*%
%LPD*%
%AMOC8*
5,1,8,0,0,1.08239X$1,22.5*
%
%ADD10C,0.0000*%
D10*
X001140Y003015D02*
X025140Y003015D01*
X025200Y003017D01*
X025261Y003022D01*
X025320Y003031D01*
X025379Y003044D01*
X025438Y003060D01*
X025495Y003080D01*
X025550Y003103D01*
X025605Y003130D01*
X025657Y003159D01*
X025708Y003192D01*
X025757Y003228D01*
X025803Y003266D01*
X025847Y003308D01*
X025889Y003352D01*
X025927Y003398D01*
X025963Y003447D01*
X025996Y003498D01*
X026025Y003550D01*
X026052Y003605D01*
X026075Y003660D01*
X026095Y003717D01*
X026111Y003776D01*
X026124Y003835D01*
X026133Y003894D01*
X026138Y003955D01*
X026140Y004015D01*
X026140Y016015D01*
X026138Y016075D01*
X026133Y016136D01*
X026124Y016195D01*
X026111Y016254D01*
X026095Y016313D01*
X026075Y016370D01*
X026052Y016425D01*
X026025Y016480D01*
X025996Y016532D01*
X025963Y016583D01*
X025927Y016632D01*
X025889Y016678D01*
X025847Y016722D01*
X025803Y016764D01*
X025757Y016802D01*
X025708Y016838D01*
X025657Y016871D01*
X025605Y016900D01*
X025550Y016927D01*
X025495Y016950D01*
X025438Y016970D01*
X025379Y016986D01*
X025320Y016999D01*
X025261Y017008D01*
X025200Y017013D01*
X025140Y017015D01*
X001140Y017015D01*
X001080Y017013D01*
X001019Y017008D01*
X000960Y016999D01*
X000901Y016986D01*
X000842Y016970D01*
X000785Y016950D01*
X000730Y016927D01*
X000675Y016900D01*
X000623Y016871D01*
X000572Y016838D01*
X000523Y016802D01*
X000477Y016764D01*
X000433Y016722D01*
X000391Y016678D01*
X000353Y016632D01*
X000317Y016583D01*
X000284Y016532D01*
X000255Y016480D01*
X000228Y016425D01*
X000205Y016370D01*
X000185Y016313D01*
X000169Y016254D01*
X000156Y016195D01*
X000147Y016136D01*
X000142Y016075D01*
X000140Y016015D01*
X000140Y004015D01*
X000142Y003955D01*
X000147Y003894D01*
X000156Y003835D01*
X000169Y003776D01*
X000185Y003717D01*
X000205Y003660D01*
X000228Y003605D01*
X000255Y003550D01*
X000284Y003498D01*
X000317Y003447D01*
X000353Y003398D01*
X000391Y003352D01*
X000433Y003308D01*
X000477Y003266D01*
X000523Y003228D01*
X000572Y003192D01*
X000623Y003159D01*
X000675Y003130D01*
X000730Y003103D01*
X000785Y003080D01*
X000842Y003060D01*
X000901Y003044D01*
X000960Y003031D01*
X001019Y003022D01*
X001080Y003017D01*
X001140Y003015D01*
X000990Y004515D02*
X000992Y004565D01*
X000998Y004615D01*
X001008Y004665D01*
X001021Y004713D01*
X001038Y004761D01*
X001059Y004807D01*
X001083Y004851D01*
X001111Y004893D01*
X001142Y004933D01*
X001176Y004970D01*
X001213Y005005D01*
X001252Y005036D01*
X001293Y005065D01*
X001337Y005090D01*
X001383Y005112D01*
X001430Y005130D01*
X001478Y005144D01*
X001527Y005155D01*
X001577Y005162D01*
X001627Y005165D01*
X001678Y005164D01*
X001728Y005159D01*
X001778Y005150D01*
X001826Y005138D01*
X001874Y005121D01*
X001920Y005101D01*
X001965Y005078D01*
X002008Y005051D01*
X002048Y005021D01*
X002086Y004988D01*
X002121Y004952D01*
X002154Y004913D01*
X002183Y004872D01*
X002209Y004829D01*
X002232Y004784D01*
X002251Y004737D01*
X002266Y004689D01*
X002278Y004640D01*
X002286Y004590D01*
X002290Y004540D01*
X002290Y004490D01*
X002286Y004440D01*
X002278Y004390D01*
X002266Y004341D01*
X002251Y004293D01*
X002232Y004246D01*
X002209Y004201D01*
X002183Y004158D01*
X002154Y004117D01*
X002121Y004078D01*
X002086Y004042D01*
X002048Y004009D01*
X002008Y003979D01*
X001965Y003952D01*
X001920Y003929D01*
X001874Y003909D01*
X001826Y003892D01*
X001778Y003880D01*
X001728Y003871D01*
X001678Y003866D01*
X001627Y003865D01*
X001577Y003868D01*
X001527Y003875D01*
X001478Y003886D01*
X001430Y003900D01*
X001383Y003918D01*
X001337Y003940D01*
X001293Y003965D01*
X001252Y003994D01*
X001213Y004025D01*
X001176Y004060D01*
X001142Y004097D01*
X001111Y004137D01*
X001083Y004179D01*
X001059Y004223D01*
X001038Y004269D01*
X001021Y004317D01*
X001008Y004365D01*
X000998Y004415D01*
X000992Y004465D01*
X000990Y004515D01*
X023990Y004515D02*
X023992Y004565D01*
X023998Y004615D01*
X024008Y004665D01*
X024021Y004713D01*
X024038Y004761D01*
X024059Y004807D01*
X024083Y004851D01*
X024111Y004893D01*
X024142Y004933D01*
X024176Y004970D01*
X024213Y005005D01*
X024252Y005036D01*
X024293Y005065D01*
X024337Y005090D01*
X024383Y005112D01*
X024430Y005130D01*
X024478Y005144D01*
X024527Y005155D01*
X024577Y005162D01*
X024627Y005165D01*
X024678Y005164D01*
X024728Y005159D01*
X024778Y005150D01*
X024826Y005138D01*
X024874Y005121D01*
X024920Y005101D01*
X024965Y005078D01*
X025008Y005051D01*
X025048Y005021D01*
X025086Y004988D01*
X025121Y004952D01*
X025154Y004913D01*
X025183Y004872D01*
X025209Y004829D01*
X025232Y004784D01*
X025251Y004737D01*
X025266Y004689D01*
X025278Y004640D01*
X025286Y004590D01*
X025290Y004540D01*
X025290Y004490D01*
X025286Y004440D01*
X025278Y004390D01*
X025266Y004341D01*
X025251Y004293D01*
X025232Y004246D01*
X025209Y004201D01*
X025183Y004158D01*
X025154Y004117D01*
X025121Y004078D01*
X025086Y004042D01*
X025048Y004009D01*
X025008Y003979D01*
X024965Y003952D01*
X024920Y003929D01*
X024874Y003909D01*
X024826Y003892D01*
X024778Y003880D01*
X024728Y003871D01*
X024678Y003866D01*
X024627Y003865D01*
X024577Y003868D01*
X024527Y003875D01*
X024478Y003886D01*
X024430Y003900D01*
X024383Y003918D01*
X024337Y003940D01*
X024293Y003965D01*
X024252Y003994D01*
X024213Y004025D01*
X024176Y004060D01*
X024142Y004097D01*
X024111Y004137D01*
X024083Y004179D01*
X024059Y004223D01*
X024038Y004269D01*
X024021Y004317D01*
X024008Y004365D01*
X023998Y004415D01*
X023992Y004465D01*
X023990Y004515D01*
X023990Y015515D02*
X023992Y015565D01*
X023998Y015615D01*
X024008Y015665D01*
X024021Y015713D01*
X024038Y015761D01*
X024059Y015807D01*
X024083Y015851D01*
X024111Y015893D01*
X024142Y015933D01*
X024176Y015970D01*
X024213Y016005D01*
X024252Y016036D01*
X024293Y016065D01*
X024337Y016090D01*
X024383Y016112D01*
X024430Y016130D01*
X024478Y016144D01*
X024527Y016155D01*
X024577Y016162D01*
X024627Y016165D01*
X024678Y016164D01*
X024728Y016159D01*
X024778Y016150D01*
X024826Y016138D01*
X024874Y016121D01*
X024920Y016101D01*
X024965Y016078D01*
X025008Y016051D01*
X025048Y016021D01*
X025086Y015988D01*
X025121Y015952D01*
X025154Y015913D01*
X025183Y015872D01*
X025209Y015829D01*
X025232Y015784D01*
X025251Y015737D01*
X025266Y015689D01*
X025278Y015640D01*
X025286Y015590D01*
X025290Y015540D01*
X025290Y015490D01*
X025286Y015440D01*
X025278Y015390D01*
X025266Y015341D01*
X025251Y015293D01*
X025232Y015246D01*
X025209Y015201D01*
X025183Y015158D01*
X025154Y015117D01*
X025121Y015078D01*
X025086Y015042D01*
X025048Y015009D01*
X025008Y014979D01*
X024965Y014952D01*
X024920Y014929D01*
X024874Y014909D01*
X024826Y014892D01*
X024778Y014880D01*
X024728Y014871D01*
X024678Y014866D01*
X024627Y014865D01*
X024577Y014868D01*
X024527Y014875D01*
X024478Y014886D01*
X024430Y014900D01*
X024383Y014918D01*
X024337Y014940D01*
X024293Y014965D01*
X024252Y014994D01*
X024213Y015025D01*
X024176Y015060D01*
X024142Y015097D01*
X024111Y015137D01*
X024083Y015179D01*
X024059Y015223D01*
X024038Y015269D01*
X024021Y015317D01*
X024008Y015365D01*
X023998Y015415D01*
X023992Y015465D01*
X023990Y015515D01*
X000990Y015515D02*
X000992Y015565D01*
X000998Y015615D01*
X001008Y015665D01*
X001021Y015713D01*
X001038Y015761D01*
X001059Y015807D01*
X001083Y015851D01*
X001111Y015893D01*
X001142Y015933D01*
X001176Y015970D01*
X001213Y016005D01*
X001252Y016036D01*
X001293Y016065D01*
X001337Y016090D01*
X001383Y016112D01*
X001430Y016130D01*
X001478Y016144D01*
X001527Y016155D01*
X001577Y016162D01*
X001627Y016165D01*
X001678Y016164D01*
X001728Y016159D01*
X001778Y016150D01*
X001826Y016138D01*
X001874Y016121D01*
X001920Y016101D01*
X001965Y016078D01*
X002008Y016051D01*
X002048Y016021D01*
X002086Y015988D01*
X002121Y015952D01*
X002154Y015913D01*
X002183Y015872D01*
X002209Y015829D01*
X002232Y015784D01*
X002251Y015737D01*
X002266Y015689D01*
X002278Y015640D01*
X002286Y015590D01*
X002290Y015540D01*
X002290Y015490D01*
X002286Y015440D01*
X002278Y015390D01*
X002266Y015341D01*
X002251Y015293D01*
X002232Y015246D01*
X002209Y015201D01*
X002183Y015158D01*
X002154Y015117D01*
X002121Y015078D01*
X002086Y015042D01*
X002048Y015009D01*
X002008Y014979D01*
X001965Y014952D01*
X001920Y014929D01*
X001874Y014909D01*
X001826Y014892D01*
X001778Y014880D01*
X001728Y014871D01*
X001678Y014866D01*
X001627Y014865D01*
X001577Y014868D01*
X001527Y014875D01*
X001478Y014886D01*
X001430Y014900D01*
X001383Y014918D01*
X001337Y014940D01*
X001293Y014965D01*
X001252Y014994D01*
X001213Y015025D01*
X001176Y015060D01*
X001142Y015097D01*
X001111Y015137D01*
X001083Y015179D01*
X001059Y015223D01*
X001038Y015269D01*
X001021Y015317D01*
X001008Y015365D01*
X000998Y015415D01*
X000992Y015465D01*
X000990Y015515D01*
M02*
