%
M48
M72
T01C0.0276
T02C0.0400
T03C0.1300
%
T01
X7640Y9621
X7640Y10409
T02
X7640Y13515
X6640Y13515
X5640Y13515
X4640Y13515
X3640Y13515
X3640Y14515
X4640Y14515
X5640Y14515
X6640Y14515
X7640Y14515
X8640Y14515
X9640Y14515
X10640Y14515
X11640Y14515
X12640Y14515
X13640Y14515
X14640Y14515
X15640Y14515
X16640Y14515
X17640Y14515
X18640Y14515
X19640Y14515
X20640Y14515
X21640Y14515
X22640Y14515
X22640Y13515
X21640Y13515
X20640Y13515
X19640Y13515
X18640Y13515
X17640Y13515
X16640Y13515
X15640Y13515
X14640Y13515
X13640Y13515
X12640Y13515
X11640Y13515
X10640Y13515
X9640Y13515
X8640Y13515
X8640Y15515
X7640Y15515
X6640Y15515
X5640Y15515
X4640Y15515
X3640Y15515
X9640Y15515
X10640Y15515
X11640Y15515
X12640Y15515
X13640Y15515
X14640Y15515
X15640Y15515
X16640Y15515
X17640Y15515
X18640Y15515
X19640Y15515
X20640Y15515
X21640Y15515
X22640Y15515
X22640Y6515
X21640Y6515
X20640Y6515
X19640Y6515
X18640Y6515
X17640Y6515
X16640Y6515
X15640Y6515
X14640Y6515
X13640Y6515
X12640Y6515
X11640Y6515
X10640Y6515
X9640Y6515
X8640Y6515
X7640Y6515
X6640Y6515
X5640Y6515
X4640Y6515
X3640Y6515
X3640Y5515
X4640Y5515
X5640Y5515
X6640Y5515
X7640Y5515
X8640Y5515
X9640Y5515
X10640Y5515
X11640Y5515
X12640Y5515
X13640Y5515
X14640Y5515
X15640Y5515
X16640Y5515
X17640Y5515
X18640Y5515
X19640Y5515
X20640Y5515
X21640Y5515
X22640Y5515
X22640Y4515
X21640Y4515
X20640Y4515
X19640Y4515
X18640Y4515
X17640Y4515
X16640Y4515
X15640Y4515
X14640Y4515
X13640Y4515
X12640Y4515
X11640Y4515
X10640Y4515
X9640Y4515
X8640Y4515
X7640Y4515
X6640Y4515
X5640Y4515
X4640Y4515
X3640Y4515
T03
X1640Y4515
X24640Y4515
X24640Y15515
X1640Y15515
M30
