%
M48
M72
T01C0.0100
T02C0.0120
T03C0.0160
T04C0.0300
T05C0.0400
T06C0.1260
%
T01
X26235Y7205
X26235Y7405
X26235Y7605
T02
X9345Y3594
X9345Y4015
X9295Y4515
X9305Y5015
X10545Y5615
X12145Y4515
X13445Y4615
X14580Y4454
X15145Y4615
X15598Y4117
X17331Y4396
X18551Y4787
X18945Y4826
X19445Y4515
X19945Y4558
X20445Y4597
X19653Y4984
X19765Y5626
X20615Y5676
X20942Y5839
X21645Y5947
X21945Y6365
X22455Y6875
X22475Y7185
X22327Y7486
X22645Y8115
X24135Y8185
X24505Y8185
X24905Y8185
X24905Y7805
X24905Y7425
X24515Y7425
X24505Y7805
X24135Y7805
X24135Y7425
X25575Y6405
X26445Y6515
X26465Y6805
X26945Y7015
X27445Y7015
X27445Y6515
X26945Y6515
X26945Y6015
X27445Y6015
X26445Y6015
X26445Y5515
X26945Y5515
X27445Y5515
X27945Y5515
X28445Y5515
X28945Y5515
X29445Y5515
X29925Y5505
X30425Y5505
X30425Y5005
X29925Y5005
X29445Y5015
X28945Y5015
X28445Y5015
X27945Y5015
X27445Y5015
X26945Y5015
X26945Y4515
X26565Y4605
X26145Y4675
X25945Y4415
X25375Y4615
X25075Y4615
X24745Y4615
X24445Y4615
X24145Y4615
X23845Y4615
X23955Y5055
X24315Y4995
X24615Y5265
X24515Y5515
X24865Y5515
X25215Y5525
X25415Y5355
X25115Y5255
X25015Y4955
X25785Y4685
X27445Y4515
X27945Y4515
X28445Y4515
X28945Y4515
X29445Y4515
X29925Y4505
X30425Y4505
X30425Y4005
X29925Y4005
X29445Y4015
X28945Y4015
X28445Y4015
X29445Y3515
X29925Y3505
X30425Y3505
X30425Y6005
X29925Y6005
X29925Y6505
X29445Y6515
X28945Y6515
X28445Y6515
X28445Y7015
X28945Y7015
X28945Y7515
X27665Y8075
X27865Y8275
X27275Y8345
X26465Y8015
X27275Y8755
X27445Y8915
X27945Y8915
X28445Y8915
X28945Y8915
X28945Y8415
X28445Y8415
X26725Y9075
X26945Y9415
X27445Y9415
X27945Y9415
X28445Y9415
X28945Y9415
X29445Y9415
X29945Y9415
X30445Y9415
X30445Y9915
X29945Y9915
X29445Y9915
X28945Y9915
X28445Y9915
X27945Y9915
X27445Y9915
X26945Y9915
X26445Y9915
X25945Y9915
X25555Y10115
X25445Y10415
X25215Y10115
X24905Y10065
X24885Y10415
X24395Y10385
X24445Y10915
X24945Y10915
X25445Y10915
X25945Y10915
X26445Y10915
X26945Y10915
X27445Y10915
X27945Y10915
X28445Y10915
X28945Y10915
X29445Y10915
X29945Y10915
X30445Y10915
X30445Y10415
X29945Y10415
X29445Y10415
X28945Y10415
X28445Y10415
X27945Y10415
X27445Y10415
X26945Y10415
X26445Y10415
X25945Y10415
X25905Y9445
X26445Y9415
X23685Y9445
X23025Y8905
X22695Y8855
X22545Y9415
X22016Y9565
X21549Y9435
X22145Y10015
X21727Y10179
X22213Y10535
X22565Y10715
X22845Y11015
X23145Y11015
X23545Y11015
X23545Y11415
X23945Y11415
X24445Y11415
X24945Y11415
X25445Y11415
X25945Y11415
X26445Y11415
X26945Y11415
X27445Y11415
X27945Y11415
X28445Y11415
X28945Y11415
X29445Y11415
X29945Y11415
X30445Y11415
X30445Y11915
X29945Y11915
X29445Y11915
X28945Y11915
X28445Y11915
X29945Y12415
X30445Y12415
X21520Y11712
X21185Y11404
X20645Y11315
X20053Y11330
X19645Y11015
X19820Y10394
X20793Y10372
X20324Y9594
X20565Y9364
X20545Y8915
X20145Y9115
X19887Y8797
X19860Y8315
X20304Y8143
X20302Y7676
X20284Y7204
X18859Y7276
X18006Y6784
X18005Y6415
X19025Y6639
X20400Y6466
X21361Y5356
X22024Y5115
X22837Y5068
X23565Y5055
X23635Y5565
X22351Y4672
X21769Y4636
X17945Y5615
X16895Y5365
X15638Y5692
X15324Y6336
X15145Y6815
X14345Y6915
X13745Y7415
X13395Y7865
X11705Y7336
X11195Y7415
X11495Y8365
X11160Y8565
X11945Y9215
X12995Y8965
X14545Y10015
X15345Y10115
X16015Y10555
X16895Y10462
X18095Y11015
X16895Y11215
X16042Y11372
X15545Y11215
X14975Y11243
X14645Y10615
X13645Y11115
X14345Y11715
X13430Y11986
X12105Y11331
X12145Y10915
X12145Y10415
X11445Y12015
X9345Y12015
X9345Y12476
X9345Y11515
X9245Y11115
X9245Y10615
X9245Y10215
X15551Y9273
X16285Y9385
X17334Y9025
X16990Y8695
X16151Y8373
X16395Y7015
X14145Y5615
X13922Y5381
X13069Y6533
X19445Y9517
X30445Y6515
T03
X19045Y8015
X16945Y7115
X15384Y7333
X15445Y8315
X10845Y11415
X11045Y4918
T04
X11245Y13215
X11645Y13215
X12045Y13215
X12445Y13215
X12845Y13215
X13245Y13215
X26445Y13215
X26845Y13215
X27245Y13215
X27645Y13215
X28045Y13215
X28445Y13215
T05
X28945Y12515
X27945Y12515
X26945Y12515
X25945Y12515
X24945Y12515
X23945Y12515
X22945Y12515
X21945Y12515
X20945Y12515
X19945Y12515
X18945Y12515
X17945Y12515
X16945Y12515
X15945Y12515
X14945Y12515
X13945Y12515
X12945Y12515
X11945Y12515
X10945Y12515
X9945Y12515
X9945Y3515
X10945Y3515
X11945Y3515
X12945Y3515
X13945Y3515
X14945Y3515
X15945Y3515
X16945Y3515
X17945Y3515
X18945Y3515
X19945Y3515
X20945Y3515
X21945Y3515
X22945Y3515
X23945Y3515
X24945Y3515
X25945Y3515
X26945Y3515
X27945Y3515
X28945Y3515
T06
X21395Y8015
M30
