G75*
%MOIN*%
%OFA0B0*%
%FSLAX24Y24*%
%IPPOS*%
%LPD*%
%AMOC8*
5,1,8,0,0,1.08239X$1,22.5*
%
%ADD10C,0.0047*%
%ADD11R,0.0374X0.0335*%
%ADD12C,0.0100*%
%ADD13C,0.0022*%
%ADD14R,0.0512X0.0512*%
%ADD15C,0.0074*%
%ADD16R,0.0470X0.0550*%
%ADD17C,0.0141*%
%ADD18R,0.0217X0.0472*%
%ADD19R,0.0248X0.0327*%
%ADD20C,0.0091*%
%ADD21R,0.0315X0.0118*%
%ADD22R,0.0118X0.0315*%
%ADD23C,0.0063*%
%ADD24R,0.0866X0.0335*%
%ADD25R,0.0413X0.0394*%
%ADD26R,0.0276X0.0394*%
%ADD27C,0.0107*%
%ADD28R,0.0118X0.0295*%
%ADD29R,0.0531X0.0157*%
%ADD30R,0.0610X0.0591*%
%ADD31C,0.0354*%
%ADD32C,0.0055*%
D10*
X009974Y005672D02*
X010164Y005672D01*
X009974Y005672D02*
X009974Y005862D01*
X010164Y005862D01*
X010164Y005672D01*
X010164Y005718D02*
X009974Y005718D01*
X009974Y005764D02*
X010164Y005764D01*
X010164Y005810D02*
X009974Y005810D01*
X009974Y005856D02*
X010164Y005856D01*
X010368Y005672D02*
X010558Y005672D01*
X010368Y005672D02*
X010368Y005862D01*
X010558Y005862D01*
X010558Y005672D01*
X010558Y005718D02*
X010368Y005718D01*
X010368Y005764D02*
X010558Y005764D01*
X010558Y005810D02*
X010368Y005810D01*
X010368Y005856D02*
X010558Y005856D01*
X010555Y006261D02*
X010365Y006261D01*
X010555Y006261D02*
X010555Y006071D01*
X010365Y006071D01*
X010365Y006261D01*
X010365Y006117D02*
X010555Y006117D01*
X010555Y006163D02*
X010365Y006163D01*
X010365Y006209D02*
X010555Y006209D01*
X010555Y006255D02*
X010365Y006255D01*
X010162Y006261D02*
X009972Y006261D01*
X010162Y006261D02*
X010162Y006071D01*
X009972Y006071D01*
X009972Y006261D01*
X009972Y006117D02*
X010162Y006117D01*
X010162Y006163D02*
X009972Y006163D01*
X009972Y006209D02*
X010162Y006209D01*
X010162Y006255D02*
X009972Y006255D01*
X012457Y007506D02*
X012647Y007506D01*
X012457Y007506D02*
X012457Y007696D01*
X012647Y007696D01*
X012647Y007506D01*
X012647Y007552D02*
X012457Y007552D01*
X012457Y007598D02*
X012647Y007598D01*
X012647Y007644D02*
X012457Y007644D01*
X012457Y007690D02*
X012647Y007690D01*
X012850Y007506D02*
X013040Y007506D01*
X012850Y007506D02*
X012850Y007696D01*
X013040Y007696D01*
X013040Y007506D01*
X013040Y007552D02*
X012850Y007552D01*
X012850Y007598D02*
X013040Y007598D01*
X013040Y007644D02*
X012850Y007644D01*
X012850Y007690D02*
X013040Y007690D01*
X012737Y008070D02*
X012547Y008070D01*
X012547Y008260D01*
X012737Y008260D01*
X012737Y008070D01*
X012737Y008116D02*
X012547Y008116D01*
X012547Y008162D02*
X012737Y008162D01*
X012737Y008208D02*
X012547Y008208D01*
X012547Y008254D02*
X012737Y008254D01*
X012737Y008420D02*
X012547Y008420D01*
X012547Y008610D01*
X012737Y008610D01*
X012737Y008420D01*
X012737Y008466D02*
X012547Y008466D01*
X012547Y008512D02*
X012737Y008512D01*
X012737Y008558D02*
X012547Y008558D01*
X012547Y008604D02*
X012737Y008604D01*
X012343Y008420D02*
X012153Y008420D01*
X012153Y008610D01*
X012343Y008610D01*
X012343Y008420D01*
X012343Y008466D02*
X012153Y008466D01*
X012153Y008512D02*
X012343Y008512D01*
X012343Y008558D02*
X012153Y008558D01*
X012153Y008604D02*
X012343Y008604D01*
X012343Y008070D02*
X012153Y008070D01*
X012153Y008260D01*
X012343Y008260D01*
X012343Y008070D01*
X012343Y008116D02*
X012153Y008116D01*
X012153Y008162D02*
X012343Y008162D01*
X012343Y008208D02*
X012153Y008208D01*
X012153Y008254D02*
X012343Y008254D01*
X013553Y008910D02*
X013743Y008910D01*
X013743Y008720D01*
X013553Y008720D01*
X013553Y008910D01*
X013553Y008766D02*
X013743Y008766D01*
X013743Y008812D02*
X013553Y008812D01*
X013553Y008858D02*
X013743Y008858D01*
X013743Y008904D02*
X013553Y008904D01*
X013947Y008910D02*
X014137Y008910D01*
X014137Y008720D01*
X013947Y008720D01*
X013947Y008910D01*
X013947Y008766D02*
X014137Y008766D01*
X014137Y008812D02*
X013947Y008812D01*
X013947Y008858D02*
X014137Y008858D01*
X014137Y008904D02*
X013947Y008904D01*
X012737Y009010D02*
X012547Y009010D01*
X012737Y009010D02*
X012737Y008820D01*
X012547Y008820D01*
X012547Y009010D01*
X012547Y008866D02*
X012737Y008866D01*
X012737Y008912D02*
X012547Y008912D01*
X012547Y008958D02*
X012737Y008958D01*
X012737Y009004D02*
X012547Y009004D01*
X012343Y009010D02*
X012153Y009010D01*
X012343Y009010D02*
X012343Y008820D01*
X012153Y008820D01*
X012153Y009010D01*
X012153Y008866D02*
X012343Y008866D01*
X012343Y008912D02*
X012153Y008912D01*
X012153Y008958D02*
X012343Y008958D01*
X012343Y009004D02*
X012153Y009004D01*
X011831Y009349D02*
X011641Y009349D01*
X011831Y009349D02*
X011831Y009081D01*
X011641Y009081D01*
X011641Y009349D01*
X011641Y009127D02*
X011831Y009127D01*
X011831Y009173D02*
X011641Y009173D01*
X011641Y009219D02*
X011831Y009219D01*
X011831Y009265D02*
X011641Y009265D01*
X011641Y009311D02*
X011831Y009311D01*
X011248Y009349D02*
X011058Y009349D01*
X011248Y009349D02*
X011248Y009081D01*
X011058Y009081D01*
X011058Y009349D01*
X011058Y009127D02*
X011248Y009127D01*
X011248Y009173D02*
X011058Y009173D01*
X011058Y009219D02*
X011248Y009219D01*
X011248Y009265D02*
X011058Y009265D01*
X011058Y009311D02*
X011248Y009311D01*
X014350Y010223D02*
X014350Y010413D01*
X014540Y010413D01*
X014540Y010223D01*
X014350Y010223D01*
X014350Y010269D02*
X014540Y010269D01*
X014540Y010315D02*
X014350Y010315D01*
X014350Y010361D02*
X014540Y010361D01*
X014540Y010407D02*
X014350Y010407D01*
X014350Y010617D02*
X014350Y010807D01*
X014540Y010807D01*
X014540Y010617D01*
X014350Y010617D01*
X014350Y010663D02*
X014540Y010663D01*
X014540Y010709D02*
X014350Y010709D01*
X014350Y010755D02*
X014540Y010755D01*
X014540Y010801D02*
X014350Y010801D01*
X014350Y010923D02*
X014350Y011113D01*
X014540Y011113D01*
X014540Y010923D01*
X014350Y010923D01*
X014350Y010969D02*
X014540Y010969D01*
X014540Y011015D02*
X014350Y011015D01*
X014350Y011061D02*
X014540Y011061D01*
X014540Y011107D02*
X014350Y011107D01*
X014350Y011317D02*
X014350Y011507D01*
X014540Y011507D01*
X014540Y011317D01*
X014350Y011317D01*
X014350Y011363D02*
X014540Y011363D01*
X014540Y011409D02*
X014350Y011409D01*
X014350Y011455D02*
X014540Y011455D01*
X014540Y011501D02*
X014350Y011501D01*
X012977Y011193D02*
X012787Y011193D01*
X012787Y011383D01*
X012977Y011383D01*
X012977Y011193D01*
X012977Y011239D02*
X012787Y011239D01*
X012787Y011285D02*
X012977Y011285D01*
X012977Y011331D02*
X012787Y011331D01*
X012787Y011377D02*
X012977Y011377D01*
X012583Y011193D02*
X012393Y011193D01*
X012393Y011383D01*
X012583Y011383D01*
X012583Y011193D01*
X012583Y011239D02*
X012393Y011239D01*
X012393Y011285D02*
X012583Y011285D01*
X012583Y011331D02*
X012393Y011331D01*
X012393Y011377D02*
X012583Y011377D01*
X012583Y010845D02*
X012393Y010845D01*
X012393Y011035D01*
X012583Y011035D01*
X012583Y010845D01*
X012583Y010891D02*
X012393Y010891D01*
X012393Y010937D02*
X012583Y010937D01*
X012583Y010983D02*
X012393Y010983D01*
X012393Y011029D02*
X012583Y011029D01*
X012787Y010845D02*
X012977Y010845D01*
X012787Y010845D02*
X012787Y011035D01*
X012977Y011035D01*
X012977Y010845D01*
X012977Y010891D02*
X012787Y010891D01*
X012787Y010937D02*
X012977Y010937D01*
X012977Y010983D02*
X012787Y010983D01*
X012787Y011029D02*
X012977Y011029D01*
X019234Y007867D02*
X019424Y007867D01*
X019234Y007867D02*
X019234Y008057D01*
X019424Y008057D01*
X019424Y007867D01*
X019424Y007913D02*
X019234Y007913D01*
X019234Y007959D02*
X019424Y007959D01*
X019424Y008005D02*
X019234Y008005D01*
X019234Y008051D02*
X019424Y008051D01*
X019628Y007867D02*
X019818Y007867D01*
X019628Y007867D02*
X019628Y008057D01*
X019818Y008057D01*
X019818Y007867D01*
X019818Y007913D02*
X019628Y007913D01*
X019628Y007959D02*
X019818Y007959D01*
X019818Y008005D02*
X019628Y008005D01*
X019628Y008051D02*
X019818Y008051D01*
X019737Y007060D02*
X019547Y007060D01*
X019737Y007060D02*
X019737Y006870D01*
X019547Y006870D01*
X019547Y007060D01*
X019547Y006916D02*
X019737Y006916D01*
X019737Y006962D02*
X019547Y006962D01*
X019547Y007008D02*
X019737Y007008D01*
X019737Y007054D02*
X019547Y007054D01*
X019343Y007060D02*
X019153Y007060D01*
X019343Y007060D02*
X019343Y006870D01*
X019153Y006870D01*
X019153Y007060D01*
X019153Y006916D02*
X019343Y006916D01*
X019343Y006962D02*
X019153Y006962D01*
X019153Y007008D02*
X019343Y007008D01*
X019343Y007054D02*
X019153Y007054D01*
X019154Y006609D02*
X019344Y006609D01*
X019344Y006419D01*
X019154Y006419D01*
X019154Y006609D01*
X019154Y006465D02*
X019344Y006465D01*
X019344Y006511D02*
X019154Y006511D01*
X019154Y006557D02*
X019344Y006557D01*
X019344Y006603D02*
X019154Y006603D01*
X019548Y006609D02*
X019738Y006609D01*
X019738Y006419D01*
X019548Y006419D01*
X019548Y006609D01*
X019548Y006465D02*
X019738Y006465D01*
X019738Y006511D02*
X019548Y006511D01*
X019548Y006557D02*
X019738Y006557D01*
X019738Y006603D02*
X019548Y006603D01*
X019547Y006110D02*
X019737Y006110D01*
X019737Y005920D01*
X019547Y005920D01*
X019547Y006110D01*
X019547Y005966D02*
X019737Y005966D01*
X019737Y006012D02*
X019547Y006012D01*
X019547Y006058D02*
X019737Y006058D01*
X019737Y006104D02*
X019547Y006104D01*
X019343Y006110D02*
X019153Y006110D01*
X019343Y006110D02*
X019343Y005920D01*
X019153Y005920D01*
X019153Y006110D01*
X019153Y005966D02*
X019343Y005966D01*
X019343Y006012D02*
X019153Y006012D01*
X019153Y006058D02*
X019343Y006058D01*
X019343Y006104D02*
X019153Y006104D01*
X017950Y005157D02*
X017950Y004967D01*
X017950Y005157D02*
X018140Y005157D01*
X018140Y004967D01*
X017950Y004967D01*
X017950Y005013D02*
X018140Y005013D01*
X018140Y005059D02*
X017950Y005059D01*
X017950Y005105D02*
X018140Y005105D01*
X018140Y005151D02*
X017950Y005151D01*
X017550Y005157D02*
X017550Y004967D01*
X017550Y005157D02*
X017740Y005157D01*
X017740Y004967D01*
X017550Y004967D01*
X017550Y005013D02*
X017740Y005013D01*
X017740Y005059D02*
X017550Y005059D01*
X017550Y005105D02*
X017740Y005105D01*
X017740Y005151D02*
X017550Y005151D01*
X017140Y005157D02*
X017140Y004967D01*
X016950Y004967D01*
X016950Y005157D01*
X017140Y005157D01*
X017140Y005013D02*
X016950Y005013D01*
X016950Y005059D02*
X017140Y005059D01*
X017140Y005105D02*
X016950Y005105D01*
X016950Y005151D02*
X017140Y005151D01*
X016550Y005157D02*
X016550Y004967D01*
X016550Y005157D02*
X016740Y005157D01*
X016740Y004967D01*
X016550Y004967D01*
X016550Y005013D02*
X016740Y005013D01*
X016740Y005059D02*
X016550Y005059D01*
X016550Y005105D02*
X016740Y005105D01*
X016740Y005151D02*
X016550Y005151D01*
X016550Y004763D02*
X016550Y004573D01*
X016550Y004763D02*
X016740Y004763D01*
X016740Y004573D01*
X016550Y004573D01*
X016550Y004619D02*
X016740Y004619D01*
X016740Y004665D02*
X016550Y004665D01*
X016550Y004711D02*
X016740Y004711D01*
X016740Y004757D02*
X016550Y004757D01*
X017140Y004763D02*
X017140Y004573D01*
X016950Y004573D01*
X016950Y004763D01*
X017140Y004763D01*
X017140Y004619D02*
X016950Y004619D01*
X016950Y004665D02*
X017140Y004665D01*
X017140Y004711D02*
X016950Y004711D01*
X016950Y004757D02*
X017140Y004757D01*
X017550Y004763D02*
X017550Y004573D01*
X017550Y004763D02*
X017740Y004763D01*
X017740Y004573D01*
X017550Y004573D01*
X017550Y004619D02*
X017740Y004619D01*
X017740Y004665D02*
X017550Y004665D01*
X017550Y004711D02*
X017740Y004711D01*
X017740Y004757D02*
X017550Y004757D01*
X017950Y004763D02*
X017950Y004573D01*
X017950Y004763D02*
X018140Y004763D01*
X018140Y004573D01*
X017950Y004573D01*
X017950Y004619D02*
X018140Y004619D01*
X018140Y004665D02*
X017950Y004665D01*
X017950Y004711D02*
X018140Y004711D01*
X018140Y004757D02*
X017950Y004757D01*
X015987Y004740D02*
X015797Y004740D01*
X015987Y004740D02*
X015987Y004550D01*
X015797Y004550D01*
X015797Y004740D01*
X015797Y004596D02*
X015987Y004596D01*
X015987Y004642D02*
X015797Y004642D01*
X015797Y004688D02*
X015987Y004688D01*
X015987Y004734D02*
X015797Y004734D01*
X015797Y004920D02*
X015987Y004920D01*
X015797Y004920D02*
X015797Y005110D01*
X015987Y005110D01*
X015987Y004920D01*
X015987Y004966D02*
X015797Y004966D01*
X015797Y005012D02*
X015987Y005012D01*
X015987Y005058D02*
X015797Y005058D01*
X015797Y005104D02*
X015987Y005104D01*
X015593Y004920D02*
X015403Y004920D01*
X015403Y005110D01*
X015593Y005110D01*
X015593Y004920D01*
X015593Y004966D02*
X015403Y004966D01*
X015403Y005012D02*
X015593Y005012D01*
X015593Y005058D02*
X015403Y005058D01*
X015403Y005104D02*
X015593Y005104D01*
X015593Y004740D02*
X015403Y004740D01*
X015593Y004740D02*
X015593Y004550D01*
X015403Y004550D01*
X015403Y004740D01*
X015403Y004596D02*
X015593Y004596D01*
X015593Y004642D02*
X015403Y004642D01*
X015403Y004688D02*
X015593Y004688D01*
X015593Y004734D02*
X015403Y004734D01*
X014771Y004783D02*
X014771Y004593D01*
X014581Y004593D01*
X014581Y004783D01*
X014771Y004783D01*
X014771Y004639D02*
X014581Y004639D01*
X014581Y004685D02*
X014771Y004685D01*
X014771Y004731D02*
X014581Y004731D01*
X014581Y004777D02*
X014771Y004777D01*
X014771Y004987D02*
X014771Y005177D01*
X014771Y004987D02*
X014581Y004987D01*
X014581Y005177D01*
X014771Y005177D01*
X014771Y005033D02*
X014581Y005033D01*
X014581Y005079D02*
X014771Y005079D01*
X014771Y005125D02*
X014581Y005125D01*
X014581Y005171D02*
X014771Y005171D01*
X014225Y005174D02*
X014225Y004984D01*
X014225Y005174D02*
X014415Y005174D01*
X014415Y004984D01*
X014225Y004984D01*
X014225Y005030D02*
X014415Y005030D01*
X014415Y005076D02*
X014225Y005076D01*
X014225Y005122D02*
X014415Y005122D01*
X014415Y005168D02*
X014225Y005168D01*
X013859Y005171D02*
X013859Y004981D01*
X013859Y005171D02*
X014049Y005171D01*
X014049Y004981D01*
X013859Y004981D01*
X013859Y005027D02*
X014049Y005027D01*
X014049Y005073D02*
X013859Y005073D01*
X013859Y005119D02*
X014049Y005119D01*
X014049Y005165D02*
X013859Y005165D01*
X014225Y004780D02*
X014225Y004590D01*
X014225Y004780D02*
X014415Y004780D01*
X014415Y004590D01*
X014225Y004590D01*
X014225Y004636D02*
X014415Y004636D01*
X014415Y004682D02*
X014225Y004682D01*
X014225Y004728D02*
X014415Y004728D01*
X014415Y004774D02*
X014225Y004774D01*
X013859Y004777D02*
X013859Y004587D01*
X013859Y004777D02*
X014049Y004777D01*
X014049Y004587D01*
X013859Y004587D01*
X013859Y004633D02*
X014049Y004633D01*
X014049Y004679D02*
X013859Y004679D01*
X013859Y004725D02*
X014049Y004725D01*
X014049Y004771D02*
X013859Y004771D01*
X013386Y005337D02*
X013196Y005337D01*
X013196Y005527D01*
X013386Y005527D01*
X013386Y005337D01*
X013386Y005383D02*
X013196Y005383D01*
X013196Y005429D02*
X013386Y005429D01*
X013386Y005475D02*
X013196Y005475D01*
X013196Y005521D02*
X013386Y005521D01*
X012992Y005337D02*
X012802Y005337D01*
X012802Y005527D01*
X012992Y005527D01*
X012992Y005337D01*
X012992Y005383D02*
X012802Y005383D01*
X012802Y005429D02*
X012992Y005429D01*
X012992Y005475D02*
X012802Y005475D01*
X012802Y005521D02*
X012992Y005521D01*
X014157Y006173D02*
X014157Y006363D01*
X014347Y006363D01*
X014347Y006173D01*
X014157Y006173D01*
X014157Y006219D02*
X014347Y006219D01*
X014347Y006265D02*
X014157Y006265D01*
X014157Y006311D02*
X014347Y006311D01*
X014347Y006357D02*
X014157Y006357D01*
X014550Y006363D02*
X014550Y006173D01*
X014550Y006363D02*
X014740Y006363D01*
X014740Y006173D01*
X014550Y006173D01*
X014550Y006219D02*
X014740Y006219D01*
X014740Y006265D02*
X014550Y006265D01*
X014550Y006311D02*
X014740Y006311D01*
X014740Y006357D02*
X014550Y006357D01*
X014550Y006567D02*
X014550Y006757D01*
X014740Y006757D01*
X014740Y006567D01*
X014550Y006567D01*
X014550Y006613D02*
X014740Y006613D01*
X014740Y006659D02*
X014550Y006659D01*
X014550Y006705D02*
X014740Y006705D01*
X014740Y006751D02*
X014550Y006751D01*
X014157Y006757D02*
X014157Y006567D01*
X014157Y006757D02*
X014347Y006757D01*
X014347Y006567D01*
X014157Y006567D01*
X014157Y006613D02*
X014347Y006613D01*
X014347Y006659D02*
X014157Y006659D01*
X014157Y006705D02*
X014347Y006705D01*
X014347Y006751D02*
X014157Y006751D01*
X014503Y005520D02*
X014693Y005520D01*
X014503Y005520D02*
X014503Y005710D01*
X014693Y005710D01*
X014693Y005520D01*
X014693Y005566D02*
X014503Y005566D01*
X014503Y005612D02*
X014693Y005612D01*
X014693Y005658D02*
X014503Y005658D01*
X014503Y005704D02*
X014693Y005704D01*
X014897Y005520D02*
X015087Y005520D01*
X014897Y005520D02*
X014897Y005710D01*
X015087Y005710D01*
X015087Y005520D01*
X015087Y005566D02*
X014897Y005566D01*
X014897Y005612D02*
X015087Y005612D01*
X015087Y005658D02*
X014897Y005658D01*
X014897Y005704D02*
X015087Y005704D01*
X022364Y007741D02*
X022554Y007741D01*
X022554Y007551D01*
X022364Y007551D01*
X022364Y007741D01*
X022364Y007597D02*
X022554Y007597D01*
X022554Y007643D02*
X022364Y007643D01*
X022364Y007689D02*
X022554Y007689D01*
X022554Y007735D02*
X022364Y007735D01*
X022757Y007741D02*
X022947Y007741D01*
X022947Y007551D01*
X022757Y007551D01*
X022757Y007741D01*
X022757Y007597D02*
X022947Y007597D01*
X022947Y007643D02*
X022757Y007643D01*
X022757Y007689D02*
X022947Y007689D01*
X022947Y007735D02*
X022757Y007735D01*
X022820Y007357D02*
X022820Y007167D01*
X022820Y007357D02*
X023010Y007357D01*
X023010Y007167D01*
X022820Y007167D01*
X022820Y007213D02*
X023010Y007213D01*
X023010Y007259D02*
X022820Y007259D01*
X022820Y007305D02*
X023010Y007305D01*
X023010Y007351D02*
X022820Y007351D01*
X022820Y006963D02*
X022820Y006773D01*
X022820Y006963D02*
X023010Y006963D01*
X023010Y006773D01*
X022820Y006773D01*
X022820Y006819D02*
X023010Y006819D01*
X023010Y006865D02*
X022820Y006865D01*
X022820Y006911D02*
X023010Y006911D01*
X023010Y006957D02*
X022820Y006957D01*
X024430Y006317D02*
X024430Y006127D01*
X024430Y006317D02*
X024620Y006317D01*
X024620Y006127D01*
X024430Y006127D01*
X024430Y006173D02*
X024620Y006173D01*
X024620Y006219D02*
X024430Y006219D01*
X024430Y006265D02*
X024620Y006265D01*
X024620Y006311D02*
X024430Y006311D01*
X024960Y006307D02*
X024960Y006117D01*
X024770Y006117D01*
X024770Y006307D01*
X024960Y006307D01*
X024960Y006163D02*
X024770Y006163D01*
X024770Y006209D02*
X024960Y006209D01*
X024960Y006255D02*
X024770Y006255D01*
X024770Y006301D02*
X024960Y006301D01*
X025130Y006317D02*
X025130Y006127D01*
X025130Y006317D02*
X025320Y006317D01*
X025320Y006127D01*
X025130Y006127D01*
X025130Y006173D02*
X025320Y006173D01*
X025320Y006219D02*
X025130Y006219D01*
X025130Y006265D02*
X025320Y006265D01*
X025320Y006311D02*
X025130Y006311D01*
X025130Y005923D02*
X025130Y005733D01*
X025130Y005923D02*
X025320Y005923D01*
X025320Y005733D01*
X025130Y005733D01*
X025130Y005779D02*
X025320Y005779D01*
X025320Y005825D02*
X025130Y005825D01*
X025130Y005871D02*
X025320Y005871D01*
X025320Y005917D02*
X025130Y005917D01*
X024960Y005913D02*
X024960Y005723D01*
X024770Y005723D01*
X024770Y005913D01*
X024960Y005913D01*
X024960Y005769D02*
X024770Y005769D01*
X024770Y005815D02*
X024960Y005815D01*
X024960Y005861D02*
X024770Y005861D01*
X024770Y005907D02*
X024960Y005907D01*
X024430Y005923D02*
X024430Y005733D01*
X024430Y005923D02*
X024620Y005923D01*
X024620Y005733D01*
X024430Y005733D01*
X024430Y005779D02*
X024620Y005779D01*
X024620Y005825D02*
X024430Y005825D01*
X024430Y005871D02*
X024620Y005871D01*
X024620Y005917D02*
X024430Y005917D01*
X023920Y005947D02*
X023920Y005757D01*
X023920Y005947D02*
X024110Y005947D01*
X024110Y005757D01*
X023920Y005757D01*
X023920Y005803D02*
X024110Y005803D01*
X024110Y005849D02*
X023920Y005849D01*
X023920Y005895D02*
X024110Y005895D01*
X024110Y005941D02*
X023920Y005941D01*
X023920Y005553D02*
X023920Y005363D01*
X023920Y005553D02*
X024110Y005553D01*
X024110Y005363D01*
X023920Y005363D01*
X023920Y005409D02*
X024110Y005409D01*
X024110Y005455D02*
X023920Y005455D01*
X023920Y005501D02*
X024110Y005501D01*
X024110Y005547D02*
X023920Y005547D01*
X025293Y005070D02*
X025483Y005070D01*
X025483Y004880D01*
X025293Y004880D01*
X025293Y005070D01*
X025293Y004926D02*
X025483Y004926D01*
X025483Y004972D02*
X025293Y004972D01*
X025293Y005018D02*
X025483Y005018D01*
X025483Y005064D02*
X025293Y005064D01*
X025687Y005070D02*
X025877Y005070D01*
X025877Y004880D01*
X025687Y004880D01*
X025687Y005070D01*
X025687Y004926D02*
X025877Y004926D01*
X025877Y004972D02*
X025687Y004972D01*
X025687Y005018D02*
X025877Y005018D01*
X025877Y005064D02*
X025687Y005064D01*
X025880Y005273D02*
X025880Y005463D01*
X025880Y005273D02*
X025690Y005273D01*
X025690Y005463D01*
X025880Y005463D01*
X025880Y005319D02*
X025690Y005319D01*
X025690Y005365D02*
X025880Y005365D01*
X025880Y005411D02*
X025690Y005411D01*
X025690Y005457D02*
X025880Y005457D01*
X026050Y005463D02*
X026050Y005273D01*
X026050Y005463D02*
X026240Y005463D01*
X026240Y005273D01*
X026050Y005273D01*
X026050Y005319D02*
X026240Y005319D01*
X026240Y005365D02*
X026050Y005365D01*
X026050Y005411D02*
X026240Y005411D01*
X026240Y005457D02*
X026050Y005457D01*
X026050Y005667D02*
X026050Y005857D01*
X026240Y005857D01*
X026240Y005667D01*
X026050Y005667D01*
X026050Y005713D02*
X026240Y005713D01*
X026240Y005759D02*
X026050Y005759D01*
X026050Y005805D02*
X026240Y005805D01*
X026240Y005851D02*
X026050Y005851D01*
X025880Y005857D02*
X025880Y005667D01*
X025690Y005667D01*
X025690Y005857D01*
X025880Y005857D01*
X025880Y005713D02*
X025690Y005713D01*
X025690Y005759D02*
X025880Y005759D01*
X025880Y005805D02*
X025690Y005805D01*
X025690Y005851D02*
X025880Y005851D01*
X025880Y006063D02*
X025880Y006253D01*
X026070Y006253D01*
X026070Y006063D01*
X025880Y006063D01*
X025880Y006109D02*
X026070Y006109D01*
X026070Y006155D02*
X025880Y006155D01*
X025880Y006201D02*
X026070Y006201D01*
X026070Y006247D02*
X025880Y006247D01*
X025880Y006457D02*
X025880Y006647D01*
X026070Y006647D01*
X026070Y006457D01*
X025880Y006457D01*
X025880Y006503D02*
X026070Y006503D01*
X026070Y006549D02*
X025880Y006549D01*
X025880Y006595D02*
X026070Y006595D01*
X026070Y006641D02*
X025880Y006641D01*
X027415Y006930D02*
X027605Y006930D01*
X027415Y006930D02*
X027415Y007120D01*
X027605Y007120D01*
X027605Y006930D01*
X027605Y006976D02*
X027415Y006976D01*
X027415Y007022D02*
X027605Y007022D01*
X027605Y007068D02*
X027415Y007068D01*
X027415Y007114D02*
X027605Y007114D01*
X027809Y006930D02*
X027999Y006930D01*
X027809Y006930D02*
X027809Y007120D01*
X027999Y007120D01*
X027999Y006930D01*
X027999Y006976D02*
X027809Y006976D01*
X027809Y007022D02*
X027999Y007022D01*
X027999Y007068D02*
X027809Y007068D01*
X027809Y007114D02*
X027999Y007114D01*
X027810Y007120D02*
X027810Y006930D01*
X027810Y007120D02*
X028000Y007120D01*
X028000Y006930D01*
X027810Y006930D01*
X027810Y006976D02*
X028000Y006976D01*
X028000Y007022D02*
X027810Y007022D01*
X027810Y007068D02*
X028000Y007068D01*
X028000Y007114D02*
X027810Y007114D01*
X028000Y007318D02*
X028000Y007508D01*
X028000Y007318D02*
X027810Y007318D01*
X027810Y007508D01*
X028000Y007508D01*
X028000Y007364D02*
X027810Y007364D01*
X027810Y007410D02*
X028000Y007410D01*
X028000Y007456D02*
X027810Y007456D01*
X027810Y007502D02*
X028000Y007502D01*
X027810Y007514D02*
X027810Y007324D01*
X027810Y007514D02*
X028000Y007514D01*
X028000Y007324D01*
X027810Y007324D01*
X027810Y007370D02*
X028000Y007370D01*
X028000Y007416D02*
X027810Y007416D01*
X027810Y007462D02*
X028000Y007462D01*
X028000Y007508D02*
X027810Y007508D01*
X028000Y007711D02*
X028000Y007901D01*
X028000Y007711D02*
X027810Y007711D01*
X027810Y007901D01*
X028000Y007901D01*
X028000Y007757D02*
X027810Y007757D01*
X027810Y007803D02*
X028000Y007803D01*
X028000Y007849D02*
X027810Y007849D01*
X027810Y007895D02*
X028000Y007895D01*
X027811Y007907D02*
X027811Y007717D01*
X027811Y007907D02*
X028001Y007907D01*
X028001Y007717D01*
X027811Y007717D01*
X027811Y007763D02*
X028001Y007763D01*
X028001Y007809D02*
X027811Y007809D01*
X027811Y007855D02*
X028001Y007855D01*
X028001Y007901D02*
X027811Y007901D01*
X027811Y008111D02*
X027811Y008301D01*
X028001Y008301D01*
X028001Y008111D01*
X027811Y008111D01*
X027811Y008157D02*
X028001Y008157D01*
X028001Y008203D02*
X027811Y008203D01*
X027811Y008249D02*
X028001Y008249D01*
X028001Y008295D02*
X027811Y008295D01*
X026957Y008250D02*
X026767Y008250D01*
X026767Y008440D01*
X026957Y008440D01*
X026957Y008250D01*
X026957Y008296D02*
X026767Y008296D01*
X026767Y008342D02*
X026957Y008342D01*
X026957Y008388D02*
X026767Y008388D01*
X026767Y008434D02*
X026957Y008434D01*
X026957Y008620D02*
X026767Y008620D01*
X026767Y008810D01*
X026957Y008810D01*
X026957Y008620D01*
X026957Y008666D02*
X026767Y008666D01*
X026767Y008712D02*
X026957Y008712D01*
X026957Y008758D02*
X026767Y008758D01*
X026767Y008804D02*
X026957Y008804D01*
X026563Y008620D02*
X026373Y008620D01*
X026373Y008810D01*
X026563Y008810D01*
X026563Y008620D01*
X026563Y008666D02*
X026373Y008666D01*
X026373Y008712D02*
X026563Y008712D01*
X026563Y008758D02*
X026373Y008758D01*
X026373Y008804D02*
X026563Y008804D01*
X026477Y008980D02*
X026287Y008980D01*
X026287Y009170D01*
X026477Y009170D01*
X026477Y008980D01*
X026477Y009026D02*
X026287Y009026D01*
X026287Y009072D02*
X026477Y009072D01*
X026477Y009118D02*
X026287Y009118D01*
X026287Y009164D02*
X026477Y009164D01*
X026083Y008980D02*
X025893Y008980D01*
X025893Y009170D01*
X026083Y009170D01*
X026083Y008980D01*
X026083Y009026D02*
X025893Y009026D01*
X025893Y009072D02*
X026083Y009072D01*
X026083Y009118D02*
X025893Y009118D01*
X025893Y009164D02*
X026083Y009164D01*
X025630Y009213D02*
X025630Y009403D01*
X025630Y009213D02*
X025440Y009213D01*
X025440Y009403D01*
X025630Y009403D01*
X025630Y009259D02*
X025440Y009259D01*
X025440Y009305D02*
X025630Y009305D01*
X025630Y009351D02*
X025440Y009351D01*
X025440Y009397D02*
X025630Y009397D01*
X025630Y009607D02*
X025630Y009797D01*
X025630Y009607D02*
X025440Y009607D01*
X025440Y009797D01*
X025630Y009797D01*
X025630Y009653D02*
X025440Y009653D01*
X025440Y009699D02*
X025630Y009699D01*
X025630Y009745D02*
X025440Y009745D01*
X025440Y009791D02*
X025630Y009791D01*
X025290Y009797D02*
X025290Y009607D01*
X025100Y009607D01*
X025100Y009797D01*
X025290Y009797D01*
X025290Y009653D02*
X025100Y009653D01*
X025100Y009699D02*
X025290Y009699D01*
X025290Y009745D02*
X025100Y009745D01*
X025100Y009791D02*
X025290Y009791D01*
X024930Y009787D02*
X024930Y009597D01*
X024740Y009597D01*
X024740Y009787D01*
X024930Y009787D01*
X024930Y009643D02*
X024740Y009643D01*
X024740Y009689D02*
X024930Y009689D01*
X024930Y009735D02*
X024740Y009735D01*
X024740Y009781D02*
X024930Y009781D01*
X024450Y009847D02*
X024450Y010037D01*
X024450Y009847D02*
X024260Y009847D01*
X024260Y010037D01*
X024450Y010037D01*
X024450Y009893D02*
X024260Y009893D01*
X024260Y009939D02*
X024450Y009939D01*
X024450Y009985D02*
X024260Y009985D01*
X024260Y010031D02*
X024450Y010031D01*
X024450Y009643D02*
X024450Y009453D01*
X024260Y009453D01*
X024260Y009643D01*
X024450Y009643D01*
X024450Y009499D02*
X024260Y009499D01*
X024260Y009545D02*
X024450Y009545D01*
X024450Y009591D02*
X024260Y009591D01*
X024260Y009637D02*
X024450Y009637D01*
X024930Y009393D02*
X024930Y009203D01*
X024740Y009203D01*
X024740Y009393D01*
X024930Y009393D01*
X024930Y009249D02*
X024740Y009249D01*
X024740Y009295D02*
X024930Y009295D01*
X024930Y009341D02*
X024740Y009341D01*
X024740Y009387D02*
X024930Y009387D01*
X025290Y009403D02*
X025290Y009213D01*
X025100Y009213D01*
X025100Y009403D01*
X025290Y009403D01*
X025290Y009259D02*
X025100Y009259D01*
X025100Y009305D02*
X025290Y009305D01*
X025290Y009351D02*
X025100Y009351D01*
X025100Y009397D02*
X025290Y009397D01*
X023127Y008750D02*
X022937Y008750D01*
X023127Y008750D02*
X023127Y008560D01*
X022937Y008560D01*
X022937Y008750D01*
X022937Y008606D02*
X023127Y008606D01*
X023127Y008652D02*
X022937Y008652D01*
X022937Y008698D02*
X023127Y008698D01*
X023127Y008744D02*
X022937Y008744D01*
X022733Y008750D02*
X022543Y008750D01*
X022733Y008750D02*
X022733Y008560D01*
X022543Y008560D01*
X022543Y008750D01*
X022543Y008606D02*
X022733Y008606D01*
X022733Y008652D02*
X022543Y008652D01*
X022543Y008698D02*
X022733Y008698D01*
X022733Y008744D02*
X022543Y008744D01*
X022720Y009753D02*
X022720Y009943D01*
X022720Y009753D02*
X022530Y009753D01*
X022530Y009943D01*
X022720Y009943D01*
X022720Y009799D02*
X022530Y009799D01*
X022530Y009845D02*
X022720Y009845D01*
X022720Y009891D02*
X022530Y009891D01*
X022530Y009937D02*
X022720Y009937D01*
X022720Y010147D02*
X022720Y010337D01*
X022720Y010147D02*
X022530Y010147D01*
X022530Y010337D01*
X022720Y010337D01*
X022720Y010193D02*
X022530Y010193D01*
X022530Y010239D02*
X022720Y010239D01*
X022720Y010285D02*
X022530Y010285D01*
X022530Y010331D02*
X022720Y010331D01*
X022923Y010800D02*
X023113Y010800D01*
X023113Y010610D01*
X022923Y010610D01*
X022923Y010800D01*
X022923Y010656D02*
X023113Y010656D01*
X023113Y010702D02*
X022923Y010702D01*
X022923Y010748D02*
X023113Y010748D01*
X023113Y010794D02*
X022923Y010794D01*
X023317Y010800D02*
X023507Y010800D01*
X023507Y010610D01*
X023317Y010610D01*
X023317Y010800D01*
X023317Y010656D02*
X023507Y010656D01*
X023507Y010702D02*
X023317Y010702D01*
X023317Y010748D02*
X023507Y010748D01*
X023507Y010794D02*
X023317Y010794D01*
X024200Y010783D02*
X024200Y010593D01*
X024010Y010593D01*
X024010Y010783D01*
X024200Y010783D01*
X024200Y010639D02*
X024010Y010639D01*
X024010Y010685D02*
X024200Y010685D01*
X024200Y010731D02*
X024010Y010731D01*
X024010Y010777D02*
X024200Y010777D01*
X024200Y010987D02*
X024200Y011177D01*
X024200Y010987D02*
X024010Y010987D01*
X024010Y011177D01*
X024200Y011177D01*
X024200Y011033D02*
X024010Y011033D01*
X024010Y011079D02*
X024200Y011079D01*
X024200Y011125D02*
X024010Y011125D01*
X024010Y011171D02*
X024200Y011171D01*
X021037Y009810D02*
X020847Y009810D01*
X021037Y009810D02*
X021037Y009620D01*
X020847Y009620D01*
X020847Y009810D01*
X020847Y009666D02*
X021037Y009666D01*
X021037Y009712D02*
X020847Y009712D01*
X020847Y009758D02*
X021037Y009758D01*
X021037Y009804D02*
X020847Y009804D01*
X020643Y009810D02*
X020453Y009810D01*
X020643Y009810D02*
X020643Y009620D01*
X020453Y009620D01*
X020453Y009810D01*
X020453Y009666D02*
X020643Y009666D01*
X020643Y009712D02*
X020453Y009712D01*
X020453Y009758D02*
X020643Y009758D01*
X020643Y009804D02*
X020453Y009804D01*
X026373Y008250D02*
X026563Y008250D01*
X026373Y008250D02*
X026373Y008440D01*
X026563Y008440D01*
X026563Y008250D01*
X026563Y008296D02*
X026373Y008296D01*
X026373Y008342D02*
X026563Y008342D01*
X026563Y008388D02*
X026373Y008388D01*
X026373Y008434D02*
X026563Y008434D01*
X026647Y004870D02*
X026457Y004870D01*
X026457Y005060D01*
X026647Y005060D01*
X026647Y004870D01*
X026647Y004916D02*
X026457Y004916D01*
X026457Y004962D02*
X026647Y004962D01*
X026647Y005008D02*
X026457Y005008D01*
X026457Y005054D02*
X026647Y005054D01*
X026253Y004870D02*
X026063Y004870D01*
X026063Y005060D01*
X026253Y005060D01*
X026253Y004870D01*
X026253Y004916D02*
X026063Y004916D01*
X026063Y004962D02*
X026253Y004962D01*
X026253Y005008D02*
X026063Y005008D01*
X026063Y005054D02*
X026253Y005054D01*
D11*
X023600Y009839D03*
X023600Y010291D03*
X023029Y010291D03*
D12*
X023166Y009722D02*
X022892Y009722D01*
X022892Y009956D01*
X023166Y009956D01*
X023166Y009722D01*
X023166Y009821D02*
X022892Y009821D01*
X022892Y009920D02*
X023166Y009920D01*
D13*
X023771Y008925D02*
X023771Y008633D01*
X023771Y008925D02*
X023861Y008925D01*
X023861Y008633D01*
X023771Y008633D01*
X023771Y008654D02*
X023861Y008654D01*
X023861Y008675D02*
X023771Y008675D01*
X023771Y008696D02*
X023861Y008696D01*
X023861Y008717D02*
X023771Y008717D01*
X023771Y008738D02*
X023861Y008738D01*
X023861Y008759D02*
X023771Y008759D01*
X023771Y008780D02*
X023861Y008780D01*
X023861Y008801D02*
X023771Y008801D01*
X023771Y008822D02*
X023861Y008822D01*
X023861Y008843D02*
X023771Y008843D01*
X023771Y008864D02*
X023861Y008864D01*
X023861Y008885D02*
X023771Y008885D01*
X023771Y008906D02*
X023861Y008906D01*
X023968Y008925D02*
X023968Y008633D01*
X023968Y008925D02*
X024058Y008925D01*
X024058Y008633D01*
X023968Y008633D01*
X023968Y008654D02*
X024058Y008654D01*
X024058Y008675D02*
X023968Y008675D01*
X023968Y008696D02*
X024058Y008696D01*
X024058Y008717D02*
X023968Y008717D01*
X023968Y008738D02*
X024058Y008738D01*
X024058Y008759D02*
X023968Y008759D01*
X023968Y008780D02*
X024058Y008780D01*
X024058Y008801D02*
X023968Y008801D01*
X023968Y008822D02*
X024058Y008822D01*
X024058Y008843D02*
X023968Y008843D01*
X023968Y008864D02*
X024058Y008864D01*
X024058Y008885D02*
X023968Y008885D01*
X023968Y008906D02*
X024058Y008906D01*
X024165Y008925D02*
X024165Y008633D01*
X024165Y008925D02*
X024255Y008925D01*
X024255Y008633D01*
X024165Y008633D01*
X024165Y008654D02*
X024255Y008654D01*
X024255Y008675D02*
X024165Y008675D01*
X024165Y008696D02*
X024255Y008696D01*
X024255Y008717D02*
X024165Y008717D01*
X024165Y008738D02*
X024255Y008738D01*
X024255Y008759D02*
X024165Y008759D01*
X024165Y008780D02*
X024255Y008780D01*
X024255Y008801D02*
X024165Y008801D01*
X024165Y008822D02*
X024255Y008822D01*
X024255Y008843D02*
X024165Y008843D01*
X024165Y008864D02*
X024255Y008864D01*
X024255Y008885D02*
X024165Y008885D01*
X024165Y008906D02*
X024255Y008906D01*
X024361Y008925D02*
X024361Y008633D01*
X024361Y008925D02*
X024451Y008925D01*
X024451Y008633D01*
X024361Y008633D01*
X024361Y008654D02*
X024451Y008654D01*
X024451Y008675D02*
X024361Y008675D01*
X024361Y008696D02*
X024451Y008696D01*
X024451Y008717D02*
X024361Y008717D01*
X024361Y008738D02*
X024451Y008738D01*
X024451Y008759D02*
X024361Y008759D01*
X024361Y008780D02*
X024451Y008780D01*
X024451Y008801D02*
X024361Y008801D01*
X024361Y008822D02*
X024451Y008822D01*
X024451Y008843D02*
X024361Y008843D01*
X024361Y008864D02*
X024451Y008864D01*
X024451Y008885D02*
X024361Y008885D01*
X024361Y008906D02*
X024451Y008906D01*
X024558Y008925D02*
X024558Y008633D01*
X024558Y008925D02*
X024648Y008925D01*
X024648Y008633D01*
X024558Y008633D01*
X024558Y008654D02*
X024648Y008654D01*
X024648Y008675D02*
X024558Y008675D01*
X024558Y008696D02*
X024648Y008696D01*
X024648Y008717D02*
X024558Y008717D01*
X024558Y008738D02*
X024648Y008738D01*
X024648Y008759D02*
X024558Y008759D01*
X024558Y008780D02*
X024648Y008780D01*
X024648Y008801D02*
X024558Y008801D01*
X024558Y008822D02*
X024648Y008822D01*
X024648Y008843D02*
X024558Y008843D01*
X024558Y008864D02*
X024648Y008864D01*
X024648Y008885D02*
X024558Y008885D01*
X024558Y008906D02*
X024648Y008906D01*
X024755Y008925D02*
X024755Y008633D01*
X024755Y008925D02*
X024845Y008925D01*
X024845Y008633D01*
X024755Y008633D01*
X024755Y008654D02*
X024845Y008654D01*
X024845Y008675D02*
X024755Y008675D01*
X024755Y008696D02*
X024845Y008696D01*
X024845Y008717D02*
X024755Y008717D01*
X024755Y008738D02*
X024845Y008738D01*
X024845Y008759D02*
X024755Y008759D01*
X024755Y008780D02*
X024845Y008780D01*
X024845Y008801D02*
X024755Y008801D01*
X024755Y008822D02*
X024845Y008822D01*
X024845Y008843D02*
X024755Y008843D01*
X024755Y008864D02*
X024845Y008864D01*
X024845Y008885D02*
X024755Y008885D01*
X024755Y008906D02*
X024845Y008906D01*
X024952Y008925D02*
X024952Y008633D01*
X024952Y008925D02*
X025042Y008925D01*
X025042Y008633D01*
X024952Y008633D01*
X024952Y008654D02*
X025042Y008654D01*
X025042Y008675D02*
X024952Y008675D01*
X024952Y008696D02*
X025042Y008696D01*
X025042Y008717D02*
X024952Y008717D01*
X024952Y008738D02*
X025042Y008738D01*
X025042Y008759D02*
X024952Y008759D01*
X024952Y008780D02*
X025042Y008780D01*
X025042Y008801D02*
X024952Y008801D01*
X024952Y008822D02*
X025042Y008822D01*
X025042Y008843D02*
X024952Y008843D01*
X024952Y008864D02*
X025042Y008864D01*
X025042Y008885D02*
X024952Y008885D01*
X024952Y008906D02*
X025042Y008906D01*
X025149Y008925D02*
X025149Y008633D01*
X025149Y008925D02*
X025239Y008925D01*
X025239Y008633D01*
X025149Y008633D01*
X025149Y008654D02*
X025239Y008654D01*
X025239Y008675D02*
X025149Y008675D01*
X025149Y008696D02*
X025239Y008696D01*
X025239Y008717D02*
X025149Y008717D01*
X025149Y008738D02*
X025239Y008738D01*
X025239Y008759D02*
X025149Y008759D01*
X025149Y008780D02*
X025239Y008780D01*
X025239Y008801D02*
X025149Y008801D01*
X025149Y008822D02*
X025239Y008822D01*
X025239Y008843D02*
X025149Y008843D01*
X025149Y008864D02*
X025239Y008864D01*
X025239Y008885D02*
X025149Y008885D01*
X025149Y008906D02*
X025239Y008906D01*
X025333Y008539D02*
X025625Y008539D01*
X025625Y008449D01*
X025333Y008449D01*
X025333Y008539D01*
X025333Y008470D02*
X025625Y008470D01*
X025625Y008491D02*
X025333Y008491D01*
X025333Y008512D02*
X025625Y008512D01*
X025625Y008533D02*
X025333Y008533D01*
X025333Y008342D02*
X025625Y008342D01*
X025625Y008252D01*
X025333Y008252D01*
X025333Y008342D01*
X025333Y008273D02*
X025625Y008273D01*
X025625Y008294D02*
X025333Y008294D01*
X025333Y008315D02*
X025625Y008315D01*
X025625Y008336D02*
X025333Y008336D01*
X025333Y008145D02*
X025625Y008145D01*
X025625Y008055D01*
X025333Y008055D01*
X025333Y008145D01*
X025333Y008076D02*
X025625Y008076D01*
X025625Y008097D02*
X025333Y008097D01*
X025333Y008118D02*
X025625Y008118D01*
X025625Y008139D02*
X025333Y008139D01*
X025333Y007948D02*
X025625Y007948D01*
X025625Y007858D01*
X025333Y007858D01*
X025333Y007948D01*
X025333Y007879D02*
X025625Y007879D01*
X025625Y007900D02*
X025333Y007900D01*
X025333Y007921D02*
X025625Y007921D01*
X025625Y007942D02*
X025333Y007942D01*
X025333Y007752D02*
X025625Y007752D01*
X025625Y007662D01*
X025333Y007662D01*
X025333Y007752D01*
X025333Y007683D02*
X025625Y007683D01*
X025625Y007704D02*
X025333Y007704D01*
X025333Y007725D02*
X025625Y007725D01*
X025625Y007746D02*
X025333Y007746D01*
X025333Y007555D02*
X025625Y007555D01*
X025625Y007465D01*
X025333Y007465D01*
X025333Y007555D01*
X025333Y007486D02*
X025625Y007486D01*
X025625Y007507D02*
X025333Y007507D01*
X025333Y007528D02*
X025625Y007528D01*
X025625Y007549D02*
X025333Y007549D01*
X025333Y007358D02*
X025625Y007358D01*
X025625Y007268D01*
X025333Y007268D01*
X025333Y007358D01*
X025333Y007289D02*
X025625Y007289D01*
X025625Y007310D02*
X025333Y007310D01*
X025333Y007331D02*
X025625Y007331D01*
X025625Y007352D02*
X025333Y007352D01*
X025333Y007161D02*
X025625Y007161D01*
X025625Y007071D01*
X025333Y007071D01*
X025333Y007161D01*
X025333Y007092D02*
X025625Y007092D01*
X025625Y007113D02*
X025333Y007113D01*
X025333Y007134D02*
X025625Y007134D01*
X025625Y007155D02*
X025333Y007155D01*
X025239Y006977D02*
X025239Y006685D01*
X025149Y006685D01*
X025149Y006977D01*
X025239Y006977D01*
X025239Y006706D02*
X025149Y006706D01*
X025149Y006727D02*
X025239Y006727D01*
X025239Y006748D02*
X025149Y006748D01*
X025149Y006769D02*
X025239Y006769D01*
X025239Y006790D02*
X025149Y006790D01*
X025149Y006811D02*
X025239Y006811D01*
X025239Y006832D02*
X025149Y006832D01*
X025149Y006853D02*
X025239Y006853D01*
X025239Y006874D02*
X025149Y006874D01*
X025149Y006895D02*
X025239Y006895D01*
X025239Y006916D02*
X025149Y006916D01*
X025149Y006937D02*
X025239Y006937D01*
X025239Y006958D02*
X025149Y006958D01*
X025042Y006977D02*
X025042Y006685D01*
X024952Y006685D01*
X024952Y006977D01*
X025042Y006977D01*
X025042Y006706D02*
X024952Y006706D01*
X024952Y006727D02*
X025042Y006727D01*
X025042Y006748D02*
X024952Y006748D01*
X024952Y006769D02*
X025042Y006769D01*
X025042Y006790D02*
X024952Y006790D01*
X024952Y006811D02*
X025042Y006811D01*
X025042Y006832D02*
X024952Y006832D01*
X024952Y006853D02*
X025042Y006853D01*
X025042Y006874D02*
X024952Y006874D01*
X024952Y006895D02*
X025042Y006895D01*
X025042Y006916D02*
X024952Y006916D01*
X024952Y006937D02*
X025042Y006937D01*
X025042Y006958D02*
X024952Y006958D01*
X024845Y006977D02*
X024845Y006685D01*
X024755Y006685D01*
X024755Y006977D01*
X024845Y006977D01*
X024845Y006706D02*
X024755Y006706D01*
X024755Y006727D02*
X024845Y006727D01*
X024845Y006748D02*
X024755Y006748D01*
X024755Y006769D02*
X024845Y006769D01*
X024845Y006790D02*
X024755Y006790D01*
X024755Y006811D02*
X024845Y006811D01*
X024845Y006832D02*
X024755Y006832D01*
X024755Y006853D02*
X024845Y006853D01*
X024845Y006874D02*
X024755Y006874D01*
X024755Y006895D02*
X024845Y006895D01*
X024845Y006916D02*
X024755Y006916D01*
X024755Y006937D02*
X024845Y006937D01*
X024845Y006958D02*
X024755Y006958D01*
X024648Y006977D02*
X024648Y006685D01*
X024558Y006685D01*
X024558Y006977D01*
X024648Y006977D01*
X024648Y006706D02*
X024558Y006706D01*
X024558Y006727D02*
X024648Y006727D01*
X024648Y006748D02*
X024558Y006748D01*
X024558Y006769D02*
X024648Y006769D01*
X024648Y006790D02*
X024558Y006790D01*
X024558Y006811D02*
X024648Y006811D01*
X024648Y006832D02*
X024558Y006832D01*
X024558Y006853D02*
X024648Y006853D01*
X024648Y006874D02*
X024558Y006874D01*
X024558Y006895D02*
X024648Y006895D01*
X024648Y006916D02*
X024558Y006916D01*
X024558Y006937D02*
X024648Y006937D01*
X024648Y006958D02*
X024558Y006958D01*
X024451Y006977D02*
X024451Y006685D01*
X024361Y006685D01*
X024361Y006977D01*
X024451Y006977D01*
X024451Y006706D02*
X024361Y006706D01*
X024361Y006727D02*
X024451Y006727D01*
X024451Y006748D02*
X024361Y006748D01*
X024361Y006769D02*
X024451Y006769D01*
X024451Y006790D02*
X024361Y006790D01*
X024361Y006811D02*
X024451Y006811D01*
X024451Y006832D02*
X024361Y006832D01*
X024361Y006853D02*
X024451Y006853D01*
X024451Y006874D02*
X024361Y006874D01*
X024361Y006895D02*
X024451Y006895D01*
X024451Y006916D02*
X024361Y006916D01*
X024361Y006937D02*
X024451Y006937D01*
X024451Y006958D02*
X024361Y006958D01*
X024255Y006977D02*
X024255Y006685D01*
X024165Y006685D01*
X024165Y006977D01*
X024255Y006977D01*
X024255Y006706D02*
X024165Y006706D01*
X024165Y006727D02*
X024255Y006727D01*
X024255Y006748D02*
X024165Y006748D01*
X024165Y006769D02*
X024255Y006769D01*
X024255Y006790D02*
X024165Y006790D01*
X024165Y006811D02*
X024255Y006811D01*
X024255Y006832D02*
X024165Y006832D01*
X024165Y006853D02*
X024255Y006853D01*
X024255Y006874D02*
X024165Y006874D01*
X024165Y006895D02*
X024255Y006895D01*
X024255Y006916D02*
X024165Y006916D01*
X024165Y006937D02*
X024255Y006937D01*
X024255Y006958D02*
X024165Y006958D01*
X024058Y006977D02*
X024058Y006685D01*
X023968Y006685D01*
X023968Y006977D01*
X024058Y006977D01*
X024058Y006706D02*
X023968Y006706D01*
X023968Y006727D02*
X024058Y006727D01*
X024058Y006748D02*
X023968Y006748D01*
X023968Y006769D02*
X024058Y006769D01*
X024058Y006790D02*
X023968Y006790D01*
X023968Y006811D02*
X024058Y006811D01*
X024058Y006832D02*
X023968Y006832D01*
X023968Y006853D02*
X024058Y006853D01*
X024058Y006874D02*
X023968Y006874D01*
X023968Y006895D02*
X024058Y006895D01*
X024058Y006916D02*
X023968Y006916D01*
X023968Y006937D02*
X024058Y006937D01*
X024058Y006958D02*
X023968Y006958D01*
X023861Y006977D02*
X023861Y006685D01*
X023771Y006685D01*
X023771Y006977D01*
X023861Y006977D01*
X023861Y006706D02*
X023771Y006706D01*
X023771Y006727D02*
X023861Y006727D01*
X023861Y006748D02*
X023771Y006748D01*
X023771Y006769D02*
X023861Y006769D01*
X023861Y006790D02*
X023771Y006790D01*
X023771Y006811D02*
X023861Y006811D01*
X023861Y006832D02*
X023771Y006832D01*
X023771Y006853D02*
X023861Y006853D01*
X023861Y006874D02*
X023771Y006874D01*
X023771Y006895D02*
X023861Y006895D01*
X023861Y006916D02*
X023771Y006916D01*
X023771Y006937D02*
X023861Y006937D01*
X023861Y006958D02*
X023771Y006958D01*
X023676Y007071D02*
X023384Y007071D01*
X023384Y007161D01*
X023676Y007161D01*
X023676Y007071D01*
X023676Y007092D02*
X023384Y007092D01*
X023384Y007113D02*
X023676Y007113D01*
X023676Y007134D02*
X023384Y007134D01*
X023384Y007155D02*
X023676Y007155D01*
X023676Y007268D02*
X023384Y007268D01*
X023384Y007358D01*
X023676Y007358D01*
X023676Y007268D01*
X023676Y007289D02*
X023384Y007289D01*
X023384Y007310D02*
X023676Y007310D01*
X023676Y007331D02*
X023384Y007331D01*
X023384Y007352D02*
X023676Y007352D01*
X023676Y007465D02*
X023384Y007465D01*
X023384Y007555D01*
X023676Y007555D01*
X023676Y007465D01*
X023676Y007486D02*
X023384Y007486D01*
X023384Y007507D02*
X023676Y007507D01*
X023676Y007528D02*
X023384Y007528D01*
X023384Y007549D02*
X023676Y007549D01*
X023676Y007662D02*
X023384Y007662D01*
X023384Y007752D01*
X023676Y007752D01*
X023676Y007662D01*
X023676Y007683D02*
X023384Y007683D01*
X023384Y007704D02*
X023676Y007704D01*
X023676Y007725D02*
X023384Y007725D01*
X023384Y007746D02*
X023676Y007746D01*
X023676Y007858D02*
X023384Y007858D01*
X023384Y007948D01*
X023676Y007948D01*
X023676Y007858D01*
X023676Y007879D02*
X023384Y007879D01*
X023384Y007900D02*
X023676Y007900D01*
X023676Y007921D02*
X023384Y007921D01*
X023384Y007942D02*
X023676Y007942D01*
X023676Y008055D02*
X023384Y008055D01*
X023384Y008145D01*
X023676Y008145D01*
X023676Y008055D01*
X023676Y008076D02*
X023384Y008076D01*
X023384Y008097D02*
X023676Y008097D01*
X023676Y008118D02*
X023384Y008118D01*
X023384Y008139D02*
X023676Y008139D01*
X023676Y008252D02*
X023384Y008252D01*
X023384Y008342D01*
X023676Y008342D01*
X023676Y008252D01*
X023676Y008273D02*
X023384Y008273D01*
X023384Y008294D02*
X023676Y008294D01*
X023676Y008315D02*
X023384Y008315D01*
X023384Y008336D02*
X023676Y008336D01*
X023676Y008449D02*
X023384Y008449D01*
X023384Y008539D01*
X023676Y008539D01*
X023676Y008449D01*
X023676Y008470D02*
X023384Y008470D01*
X023384Y008491D02*
X023676Y008491D01*
X023676Y008512D02*
X023384Y008512D01*
X023384Y008533D02*
X023676Y008533D01*
D14*
X024190Y008120D03*
X024820Y008120D03*
X024820Y007490D03*
X024190Y007490D03*
D15*
X018450Y007528D02*
X018130Y007528D01*
X018130Y007552D01*
X018450Y007552D01*
X018450Y007528D01*
X018450Y007332D02*
X018130Y007332D01*
X018130Y007356D01*
X018450Y007356D01*
X018450Y007332D01*
X018450Y007135D02*
X018130Y007135D01*
X018130Y007159D01*
X018450Y007159D01*
X018450Y007135D01*
X017711Y006396D02*
X017687Y006396D01*
X017687Y006716D01*
X017711Y006716D01*
X017711Y006396D01*
X017711Y006469D02*
X017687Y006469D01*
X017687Y006542D02*
X017711Y006542D01*
X017711Y006615D02*
X017687Y006615D01*
X017687Y006688D02*
X017711Y006688D01*
X017514Y006396D02*
X017490Y006396D01*
X017490Y006716D01*
X017514Y006716D01*
X017514Y006396D01*
X017514Y006469D02*
X017490Y006469D01*
X017490Y006542D02*
X017514Y006542D01*
X017514Y006615D02*
X017490Y006615D01*
X017490Y006688D02*
X017514Y006688D01*
X017317Y006396D02*
X017293Y006396D01*
X017293Y006716D01*
X017317Y006716D01*
X017317Y006396D01*
X017317Y006469D02*
X017293Y006469D01*
X017293Y006542D02*
X017317Y006542D01*
X017317Y006615D02*
X017293Y006615D01*
X017293Y006688D02*
X017317Y006688D01*
X017121Y006396D02*
X017097Y006396D01*
X017097Y006716D01*
X017121Y006716D01*
X017121Y006396D01*
X017121Y006469D02*
X017097Y006469D01*
X017097Y006542D02*
X017121Y006542D01*
X017121Y006615D02*
X017097Y006615D01*
X017097Y006688D02*
X017121Y006688D01*
X016924Y006396D02*
X016900Y006396D01*
X016900Y006716D01*
X016924Y006716D01*
X016924Y006396D01*
X016924Y006469D02*
X016900Y006469D01*
X016900Y006542D02*
X016924Y006542D01*
X016924Y006615D02*
X016900Y006615D01*
X016900Y006688D02*
X016924Y006688D01*
X016727Y006396D02*
X016703Y006396D01*
X016703Y006716D01*
X016727Y006716D01*
X016727Y006396D01*
X016727Y006469D02*
X016703Y006469D01*
X016703Y006542D02*
X016727Y006542D01*
X016727Y006615D02*
X016703Y006615D01*
X016703Y006688D02*
X016727Y006688D01*
X016530Y006396D02*
X016506Y006396D01*
X016506Y006716D01*
X016530Y006716D01*
X016530Y006396D01*
X016530Y006469D02*
X016506Y006469D01*
X016506Y006542D02*
X016530Y006542D01*
X016530Y006615D02*
X016506Y006615D01*
X016506Y006688D02*
X016530Y006688D01*
X016333Y006396D02*
X016309Y006396D01*
X016309Y006716D01*
X016333Y006716D01*
X016333Y006396D01*
X016333Y006469D02*
X016309Y006469D01*
X016309Y006542D02*
X016333Y006542D01*
X016333Y006615D02*
X016309Y006615D01*
X016309Y006688D02*
X016333Y006688D01*
X016136Y006396D02*
X016112Y006396D01*
X016112Y006716D01*
X016136Y006716D01*
X016136Y006396D01*
X016136Y006469D02*
X016112Y006469D01*
X016112Y006542D02*
X016136Y006542D01*
X016136Y006615D02*
X016112Y006615D01*
X016112Y006688D02*
X016136Y006688D01*
X015939Y006396D02*
X015915Y006396D01*
X015915Y006716D01*
X015939Y006716D01*
X015939Y006396D01*
X015939Y006469D02*
X015915Y006469D01*
X015915Y006542D02*
X015939Y006542D01*
X015939Y006615D02*
X015915Y006615D01*
X015915Y006688D02*
X015939Y006688D01*
X015743Y006396D02*
X015719Y006396D01*
X015719Y006716D01*
X015743Y006716D01*
X015743Y006396D01*
X015743Y006469D02*
X015719Y006469D01*
X015719Y006542D02*
X015743Y006542D01*
X015743Y006615D02*
X015719Y006615D01*
X015719Y006688D02*
X015743Y006688D01*
X015546Y006396D02*
X015522Y006396D01*
X015522Y006716D01*
X015546Y006716D01*
X015546Y006396D01*
X015546Y006469D02*
X015522Y006469D01*
X015522Y006542D02*
X015546Y006542D01*
X015546Y006615D02*
X015522Y006615D01*
X015522Y006688D02*
X015546Y006688D01*
X015103Y007135D02*
X014783Y007135D01*
X014783Y007159D01*
X015103Y007159D01*
X015103Y007135D01*
X015103Y007332D02*
X014783Y007332D01*
X014783Y007356D01*
X015103Y007356D01*
X015103Y007332D01*
X015103Y007528D02*
X014783Y007528D01*
X014783Y007552D01*
X015103Y007552D01*
X015103Y007528D01*
X015103Y007725D02*
X014783Y007725D01*
X014783Y007749D01*
X015103Y007749D01*
X015103Y007725D01*
X015103Y007922D02*
X014783Y007922D01*
X014783Y007946D01*
X015103Y007946D01*
X015103Y007922D01*
X015103Y008119D02*
X014783Y008119D01*
X014783Y008143D01*
X015103Y008143D01*
X015103Y008119D01*
X015103Y008316D02*
X014783Y008316D01*
X014783Y008340D01*
X015103Y008340D01*
X015103Y008316D01*
X015103Y008513D02*
X014783Y008513D01*
X014783Y008537D01*
X015103Y008537D01*
X015103Y008513D01*
X015103Y008710D02*
X014783Y008710D01*
X014783Y008734D01*
X015103Y008734D01*
X015103Y008710D01*
X015103Y008906D02*
X014783Y008906D01*
X014783Y008930D01*
X015103Y008930D01*
X015103Y008906D01*
X015103Y009103D02*
X014783Y009103D01*
X014783Y009127D01*
X015103Y009127D01*
X015103Y009103D01*
X015103Y009300D02*
X014783Y009300D01*
X014783Y009324D01*
X015103Y009324D01*
X015103Y009300D01*
X015522Y009743D02*
X015546Y009743D01*
X015522Y009743D02*
X015522Y010063D01*
X015546Y010063D01*
X015546Y009743D01*
X015546Y009816D02*
X015522Y009816D01*
X015522Y009889D02*
X015546Y009889D01*
X015546Y009962D02*
X015522Y009962D01*
X015522Y010035D02*
X015546Y010035D01*
X015719Y009743D02*
X015743Y009743D01*
X015719Y009743D02*
X015719Y010063D01*
X015743Y010063D01*
X015743Y009743D01*
X015743Y009816D02*
X015719Y009816D01*
X015719Y009889D02*
X015743Y009889D01*
X015743Y009962D02*
X015719Y009962D01*
X015719Y010035D02*
X015743Y010035D01*
X015915Y009743D02*
X015939Y009743D01*
X015915Y009743D02*
X015915Y010063D01*
X015939Y010063D01*
X015939Y009743D01*
X015939Y009816D02*
X015915Y009816D01*
X015915Y009889D02*
X015939Y009889D01*
X015939Y009962D02*
X015915Y009962D01*
X015915Y010035D02*
X015939Y010035D01*
X016112Y009743D02*
X016136Y009743D01*
X016112Y009743D02*
X016112Y010063D01*
X016136Y010063D01*
X016136Y009743D01*
X016136Y009816D02*
X016112Y009816D01*
X016112Y009889D02*
X016136Y009889D01*
X016136Y009962D02*
X016112Y009962D01*
X016112Y010035D02*
X016136Y010035D01*
X016309Y009743D02*
X016333Y009743D01*
X016309Y009743D02*
X016309Y010063D01*
X016333Y010063D01*
X016333Y009743D01*
X016333Y009816D02*
X016309Y009816D01*
X016309Y009889D02*
X016333Y009889D01*
X016333Y009962D02*
X016309Y009962D01*
X016309Y010035D02*
X016333Y010035D01*
X016506Y009743D02*
X016530Y009743D01*
X016506Y009743D02*
X016506Y010063D01*
X016530Y010063D01*
X016530Y009743D01*
X016530Y009816D02*
X016506Y009816D01*
X016506Y009889D02*
X016530Y009889D01*
X016530Y009962D02*
X016506Y009962D01*
X016506Y010035D02*
X016530Y010035D01*
X016703Y009743D02*
X016727Y009743D01*
X016703Y009743D02*
X016703Y010063D01*
X016727Y010063D01*
X016727Y009743D01*
X016727Y009816D02*
X016703Y009816D01*
X016703Y009889D02*
X016727Y009889D01*
X016727Y009962D02*
X016703Y009962D01*
X016703Y010035D02*
X016727Y010035D01*
X016900Y009743D02*
X016924Y009743D01*
X016900Y009743D02*
X016900Y010063D01*
X016924Y010063D01*
X016924Y009743D01*
X016924Y009816D02*
X016900Y009816D01*
X016900Y009889D02*
X016924Y009889D01*
X016924Y009962D02*
X016900Y009962D01*
X016900Y010035D02*
X016924Y010035D01*
X017097Y009743D02*
X017121Y009743D01*
X017097Y009743D02*
X017097Y010063D01*
X017121Y010063D01*
X017121Y009743D01*
X017121Y009816D02*
X017097Y009816D01*
X017097Y009889D02*
X017121Y009889D01*
X017121Y009962D02*
X017097Y009962D01*
X017097Y010035D02*
X017121Y010035D01*
X017293Y009743D02*
X017317Y009743D01*
X017293Y009743D02*
X017293Y010063D01*
X017317Y010063D01*
X017317Y009743D01*
X017317Y009816D02*
X017293Y009816D01*
X017293Y009889D02*
X017317Y009889D01*
X017317Y009962D02*
X017293Y009962D01*
X017293Y010035D02*
X017317Y010035D01*
X017490Y009743D02*
X017514Y009743D01*
X017490Y009743D02*
X017490Y010063D01*
X017514Y010063D01*
X017514Y009743D01*
X017514Y009816D02*
X017490Y009816D01*
X017490Y009889D02*
X017514Y009889D01*
X017514Y009962D02*
X017490Y009962D01*
X017490Y010035D02*
X017514Y010035D01*
X017687Y009743D02*
X017711Y009743D01*
X017687Y009743D02*
X017687Y010063D01*
X017711Y010063D01*
X017711Y009743D01*
X017711Y009816D02*
X017687Y009816D01*
X017687Y009889D02*
X017711Y009889D01*
X017711Y009962D02*
X017687Y009962D01*
X017687Y010035D02*
X017711Y010035D01*
X018130Y009300D02*
X018450Y009300D01*
X018130Y009300D02*
X018130Y009324D01*
X018450Y009324D01*
X018450Y009300D01*
X018450Y009103D02*
X018130Y009103D01*
X018130Y009127D01*
X018450Y009127D01*
X018450Y009103D01*
X018450Y008906D02*
X018130Y008906D01*
X018130Y008930D01*
X018450Y008930D01*
X018450Y008906D01*
X018450Y008710D02*
X018130Y008710D01*
X018130Y008734D01*
X018450Y008734D01*
X018450Y008710D01*
X018450Y008513D02*
X018130Y008513D01*
X018130Y008537D01*
X018450Y008537D01*
X018450Y008513D01*
X018450Y008316D02*
X018130Y008316D01*
X018130Y008340D01*
X018450Y008340D01*
X018450Y008316D01*
X018450Y008119D02*
X018130Y008119D01*
X018130Y008143D01*
X018450Y008143D01*
X018450Y008119D01*
X018450Y007922D02*
X018130Y007922D01*
X018130Y007946D01*
X018450Y007946D01*
X018450Y007922D01*
X018450Y007725D02*
X018130Y007725D01*
X018130Y007749D01*
X018450Y007749D01*
X018450Y007725D01*
D16*
X013393Y006965D03*
X012723Y006965D03*
X012723Y006095D03*
D17*
X013558Y006300D02*
X013558Y005890D01*
X013228Y005890D01*
X013228Y006300D01*
X013558Y006300D01*
X013558Y006030D02*
X013228Y006030D01*
X013228Y006170D02*
X013558Y006170D01*
D18*
X011919Y006527D03*
X011171Y006527D03*
X011171Y005503D03*
X011545Y005503D03*
X011919Y005503D03*
X011819Y010203D03*
X011071Y010203D03*
X011071Y011227D03*
X011445Y011227D03*
X011819Y011227D03*
D19*
X010498Y010165D03*
X009592Y010165D03*
D20*
X009509Y010675D02*
X009509Y011155D01*
X009871Y011155D01*
X009871Y010675D01*
X009509Y010675D01*
X009509Y010765D02*
X009871Y010765D01*
X009871Y010855D02*
X009509Y010855D01*
X009509Y010945D02*
X009871Y010945D01*
X009871Y011035D02*
X009509Y011035D01*
X009509Y011125D02*
X009871Y011125D01*
X010218Y011155D02*
X010218Y010675D01*
X010218Y011155D02*
X010580Y011155D01*
X010580Y010675D01*
X010218Y010675D01*
X010218Y010765D02*
X010580Y010765D01*
X010580Y010855D02*
X010218Y010855D01*
X010218Y010945D02*
X010580Y010945D01*
X010580Y011035D02*
X010218Y011035D01*
X010218Y011125D02*
X010580Y011125D01*
X012305Y010550D02*
X012785Y010550D01*
X012785Y010188D01*
X012305Y010188D01*
X012305Y010550D01*
X012305Y010278D02*
X012785Y010278D01*
X012785Y010368D02*
X012305Y010368D01*
X012305Y010458D02*
X012785Y010458D01*
X012785Y010548D02*
X012305Y010548D01*
X012305Y009842D02*
X012785Y009842D01*
X012785Y009480D01*
X012305Y009480D01*
X012305Y009842D01*
X012305Y009570D02*
X012785Y009570D01*
X012785Y009660D02*
X012305Y009660D01*
X012305Y009750D02*
X012785Y009750D01*
X012785Y009840D02*
X012305Y009840D01*
D21*
X025920Y007700D03*
X025920Y007503D03*
X025920Y007307D03*
X025920Y007110D03*
X026550Y007110D03*
X026550Y007307D03*
X026550Y007503D03*
X026550Y007700D03*
D22*
X026235Y007877D03*
X026235Y006933D03*
D23*
X009589Y005490D02*
X009337Y005490D01*
X009589Y005490D02*
X009589Y005238D01*
X009337Y005238D01*
X009337Y005490D01*
X009337Y005300D02*
X009589Y005300D01*
X009589Y005362D02*
X009337Y005362D01*
X009337Y005424D02*
X009589Y005424D01*
X009589Y005486D02*
X009337Y005486D01*
X009337Y006080D02*
X009589Y006080D01*
X009589Y005828D01*
X009337Y005828D01*
X009337Y006080D01*
X009337Y005890D02*
X009589Y005890D01*
X009589Y005952D02*
X009337Y005952D01*
X009337Y006014D02*
X009589Y006014D01*
X009589Y006076D02*
X009337Y006076D01*
D24*
X028700Y006531D03*
X028700Y005448D03*
D25*
X028100Y005989D03*
X029301Y005989D03*
D26*
X021690Y007003D03*
X021100Y007003D03*
X021100Y009027D03*
X021690Y009027D03*
D27*
X013879Y009901D02*
X013879Y010329D01*
X013879Y009901D02*
X013411Y009901D01*
X013411Y010329D01*
X013879Y010329D01*
X013879Y010007D02*
X013411Y010007D01*
X013411Y010113D02*
X013879Y010113D01*
X013879Y010219D02*
X013411Y010219D01*
X013411Y010325D02*
X013879Y010325D01*
D28*
X013940Y010706D03*
X013743Y010706D03*
X013546Y010706D03*
X013350Y010706D03*
X013350Y009524D03*
X013546Y009524D03*
X013743Y009524D03*
X013940Y009524D03*
D29*
X010579Y008527D03*
X010579Y008271D03*
X010579Y008015D03*
X010579Y007759D03*
X010579Y007503D03*
D30*
X009520Y007621D03*
X009516Y008409D03*
D31*
X009378Y009314D02*
X009654Y009314D01*
X009658Y006716D02*
X009382Y006716D01*
D32*
X010252Y006467D02*
X010252Y007043D01*
X010748Y007043D01*
X010748Y006467D01*
X010252Y006467D01*
X010252Y006521D02*
X010748Y006521D01*
X010748Y006575D02*
X010252Y006575D01*
X010252Y006629D02*
X010748Y006629D01*
X010748Y006683D02*
X010252Y006683D01*
X010252Y006737D02*
X010748Y006737D01*
X010748Y006791D02*
X010252Y006791D01*
X010252Y006845D02*
X010748Y006845D01*
X010748Y006899D02*
X010252Y006899D01*
X010252Y006953D02*
X010748Y006953D01*
X010748Y007007D02*
X010252Y007007D01*
X010252Y008987D02*
X010252Y009563D01*
X010748Y009563D01*
X010748Y008987D01*
X010252Y008987D01*
X010252Y009041D02*
X010748Y009041D01*
X010748Y009095D02*
X010252Y009095D01*
X010252Y009149D02*
X010748Y009149D01*
X010748Y009203D02*
X010252Y009203D01*
X010252Y009257D02*
X010748Y009257D01*
X010748Y009311D02*
X010252Y009311D01*
X010252Y009365D02*
X010748Y009365D01*
X010748Y009419D02*
X010252Y009419D01*
X010252Y009473D02*
X010748Y009473D01*
X010748Y009527D02*
X010252Y009527D01*
M02*
