G75*
%MOIN*%
%OFA0B0*%
%FSLAX24Y24*%
%IPPOS*%
%LPD*%
%AMOC8*
5,1,8,0,0,1.08239X$1,22.5*
%
%ADD10C,0.0000*%
D10*
X008945Y004015D02*
X008945Y012015D01*
X008947Y012075D01*
X008952Y012136D01*
X008961Y012195D01*
X008974Y012254D01*
X008990Y012313D01*
X009010Y012370D01*
X009033Y012425D01*
X009060Y012480D01*
X009089Y012532D01*
X009122Y012583D01*
X009158Y012632D01*
X009196Y012678D01*
X009238Y012722D01*
X009282Y012764D01*
X009328Y012802D01*
X009377Y012838D01*
X009428Y012871D01*
X009480Y012900D01*
X009535Y012927D01*
X009590Y012950D01*
X009647Y012970D01*
X009706Y012986D01*
X009765Y012999D01*
X009824Y013008D01*
X009885Y013013D01*
X009945Y013015D01*
X029845Y013015D01*
X028295Y013215D02*
X028297Y013239D01*
X028303Y013263D01*
X028312Y013285D01*
X028325Y013305D01*
X028341Y013323D01*
X028360Y013338D01*
X028381Y013351D01*
X028403Y013359D01*
X028427Y013364D01*
X028451Y013365D01*
X028475Y013362D01*
X028498Y013355D01*
X028520Y013345D01*
X028540Y013331D01*
X028557Y013314D01*
X028572Y013295D01*
X028583Y013274D01*
X028591Y013251D01*
X028595Y013227D01*
X028595Y013203D01*
X028591Y013179D01*
X028583Y013156D01*
X028572Y013135D01*
X028557Y013116D01*
X028540Y013099D01*
X028520Y013085D01*
X028498Y013075D01*
X028475Y013068D01*
X028451Y013065D01*
X028427Y013066D01*
X028403Y013071D01*
X028381Y013079D01*
X028360Y013092D01*
X028341Y013107D01*
X028325Y013125D01*
X028312Y013145D01*
X028303Y013167D01*
X028297Y013191D01*
X028295Y013215D01*
X027895Y013215D02*
X027897Y013239D01*
X027903Y013263D01*
X027912Y013285D01*
X027925Y013305D01*
X027941Y013323D01*
X027960Y013338D01*
X027981Y013351D01*
X028003Y013359D01*
X028027Y013364D01*
X028051Y013365D01*
X028075Y013362D01*
X028098Y013355D01*
X028120Y013345D01*
X028140Y013331D01*
X028157Y013314D01*
X028172Y013295D01*
X028183Y013274D01*
X028191Y013251D01*
X028195Y013227D01*
X028195Y013203D01*
X028191Y013179D01*
X028183Y013156D01*
X028172Y013135D01*
X028157Y013116D01*
X028140Y013099D01*
X028120Y013085D01*
X028098Y013075D01*
X028075Y013068D01*
X028051Y013065D01*
X028027Y013066D01*
X028003Y013071D01*
X027981Y013079D01*
X027960Y013092D01*
X027941Y013107D01*
X027925Y013125D01*
X027912Y013145D01*
X027903Y013167D01*
X027897Y013191D01*
X027895Y013215D01*
X027495Y013215D02*
X027497Y013239D01*
X027503Y013263D01*
X027512Y013285D01*
X027525Y013305D01*
X027541Y013323D01*
X027560Y013338D01*
X027581Y013351D01*
X027603Y013359D01*
X027627Y013364D01*
X027651Y013365D01*
X027675Y013362D01*
X027698Y013355D01*
X027720Y013345D01*
X027740Y013331D01*
X027757Y013314D01*
X027772Y013295D01*
X027783Y013274D01*
X027791Y013251D01*
X027795Y013227D01*
X027795Y013203D01*
X027791Y013179D01*
X027783Y013156D01*
X027772Y013135D01*
X027757Y013116D01*
X027740Y013099D01*
X027720Y013085D01*
X027698Y013075D01*
X027675Y013068D01*
X027651Y013065D01*
X027627Y013066D01*
X027603Y013071D01*
X027581Y013079D01*
X027560Y013092D01*
X027541Y013107D01*
X027525Y013125D01*
X027512Y013145D01*
X027503Y013167D01*
X027497Y013191D01*
X027495Y013215D01*
X027095Y013215D02*
X027097Y013239D01*
X027103Y013263D01*
X027112Y013285D01*
X027125Y013305D01*
X027141Y013323D01*
X027160Y013338D01*
X027181Y013351D01*
X027203Y013359D01*
X027227Y013364D01*
X027251Y013365D01*
X027275Y013362D01*
X027298Y013355D01*
X027320Y013345D01*
X027340Y013331D01*
X027357Y013314D01*
X027372Y013295D01*
X027383Y013274D01*
X027391Y013251D01*
X027395Y013227D01*
X027395Y013203D01*
X027391Y013179D01*
X027383Y013156D01*
X027372Y013135D01*
X027357Y013116D01*
X027340Y013099D01*
X027320Y013085D01*
X027298Y013075D01*
X027275Y013068D01*
X027251Y013065D01*
X027227Y013066D01*
X027203Y013071D01*
X027181Y013079D01*
X027160Y013092D01*
X027141Y013107D01*
X027125Y013125D01*
X027112Y013145D01*
X027103Y013167D01*
X027097Y013191D01*
X027095Y013215D01*
X026695Y013215D02*
X026697Y013239D01*
X026703Y013263D01*
X026712Y013285D01*
X026725Y013305D01*
X026741Y013323D01*
X026760Y013338D01*
X026781Y013351D01*
X026803Y013359D01*
X026827Y013364D01*
X026851Y013365D01*
X026875Y013362D01*
X026898Y013355D01*
X026920Y013345D01*
X026940Y013331D01*
X026957Y013314D01*
X026972Y013295D01*
X026983Y013274D01*
X026991Y013251D01*
X026995Y013227D01*
X026995Y013203D01*
X026991Y013179D01*
X026983Y013156D01*
X026972Y013135D01*
X026957Y013116D01*
X026940Y013099D01*
X026920Y013085D01*
X026898Y013075D01*
X026875Y013068D01*
X026851Y013065D01*
X026827Y013066D01*
X026803Y013071D01*
X026781Y013079D01*
X026760Y013092D01*
X026741Y013107D01*
X026725Y013125D01*
X026712Y013145D01*
X026703Y013167D01*
X026697Y013191D01*
X026695Y013215D01*
X026295Y013215D02*
X026297Y013239D01*
X026303Y013263D01*
X026312Y013285D01*
X026325Y013305D01*
X026341Y013323D01*
X026360Y013338D01*
X026381Y013351D01*
X026403Y013359D01*
X026427Y013364D01*
X026451Y013365D01*
X026475Y013362D01*
X026498Y013355D01*
X026520Y013345D01*
X026540Y013331D01*
X026557Y013314D01*
X026572Y013295D01*
X026583Y013274D01*
X026591Y013251D01*
X026595Y013227D01*
X026595Y013203D01*
X026591Y013179D01*
X026583Y013156D01*
X026572Y013135D01*
X026557Y013116D01*
X026540Y013099D01*
X026520Y013085D01*
X026498Y013075D01*
X026475Y013068D01*
X026451Y013065D01*
X026427Y013066D01*
X026403Y013071D01*
X026381Y013079D01*
X026360Y013092D01*
X026341Y013107D01*
X026325Y013125D01*
X026312Y013145D01*
X026303Y013167D01*
X026297Y013191D01*
X026295Y013215D01*
X029845Y013015D02*
X029905Y013013D01*
X029966Y013008D01*
X030025Y012999D01*
X030084Y012986D01*
X030143Y012970D01*
X030200Y012950D01*
X030255Y012927D01*
X030310Y012900D01*
X030362Y012871D01*
X030413Y012838D01*
X030462Y012802D01*
X030508Y012764D01*
X030552Y012722D01*
X030594Y012678D01*
X030632Y012632D01*
X030668Y012583D01*
X030701Y012532D01*
X030730Y012480D01*
X030757Y012425D01*
X030780Y012370D01*
X030800Y012313D01*
X030816Y012254D01*
X030829Y012195D01*
X030838Y012136D01*
X030843Y012075D01*
X030845Y012015D01*
X030845Y004015D01*
X030843Y003955D01*
X030838Y003894D01*
X030829Y003835D01*
X030816Y003776D01*
X030800Y003717D01*
X030780Y003660D01*
X030757Y003605D01*
X030730Y003550D01*
X030701Y003498D01*
X030668Y003447D01*
X030632Y003398D01*
X030594Y003352D01*
X030552Y003308D01*
X030508Y003266D01*
X030462Y003228D01*
X030413Y003192D01*
X030362Y003159D01*
X030310Y003130D01*
X030255Y003103D01*
X030200Y003080D01*
X030143Y003060D01*
X030084Y003044D01*
X030025Y003031D01*
X029966Y003022D01*
X029905Y003017D01*
X029845Y003015D01*
X009945Y003015D01*
X009885Y003017D01*
X009824Y003022D01*
X009765Y003031D01*
X009706Y003044D01*
X009647Y003060D01*
X009590Y003080D01*
X009535Y003103D01*
X009480Y003130D01*
X009428Y003159D01*
X009377Y003192D01*
X009328Y003228D01*
X009282Y003266D01*
X009238Y003308D01*
X009196Y003352D01*
X009158Y003398D01*
X009122Y003447D01*
X009089Y003498D01*
X009060Y003550D01*
X009033Y003605D01*
X009010Y003660D01*
X008990Y003717D01*
X008974Y003776D01*
X008961Y003835D01*
X008952Y003894D01*
X008947Y003955D01*
X008945Y004015D01*
X020765Y008015D02*
X020767Y008065D01*
X020773Y008115D01*
X020783Y008164D01*
X020797Y008212D01*
X020814Y008259D01*
X020835Y008304D01*
X020860Y008348D01*
X020888Y008389D01*
X020920Y008428D01*
X020954Y008465D01*
X020991Y008499D01*
X021031Y008529D01*
X021073Y008556D01*
X021117Y008580D01*
X021163Y008601D01*
X021210Y008617D01*
X021258Y008630D01*
X021308Y008639D01*
X021357Y008644D01*
X021408Y008645D01*
X021458Y008642D01*
X021507Y008635D01*
X021556Y008624D01*
X021604Y008609D01*
X021650Y008591D01*
X021695Y008569D01*
X021738Y008543D01*
X021779Y008514D01*
X021818Y008482D01*
X021854Y008447D01*
X021886Y008409D01*
X021916Y008369D01*
X021943Y008326D01*
X021966Y008282D01*
X021985Y008236D01*
X022001Y008188D01*
X022013Y008139D01*
X022021Y008090D01*
X022025Y008040D01*
X022025Y007990D01*
X022021Y007940D01*
X022013Y007891D01*
X022001Y007842D01*
X021985Y007794D01*
X021966Y007748D01*
X021943Y007704D01*
X021916Y007661D01*
X021886Y007621D01*
X021854Y007583D01*
X021818Y007548D01*
X021779Y007516D01*
X021738Y007487D01*
X021695Y007461D01*
X021650Y007439D01*
X021604Y007421D01*
X021556Y007406D01*
X021507Y007395D01*
X021458Y007388D01*
X021408Y007385D01*
X021357Y007386D01*
X021308Y007391D01*
X021258Y007400D01*
X021210Y007413D01*
X021163Y007429D01*
X021117Y007450D01*
X021073Y007474D01*
X021031Y007501D01*
X020991Y007531D01*
X020954Y007565D01*
X020920Y007602D01*
X020888Y007641D01*
X020860Y007682D01*
X020835Y007726D01*
X020814Y007771D01*
X020797Y007818D01*
X020783Y007866D01*
X020773Y007915D01*
X020767Y007965D01*
X020765Y008015D01*
X013095Y013215D02*
X013097Y013239D01*
X013103Y013263D01*
X013112Y013285D01*
X013125Y013305D01*
X013141Y013323D01*
X013160Y013338D01*
X013181Y013351D01*
X013203Y013359D01*
X013227Y013364D01*
X013251Y013365D01*
X013275Y013362D01*
X013298Y013355D01*
X013320Y013345D01*
X013340Y013331D01*
X013357Y013314D01*
X013372Y013295D01*
X013383Y013274D01*
X013391Y013251D01*
X013395Y013227D01*
X013395Y013203D01*
X013391Y013179D01*
X013383Y013156D01*
X013372Y013135D01*
X013357Y013116D01*
X013340Y013099D01*
X013320Y013085D01*
X013298Y013075D01*
X013275Y013068D01*
X013251Y013065D01*
X013227Y013066D01*
X013203Y013071D01*
X013181Y013079D01*
X013160Y013092D01*
X013141Y013107D01*
X013125Y013125D01*
X013112Y013145D01*
X013103Y013167D01*
X013097Y013191D01*
X013095Y013215D01*
X012695Y013215D02*
X012697Y013239D01*
X012703Y013263D01*
X012712Y013285D01*
X012725Y013305D01*
X012741Y013323D01*
X012760Y013338D01*
X012781Y013351D01*
X012803Y013359D01*
X012827Y013364D01*
X012851Y013365D01*
X012875Y013362D01*
X012898Y013355D01*
X012920Y013345D01*
X012940Y013331D01*
X012957Y013314D01*
X012972Y013295D01*
X012983Y013274D01*
X012991Y013251D01*
X012995Y013227D01*
X012995Y013203D01*
X012991Y013179D01*
X012983Y013156D01*
X012972Y013135D01*
X012957Y013116D01*
X012940Y013099D01*
X012920Y013085D01*
X012898Y013075D01*
X012875Y013068D01*
X012851Y013065D01*
X012827Y013066D01*
X012803Y013071D01*
X012781Y013079D01*
X012760Y013092D01*
X012741Y013107D01*
X012725Y013125D01*
X012712Y013145D01*
X012703Y013167D01*
X012697Y013191D01*
X012695Y013215D01*
X012295Y013215D02*
X012297Y013239D01*
X012303Y013263D01*
X012312Y013285D01*
X012325Y013305D01*
X012341Y013323D01*
X012360Y013338D01*
X012381Y013351D01*
X012403Y013359D01*
X012427Y013364D01*
X012451Y013365D01*
X012475Y013362D01*
X012498Y013355D01*
X012520Y013345D01*
X012540Y013331D01*
X012557Y013314D01*
X012572Y013295D01*
X012583Y013274D01*
X012591Y013251D01*
X012595Y013227D01*
X012595Y013203D01*
X012591Y013179D01*
X012583Y013156D01*
X012572Y013135D01*
X012557Y013116D01*
X012540Y013099D01*
X012520Y013085D01*
X012498Y013075D01*
X012475Y013068D01*
X012451Y013065D01*
X012427Y013066D01*
X012403Y013071D01*
X012381Y013079D01*
X012360Y013092D01*
X012341Y013107D01*
X012325Y013125D01*
X012312Y013145D01*
X012303Y013167D01*
X012297Y013191D01*
X012295Y013215D01*
X011895Y013215D02*
X011897Y013239D01*
X011903Y013263D01*
X011912Y013285D01*
X011925Y013305D01*
X011941Y013323D01*
X011960Y013338D01*
X011981Y013351D01*
X012003Y013359D01*
X012027Y013364D01*
X012051Y013365D01*
X012075Y013362D01*
X012098Y013355D01*
X012120Y013345D01*
X012140Y013331D01*
X012157Y013314D01*
X012172Y013295D01*
X012183Y013274D01*
X012191Y013251D01*
X012195Y013227D01*
X012195Y013203D01*
X012191Y013179D01*
X012183Y013156D01*
X012172Y013135D01*
X012157Y013116D01*
X012140Y013099D01*
X012120Y013085D01*
X012098Y013075D01*
X012075Y013068D01*
X012051Y013065D01*
X012027Y013066D01*
X012003Y013071D01*
X011981Y013079D01*
X011960Y013092D01*
X011941Y013107D01*
X011925Y013125D01*
X011912Y013145D01*
X011903Y013167D01*
X011897Y013191D01*
X011895Y013215D01*
X011495Y013215D02*
X011497Y013239D01*
X011503Y013263D01*
X011512Y013285D01*
X011525Y013305D01*
X011541Y013323D01*
X011560Y013338D01*
X011581Y013351D01*
X011603Y013359D01*
X011627Y013364D01*
X011651Y013365D01*
X011675Y013362D01*
X011698Y013355D01*
X011720Y013345D01*
X011740Y013331D01*
X011757Y013314D01*
X011772Y013295D01*
X011783Y013274D01*
X011791Y013251D01*
X011795Y013227D01*
X011795Y013203D01*
X011791Y013179D01*
X011783Y013156D01*
X011772Y013135D01*
X011757Y013116D01*
X011740Y013099D01*
X011720Y013085D01*
X011698Y013075D01*
X011675Y013068D01*
X011651Y013065D01*
X011627Y013066D01*
X011603Y013071D01*
X011581Y013079D01*
X011560Y013092D01*
X011541Y013107D01*
X011525Y013125D01*
X011512Y013145D01*
X011503Y013167D01*
X011497Y013191D01*
X011495Y013215D01*
X011095Y013215D02*
X011097Y013239D01*
X011103Y013263D01*
X011112Y013285D01*
X011125Y013305D01*
X011141Y013323D01*
X011160Y013338D01*
X011181Y013351D01*
X011203Y013359D01*
X011227Y013364D01*
X011251Y013365D01*
X011275Y013362D01*
X011298Y013355D01*
X011320Y013345D01*
X011340Y013331D01*
X011357Y013314D01*
X011372Y013295D01*
X011383Y013274D01*
X011391Y013251D01*
X011395Y013227D01*
X011395Y013203D01*
X011391Y013179D01*
X011383Y013156D01*
X011372Y013135D01*
X011357Y013116D01*
X011340Y013099D01*
X011320Y013085D01*
X011298Y013075D01*
X011275Y013068D01*
X011251Y013065D01*
X011227Y013066D01*
X011203Y013071D01*
X011181Y013079D01*
X011160Y013092D01*
X011141Y013107D01*
X011125Y013125D01*
X011112Y013145D01*
X011103Y013167D01*
X011097Y013191D01*
X011095Y013215D01*
M02*
