G75*
%MOIN*%
%OFA0B0*%
%FSLAX24Y24*%
%IPPOS*%
%LPD*%
%AMOC8*
5,1,8,0,0,1.08239X$1,22.5*
%
%ADD10C,0.0600*%
%ADD11C,0.0160*%
%ADD12C,0.0200*%
%ADD13C,0.0180*%
%ADD14C,0.0080*%
%ADD15C,0.0240*%
%ADD16C,0.0100*%
D10*
X009945Y003515D03*
X010945Y003515D03*
X011945Y003515D03*
X012945Y003515D03*
X013945Y003515D03*
X014945Y003515D03*
X015945Y003515D03*
X016945Y003515D03*
X017945Y003515D03*
X018945Y003515D03*
X019945Y003515D03*
X020945Y003515D03*
X021945Y003515D03*
X022945Y003515D03*
X023945Y003515D03*
X024945Y003515D03*
X025945Y003515D03*
X026945Y003515D03*
X027945Y003515D03*
X028945Y003515D03*
X028945Y012515D03*
X027945Y012515D03*
X026945Y012515D03*
X025945Y012515D03*
X024945Y012515D03*
X023945Y012515D03*
X022945Y012515D03*
X021945Y012515D03*
X020945Y012515D03*
X019945Y012515D03*
X018945Y012515D03*
X017945Y012515D03*
X016945Y012515D03*
X015945Y012515D03*
X014945Y012515D03*
X013945Y012515D03*
X012945Y012515D03*
X011945Y012515D03*
X010945Y012515D03*
X009945Y012515D03*
D11*
X009155Y003890D02*
X009232Y003652D01*
X009379Y003449D01*
X009582Y003302D01*
X009820Y003225D01*
X009945Y003215D01*
X010608Y003215D01*
X010563Y003260D01*
X010495Y003425D01*
X010495Y003605D01*
X010563Y003770D01*
X010690Y003896D01*
X010855Y003965D01*
X011034Y003965D01*
X011200Y003896D01*
X011326Y003770D01*
X011395Y003605D01*
X011395Y003425D01*
X011326Y003260D01*
X011281Y003215D01*
X011608Y003215D01*
X011563Y003260D01*
X011495Y003425D01*
X011495Y003605D01*
X011563Y003770D01*
X011690Y003896D01*
X011705Y003903D01*
X011583Y004207D01*
X011556Y004234D01*
X011555Y004277D01*
X011539Y004318D01*
X011554Y004353D01*
X011528Y006418D01*
X011524Y006423D01*
X011527Y006496D01*
X011526Y006568D01*
X011531Y006573D01*
X011540Y006758D01*
X011523Y007165D01*
X011494Y007195D01*
X011455Y007287D01*
X011455Y007386D01*
X011494Y007478D01*
X011564Y007548D01*
X011656Y007586D01*
X011755Y007586D01*
X011847Y007548D01*
X011917Y007478D01*
X011955Y007386D01*
X011955Y007287D01*
X011917Y007195D01*
X011902Y007180D01*
X011917Y006834D01*
X011924Y006827D01*
X011921Y006757D01*
X011924Y006687D01*
X011917Y006680D01*
X011907Y006489D01*
X011934Y004353D01*
X012100Y003938D01*
X012200Y003896D01*
X012326Y003770D01*
X012395Y003605D01*
X012395Y003425D01*
X012326Y003260D01*
X012281Y003215D01*
X012608Y003215D01*
X012563Y003260D01*
X012495Y003425D01*
X012495Y003605D01*
X012563Y003770D01*
X012690Y003896D01*
X012720Y003909D01*
X012283Y004554D01*
X012240Y004597D01*
X012240Y004617D01*
X012228Y004634D01*
X012240Y004694D01*
X012240Y007421D01*
X012071Y007690D01*
X011914Y007920D01*
X011551Y008118D01*
X011545Y008115D01*
X011445Y008115D01*
X011353Y008153D01*
X011283Y008223D01*
X011245Y008315D01*
X011245Y008330D01*
X011209Y008315D01*
X011110Y008315D01*
X011018Y008353D01*
X010948Y008423D01*
X010910Y008515D01*
X010910Y008615D01*
X010948Y008707D01*
X011018Y008777D01*
X011110Y008815D01*
X011209Y008815D01*
X011301Y008777D01*
X011372Y008707D01*
X011410Y008615D01*
X011410Y008600D01*
X011445Y008615D01*
X011545Y008615D01*
X011636Y008577D01*
X011707Y008507D01*
X011729Y008454D01*
X012110Y008246D01*
X012157Y008237D01*
X012176Y008210D01*
X012205Y008194D01*
X012219Y008147D01*
X012345Y007962D01*
X012349Y007961D01*
X012389Y007898D01*
X012431Y007836D01*
X012430Y007832D01*
X012579Y007595D01*
X012620Y007554D01*
X012620Y007530D01*
X012633Y007510D01*
X012620Y007454D01*
X012620Y004734D01*
X013092Y004037D01*
X013135Y003994D01*
X013135Y003973D01*
X013146Y003956D01*
X013140Y003921D01*
X013200Y003896D01*
X013326Y003770D01*
X013395Y003605D01*
X013395Y003425D01*
X013326Y003260D01*
X013281Y003215D01*
X013608Y003215D01*
X013563Y003260D01*
X013495Y003425D01*
X013495Y003605D01*
X013563Y003770D01*
X013690Y003896D01*
X013855Y003965D01*
X014034Y003965D01*
X014200Y003896D01*
X014326Y003770D01*
X014395Y003605D01*
X014395Y003425D01*
X014326Y003260D01*
X014281Y003215D01*
X014608Y003215D01*
X014563Y003260D01*
X014495Y003425D01*
X014495Y003605D01*
X014563Y003770D01*
X014658Y003865D01*
X014481Y004224D01*
X014438Y004242D01*
X014368Y004312D01*
X014330Y004404D01*
X014330Y004504D01*
X014368Y004596D01*
X014438Y004666D01*
X014530Y004704D01*
X014630Y004704D01*
X014722Y004666D01*
X014792Y004596D01*
X014830Y004504D01*
X014830Y004404D01*
X014824Y004389D01*
X014991Y004049D01*
X015010Y004037D01*
X015024Y003981D01*
X015032Y003965D01*
X015034Y003965D01*
X015200Y003896D01*
X015326Y003770D01*
X015395Y003605D01*
X015395Y003425D01*
X015326Y003260D01*
X015281Y003215D01*
X015608Y003215D01*
X015563Y003260D01*
X015495Y003425D01*
X015495Y003605D01*
X015563Y003770D01*
X015670Y003876D01*
X015648Y003867D01*
X015549Y003867D01*
X015457Y003905D01*
X015386Y003976D01*
X015348Y004068D01*
X015348Y004167D01*
X015386Y004259D01*
X015457Y004329D01*
X015549Y004367D01*
X015648Y004367D01*
X015740Y004329D01*
X015810Y004259D01*
X015848Y004167D01*
X015848Y004068D01*
X015810Y003976D01*
X015760Y003926D01*
X015855Y003965D01*
X016034Y003965D01*
X016200Y003896D01*
X016326Y003770D01*
X016395Y003605D01*
X016395Y003425D01*
X016326Y003260D01*
X016281Y003215D01*
X016608Y003215D01*
X016563Y003260D01*
X016495Y003425D01*
X016495Y003605D01*
X016563Y003770D01*
X016690Y003896D01*
X016855Y003965D01*
X017034Y003965D01*
X017200Y003896D01*
X017326Y003770D01*
X017395Y003605D01*
X017395Y003425D01*
X017326Y003260D01*
X017281Y003215D01*
X017608Y003215D01*
X017563Y003260D01*
X017495Y003425D01*
X017495Y003605D01*
X017563Y003770D01*
X017690Y003896D01*
X017855Y003965D01*
X018034Y003965D01*
X018099Y003938D01*
X018361Y004200D01*
X018361Y004623D01*
X018339Y004645D01*
X018301Y004737D01*
X018301Y004836D01*
X018339Y004928D01*
X018409Y004999D01*
X018501Y005037D01*
X018601Y005037D01*
X018693Y004999D01*
X018730Y004961D01*
X018733Y004968D01*
X018803Y005038D01*
X018895Y005076D01*
X018995Y005076D01*
X019086Y005038D01*
X019157Y004968D01*
X019195Y004876D01*
X019195Y004776D01*
X019157Y004684D01*
X019135Y004662D01*
X019135Y003923D01*
X019200Y003896D01*
X019326Y003770D01*
X019395Y003605D01*
X019395Y003425D01*
X019326Y003260D01*
X019281Y003215D01*
X019608Y003215D01*
X019563Y003260D01*
X019495Y003425D01*
X019495Y003605D01*
X019563Y003770D01*
X019690Y003896D01*
X019855Y003965D01*
X020034Y003965D01*
X020200Y003896D01*
X020326Y003770D01*
X020395Y003605D01*
X020395Y003425D01*
X020326Y003260D01*
X020281Y003215D01*
X020608Y003215D01*
X020563Y003260D01*
X020495Y003425D01*
X020495Y003605D01*
X020563Y003770D01*
X020690Y003896D01*
X020855Y003965D01*
X021034Y003965D01*
X021200Y003896D01*
X021326Y003770D01*
X021395Y003605D01*
X021395Y003425D01*
X021326Y003260D01*
X021281Y003215D01*
X021608Y003215D01*
X021563Y003260D01*
X021495Y003425D01*
X021495Y003605D01*
X021563Y003770D01*
X021690Y003896D01*
X021855Y003965D01*
X022034Y003965D01*
X022200Y003896D01*
X022326Y003770D01*
X022395Y003605D01*
X022395Y003425D01*
X022326Y003260D01*
X022281Y003215D01*
X022608Y003215D01*
X022563Y003260D01*
X022495Y003425D01*
X022495Y003605D01*
X022563Y003770D01*
X022690Y003896D01*
X022855Y003965D01*
X023034Y003965D01*
X023200Y003896D01*
X023326Y003770D01*
X023395Y003605D01*
X023395Y003425D01*
X023326Y003260D01*
X023281Y003215D01*
X023608Y003215D01*
X023563Y003260D01*
X023495Y003425D01*
X023495Y003605D01*
X023563Y003770D01*
X023690Y003896D01*
X023855Y003965D01*
X024034Y003965D01*
X024200Y003896D01*
X024326Y003770D01*
X024395Y003605D01*
X024395Y003425D01*
X024326Y003260D01*
X024281Y003215D01*
X024608Y003215D01*
X024563Y003260D01*
X024495Y003425D01*
X024495Y003605D01*
X024563Y003770D01*
X024690Y003896D01*
X024855Y003965D01*
X025034Y003965D01*
X025200Y003896D01*
X025326Y003770D01*
X025395Y003605D01*
X025395Y003425D01*
X025326Y003260D01*
X025281Y003215D01*
X025608Y003215D01*
X025563Y003260D01*
X025495Y003425D01*
X025495Y003605D01*
X025563Y003770D01*
X025690Y003896D01*
X025855Y003965D01*
X026034Y003965D01*
X026200Y003896D01*
X026326Y003770D01*
X026395Y003605D01*
X026395Y003425D01*
X026326Y003260D01*
X026281Y003215D01*
X026608Y003215D01*
X026563Y003260D01*
X026495Y003425D01*
X026495Y003605D01*
X026563Y003770D01*
X026690Y003896D01*
X026855Y003965D01*
X027034Y003965D01*
X027200Y003896D01*
X027326Y003770D01*
X027395Y003605D01*
X027395Y003425D01*
X027326Y003260D01*
X027281Y003215D01*
X027608Y003215D01*
X027563Y003260D01*
X027495Y003425D01*
X027495Y003605D01*
X027563Y003770D01*
X027690Y003896D01*
X027855Y003965D01*
X028034Y003965D01*
X028200Y003896D01*
X028326Y003770D01*
X028395Y003605D01*
X028395Y003425D01*
X028326Y003260D01*
X028281Y003215D01*
X029845Y003215D01*
X029970Y003225D01*
X030208Y003302D01*
X030410Y003449D01*
X030558Y003652D01*
X030635Y003890D01*
X030645Y004015D01*
X030645Y012015D01*
X030635Y012140D01*
X030558Y012378D01*
X030410Y012581D01*
X030208Y012728D01*
X029970Y012805D01*
X029845Y012815D01*
X028281Y012815D01*
X028326Y012770D01*
X028395Y012605D01*
X028395Y012425D01*
X028326Y012260D01*
X028200Y012134D01*
X028034Y012065D01*
X027855Y012065D01*
X027690Y012134D01*
X027563Y012260D01*
X027495Y012425D01*
X027495Y012605D01*
X027563Y012770D01*
X027608Y012815D01*
X027281Y012815D01*
X027326Y012770D01*
X027395Y012605D01*
X027395Y012425D01*
X027326Y012260D01*
X027200Y012134D01*
X027034Y012065D01*
X026855Y012065D01*
X026690Y012134D01*
X026563Y012260D01*
X026495Y012425D01*
X026495Y012605D01*
X026563Y012770D01*
X026608Y012815D01*
X026281Y012815D01*
X026326Y012770D01*
X026395Y012605D01*
X026395Y012425D01*
X026326Y012260D01*
X026200Y012134D01*
X026034Y012065D01*
X025855Y012065D01*
X025690Y012134D01*
X025563Y012260D01*
X025495Y012425D01*
X025495Y012605D01*
X025563Y012770D01*
X025608Y012815D01*
X025281Y012815D01*
X025326Y012770D01*
X025395Y012605D01*
X025395Y012425D01*
X025326Y012260D01*
X025200Y012134D01*
X025034Y012065D01*
X024855Y012065D01*
X024690Y012134D01*
X024563Y012260D01*
X024495Y012425D01*
X024495Y012605D01*
X024563Y012770D01*
X024608Y012815D01*
X024281Y012815D01*
X024326Y012770D01*
X024395Y012605D01*
X024395Y012425D01*
X024326Y012260D01*
X024200Y012134D01*
X024034Y012065D01*
X023862Y012065D01*
X023597Y011758D01*
X023560Y011702D01*
X023546Y011699D01*
X023537Y011689D01*
X023471Y011684D01*
X022369Y011457D01*
X021348Y010807D01*
X021340Y010788D01*
X021283Y010766D01*
X021232Y010734D01*
X021212Y010738D01*
X020880Y010607D01*
X020934Y010584D01*
X021005Y010514D01*
X021043Y010422D01*
X021043Y010323D01*
X021005Y010231D01*
X020934Y010161D01*
X020843Y010122D01*
X020743Y010122D01*
X020651Y010161D01*
X020581Y010231D01*
X020543Y010323D01*
X020543Y010422D01*
X020569Y010484D01*
X020043Y010277D01*
X020032Y010252D01*
X019962Y010182D01*
X019870Y010144D01*
X019771Y010144D01*
X019679Y010182D01*
X019608Y010252D01*
X019570Y010344D01*
X019570Y010443D01*
X019608Y010535D01*
X019679Y010606D01*
X019771Y010644D01*
X019870Y010644D01*
X019903Y010630D01*
X021110Y011106D01*
X022160Y011775D01*
X022181Y011806D01*
X022224Y011815D01*
X022261Y011839D01*
X022298Y011831D01*
X023343Y012046D01*
X023552Y012287D01*
X023495Y012425D01*
X023495Y012605D01*
X023563Y012770D01*
X023608Y012815D01*
X023281Y012815D01*
X023326Y012770D01*
X023395Y012605D01*
X023395Y012425D01*
X023326Y012260D01*
X023200Y012134D01*
X023034Y012065D01*
X022855Y012065D01*
X022690Y012134D01*
X022563Y012260D01*
X022495Y012425D01*
X022495Y012605D01*
X022563Y012770D01*
X022608Y012815D01*
X022281Y012815D01*
X022326Y012770D01*
X022395Y012605D01*
X022395Y012425D01*
X022326Y012260D01*
X022200Y012134D01*
X022034Y012065D01*
X021855Y012065D01*
X021690Y012134D01*
X021563Y012260D01*
X021495Y012425D01*
X021495Y012605D01*
X021563Y012770D01*
X021608Y012815D01*
X021281Y012815D01*
X021326Y012770D01*
X021395Y012605D01*
X021395Y012425D01*
X021326Y012260D01*
X021200Y012134D01*
X021034Y012065D01*
X020855Y012065D01*
X020690Y012134D01*
X020563Y012260D01*
X020495Y012425D01*
X020495Y012605D01*
X020563Y012770D01*
X020608Y012815D01*
X020281Y012815D01*
X020326Y012770D01*
X020395Y012605D01*
X020395Y012425D01*
X020326Y012260D01*
X020200Y012134D01*
X020034Y012065D01*
X019855Y012065D01*
X019690Y012134D01*
X019563Y012260D01*
X019495Y012425D01*
X019495Y012605D01*
X019563Y012770D01*
X019608Y012815D01*
X019281Y012815D01*
X019326Y012770D01*
X019395Y012605D01*
X019395Y012425D01*
X019326Y012260D01*
X019200Y012134D01*
X019034Y012065D01*
X018855Y012065D01*
X018690Y012134D01*
X018563Y012260D01*
X018495Y012425D01*
X018495Y012605D01*
X018563Y012770D01*
X018608Y012815D01*
X018281Y012815D01*
X018326Y012770D01*
X018395Y012605D01*
X018395Y012425D01*
X018326Y012260D01*
X018200Y012134D01*
X018034Y012065D01*
X017855Y012065D01*
X017690Y012134D01*
X017563Y012260D01*
X017495Y012425D01*
X017495Y012605D01*
X017563Y012770D01*
X017608Y012815D01*
X017281Y012815D01*
X017326Y012770D01*
X017395Y012605D01*
X017395Y012425D01*
X017326Y012260D01*
X017200Y012134D01*
X017034Y012065D01*
X016855Y012065D01*
X016690Y012134D01*
X016563Y012260D01*
X016495Y012425D01*
X016495Y012605D01*
X016563Y012770D01*
X016608Y012815D01*
X016281Y012815D01*
X016326Y012770D01*
X016395Y012605D01*
X016395Y012425D01*
X016326Y012260D01*
X016200Y012134D01*
X016034Y012065D01*
X015855Y012065D01*
X015690Y012134D01*
X015563Y012260D01*
X015495Y012425D01*
X015495Y012605D01*
X015563Y012770D01*
X015608Y012815D01*
X015281Y012815D01*
X015326Y012770D01*
X015395Y012605D01*
X015395Y012425D01*
X015326Y012260D01*
X015200Y012134D01*
X015145Y012111D01*
X015145Y011732D01*
X014893Y011480D01*
X014925Y011493D01*
X015024Y011493D01*
X015116Y011455D01*
X015187Y011385D01*
X015225Y011293D01*
X015225Y011194D01*
X015187Y011102D01*
X015116Y011031D01*
X015024Y010993D01*
X014925Y010993D01*
X014833Y011031D01*
X014763Y011102D01*
X014725Y011194D01*
X014725Y011293D01*
X014738Y011326D01*
X014545Y011132D01*
X014428Y011015D01*
X013874Y011015D01*
X013857Y010973D01*
X013786Y010903D01*
X013695Y010865D01*
X013595Y010865D01*
X013503Y010903D01*
X013433Y010973D01*
X013395Y011065D01*
X013395Y011165D01*
X013433Y011257D01*
X011069Y011257D01*
X011074Y011262D02*
X011115Y011361D01*
X011115Y011469D01*
X011074Y011568D01*
X010998Y011644D01*
X010899Y011685D01*
X010791Y011685D01*
X010692Y011644D01*
X010616Y011568D01*
X010575Y011469D01*
X010575Y011361D01*
X010616Y011262D01*
X010692Y011186D01*
X010791Y011145D01*
X010899Y011145D01*
X010998Y011186D01*
X011074Y011262D01*
X011115Y011416D02*
X014262Y011416D01*
X014262Y011415D02*
X013662Y011415D01*
X013612Y011365D01*
X013595Y011365D01*
X013503Y011327D01*
X013433Y011257D01*
X013395Y011099D02*
X009145Y011099D01*
X009145Y011257D02*
X010621Y011257D01*
X010575Y011416D02*
X009145Y011416D01*
X009145Y011574D02*
X010622Y011574D01*
X011068Y011574D02*
X014421Y011574D01*
X014579Y011733D02*
X009145Y011733D01*
X009145Y011891D02*
X014738Y011891D01*
X014745Y011898D02*
X014262Y011415D01*
X014511Y011099D02*
X014766Y011099D01*
X014725Y011257D02*
X014670Y011257D01*
X014695Y010865D02*
X014595Y010865D01*
X014503Y010827D01*
X014433Y010757D01*
X014395Y010665D01*
X014395Y010565D01*
X014433Y010473D01*
X014503Y010403D01*
X014595Y010365D01*
X014695Y010365D01*
X014786Y010403D01*
X014857Y010473D01*
X014895Y010565D01*
X014895Y010665D01*
X014857Y010757D01*
X014786Y010827D01*
X014695Y010865D01*
X014832Y010782D02*
X015908Y010782D01*
X015873Y010767D02*
X015803Y010697D01*
X015765Y010605D01*
X015765Y010505D01*
X015803Y010413D01*
X015873Y010343D01*
X015965Y010305D01*
X016065Y010305D01*
X016156Y010343D01*
X016227Y010413D01*
X016265Y010505D01*
X016265Y010605D01*
X016227Y010697D01*
X016156Y010767D01*
X016065Y010805D01*
X015965Y010805D01*
X015873Y010767D01*
X015772Y010623D02*
X014895Y010623D01*
X014848Y010465D02*
X015782Y010465D01*
X015963Y010306D02*
X015507Y010306D01*
X015486Y010327D02*
X015395Y010365D01*
X015295Y010365D01*
X015203Y010327D01*
X015133Y010257D01*
X015095Y010165D01*
X015095Y010065D01*
X015133Y009973D01*
X015203Y009903D01*
X015295Y009865D01*
X015395Y009865D01*
X015486Y009903D01*
X015557Y009973D01*
X015595Y010065D01*
X015595Y010165D01*
X015557Y010257D01*
X015486Y010327D01*
X015595Y010148D02*
X018509Y010148D01*
X018667Y010306D02*
X017093Y010306D01*
X017107Y010320D02*
X017145Y010412D01*
X017145Y010512D01*
X017107Y010603D01*
X017036Y010674D01*
X016945Y010712D01*
X016845Y010712D01*
X016753Y010674D01*
X016683Y010603D01*
X016645Y010512D01*
X016645Y010412D01*
X016683Y010320D01*
X016753Y010250D01*
X016845Y010212D01*
X016945Y010212D01*
X017036Y010250D01*
X017107Y010320D01*
X017145Y010465D02*
X018826Y010465D01*
X018984Y010623D02*
X017087Y010623D01*
X016702Y010623D02*
X016257Y010623D01*
X016248Y010465D02*
X016645Y010465D01*
X016697Y010306D02*
X016067Y010306D01*
X015563Y009989D02*
X018350Y009989D01*
X018192Y009831D02*
X014714Y009831D01*
X014686Y009803D02*
X014757Y009873D01*
X014795Y009965D01*
X014795Y010065D01*
X014757Y010157D01*
X014686Y010227D01*
X014595Y010265D01*
X014495Y010265D01*
X014403Y010227D01*
X014333Y010157D01*
X014295Y010065D01*
X014295Y009965D01*
X014333Y009873D01*
X014403Y009803D01*
X014495Y009765D01*
X014595Y009765D01*
X014686Y009803D01*
X014795Y009989D02*
X015126Y009989D01*
X015095Y010148D02*
X014761Y010148D01*
X014329Y010148D02*
X009145Y010148D01*
X009145Y010306D02*
X011919Y010306D01*
X011933Y010273D02*
X012003Y010203D01*
X012095Y010165D01*
X012195Y010165D01*
X012286Y010203D01*
X012357Y010273D01*
X012395Y010365D01*
X012395Y010465D01*
X012357Y010557D01*
X012286Y010627D01*
X012195Y010665D01*
X012095Y010665D01*
X012003Y010627D01*
X011933Y010557D01*
X011895Y010465D01*
X011895Y010365D01*
X011933Y010273D01*
X011895Y010465D02*
X009145Y010465D01*
X009145Y010623D02*
X011999Y010623D01*
X012290Y010623D02*
X014395Y010623D01*
X014442Y010465D02*
X012395Y010465D01*
X012370Y010306D02*
X015182Y010306D01*
X014458Y010782D02*
X009145Y010782D01*
X009145Y010940D02*
X013466Y010940D01*
X013823Y010940D02*
X019301Y010940D01*
X019395Y011034D02*
X018055Y009694D01*
X018055Y006694D01*
X018026Y006665D01*
X017956Y006665D01*
X017864Y006627D01*
X017794Y006557D01*
X017755Y006465D01*
X017755Y006365D01*
X017794Y006273D01*
X017864Y006203D01*
X017956Y006165D01*
X018055Y006165D01*
X018147Y006203D01*
X018217Y006273D01*
X018250Y006351D01*
X018324Y006425D01*
X018435Y006536D01*
X018435Y009536D01*
X019664Y010765D01*
X019695Y010765D01*
X019786Y010803D01*
X019857Y010873D01*
X019895Y010965D01*
X019895Y011065D01*
X019857Y011157D01*
X019786Y011227D01*
X019695Y011265D01*
X019595Y011265D01*
X019503Y011227D01*
X019433Y011157D01*
X019395Y011065D01*
X019395Y011034D01*
X019409Y011099D02*
X015767Y011099D01*
X015757Y011073D02*
X015795Y011165D01*
X015795Y011265D01*
X015757Y011357D01*
X015686Y011427D01*
X015595Y011465D01*
X015495Y011465D01*
X015403Y011427D01*
X015333Y011357D01*
X015295Y011265D01*
X015295Y011165D01*
X015333Y011073D01*
X015403Y011003D01*
X015495Y010965D01*
X015595Y010965D01*
X015686Y011003D01*
X015757Y011073D01*
X015900Y011161D02*
X015992Y011122D01*
X016091Y011122D01*
X016183Y011161D01*
X016254Y011231D01*
X016292Y011323D01*
X016292Y011422D01*
X016254Y011514D01*
X016183Y011584D01*
X016091Y011622D01*
X015992Y011622D01*
X015900Y011584D01*
X015830Y011514D01*
X015792Y011422D01*
X015792Y011323D01*
X015830Y011231D01*
X015900Y011161D01*
X015819Y011257D02*
X015795Y011257D01*
X015792Y011416D02*
X015698Y011416D01*
X015890Y011574D02*
X014987Y011574D01*
X015145Y011733D02*
X021270Y011733D01*
X021270Y011762D02*
X021270Y011662D01*
X021308Y011570D01*
X021379Y011500D01*
X021471Y011462D01*
X021570Y011462D01*
X021662Y011500D01*
X021732Y011570D01*
X021770Y011662D01*
X021770Y011762D01*
X021732Y011853D01*
X021662Y011924D01*
X021570Y011962D01*
X021471Y011962D01*
X021379Y011924D01*
X021308Y011853D01*
X021270Y011762D01*
X021346Y011891D02*
X015145Y011891D01*
X015145Y012050D02*
X023347Y012050D01*
X023274Y012208D02*
X023484Y012208D01*
X023519Y012367D02*
X023370Y012367D01*
X023395Y012525D02*
X023495Y012525D01*
X023528Y012684D02*
X023362Y012684D01*
X022528Y012684D02*
X022362Y012684D01*
X022395Y012525D02*
X022495Y012525D01*
X022519Y012367D02*
X022370Y012367D01*
X022274Y012208D02*
X022615Y012208D01*
X022592Y011891D02*
X021695Y011891D01*
X021770Y011733D02*
X022094Y011733D01*
X021845Y011574D02*
X021734Y011574D01*
X021596Y011416D02*
X020289Y011416D01*
X020303Y011380D02*
X020265Y011472D01*
X020195Y011542D01*
X020103Y011580D01*
X020004Y011580D01*
X019912Y011542D01*
X019842Y011472D01*
X019803Y011380D01*
X019803Y011280D01*
X019842Y011188D01*
X019912Y011118D01*
X020004Y011080D01*
X020103Y011080D01*
X020195Y011118D01*
X020265Y011188D01*
X020303Y011280D01*
X020303Y011380D01*
X020294Y011257D02*
X021347Y011257D01*
X021090Y011099D02*
X020148Y011099D01*
X019959Y011099D02*
X019881Y011099D01*
X019884Y010940D02*
X020688Y010940D01*
X020920Y010623D02*
X021979Y010623D01*
X021963Y010584D02*
X021963Y010485D01*
X022001Y010393D01*
X022071Y010323D01*
X022163Y010285D01*
X022262Y010285D01*
X022354Y010323D01*
X022424Y010393D01*
X022463Y010485D01*
X022463Y010584D01*
X022424Y010676D01*
X022354Y010747D01*
X022262Y010785D01*
X022163Y010785D01*
X022071Y010747D01*
X022001Y010676D01*
X021963Y010584D01*
X021971Y010465D02*
X021025Y010465D01*
X021036Y010306D02*
X021509Y010306D01*
X021515Y010320D02*
X021477Y010229D01*
X021477Y010129D01*
X021515Y010037D01*
X021585Y009967D01*
X021677Y009929D01*
X021776Y009929D01*
X021868Y009967D01*
X021939Y010037D01*
X021977Y010129D01*
X021977Y010229D01*
X021939Y010320D01*
X021868Y010391D01*
X021776Y010429D01*
X021677Y010429D01*
X021585Y010391D01*
X021515Y010320D01*
X021477Y010148D02*
X020903Y010148D01*
X020683Y010148D02*
X019879Y010148D01*
X019762Y010148D02*
X019046Y010148D01*
X019205Y010306D02*
X019586Y010306D01*
X019579Y010465D02*
X019363Y010465D01*
X019522Y010623D02*
X019721Y010623D01*
X019734Y010782D02*
X020286Y010782D01*
X020518Y010465D02*
X020560Y010465D01*
X020550Y010306D02*
X020116Y010306D01*
X020274Y009844D02*
X020182Y009806D01*
X020112Y009735D01*
X020074Y009643D01*
X020074Y009544D01*
X020112Y009452D01*
X020182Y009382D01*
X020274Y009344D01*
X020373Y009344D01*
X020465Y009382D01*
X020535Y009452D01*
X020574Y009544D01*
X020574Y009643D01*
X020535Y009735D01*
X020465Y009806D01*
X020373Y009844D01*
X020274Y009844D01*
X020242Y009831D02*
X018729Y009831D01*
X018888Y009989D02*
X021563Y009989D01*
X021598Y009685D02*
X021499Y009685D01*
X021407Y009647D01*
X021337Y009577D01*
X021299Y009485D01*
X021299Y009385D01*
X021337Y009293D01*
X021407Y009223D01*
X021499Y009185D01*
X021598Y009185D01*
X021690Y009223D01*
X021761Y009293D01*
X021799Y009385D01*
X021799Y009437D01*
X021804Y009423D01*
X021874Y009353D01*
X021966Y009315D01*
X022066Y009315D01*
X022158Y009353D01*
X022228Y009423D01*
X022266Y009515D01*
X022266Y009615D01*
X022228Y009707D01*
X022158Y009777D01*
X022066Y009815D01*
X021966Y009815D01*
X021874Y009777D01*
X021804Y009707D01*
X021766Y009615D01*
X021766Y009563D01*
X021761Y009577D01*
X021690Y009647D01*
X021598Y009685D01*
X021630Y009672D02*
X021790Y009672D01*
X021468Y009672D02*
X020562Y009672D01*
X020561Y009514D02*
X021311Y009514D01*
X021311Y009355D02*
X020400Y009355D01*
X020357Y009257D02*
X020286Y009327D01*
X020195Y009365D01*
X020095Y009365D01*
X020003Y009327D01*
X019933Y009257D01*
X019895Y009165D01*
X019895Y009065D01*
X019902Y009047D01*
X019838Y009047D01*
X019746Y009009D01*
X019675Y008939D01*
X019637Y008847D01*
X019637Y008747D01*
X019675Y008655D01*
X019746Y008585D01*
X019802Y008562D01*
X019718Y008527D01*
X019648Y008457D01*
X019610Y008365D01*
X019610Y008265D01*
X019648Y008173D01*
X019718Y008103D01*
X019810Y008065D01*
X019909Y008065D01*
X020001Y008103D01*
X020072Y008173D01*
X020110Y008265D01*
X020110Y008365D01*
X020072Y008457D01*
X020001Y008527D01*
X019945Y008550D01*
X020029Y008585D01*
X020099Y008655D01*
X020137Y008747D01*
X020137Y008847D01*
X020130Y008865D01*
X020195Y008865D01*
X020286Y008903D01*
X020295Y008911D01*
X020295Y008865D01*
X020333Y008773D01*
X020403Y008703D01*
X020495Y008665D01*
X020595Y008665D01*
X020686Y008703D01*
X020757Y008773D01*
X020795Y008865D01*
X020795Y008965D01*
X020757Y009057D01*
X020686Y009127D01*
X020595Y009165D01*
X020495Y009165D01*
X020403Y009127D01*
X020395Y009119D01*
X020395Y009165D01*
X020357Y009257D01*
X020382Y009197D02*
X021471Y009197D01*
X021626Y009197D02*
X025851Y009197D01*
X025855Y009195D02*
X025955Y009195D01*
X026046Y009233D01*
X026117Y009303D01*
X026155Y009395D01*
X026155Y009495D01*
X026117Y009587D01*
X026046Y009657D01*
X025955Y009695D01*
X025855Y009695D01*
X025763Y009657D01*
X025693Y009587D01*
X025655Y009495D01*
X025655Y009395D01*
X025693Y009303D01*
X025763Y009233D01*
X025855Y009195D01*
X025958Y009197D02*
X026505Y009197D01*
X026513Y009217D02*
X026475Y009125D01*
X026475Y009025D01*
X026513Y008933D01*
X026583Y008863D01*
X026675Y008825D01*
X026775Y008825D01*
X026866Y008863D01*
X026937Y008933D01*
X026975Y009025D01*
X026975Y009125D01*
X026937Y009217D01*
X026866Y009287D01*
X026775Y009325D01*
X026675Y009325D01*
X026583Y009287D01*
X026513Y009217D01*
X026475Y009038D02*
X023240Y009038D01*
X023237Y009047D02*
X023166Y009117D01*
X023075Y009155D01*
X022975Y009155D01*
X022883Y009117D01*
X022813Y009047D01*
X022775Y008955D01*
X022775Y008855D01*
X022813Y008763D01*
X022883Y008693D01*
X022975Y008655D01*
X023075Y008655D01*
X023166Y008693D01*
X023237Y008763D01*
X023275Y008855D01*
X023275Y008955D01*
X023237Y009047D01*
X023275Y008880D02*
X026567Y008880D01*
X026883Y008880D02*
X030645Y008880D01*
X030645Y009038D02*
X026975Y009038D01*
X026945Y009197D02*
X030645Y009197D01*
X030645Y009355D02*
X026138Y009355D01*
X026147Y009514D02*
X030645Y009514D01*
X030645Y009672D02*
X026010Y009672D01*
X025800Y009672D02*
X022242Y009672D01*
X022265Y009514D02*
X025663Y009514D01*
X025671Y009355D02*
X022160Y009355D01*
X021873Y009355D02*
X021786Y009355D01*
X021560Y008845D02*
X021230Y008845D01*
X020925Y008719D01*
X020691Y008485D01*
X020565Y008180D01*
X020565Y007850D01*
X020691Y007545D01*
X020925Y007311D01*
X021230Y007185D01*
X021560Y007185D01*
X021865Y007311D01*
X022098Y007545D01*
X022225Y007850D01*
X022225Y008180D01*
X022098Y008485D01*
X021865Y008719D01*
X021560Y008845D01*
X021859Y008721D02*
X022855Y008721D01*
X022775Y008880D02*
X020795Y008880D01*
X020764Y009038D02*
X022809Y009038D01*
X023194Y008721D02*
X030645Y008721D01*
X030645Y008563D02*
X022021Y008563D01*
X022132Y008404D02*
X030645Y008404D01*
X030645Y008246D02*
X022861Y008246D01*
X022857Y008257D02*
X022786Y008327D01*
X022695Y008365D01*
X022595Y008365D01*
X022503Y008327D01*
X022433Y008257D01*
X022395Y008165D01*
X022395Y008065D01*
X022433Y007973D01*
X022503Y007903D01*
X022595Y007865D01*
X022695Y007865D01*
X022786Y007903D01*
X022857Y007973D01*
X022895Y008065D01*
X022895Y008165D01*
X022857Y008257D01*
X022895Y008087D02*
X030645Y008087D01*
X030645Y007929D02*
X022812Y007929D01*
X022478Y007929D02*
X022225Y007929D01*
X022225Y008087D02*
X022395Y008087D01*
X022428Y008246D02*
X022198Y008246D01*
X022192Y007770D02*
X030645Y007770D01*
X030645Y007612D02*
X022126Y007612D01*
X022007Y007453D02*
X030645Y007453D01*
X030645Y007295D02*
X022700Y007295D01*
X022687Y007327D02*
X022616Y007397D01*
X022525Y007435D01*
X022425Y007435D01*
X022333Y007397D01*
X022263Y007327D01*
X022225Y007235D01*
X022225Y007135D01*
X022263Y007043D01*
X022333Y006973D01*
X022425Y006935D01*
X022525Y006935D01*
X022616Y006973D01*
X022687Y007043D01*
X022725Y007135D01*
X022725Y007235D01*
X022687Y007327D01*
X022725Y007136D02*
X030645Y007136D01*
X030645Y006978D02*
X022621Y006978D01*
X022329Y006978D02*
X020390Y006978D01*
X020426Y006992D02*
X020496Y007063D01*
X020534Y007155D01*
X020534Y007254D01*
X020496Y007346D01*
X020426Y007416D01*
X020378Y007436D01*
X020444Y007464D01*
X020514Y007534D01*
X020552Y007626D01*
X020552Y007725D01*
X020514Y007817D01*
X020444Y007888D01*
X020352Y007926D01*
X020253Y007926D01*
X020161Y007888D01*
X020090Y007817D01*
X020052Y007725D01*
X020052Y007626D01*
X020090Y007534D01*
X020161Y007464D01*
X020209Y007444D01*
X020143Y007416D01*
X020072Y007346D01*
X020034Y007254D01*
X020034Y007155D01*
X020072Y007063D01*
X020143Y006992D01*
X020234Y006954D01*
X020334Y006954D01*
X020426Y006992D01*
X020526Y007136D02*
X022225Y007136D01*
X022250Y007295D02*
X021824Y007295D01*
X020966Y007295D02*
X020517Y007295D01*
X020418Y007453D02*
X020783Y007453D01*
X020664Y007612D02*
X020546Y007612D01*
X020534Y007770D02*
X020598Y007770D01*
X020565Y007929D02*
X019301Y007929D01*
X019315Y007961D02*
X019274Y007862D01*
X019198Y007786D01*
X019099Y007745D01*
X018991Y007745D01*
X018892Y007786D01*
X018816Y007862D01*
X018775Y007961D01*
X018775Y008069D01*
X018816Y008168D01*
X018892Y008244D01*
X018991Y008285D01*
X019099Y008285D01*
X019198Y008244D01*
X019274Y008168D01*
X019315Y008069D01*
X019315Y007961D01*
X019307Y008087D02*
X019757Y008087D01*
X019963Y008087D02*
X020565Y008087D01*
X020592Y008246D02*
X020102Y008246D01*
X020094Y008404D02*
X020658Y008404D01*
X020769Y008563D02*
X019975Y008563D01*
X019800Y008563D02*
X018435Y008563D01*
X018435Y008721D02*
X019648Y008721D01*
X019651Y008880D02*
X018435Y008880D01*
X018435Y009038D02*
X019816Y009038D01*
X019908Y009197D02*
X018435Y009197D01*
X018435Y009355D02*
X019254Y009355D01*
X019234Y009375D02*
X019304Y009305D01*
X019396Y009267D01*
X019495Y009267D01*
X019587Y009305D01*
X019657Y009375D01*
X019695Y009467D01*
X019695Y009567D01*
X019657Y009659D01*
X019587Y009729D01*
X019495Y009767D01*
X019396Y009767D01*
X019304Y009729D01*
X019234Y009659D01*
X019195Y009567D01*
X019195Y009467D01*
X019234Y009375D01*
X019195Y009514D02*
X018435Y009514D01*
X018571Y009672D02*
X019247Y009672D01*
X019644Y009672D02*
X020085Y009672D01*
X020086Y009514D02*
X019695Y009514D01*
X019637Y009355D02*
X020071Y009355D01*
X020219Y009355D02*
X020247Y009355D01*
X020230Y008880D02*
X020295Y008880D01*
X020385Y008721D02*
X020126Y008721D01*
X020704Y008721D02*
X020931Y008721D01*
X019626Y008404D02*
X018435Y008404D01*
X018435Y008246D02*
X018896Y008246D01*
X018782Y008087D02*
X018435Y008087D01*
X018435Y007929D02*
X018788Y007929D01*
X018931Y007770D02*
X018435Y007770D01*
X018435Y007612D02*
X020058Y007612D01*
X020071Y007770D02*
X019159Y007770D01*
X019000Y007488D02*
X018908Y007526D01*
X018809Y007526D01*
X018717Y007488D01*
X018647Y007417D01*
X018609Y007325D01*
X018609Y007226D01*
X018647Y007134D01*
X018717Y007064D01*
X018809Y007026D01*
X018908Y007026D01*
X019000Y007064D01*
X019071Y007134D01*
X019109Y007226D01*
X019109Y007325D01*
X019071Y007417D01*
X019000Y007488D01*
X019035Y007453D02*
X020186Y007453D01*
X020051Y007295D02*
X019109Y007295D01*
X019071Y007136D02*
X020042Y007136D01*
X020179Y006978D02*
X018435Y006978D01*
X018435Y007136D02*
X018646Y007136D01*
X018609Y007295D02*
X018435Y007295D01*
X018435Y007453D02*
X018682Y007453D01*
X018055Y007453D02*
X015627Y007453D01*
X015613Y007486D02*
X015537Y007562D01*
X015438Y007603D01*
X015330Y007603D01*
X015231Y007562D01*
X015155Y007486D01*
X015114Y007387D01*
X015114Y007279D01*
X015155Y007180D01*
X015231Y007104D01*
X015330Y007063D01*
X015438Y007063D01*
X015537Y007104D01*
X015613Y007180D01*
X015654Y007279D01*
X015654Y007387D01*
X015613Y007486D01*
X015654Y007295D02*
X016742Y007295D01*
X016716Y007268D02*
X016675Y007169D01*
X016675Y007061D01*
X016716Y006962D01*
X016792Y006886D01*
X016891Y006845D01*
X016999Y006845D01*
X017098Y006886D01*
X017174Y006962D01*
X017215Y007061D01*
X017215Y007169D01*
X017174Y007268D01*
X017098Y007344D01*
X016999Y007385D01*
X016891Y007385D01*
X016792Y007344D01*
X016716Y007268D01*
X016675Y007136D02*
X016615Y007136D01*
X016607Y007157D02*
X016645Y007065D01*
X016645Y006965D01*
X016607Y006873D01*
X016536Y006803D01*
X016445Y006765D01*
X016345Y006765D01*
X016253Y006803D01*
X016183Y006873D01*
X016145Y006965D01*
X016145Y007065D01*
X016183Y007157D01*
X016253Y007227D01*
X016345Y007265D01*
X016445Y007265D01*
X016536Y007227D01*
X016607Y007157D01*
X016645Y006978D02*
X016710Y006978D01*
X016552Y006819D02*
X018055Y006819D01*
X018055Y006978D02*
X017180Y006978D01*
X017215Y007136D02*
X018055Y007136D01*
X018055Y007295D02*
X017147Y007295D01*
X018055Y007612D02*
X012569Y007612D01*
X012620Y007453D02*
X015142Y007453D01*
X015114Y007295D02*
X012620Y007295D01*
X012620Y007136D02*
X014225Y007136D01*
X014203Y007127D02*
X014133Y007057D01*
X014095Y006965D01*
X014095Y006865D01*
X014133Y006773D01*
X014203Y006703D01*
X014295Y006665D01*
X014395Y006665D01*
X014486Y006703D01*
X014557Y006773D01*
X014595Y006865D01*
X014595Y006965D01*
X014557Y007057D01*
X014486Y007127D01*
X014395Y007165D01*
X014295Y007165D01*
X014203Y007127D01*
X014100Y006978D02*
X012620Y006978D01*
X012620Y006819D02*
X014114Y006819D01*
X014576Y006819D02*
X016237Y006819D01*
X016145Y006978D02*
X014590Y006978D01*
X014465Y007136D02*
X015199Y007136D01*
X015569Y007136D02*
X016174Y007136D01*
X015535Y006478D02*
X015465Y006548D01*
X015373Y006586D01*
X015274Y006586D01*
X015182Y006548D01*
X015112Y006478D01*
X015074Y006386D01*
X015074Y006287D01*
X015112Y006195D01*
X015182Y006124D01*
X015274Y006086D01*
X015373Y006086D01*
X015465Y006124D01*
X015535Y006195D01*
X015574Y006287D01*
X015574Y006386D01*
X015535Y006478D01*
X015511Y006502D02*
X017771Y006502D01*
X017764Y006344D02*
X015574Y006344D01*
X015526Y006185D02*
X017907Y006185D01*
X018103Y006185D02*
X021566Y006185D01*
X021595Y006197D02*
X021503Y006159D01*
X021433Y006089D01*
X021395Y005997D01*
X021395Y005897D01*
X021433Y005805D01*
X021503Y005735D01*
X021595Y005697D01*
X021695Y005697D01*
X021786Y005735D01*
X021857Y005805D01*
X021895Y005897D01*
X021895Y005997D01*
X021857Y006089D01*
X021786Y006159D01*
X021695Y006197D01*
X021595Y006197D01*
X021723Y006185D02*
X021771Y006185D01*
X021803Y006153D02*
X021733Y006223D01*
X021695Y006315D01*
X021695Y006415D01*
X021733Y006507D01*
X021803Y006577D01*
X021895Y006615D01*
X021995Y006615D01*
X022086Y006577D01*
X022157Y006507D01*
X022195Y006415D01*
X022195Y006315D01*
X022157Y006223D01*
X022086Y006153D01*
X021995Y006115D01*
X021895Y006115D01*
X021803Y006153D01*
X021882Y006027D02*
X030645Y006027D01*
X030645Y006185D02*
X025697Y006185D01*
X025716Y006193D02*
X025787Y006263D01*
X025825Y006355D01*
X025825Y006455D01*
X025787Y006547D01*
X025716Y006617D01*
X025625Y006655D01*
X025525Y006655D01*
X025433Y006617D01*
X025363Y006547D01*
X025325Y006455D01*
X025325Y006355D01*
X025363Y006263D01*
X025433Y006193D01*
X025525Y006155D01*
X025625Y006155D01*
X025716Y006193D01*
X025820Y006344D02*
X030645Y006344D01*
X030645Y006502D02*
X025805Y006502D01*
X025344Y006502D02*
X022159Y006502D01*
X022195Y006344D02*
X025330Y006344D01*
X025453Y006185D02*
X022118Y006185D01*
X021695Y006344D02*
X018246Y006344D01*
X018401Y006502D02*
X018811Y006502D01*
X018813Y006498D02*
X018883Y006427D01*
X018975Y006389D01*
X019074Y006389D01*
X019166Y006427D01*
X019237Y006498D01*
X019275Y006590D01*
X019275Y006689D01*
X019237Y006781D01*
X019166Y006851D01*
X019074Y006889D01*
X018975Y006889D01*
X018883Y006851D01*
X018813Y006781D01*
X018775Y006689D01*
X018775Y006590D01*
X018813Y006498D01*
X018775Y006661D02*
X018435Y006661D01*
X018435Y006819D02*
X018851Y006819D01*
X019199Y006819D02*
X030645Y006819D01*
X030645Y006661D02*
X019275Y006661D01*
X019238Y006502D02*
X021731Y006502D01*
X021407Y006027D02*
X021108Y006027D01*
X021083Y006051D02*
X020991Y006089D01*
X020892Y006089D01*
X020800Y006051D01*
X020730Y005981D01*
X020692Y005889D01*
X020692Y005790D01*
X020730Y005698D01*
X020800Y005627D01*
X020892Y005589D01*
X020991Y005589D01*
X021083Y005627D01*
X021154Y005698D01*
X021192Y005790D01*
X021192Y005889D01*
X021154Y005981D01*
X021083Y006051D01*
X021192Y005868D02*
X021407Y005868D01*
X021565Y005710D02*
X021158Y005710D01*
X021219Y005568D02*
X021149Y005497D01*
X021111Y005405D01*
X021111Y005306D01*
X021149Y005214D01*
X021190Y005174D01*
X019817Y005174D01*
X019795Y005195D01*
X019703Y005234D01*
X019604Y005234D01*
X019512Y005195D01*
X019442Y005125D01*
X019403Y005033D01*
X019403Y004934D01*
X019442Y004842D01*
X019512Y004772D01*
X019604Y004734D01*
X019703Y004734D01*
X019795Y004772D01*
X019817Y004794D01*
X021573Y004794D01*
X021557Y004778D01*
X021519Y004686D01*
X021519Y004587D01*
X021557Y004495D01*
X021628Y004424D01*
X021719Y004386D01*
X021819Y004386D01*
X021911Y004424D01*
X021981Y004495D01*
X022019Y004587D01*
X022019Y004686D01*
X021981Y004778D01*
X021911Y004848D01*
X021896Y004854D01*
X021947Y004876D01*
X021974Y004865D01*
X022073Y004865D01*
X022165Y004903D01*
X022235Y004973D01*
X022274Y005065D01*
X022274Y005165D01*
X022235Y005257D01*
X022165Y005327D01*
X022073Y005365D01*
X021974Y005365D01*
X021882Y005327D01*
X021812Y005257D01*
X021799Y005226D01*
X021675Y005174D01*
X021533Y005174D01*
X021573Y005214D01*
X021611Y005306D01*
X021611Y005405D01*
X021573Y005497D01*
X021503Y005568D01*
X021411Y005606D01*
X021311Y005606D01*
X021219Y005568D01*
X021203Y005551D02*
X018189Y005551D01*
X018195Y005565D02*
X018157Y005473D01*
X018086Y005403D01*
X017995Y005365D01*
X017895Y005365D01*
X017803Y005403D01*
X017733Y005473D01*
X017695Y005565D01*
X017695Y005665D01*
X017733Y005757D01*
X017803Y005827D01*
X017895Y005865D01*
X017995Y005865D01*
X018086Y005827D01*
X018157Y005757D01*
X018195Y005665D01*
X018195Y005565D01*
X018176Y005710D02*
X020725Y005710D01*
X020692Y005868D02*
X015815Y005868D01*
X015850Y005834D02*
X015779Y005904D01*
X015687Y005942D01*
X015588Y005942D01*
X015496Y005904D01*
X015426Y005834D01*
X015388Y005742D01*
X015388Y005642D01*
X015426Y005551D01*
X012620Y005551D01*
X012620Y005393D02*
X016645Y005393D01*
X016645Y005415D02*
X016645Y005315D01*
X016683Y005223D01*
X016753Y005153D01*
X016845Y005115D01*
X016945Y005115D01*
X017036Y005153D01*
X017107Y005223D01*
X017145Y005315D01*
X017145Y005415D01*
X017107Y005507D01*
X017036Y005577D01*
X016945Y005615D01*
X016845Y005615D01*
X016753Y005577D01*
X016683Y005507D01*
X016645Y005415D01*
X016727Y005551D02*
X015850Y005551D01*
X015888Y005642D01*
X015888Y005742D01*
X015850Y005834D01*
X015888Y005710D02*
X017713Y005710D01*
X017701Y005551D02*
X017062Y005551D01*
X017145Y005393D02*
X017829Y005393D01*
X018061Y005393D02*
X021111Y005393D01*
X021141Y005234D02*
X017111Y005234D01*
X016678Y005234D02*
X012620Y005234D01*
X012620Y005076D02*
X018894Y005076D01*
X018996Y005076D02*
X019421Y005076D01*
X019410Y004917D02*
X019178Y004917D01*
X019187Y004759D02*
X019543Y004759D01*
X019764Y004759D02*
X021549Y004759D01*
X021519Y004600D02*
X019135Y004600D01*
X019135Y004442D02*
X021610Y004442D01*
X021928Y004442D02*
X022255Y004442D01*
X022209Y004461D02*
X022301Y004422D01*
X022401Y004422D01*
X022493Y004461D01*
X022563Y004531D01*
X022601Y004623D01*
X022601Y004722D01*
X022563Y004814D01*
X022493Y004884D01*
X022401Y004922D01*
X022301Y004922D01*
X022209Y004884D01*
X022139Y004814D01*
X022101Y004722D01*
X022101Y004623D01*
X022139Y004531D01*
X022209Y004461D01*
X022111Y004600D02*
X022019Y004600D01*
X021989Y004759D02*
X022116Y004759D01*
X022179Y004917D02*
X022288Y004917D01*
X022414Y004917D02*
X022635Y004917D01*
X022625Y004927D02*
X022696Y004856D01*
X022788Y004818D01*
X022887Y004818D01*
X022979Y004856D01*
X023049Y004927D01*
X023087Y005018D01*
X023087Y005118D01*
X023049Y005210D01*
X022979Y005280D01*
X022887Y005318D01*
X022788Y005318D01*
X022696Y005280D01*
X022625Y005210D01*
X022587Y005118D01*
X022587Y005018D01*
X022625Y004927D01*
X022587Y005076D02*
X022274Y005076D01*
X022245Y005234D02*
X022650Y005234D01*
X023025Y005234D02*
X024239Y005234D01*
X024265Y005245D02*
X024173Y005207D01*
X024103Y005137D01*
X024065Y005045D01*
X024065Y004945D01*
X024103Y004853D01*
X024173Y004783D01*
X024265Y004745D01*
X024365Y004745D01*
X024456Y004783D01*
X024527Y004853D01*
X024565Y004945D01*
X024565Y005045D01*
X024527Y005137D01*
X024456Y005207D01*
X024365Y005245D01*
X024265Y005245D01*
X024391Y005234D02*
X030645Y005234D01*
X030645Y005076D02*
X024552Y005076D01*
X024553Y004917D02*
X025692Y004917D01*
X025735Y004935D02*
X025643Y004897D01*
X025573Y004827D01*
X025535Y004735D01*
X025535Y004635D01*
X025573Y004543D01*
X025643Y004473D01*
X025735Y004435D01*
X025835Y004435D01*
X025926Y004473D01*
X025960Y004506D01*
X026003Y004463D01*
X026095Y004425D01*
X026195Y004425D01*
X026286Y004463D01*
X026357Y004533D01*
X026395Y004625D01*
X026395Y004725D01*
X026357Y004817D01*
X026286Y004887D01*
X026195Y004925D01*
X026095Y004925D01*
X026003Y004887D01*
X025970Y004854D01*
X025926Y004897D01*
X025835Y004935D01*
X025735Y004935D01*
X025878Y004917D02*
X026076Y004917D01*
X026214Y004917D02*
X030645Y004917D01*
X030645Y004759D02*
X026381Y004759D01*
X026384Y004600D02*
X030645Y004600D01*
X030645Y004442D02*
X026234Y004442D01*
X026055Y004442D02*
X025850Y004442D01*
X025719Y004442D02*
X022447Y004442D01*
X022592Y004600D02*
X025549Y004600D01*
X025545Y004759D02*
X024397Y004759D01*
X024232Y004759D02*
X022586Y004759D01*
X023040Y004917D02*
X024077Y004917D01*
X024078Y005076D02*
X023087Y005076D01*
X023423Y005423D02*
X023493Y005353D01*
X023585Y005315D01*
X023685Y005315D01*
X023776Y005353D01*
X023847Y005423D01*
X023885Y005515D01*
X023885Y005615D01*
X023847Y005707D01*
X023776Y005777D01*
X023685Y005815D01*
X023585Y005815D01*
X023493Y005777D01*
X023423Y005707D01*
X023385Y005615D01*
X023385Y005515D01*
X023423Y005423D01*
X023454Y005393D02*
X021611Y005393D01*
X021581Y005234D02*
X021802Y005234D01*
X021519Y005551D02*
X023385Y005551D01*
X023426Y005710D02*
X021725Y005710D01*
X021883Y005868D02*
X030645Y005868D01*
X030645Y005710D02*
X023844Y005710D01*
X023885Y005551D02*
X030645Y005551D01*
X030645Y005393D02*
X023816Y005393D01*
X023601Y003808D02*
X023289Y003808D01*
X023376Y003649D02*
X023513Y003649D01*
X023495Y003491D02*
X023395Y003491D01*
X023356Y003332D02*
X023534Y003332D01*
X024356Y003332D02*
X024534Y003332D01*
X024495Y003491D02*
X024395Y003491D01*
X024376Y003649D02*
X024513Y003649D01*
X024601Y003808D02*
X024289Y003808D01*
X025289Y003808D02*
X025601Y003808D01*
X025513Y003649D02*
X025376Y003649D01*
X025395Y003491D02*
X025495Y003491D01*
X025534Y003332D02*
X025356Y003332D01*
X026356Y003332D02*
X026534Y003332D01*
X026495Y003491D02*
X026395Y003491D01*
X026376Y003649D02*
X026513Y003649D01*
X026601Y003808D02*
X026289Y003808D01*
X027289Y003808D02*
X027601Y003808D01*
X027513Y003649D02*
X027376Y003649D01*
X027395Y003491D02*
X027495Y003491D01*
X027534Y003332D02*
X027356Y003332D01*
X028356Y003332D02*
X030249Y003332D01*
X030440Y003491D02*
X028395Y003491D01*
X028376Y003649D02*
X030556Y003649D01*
X030608Y003808D02*
X028289Y003808D01*
X030641Y003966D02*
X019135Y003966D01*
X019135Y004125D02*
X030645Y004125D01*
X030645Y004283D02*
X019135Y004283D01*
X018361Y004283D02*
X015786Y004283D01*
X015848Y004125D02*
X018286Y004125D01*
X018127Y003966D02*
X015801Y003966D01*
X015601Y003808D02*
X015289Y003808D01*
X015376Y003649D02*
X015513Y003649D01*
X015495Y003491D02*
X015395Y003491D01*
X015356Y003332D02*
X015534Y003332D01*
X016356Y003332D02*
X016534Y003332D01*
X016495Y003491D02*
X016395Y003491D01*
X016376Y003649D02*
X016513Y003649D01*
X016601Y003808D02*
X016289Y003808D01*
X015396Y003966D02*
X015031Y003966D01*
X014954Y004125D02*
X015348Y004125D01*
X015410Y004283D02*
X014876Y004283D01*
X014830Y004442D02*
X014965Y004442D01*
X014933Y004473D02*
X015003Y004403D01*
X015095Y004365D01*
X015195Y004365D01*
X015286Y004403D01*
X015357Y004473D01*
X015395Y004565D01*
X015395Y004665D01*
X015357Y004757D01*
X015286Y004827D01*
X015195Y004865D01*
X015095Y004865D01*
X015003Y004827D01*
X014933Y004757D01*
X014895Y004665D01*
X014895Y004565D01*
X014933Y004473D01*
X014895Y004600D02*
X014788Y004600D01*
X014935Y004759D02*
X012620Y004759D01*
X012620Y004917D02*
X018335Y004917D01*
X018301Y004759D02*
X015355Y004759D01*
X015395Y004600D02*
X018361Y004600D01*
X018361Y004442D02*
X015325Y004442D01*
X014397Y004283D02*
X012925Y004283D01*
X012818Y004442D02*
X014330Y004442D01*
X014372Y004600D02*
X012710Y004600D01*
X012359Y004442D02*
X011933Y004442D01*
X011931Y004600D02*
X012240Y004600D01*
X012240Y004759D02*
X011929Y004759D01*
X011927Y004917D02*
X012240Y004917D01*
X012240Y005076D02*
X011925Y005076D01*
X011923Y005234D02*
X012240Y005234D01*
X012240Y005393D02*
X011921Y005393D01*
X011919Y005551D02*
X012240Y005551D01*
X012240Y005710D02*
X011917Y005710D01*
X011915Y005868D02*
X012240Y005868D01*
X012240Y006027D02*
X011913Y006027D01*
X011911Y006185D02*
X012240Y006185D01*
X012240Y006344D02*
X011909Y006344D01*
X011908Y006502D02*
X012240Y006502D01*
X012240Y006661D02*
X011916Y006661D01*
X011924Y006819D02*
X012240Y006819D01*
X012240Y006978D02*
X011911Y006978D01*
X011904Y007136D02*
X012240Y007136D01*
X012240Y007295D02*
X011955Y007295D01*
X011928Y007453D02*
X012220Y007453D01*
X012120Y007612D02*
X011352Y007612D01*
X011336Y007627D02*
X011245Y007665D01*
X011145Y007665D01*
X011053Y007627D01*
X010983Y007557D01*
X010945Y007465D01*
X010945Y007365D01*
X010983Y007273D01*
X011053Y007203D01*
X011145Y007165D01*
X011245Y007165D01*
X011336Y007203D01*
X011407Y007273D01*
X011445Y007365D01*
X011445Y007465D01*
X011407Y007557D01*
X011336Y007627D01*
X011445Y007453D02*
X011483Y007453D01*
X011455Y007295D02*
X011415Y007295D01*
X011524Y007136D02*
X009145Y007136D01*
X009145Y006978D02*
X011531Y006978D01*
X011538Y006819D02*
X009145Y006819D01*
X009145Y006661D02*
X011535Y006661D01*
X011527Y006502D02*
X009145Y006502D01*
X009145Y006344D02*
X011529Y006344D01*
X011531Y006185D02*
X009145Y006185D01*
X009145Y006027D02*
X011533Y006027D01*
X011535Y005868D02*
X009145Y005868D01*
X009145Y005710D02*
X010313Y005710D01*
X010295Y005665D02*
X010333Y005757D01*
X010403Y005827D01*
X010495Y005865D01*
X010595Y005865D01*
X010686Y005827D01*
X010757Y005757D01*
X010795Y005665D01*
X010795Y005565D01*
X010757Y005473D01*
X010686Y005403D01*
X010595Y005365D01*
X010495Y005365D01*
X010403Y005403D01*
X010333Y005473D01*
X010295Y005565D01*
X010295Y005665D01*
X010301Y005551D02*
X009145Y005551D01*
X009145Y005393D02*
X010429Y005393D01*
X010661Y005393D02*
X011541Y005393D01*
X011539Y005551D02*
X010789Y005551D01*
X010776Y005710D02*
X011537Y005710D01*
X011543Y005234D02*
X009145Y005234D01*
X009145Y005076D02*
X010820Y005076D01*
X010816Y005071D02*
X010775Y004972D01*
X010775Y004864D01*
X010816Y004765D01*
X010892Y004689D01*
X010991Y004648D01*
X011099Y004648D01*
X011198Y004689D01*
X011274Y004765D01*
X011315Y004864D01*
X011315Y004972D01*
X011274Y005071D01*
X011198Y005147D01*
X011099Y005188D01*
X010991Y005188D01*
X010892Y005147D01*
X010816Y005071D01*
X010775Y004917D02*
X009145Y004917D01*
X009145Y004759D02*
X010823Y004759D01*
X011267Y004759D02*
X011549Y004759D01*
X011547Y004917D02*
X011315Y004917D01*
X011269Y005076D02*
X011545Y005076D01*
X011551Y004600D02*
X009145Y004600D01*
X009145Y004442D02*
X011553Y004442D01*
X011553Y004283D02*
X009145Y004283D01*
X009145Y004125D02*
X011616Y004125D01*
X011680Y003966D02*
X009149Y003966D01*
X009145Y004015D02*
X009145Y012015D01*
X009155Y012140D01*
X009232Y012378D01*
X009379Y012581D01*
X009582Y012728D01*
X009820Y012805D01*
X009945Y012815D01*
X010608Y012815D01*
X010563Y012770D01*
X010495Y012605D01*
X010495Y012425D01*
X010563Y012260D01*
X010690Y012134D01*
X010855Y012065D01*
X011034Y012065D01*
X011200Y012134D01*
X011326Y012260D01*
X011395Y012425D01*
X011395Y012605D01*
X011326Y012770D01*
X011281Y012815D01*
X011608Y012815D01*
X011563Y012770D01*
X011495Y012605D01*
X011495Y012425D01*
X011563Y012260D01*
X011690Y012134D01*
X011855Y012065D01*
X012034Y012065D01*
X012200Y012134D01*
X012326Y012260D01*
X012395Y012425D01*
X012395Y012605D01*
X012326Y012770D01*
X012281Y012815D01*
X012608Y012815D01*
X012563Y012770D01*
X012495Y012605D01*
X012495Y012425D01*
X012563Y012260D01*
X012690Y012134D01*
X012855Y012065D01*
X013034Y012065D01*
X013200Y012134D01*
X013326Y012260D01*
X013395Y012425D01*
X013395Y012605D01*
X013326Y012770D01*
X013281Y012815D01*
X013608Y012815D01*
X013563Y012770D01*
X013495Y012605D01*
X013495Y012425D01*
X013563Y012260D01*
X013690Y012134D01*
X013855Y012065D01*
X014034Y012065D01*
X014200Y012134D01*
X014326Y012260D01*
X014395Y012425D01*
X014395Y012605D01*
X014326Y012770D01*
X014281Y012815D01*
X014608Y012815D01*
X014563Y012770D01*
X014495Y012605D01*
X014495Y012425D01*
X014563Y012260D01*
X014690Y012134D01*
X014745Y012111D01*
X014745Y011898D01*
X014745Y012050D02*
X009148Y012050D01*
X009177Y012208D02*
X010615Y012208D01*
X010519Y012367D02*
X009228Y012367D01*
X009339Y012525D02*
X010495Y012525D01*
X010528Y012684D02*
X009521Y012684D01*
X011274Y012208D02*
X011615Y012208D01*
X011519Y012367D02*
X011370Y012367D01*
X011395Y012525D02*
X011495Y012525D01*
X011528Y012684D02*
X011362Y012684D01*
X012362Y012684D02*
X012528Y012684D01*
X012495Y012525D02*
X012395Y012525D01*
X012370Y012367D02*
X012519Y012367D01*
X012615Y012208D02*
X012274Y012208D01*
X013274Y012208D02*
X013615Y012208D01*
X013519Y012367D02*
X013370Y012367D01*
X013395Y012525D02*
X013495Y012525D01*
X013528Y012684D02*
X013362Y012684D01*
X014362Y012684D02*
X014528Y012684D01*
X014495Y012525D02*
X014395Y012525D01*
X014370Y012367D02*
X014519Y012367D01*
X014615Y012208D02*
X014274Y012208D01*
X015274Y012208D02*
X015615Y012208D01*
X015519Y012367D02*
X015370Y012367D01*
X015395Y012525D02*
X015495Y012525D01*
X015528Y012684D02*
X015362Y012684D01*
X016362Y012684D02*
X016528Y012684D01*
X016495Y012525D02*
X016395Y012525D01*
X016370Y012367D02*
X016519Y012367D01*
X016615Y012208D02*
X016274Y012208D01*
X017274Y012208D02*
X017615Y012208D01*
X017519Y012367D02*
X017370Y012367D01*
X017395Y012525D02*
X017495Y012525D01*
X017528Y012684D02*
X017362Y012684D01*
X018362Y012684D02*
X018528Y012684D01*
X018495Y012525D02*
X018395Y012525D01*
X018370Y012367D02*
X018519Y012367D01*
X018615Y012208D02*
X018274Y012208D01*
X019274Y012208D02*
X019615Y012208D01*
X019519Y012367D02*
X019370Y012367D01*
X019395Y012525D02*
X019495Y012525D01*
X019528Y012684D02*
X019362Y012684D01*
X020362Y012684D02*
X020528Y012684D01*
X020495Y012525D02*
X020395Y012525D01*
X020370Y012367D02*
X020519Y012367D01*
X020615Y012208D02*
X020274Y012208D01*
X021274Y012208D02*
X021615Y012208D01*
X021519Y012367D02*
X021370Y012367D01*
X021395Y012525D02*
X021495Y012525D01*
X021528Y012684D02*
X021362Y012684D01*
X023580Y011733D02*
X030645Y011733D01*
X030645Y011891D02*
X023712Y011891D01*
X023849Y012050D02*
X030642Y012050D01*
X030613Y012208D02*
X028274Y012208D01*
X028370Y012367D02*
X030561Y012367D01*
X030451Y012525D02*
X028395Y012525D01*
X028362Y012684D02*
X030269Y012684D01*
X030645Y011574D02*
X022937Y011574D01*
X022304Y011416D02*
X030645Y011416D01*
X030645Y011257D02*
X022055Y011257D01*
X021806Y011099D02*
X030645Y011099D01*
X030645Y010940D02*
X021557Y010940D01*
X021322Y010782D02*
X022155Y010782D01*
X022270Y010782D02*
X030645Y010782D01*
X030645Y010623D02*
X025030Y010623D01*
X025026Y010627D02*
X024935Y010665D01*
X024835Y010665D01*
X024743Y010627D01*
X024673Y010557D01*
X024635Y010465D01*
X024635Y010365D01*
X024673Y010273D01*
X024743Y010203D01*
X024835Y010165D01*
X024935Y010165D01*
X025026Y010203D01*
X025097Y010273D01*
X025135Y010365D01*
X025135Y010465D01*
X025097Y010557D01*
X025026Y010627D01*
X025135Y010465D02*
X030645Y010465D01*
X030645Y010306D02*
X025110Y010306D01*
X024659Y010306D02*
X022314Y010306D01*
X022111Y010306D02*
X021945Y010306D01*
X021977Y010148D02*
X030645Y010148D01*
X030645Y009989D02*
X021890Y009989D01*
X022454Y010465D02*
X024635Y010465D01*
X024739Y010623D02*
X022447Y010623D01*
X021307Y011574D02*
X020118Y011574D01*
X019989Y011574D02*
X016194Y011574D01*
X016292Y011416D02*
X019818Y011416D01*
X019813Y011257D02*
X019714Y011257D01*
X019576Y011257D02*
X016264Y011257D01*
X016121Y010782D02*
X019143Y010782D01*
X018055Y009672D02*
X009145Y009672D01*
X009145Y009514D02*
X016067Y009514D01*
X016073Y009527D02*
X016035Y009435D01*
X016035Y009335D01*
X016073Y009243D01*
X016143Y009173D01*
X016235Y009135D01*
X016335Y009135D01*
X016426Y009173D01*
X016497Y009243D01*
X016535Y009335D01*
X016535Y009435D01*
X016497Y009527D01*
X016426Y009597D01*
X016335Y009635D01*
X016235Y009635D01*
X016143Y009597D01*
X016073Y009527D01*
X016035Y009355D02*
X012157Y009355D01*
X012157Y009357D02*
X012086Y009427D01*
X011995Y009465D01*
X011895Y009465D01*
X011803Y009427D01*
X011733Y009357D01*
X011695Y009265D01*
X011695Y009165D01*
X011733Y009073D01*
X011803Y009003D01*
X011895Y008965D01*
X011995Y008965D01*
X012086Y009003D01*
X012157Y009073D01*
X012195Y009165D01*
X012195Y009265D01*
X012157Y009357D01*
X012195Y009197D02*
X012900Y009197D01*
X012945Y009215D02*
X012853Y009177D01*
X012783Y009107D01*
X012745Y009015D01*
X012745Y008915D01*
X012783Y008823D01*
X012853Y008753D01*
X012945Y008715D01*
X013045Y008715D01*
X013136Y008753D01*
X013207Y008823D01*
X013245Y008915D01*
X013245Y009015D01*
X013207Y009107D01*
X013136Y009177D01*
X013045Y009215D01*
X012945Y009215D01*
X013089Y009197D02*
X016120Y009197D01*
X016450Y009197D02*
X017152Y009197D01*
X017122Y009166D02*
X017084Y009075D01*
X017084Y008975D01*
X017108Y008917D01*
X017040Y008945D01*
X016940Y008945D01*
X016848Y008907D01*
X016778Y008837D01*
X016740Y008745D01*
X016740Y008645D01*
X016778Y008553D01*
X016848Y008483D01*
X016940Y008445D01*
X017040Y008445D01*
X017132Y008483D01*
X017202Y008553D01*
X017240Y008645D01*
X017240Y008745D01*
X017216Y008803D01*
X017284Y008775D01*
X017384Y008775D01*
X017475Y008813D01*
X017546Y008883D01*
X017584Y008975D01*
X017584Y009075D01*
X017546Y009166D01*
X017475Y009237D01*
X017384Y009275D01*
X017284Y009275D01*
X017192Y009237D01*
X017122Y009166D01*
X017084Y009038D02*
X013235Y009038D01*
X013230Y008880D02*
X016821Y008880D01*
X016740Y008721D02*
X013059Y008721D01*
X012931Y008721D02*
X011357Y008721D01*
X011651Y008563D02*
X015337Y008563D01*
X015292Y008544D02*
X015216Y008468D01*
X015175Y008369D01*
X015175Y008261D01*
X015216Y008162D01*
X015292Y008086D01*
X015391Y008045D01*
X015499Y008045D01*
X015598Y008086D01*
X015674Y008162D01*
X015715Y008261D01*
X015715Y008369D01*
X015674Y008468D01*
X015598Y008544D01*
X015499Y008585D01*
X015391Y008585D01*
X015292Y008544D01*
X015189Y008404D02*
X011820Y008404D01*
X012113Y008246D02*
X015181Y008246D01*
X015291Y008087D02*
X012260Y008087D01*
X012370Y007929D02*
X018055Y007929D01*
X018055Y008087D02*
X015599Y008087D01*
X015708Y008246D02*
X018055Y008246D01*
X018055Y008404D02*
X015700Y008404D01*
X015553Y008563D02*
X016774Y008563D01*
X017206Y008563D02*
X018055Y008563D01*
X018055Y008721D02*
X017240Y008721D01*
X017542Y008880D02*
X018055Y008880D01*
X018055Y009038D02*
X017584Y009038D01*
X017516Y009197D02*
X018055Y009197D01*
X018055Y009355D02*
X016535Y009355D01*
X016502Y009514D02*
X018055Y009514D01*
X019194Y008246D02*
X019618Y008246D01*
X018055Y007770D02*
X012469Y007770D01*
X012016Y007770D02*
X009145Y007770D01*
X009145Y007612D02*
X011038Y007612D01*
X010945Y007453D02*
X009145Y007453D01*
X009145Y007295D02*
X010974Y007295D01*
X011608Y008087D02*
X009145Y008087D01*
X009145Y007929D02*
X011898Y007929D01*
X011274Y008246D02*
X009145Y008246D01*
X009145Y008404D02*
X010967Y008404D01*
X010910Y008563D02*
X009145Y008563D01*
X009145Y008721D02*
X010962Y008721D01*
X011768Y009038D02*
X009145Y009038D01*
X009145Y008880D02*
X012760Y008880D01*
X012754Y009038D02*
X012121Y009038D01*
X011695Y009197D02*
X009145Y009197D01*
X009145Y009355D02*
X011732Y009355D01*
X014295Y009989D02*
X009145Y009989D01*
X009145Y009831D02*
X014376Y009831D01*
X015183Y011099D02*
X015322Y011099D01*
X015295Y011257D02*
X015225Y011257D01*
X015156Y011416D02*
X015392Y011416D01*
X020405Y009831D02*
X030645Y009831D01*
X027615Y012208D02*
X027274Y012208D01*
X027370Y012367D02*
X027519Y012367D01*
X027495Y012525D02*
X027395Y012525D01*
X027362Y012684D02*
X027528Y012684D01*
X026528Y012684D02*
X026362Y012684D01*
X026395Y012525D02*
X026495Y012525D01*
X026519Y012367D02*
X026370Y012367D01*
X026274Y012208D02*
X026615Y012208D01*
X025615Y012208D02*
X025274Y012208D01*
X025370Y012367D02*
X025519Y012367D01*
X025495Y012525D02*
X025395Y012525D01*
X025362Y012684D02*
X025528Y012684D01*
X024528Y012684D02*
X024362Y012684D01*
X024395Y012525D02*
X024495Y012525D01*
X024519Y012367D02*
X024370Y012367D01*
X024274Y012208D02*
X024615Y012208D01*
X017945Y006661D02*
X012620Y006661D01*
X012620Y006502D02*
X015136Y006502D01*
X015074Y006344D02*
X012620Y006344D01*
X012620Y006185D02*
X015121Y006185D01*
X015460Y005868D02*
X012620Y005868D01*
X012620Y005710D02*
X015388Y005710D01*
X015426Y005551D02*
X015496Y005480D01*
X015588Y005442D01*
X015687Y005442D01*
X015779Y005480D01*
X015850Y005551D01*
X014530Y004125D02*
X013032Y004125D01*
X013140Y003966D02*
X014608Y003966D01*
X014601Y003808D02*
X014289Y003808D01*
X014376Y003649D02*
X014513Y003649D01*
X014495Y003491D02*
X014395Y003491D01*
X014356Y003332D02*
X014534Y003332D01*
X013534Y003332D02*
X013356Y003332D01*
X013395Y003491D02*
X013495Y003491D01*
X013513Y003649D02*
X013376Y003649D01*
X013289Y003808D02*
X013601Y003808D01*
X012681Y003966D02*
X012089Y003966D01*
X012026Y004125D02*
X012574Y004125D01*
X012466Y004283D02*
X011962Y004283D01*
X012289Y003808D02*
X012601Y003808D01*
X012513Y003649D02*
X012376Y003649D01*
X012395Y003491D02*
X012495Y003491D01*
X012534Y003332D02*
X012356Y003332D01*
X011534Y003332D02*
X011356Y003332D01*
X011395Y003491D02*
X011495Y003491D01*
X011513Y003649D02*
X011376Y003649D01*
X011289Y003808D02*
X011601Y003808D01*
X010601Y003808D02*
X009181Y003808D01*
X009155Y003890D02*
X009145Y004015D01*
X009234Y003649D02*
X010513Y003649D01*
X010495Y003491D02*
X009349Y003491D01*
X009541Y003332D02*
X010534Y003332D01*
X012620Y006027D02*
X020775Y006027D01*
X020601Y003808D02*
X020289Y003808D01*
X020376Y003649D02*
X020513Y003649D01*
X020495Y003491D02*
X020395Y003491D01*
X020356Y003332D02*
X020534Y003332D01*
X021356Y003332D02*
X021534Y003332D01*
X021495Y003491D02*
X021395Y003491D01*
X021376Y003649D02*
X021513Y003649D01*
X021601Y003808D02*
X021289Y003808D01*
X022289Y003808D02*
X022601Y003808D01*
X022513Y003649D02*
X022376Y003649D01*
X022395Y003491D02*
X022495Y003491D01*
X022534Y003332D02*
X022356Y003332D01*
X019601Y003808D02*
X019289Y003808D01*
X019376Y003649D02*
X019513Y003649D01*
X019495Y003491D02*
X019395Y003491D01*
X019356Y003332D02*
X019534Y003332D01*
X017601Y003808D02*
X017289Y003808D01*
X017376Y003649D02*
X017513Y003649D01*
X017495Y003491D02*
X017395Y003491D01*
X017356Y003332D02*
X017534Y003332D01*
D12*
X015598Y004117D03*
X015145Y004615D03*
X014580Y004454D03*
X013445Y004615D03*
X012145Y004515D03*
X013922Y005381D03*
X014145Y005615D03*
X015324Y006336D03*
X015145Y006815D03*
X014345Y006915D03*
X013745Y007415D03*
X013395Y007865D03*
X011705Y007336D03*
X011195Y007415D03*
X011495Y008365D03*
X011160Y008565D03*
X011945Y009215D03*
X012995Y008965D03*
X014545Y010015D03*
X015345Y010115D03*
X016015Y010555D03*
X016895Y010462D03*
X018095Y011015D03*
X016895Y011215D03*
X016042Y011372D03*
X015545Y011215D03*
X014975Y011243D03*
X014645Y010615D03*
X013645Y011115D03*
X014345Y011715D03*
X013430Y011986D03*
X012105Y011331D03*
X012145Y010915D03*
X012145Y010415D03*
X011445Y012015D03*
X009345Y012015D03*
X009345Y012476D03*
X009345Y011515D03*
X009245Y011115D03*
X009245Y010615D03*
X009245Y010215D03*
X015551Y009273D03*
X016285Y009385D03*
X017334Y009025D03*
X016990Y008695D03*
X016151Y008373D03*
X016395Y007015D03*
X018006Y006784D03*
X018005Y006415D03*
X019025Y006639D03*
X018859Y007276D03*
X020284Y007204D03*
X020302Y007676D03*
X020304Y008143D03*
X019860Y008315D03*
X019887Y008797D03*
X020145Y009115D03*
X020545Y008915D03*
X020565Y009364D03*
X020324Y009594D03*
X019445Y009517D03*
X019820Y010394D03*
X020793Y010372D03*
X021727Y010179D03*
X022145Y010015D03*
X022016Y009565D03*
X021549Y009435D03*
X022545Y009415D03*
X023025Y008905D03*
X022695Y008855D03*
X024135Y008185D03*
X024505Y008185D03*
X024905Y008185D03*
X024905Y007805D03*
X024905Y007425D03*
X024515Y007425D03*
X024505Y007805D03*
X024135Y007805D03*
X024135Y007425D03*
X022645Y008115D03*
X022327Y007486D03*
X022475Y007185D03*
X022455Y006875D03*
X021945Y006365D03*
X021645Y005947D03*
X020942Y005839D03*
X020615Y005676D03*
X021361Y005356D03*
X022024Y005115D03*
X022837Y005068D03*
X023565Y005055D03*
X023955Y005055D03*
X024315Y004995D03*
X024615Y005265D03*
X024515Y005515D03*
X024865Y005515D03*
X025215Y005525D03*
X025415Y005355D03*
X025115Y005255D03*
X025015Y004955D03*
X025785Y004685D03*
X026145Y004675D03*
X025945Y004415D03*
X025375Y004615D03*
X025075Y004615D03*
X024745Y004615D03*
X024445Y004615D03*
X024145Y004615D03*
X023845Y004615D03*
X022351Y004672D03*
X021769Y004636D03*
X020445Y004597D03*
X019945Y004558D03*
X019445Y004515D03*
X018945Y004826D03*
X018551Y004787D03*
X019653Y004984D03*
X019765Y005626D03*
X017945Y005615D03*
X016895Y005365D03*
X015638Y005692D03*
X013069Y006533D03*
X010545Y005615D03*
X009305Y005015D03*
X009295Y004515D03*
X009345Y004015D03*
X009345Y003594D03*
X017331Y004396D03*
X020400Y006466D03*
X023635Y005565D03*
X025575Y006405D03*
X026445Y006515D03*
X026465Y006805D03*
X026945Y007015D03*
X027445Y007015D03*
X027445Y006515D03*
X026945Y006515D03*
X026945Y006015D03*
X027445Y006015D03*
X026445Y006015D03*
X026445Y005515D03*
X026945Y005515D03*
X027445Y005515D03*
X027945Y005515D03*
X028445Y005515D03*
X028945Y005515D03*
X029445Y005515D03*
X029925Y005505D03*
X030425Y005505D03*
X030425Y005005D03*
X029925Y005005D03*
X029445Y005015D03*
X028945Y005015D03*
X028445Y005015D03*
X027945Y005015D03*
X027445Y005015D03*
X026945Y005015D03*
X026945Y004515D03*
X026565Y004605D03*
X027445Y004515D03*
X027945Y004515D03*
X028445Y004515D03*
X028945Y004515D03*
X029445Y004515D03*
X029925Y004505D03*
X030425Y004505D03*
X030425Y004005D03*
X029925Y004005D03*
X029445Y004015D03*
X028945Y004015D03*
X028445Y004015D03*
X029445Y003515D03*
X029925Y003505D03*
X030425Y003505D03*
X030425Y006005D03*
X029925Y006005D03*
X029925Y006505D03*
X029445Y006515D03*
X028945Y006515D03*
X028445Y006515D03*
X028445Y007015D03*
X028945Y007015D03*
X028945Y007515D03*
X027665Y008075D03*
X027865Y008275D03*
X027275Y008345D03*
X026465Y008015D03*
X027275Y008755D03*
X027445Y008915D03*
X027945Y008915D03*
X028445Y008915D03*
X028945Y008915D03*
X028945Y008415D03*
X028445Y008415D03*
X026725Y009075D03*
X026945Y009415D03*
X027445Y009415D03*
X027945Y009415D03*
X028445Y009415D03*
X028945Y009415D03*
X029445Y009415D03*
X029945Y009415D03*
X030445Y009415D03*
X030445Y009915D03*
X029945Y009915D03*
X029445Y009915D03*
X028945Y009915D03*
X028445Y009915D03*
X027945Y009915D03*
X027445Y009915D03*
X026945Y009915D03*
X026445Y009915D03*
X025945Y009915D03*
X025555Y010115D03*
X025445Y010415D03*
X025215Y010115D03*
X024905Y010065D03*
X024885Y010415D03*
X024395Y010385D03*
X024445Y010915D03*
X024945Y010915D03*
X025445Y010915D03*
X025945Y010915D03*
X026445Y010915D03*
X026945Y010915D03*
X027445Y010915D03*
X027945Y010915D03*
X028445Y010915D03*
X028945Y010915D03*
X029445Y010915D03*
X029945Y010915D03*
X030445Y010915D03*
X030445Y010415D03*
X029945Y010415D03*
X029445Y010415D03*
X028945Y010415D03*
X028445Y010415D03*
X027945Y010415D03*
X027445Y010415D03*
X026945Y010415D03*
X026445Y010415D03*
X025945Y010415D03*
X025905Y009445D03*
X026445Y009415D03*
X023685Y009445D03*
X022213Y010535D03*
X022565Y010715D03*
X022845Y011015D03*
X023145Y011015D03*
X023545Y011015D03*
X023545Y011415D03*
X023945Y011415D03*
X024445Y011415D03*
X024945Y011415D03*
X025445Y011415D03*
X025945Y011415D03*
X026445Y011415D03*
X026945Y011415D03*
X027445Y011415D03*
X027945Y011415D03*
X028445Y011415D03*
X028945Y011415D03*
X029445Y011415D03*
X029945Y011415D03*
X030445Y011415D03*
X030445Y011915D03*
X029945Y011915D03*
X029445Y011915D03*
X028945Y011915D03*
X028445Y011915D03*
X029945Y012415D03*
X030445Y012415D03*
X021520Y011712D03*
X021185Y011404D03*
X020645Y011315D03*
X020053Y011330D03*
X019645Y011015D03*
X030445Y006515D03*
D13*
X026235Y007205D03*
X026235Y007405D03*
X026235Y007605D03*
D14*
X022024Y005115D02*
X021713Y004984D01*
X019653Y004984D01*
X018945Y004826D02*
X018945Y003515D01*
X018551Y004121D02*
X018551Y004787D01*
X018551Y004121D02*
X017945Y003515D01*
X014945Y003515D02*
X014845Y003915D01*
X014580Y004454D01*
X012945Y003915D02*
X012945Y003515D01*
X012945Y003915D02*
X012430Y004676D01*
X012430Y007476D01*
X012230Y007794D01*
X012045Y008065D01*
X011495Y008365D01*
X011705Y007336D02*
X011731Y006758D01*
X011717Y006492D01*
X011745Y004315D01*
X011945Y003815D01*
X011945Y003515D01*
X018005Y006415D02*
X018045Y006415D01*
X018245Y006615D01*
X018245Y009615D01*
X019645Y011015D01*
X019820Y010394D02*
X021197Y010936D01*
X022297Y011636D01*
X023445Y011872D01*
X023945Y012451D01*
X023945Y012515D01*
D15*
X015445Y008315D03*
X015384Y007333D03*
X016945Y007115D03*
X019045Y008015D03*
X011045Y004918D03*
X010845Y011415D03*
D16*
X013645Y011115D02*
X013745Y011215D01*
X014345Y011215D01*
X014945Y011815D01*
X014945Y012515D01*
M02*
