<?xml version="1.0" encoding="UTF-8" standalone="no"?>
<!-- 2014-09-02 16:39:00 Generated by QCAD SVG Exporter -->

<svg
   xmlns:dc="http://purl.org/dc/elements/1.1/"
   xmlns:cc="http://creativecommons.org/ns#"
   xmlns:rdf="http://www.w3.org/1999/02/22-rdf-syntax-ns#"
   xmlns:svg="http://www.w3.org/2000/svg"
   xmlns="http://www.w3.org/2000/svg"
   xmlns:sodipodi="http://sodipodi.sourceforge.net/DTD/sodipodi-0.dtd"
   xmlns:inkscape="http://www.inkscape.org/namespaces/inkscape"
   width="765"
   height="990"
   viewBox="0 -1 764.99998 990"
   version="1.1"
   style="fill:none;stroke-linecap:round;stroke-linejoin:round"
   id="svg2985"
   inkscape:version="0.48.4 r9939"
   sodipodi:docname="Flutter ARM R5 Stencil Basic.svg">
  <metadata
     id="metadata3703">
    <rdf:RDF>
      <cc:Work
         rdf:about="">
        <dc:format>image/svg+xml</dc:format>
        <dc:type
           rdf:resource="http://purl.org/dc/dcmitype/StillImage" />
        <dc:title></dc:title>
      </cc:Work>
    </rdf:RDF>
  </metadata>
  <defs
     id="defs3701" />
  <sodipodi:namedview
     pagecolor="#ffffff"
     bordercolor="#666666"
     borderopacity="1"
     objecttolerance="10"
     gridtolerance="10"
     guidetolerance="10"
     inkscape:pageopacity="0"
     inkscape:pageshadow="2"
     inkscape:window-width="2560"
     inkscape:window-height="1387"
     id="namedview3699"
     showgrid="false"
     inkscape:zoom="8"
     inkscape:cx="375.74507"
     inkscape:cy="639.8909"
     inkscape:window-x="1920"
     inkscape:window-y="0"
     inkscape:window-maximized="1"
     inkscape:current-layer="g2987"
     units="in" />
  <g
     transform="matrix(90,0,0,-90,0,989)"
     id="g2987">
    <!-- Line -->
    <!-- Arc -->
    <!-- Line -->
    <!-- Arc -->
    <!-- Line -->
    <!-- Arc -->
    <!-- Line -->
    <!-- Arc -->
    <!-- Circle -->
    <!-- Circle -->
    <!-- Line -->
    <!-- Line -->
    <!-- Line -->
    <!-- Line -->
    <!-- Line -->
    <!-- Line -->
    <!-- Line -->
    <!-- Line -->
    <!-- Line -->
    <!-- Line -->
    <!-- Line -->
    <!-- Line -->
    <!-- Line -->
    <!-- Line -->
    <!-- Line -->
    <!-- Line -->
    <!-- Line -->
    <!-- Line -->
    <!-- Line -->
    <!-- Line -->
    <!-- Line -->
    <!-- Line -->
    <!-- Line -->
    <!-- Line -->
    <!-- Line -->
    <!-- Line -->
    <!-- Line -->
    <!-- Line -->
    <!-- Line -->
    <!-- Line -->
    <!-- Line -->
    <!-- Line -->
    <!-- Line -->
    <!-- Line -->
    <!-- Line -->
    <!-- Line -->
    <!-- Line -->
    <!-- Polyline -->
    <path
       d="m 3.2574563,7.4241236 0.04262,0 m 0,0 a 0.0053275,0.0053275 0 0 1 0.00533,0.00533 m 0,0 0,0.054432 m 0,0 a 0.0053275,0.0053275 0 0 1 -0.00533,0.00533 m 0,0 -0.04262,0 m 0,0 a 0.0053275,0.0053275 0 0 1 -0.00533,-0.00533 m 0,0 0,-0.054432 m 0,0 a 0.0053275,0.0053275 0 0 1 0.00533,-0.00533"
       style="fill:none;stroke:#000000;stroke-width:0.00111111;stroke-miterlimit:4;stroke-dasharray:none"
       id="path3083"
       inkscape:connector-curvature="0" />
    <!-- Polyline -->
    <path
       d="m 3.1865903,7.4241236 0.04262,0 m 0,0 a 0.0053275,0.0053275 0 0 1 0.00533,0.00533 m 0,0 0,0.054432 m 0,0 a 0.0053275,0.0053275 0 0 1 -0.00533,0.00533 m 0,0 -0.04262,0 m 0,0 a 0.0053275,0.0053275 0 0 1 -0.00533,-0.00533 m 0,0 0,-0.054432 m 0,0 a 0.0053275,0.0053275 0 0 1 0.00533,-0.00533"
       style="fill:none;stroke:#000000;stroke-width:0.00111111;stroke-miterlimit:4;stroke-dasharray:none"
       id="path3085"
       inkscape:connector-curvature="0" />
    <!-- Polyline -->
    <path
       d="m 3.4607903,7.3525436 0,-0.04262 m 0,0 a 0.0053275,0.0053275 0 0 1 0.00533,-0.00533 m 0,0 0.054432,0 m 0,0 a 0.0053275,0.0053275 0 0 1 0.00533,0.00533 m 0,0 0,0.04262 m 0,0 a 0.0053275,0.0053275 0 0 1 -0.00533,0.00533 m 0,0 -0.054432,0 m 0,0 a 0.0053275,0.0053275 0 0 1 -0.00533,-0.00533"
       style="fill:none;stroke:#000000;stroke-width:0.00111111;stroke-miterlimit:4;stroke-dasharray:none"
       id="path3087"
       inkscape:connector-curvature="0" />
    <!-- Polyline -->
    <path
       d="m 3.4607903,7.4234096 0,-0.04262 m 0,0 a 0.0053275,0.0053275 0 0 1 0.00533,-0.00533 m 0,0 0.054432,0 m 0,0 a 0.0053275,0.0053275 0 0 1 0.00533,0.00533 m 0,0 0,0.04262 m 0,0 a 0.0053275,0.0053275 0 0 1 -0.00533,0.00533 m 0,0 -0.054432,0 m 0,0 a 0.0053275,0.0053275 0 0 1 -0.00533,-0.00533"
       style="fill:none;stroke:#000000;stroke-width:0.00111111;stroke-miterlimit:4;stroke-dasharray:none"
       id="path3089"
       inkscape:connector-curvature="0" />
    <!-- Polyline -->
    <path
       d="m 3.6582513,6.8572556 0.025298,0 m 0,0 a 0.00223446,0 225 0 0 0.00316,0.00316 m 0,0 0,0.025298 m 0,0 a 0.00223446,0 315 0 0 -0.00316,0.00316 m 0,0 -0.025298,0 m 0,0 a 0.00223446,0 45 0 0 -0.00316,-0.00316 m 0,0 0,-0.025298 m 0,0 a 0.00223446,0 135 0 0 0.00316,-0.00316"
       style="fill:none;stroke:#000000;stroke-width:0.00111111;stroke-miterlimit:4;stroke-dasharray:none"
       id="path3091"
       inkscape:connector-curvature="0" />
    <!-- Polyline -->
    <path
       d="m 3.6582513,6.8178856 0.025298,0 m 0,0 a 0.00223446,0 225 0 0 0.00316,0.00316 m 0,0 0,0.025298 m 0,0 a 0.00223446,0 315 0 0 -0.00316,0.00316 m 0,0 -0.025298,0 m 0,0 a 0.00223446,0 45 0 0 -0.00316,-0.00316 m 0,0 0,-0.025298 m 0,0 a 0.00223446,0 135 0 0 0.00316,-0.00316"
       style="fill:none;stroke:#000000;stroke-width:0.00111111;stroke-miterlimit:4;stroke-dasharray:none"
       id="path3093"
       inkscape:connector-curvature="0" />
    <!-- Polyline -->
    <path
       d="m 3.6216063,6.8569066 0.025298,0 m 0,0 a 0.00223446,0 225 0 0 0.00316,0.00316 m 0,0 0,0.025298 m 0,0 a 0.00223446,0 315 0 0 -0.00316,0.00316 m 0,0 -0.025298,0 m 0,0 a 0.00223446,0 45 0 0 -0.00316,-0.00316 m 0,0 0,-0.025298 m 0,0 a 0.00223446,0 135 0 0 0.00316,-0.00316"
       style="fill:none;stroke:#000000;stroke-width:0.00111111;stroke-miterlimit:4;stroke-dasharray:none"
       id="path3095"
       inkscape:connector-curvature="0" />
    <!-- Polyline -->
    <path
       d="m 3.6216063,6.8175366 0.025298,0 m 0,0 a 0.00223446,0 225 0 0 0.00316,0.00316 m 0,0 0,0.025298 m 0,0 a 0.00223446,0 315 0 0 -0.00316,0.00316 m 0,0 -0.025298,0 m 0,0 a 0.00223446,0 45 0 0 -0.00316,-0.00316 m 0,0 0,-0.025298 m 0,0 a 0.00223446,0 135 0 0 0.00316,-0.00316"
       style="fill:none;stroke:#000000;stroke-width:0.00111111;stroke-miterlimit:4;stroke-dasharray:none"
       id="path3097"
       inkscape:connector-curvature="0" />
    <!-- Polyline -->
    <path
       d="m 4.5262073,7.2433156 0,-0.025298 m 0,0 a 0.00223446,0 135 0 0 0.00316,-0.00316 m 0,0 0.025298,0 m 0,0 a 0.00223446,0 225 0 0 0.00316,0.00316 m 0,0 0,0.025298 m 0,0 a 0.00223446,0 315 0 0 -0.00316,0.00316 m 0,0 -0.025298,0 m 0,0 a 0.00223446,0 45 0 0 -0.00316,-0.00316"
       style="fill:none;stroke:#000000;stroke-width:0.00111111;stroke-miterlimit:4;stroke-dasharray:none"
       id="path3099"
       inkscape:connector-curvature="0" />
    <!-- Polyline -->
    <path
       d="m 4.4868373,7.2433156 0,-0.025298 m 0,0 a 0.00223446,0 135 0 0 0.00316,-0.00316 m 0,0 0.025298,0 m 0,0 a 0.00223446,0 225 0 0 0.00316,0.00316 m 0,0 0,0.025298 m 0,0 a 0.00223446,0 315 0 0 -0.00316,0.00316 m 0,0 -0.025298,0 m 0,0 a 0.00223446,0 45 0 0 -0.00316,-0.00316"
       style="fill:none;stroke:#000000;stroke-width:0.00111111;stroke-miterlimit:4;stroke-dasharray:none"
       id="path3101"
       inkscape:connector-curvature="0" />
    <!-- Polyline -->
    <path
       d="m 3.6906843,7.0155406 0.025298,0 m 0,0 a 0.00223446,0 225 0 0 0.00316,0.00316 m 0,0 0,0.025298 m 0,0 a 0.00223446,0 315 0 0 -0.00316,0.00316 m 0,0 -0.025298,0 m 0,0 a 0.00223446,0 45 0 0 -0.00316,-0.00316 m 0,0 0,-0.025298 m 0,0 a 0.00223446,0 135 0 0 0.00316,-0.00316"
       style="fill:none;stroke:#000000;stroke-width:0.00111111;stroke-miterlimit:4;stroke-dasharray:none"
       id="path3103"
       inkscape:connector-curvature="0" />
    <!-- Polyline -->
    <path
       d="m 3.6906843,6.9761706 0.025298,0 m 0,0 a 0.00223446,0 225 0 0 0.00316,0.00316 m 0,0 0,0.025298 m 0,0 a 0.00223446,0 315 0 0 -0.00316,0.00316 m 0,0 -0.025298,0 m 0,0 a 0.00223446,0 45 0 0 -0.00316,-0.00316 m 0,0 0,-0.025298 m 0,0 a 0.00223446,0 135 0 0 0.00316,-0.00316"
       style="fill:none;stroke:#000000;stroke-width:0.00111111;stroke-miterlimit:4;stroke-dasharray:none"
       id="path3105"
       inkscape:connector-curvature="0" />
    <!-- Polyline -->
    <path
       d="m 3.6272073,7.2593156 0,-0.025298 m 0,0 a 0.00223446,0 135 0 0 0.00316,-0.00316 m 0,0 0.025298,0 m 0,0 a 0.00223446,0 225 0 0 0.00316,0.00316 m 0,0 0,0.025298 m 0,0 a 0.00223446,0 315 0 0 -0.00316,0.00316 m 0,0 -0.025298,0 m 0,0 a 0.00223446,0 45 0 0 -0.00316,-0.00316"
       style="fill:none;stroke:#000000;stroke-width:0.00111111;stroke-miterlimit:4;stroke-dasharray:none"
       id="path3107"
       inkscape:connector-curvature="0" />
    <!-- Polyline -->
    <path
       d="m 3.5878373,7.2593156 0,-0.025298 m 0,0 a 0.00223446,0 135 0 0 0.00316,-0.00316 m 0,0 0.025298,0 m 0,0 a 0.00223446,0 225 0 0 0.00316,0.00316 m 0,0 0,0.025298 m 0,0 a 0.00223446,0 315 0 0 -0.00316,0.00316 m 0,0 -0.025298,0 m 0,0 a 0.00223446,0 45 0 0 -0.00316,-0.00316"
       style="fill:none;stroke:#000000;stroke-width:0.00111111;stroke-miterlimit:4;stroke-dasharray:none"
       id="path3109"
       inkscape:connector-curvature="0" />
    <!-- Polyline -->
    <path
       d="m 4.1875673,7.1487086 0,0.025298 m 0,0 a 0.00223446,0 315 0 0 -0.00316,0.00316 m 0,0 -0.025298,0 m 0,0 a 0.00223446,0 45 0 0 -0.00316,-0.00316 m 0,0 0,-0.025298 m 0,0 a 0.00223446,0 135 0 0 0.00316,-0.00316 m 0,0 0.025298,0 m 0,0 a 0.00223446,0 225 0 0 0.00316,0.00316"
       style="fill:none;stroke:#000000;stroke-width:0.00111111;stroke-miterlimit:4;stroke-dasharray:none"
       id="path3111"
       inkscape:connector-curvature="0" />
    <!-- Polyline -->
    <path
       d="m 4.2269373,7.1487086 0,0.025298 m 0,0 a 0.00223446,0 315 0 0 -0.00316,0.00316 m 0,0 -0.025298,0 m 0,0 a 0.00223446,0 45 0 0 -0.00316,-0.00316 m 0,0 0,-0.025298 m 0,0 a 0.00223446,0 135 0 0 0.00316,-0.00316 m 0,0 0.025298,0 m 0,0 a 0.00223446,0 225 0 0 0.00316,0.00316"
       style="fill:none;stroke:#000000;stroke-width:0.00111111;stroke-miterlimit:4;stroke-dasharray:none"
       id="path3113"
       inkscape:connector-curvature="0" />
    <!-- Polyline -->
    <path
       d="m 3.9906843,6.8555406 0.025298,0 m 0,0 a 0.00223446,0 225 0 0 0.00316,0.00316 m 0,0 0,0.025298 m 0,0 a 0.00223446,0 315 0 0 -0.00316,0.00316 m 0,0 -0.025298,0 m 0,0 a 0.00223446,0 45 0 0 -0.00316,-0.00316 m 0,0 0,-0.025298 m 0,0 a 0.00223446,0 135 0 0 0.00316,-0.00316"
       style="fill:none;stroke:#000000;stroke-width:0.00111111;stroke-miterlimit:4;stroke-dasharray:none"
       id="path3115"
       inkscape:connector-curvature="0" />
    <!-- Polyline -->
    <path
       d="m 3.9906843,6.8161706 0.025298,0 m 0,0 a 0.00223446,0 225 0 0 0.00316,0.00316 m 0,0 0,0.025298 m 0,0 a 0.00223446,0 315 0 0 -0.00316,0.00316 m 0,0 -0.025298,0 m 0,0 a 0.00223446,0 45 0 0 -0.00316,-0.00316 m 0,0 0,-0.025298 m 0,0 a 0.00223446,0 135 0 0 0.00316,-0.00316"
       style="fill:none;stroke:#000000;stroke-width:0.00111111;stroke-miterlimit:4;stroke-dasharray:none"
       id="path3117"
       inkscape:connector-curvature="0" />
    <!-- Polyline -->
    <path
       d="m 3.9559823,6.8477926 -0.025298,0 m 0,0 a 0.00223446,0 45 0 0 -0.00316,-0.00316 m 0,0 0,-0.025298 m 0,0 a 0.00223446,0 135 0 0 0.00316,-0.00316 m 0,0 0.025298,0 m 0,0 a 0.00223446,0 225 0 0 0.00316,0.00316 m 0,0 0,0.025298 m 0,0 a 0.00223446,0 315 0 0 -0.00316,0.00316"
       style="fill:none;stroke:#000000;stroke-width:0.00111111;stroke-miterlimit:4;stroke-dasharray:none"
       id="path3119"
       inkscape:connector-curvature="0" />
    <!-- Polyline -->
    <path
       d="m 3.9559823,6.8871626 -0.025298,0 m 0,0 a 0.00223446,0 45 0 0 -0.00316,-0.00316 m 0,0 0,-0.025298 m 0,0 a 0.00223446,0 135 0 0 0.00316,-0.00316 m 0,0 0.025298,0 m 0,0 a 0.00223446,0 225 0 0 0.00316,0.00316 m 0,0 0,0.025298 m 0,0 a 0.00223446,0 315 0 0 -0.00316,0.00316"
       style="fill:none;stroke:#000000;stroke-width:0.00111111;stroke-miterlimit:4;stroke-dasharray:none"
       id="path3121"
       inkscape:connector-curvature="0" />
    <!-- Polyline -->
    <path
       d="m 3.6514003,7.0155406 0.025298,0 m 0,0 a 0.00223446,0 225 0 0 0.00316,0.00316 m 0,0 0,0.025298 m 0,0 a 0.00223446,0 315 0 0 -0.00316,0.00316 m 0,0 -0.025298,0 m 0,0 a 0.00223446,0 45 0 0 -0.00316,-0.00316 m 0,0 0,-0.025298 m 0,0 a 0.00223446,0 135 0 0 0.00316,-0.00316"
       style="fill:none;stroke:#000000;stroke-width:0.00111111;stroke-miterlimit:4;stroke-dasharray:none"
       id="path3123"
       inkscape:connector-curvature="0" />
    <!-- Polyline -->
    <path
       d="m 3.6514003,6.9761706 0.025298,0 m 0,0 a 0.00223446,0 225 0 0 0.00316,0.00316 m 0,0 0,0.025298 m 0,0 a 0.00223446,0 315 0 0 -0.00316,0.00316 m 0,0 -0.025298,0 m 0,0 a 0.00223446,0 45 0 0 -0.00316,-0.00316 m 0,0 0,-0.025298 m 0,0 a 0.00223446,0 135 0 0 0.00316,-0.00316"
       style="fill:none;stroke:#000000;stroke-width:0.00111111;stroke-miterlimit:4;stroke-dasharray:none"
       id="path3125"
       inkscape:connector-curvature="0" />
    <!-- Polyline -->
    <path
       d="m 3.7144593,6.9140176 0,0.025298 m 0,0 a 0.00223446,0 315 0 0 -0.00316,0.00316 m 0,0 -0.025298,0 m 0,0 a 0.00223446,0 45 0 0 -0.00316,-0.00316 m 0,0 0,-0.025298 m 0,0 a 0.00223446,0 135 0 0 0.00316,-0.00316 m 0,0 0.025298,0 m 0,0 a 0.00223446,0 225 0 0 0.00316,0.00316"
       style="fill:none;stroke:#000000;stroke-width:0.00111111;stroke-miterlimit:4;stroke-dasharray:none"
       id="path3127"
       inkscape:connector-curvature="0" />
    <!-- Polyline -->
    <path
       d="m 3.7538293,6.9140176 0,0.025298 m 0,0 a 0.00223446,0 315 0 0 -0.00316,0.00316 m 0,0 -0.025298,0 m 0,0 a 0.00223446,0 45 0 0 -0.00316,-0.00316 m 0,0 0,-0.025298 m 0,0 a 0.00223446,0 135 0 0 0.00316,-0.00316 m 0,0 0.025298,0 m 0,0 a 0.00223446,0 225 0 0 0.00316,0.00316"
       style="fill:none;stroke:#000000;stroke-width:0.00111111;stroke-miterlimit:4;stroke-dasharray:none"
       id="path3129"
       inkscape:connector-curvature="0" />
    <!-- Polyline -->
    <path
       d="m 4.0306843,6.8555406 0.025298,0 m 0,0 a 0.00223446,0 225 0 0 0.00316,0.00316 m 0,0 0,0.025298 m 0,0 a 0.00223446,0 315 0 0 -0.00316,0.00316 m 0,0 -0.025298,0 m 0,0 a 0.00223446,0 45 0 0 -0.00316,-0.00316 m 0,0 0,-0.025298 m 0,0 a 0.00223446,0 135 0 0 0.00316,-0.00316"
       style="fill:none;stroke:#000000;stroke-width:0.00111111;stroke-miterlimit:4;stroke-dasharray:none"
       id="path3131"
       inkscape:connector-curvature="0" />
    <!-- Polyline -->
    <path
       d="m 4.0306843,6.8161706 0.025298,0 m 0,0 a 0.00223446,0 225 0 0 0.00316,0.00316 m 0,0 0,0.025298 m 0,0 a 0.00223446,0 315 0 0 -0.00316,0.00316 m 0,0 -0.025298,0 m 0,0 a 0.00223446,0 45 0 0 -0.00316,-0.00316 m 0,0 0,-0.025298 m 0,0 a 0.00223446,0 135 0 0 0.00316,-0.00316"
       style="fill:none;stroke:#000000;stroke-width:0.00111111;stroke-miterlimit:4;stroke-dasharray:none"
       id="path3133"
       inkscape:connector-curvature="0" />
    <!-- Polyline -->
    <path
       d="m 3.8906843,6.8555406 0.025298,0 m 0,0 a 0.00223446,0 225 0 0 0.00316,0.00316 m 0,0 0,0.025298 m 0,0 a 0.00223446,0 315 0 0 -0.00316,0.00316 m 0,0 -0.025298,0 m 0,0 a 0.00223446,0 45 0 0 -0.00316,-0.00316 m 0,0 0,-0.025298 m 0,0 a 0.00223446,0 135 0 0 0.00316,-0.00316"
       style="fill:none;stroke:#000000;stroke-width:0.00111111;stroke-miterlimit:4;stroke-dasharray:none"
       id="path3135"
       inkscape:connector-curvature="0" />
    <!-- Polyline -->
    <path
       d="m 3.8906843,6.8161706 0.025298,0 m 0,0 a 0.00223446,0 225 0 0 0.00316,0.00316 m 0,0 0,0.025298 m 0,0 a 0.00223446,0 315 0 0 -0.00316,0.00316 m 0,0 -0.025298,0 m 0,0 a 0.00223446,0 45 0 0 -0.00316,-0.00316 m 0,0 0,-0.025298 m 0,0 a 0.00223446,0 135 0 0 0.00316,-0.00316"
       style="fill:none;stroke:#000000;stroke-width:0.00111111;stroke-miterlimit:4;stroke-dasharray:none"
       id="path3137"
       inkscape:connector-curvature="0" />
    <!-- Polyline -->
    <path
       d="m 4.1873403,7.0292046 0,-0.025298 m 0,0 a 0.00223446,0 135 0 0 0.00316,-0.00316 m 0,0 0.025298,0 m 0,0 a 0.00223446,0 225 0 0 0.00316,0.00316 m 0,0 0,0.025298 m 0,0 a 0.00223446,0 315 0 0 -0.00316,0.00316 m 0,0 -0.025298,0 m 0,0 a 0.00223446,0 45 0 0 -0.00316,-0.00316"
       style="fill:none;stroke:#000000;stroke-width:0.00111111;stroke-miterlimit:4;stroke-dasharray:none"
       id="path3139"
       inkscape:connector-curvature="0" />
    <!-- Polyline -->
    <path
       d="m 4.1479703,7.0292046 0,-0.025298 m 0,0 a 0.00223446,0 135 0 0 0.00316,-0.00316 m 0,0 0.025298,0 m 0,0 a 0.00223446,0 225 0 0 0.00316,0.00316 m 0,0 0,0.025298 m 0,0 a 0.00223446,0 315 0 0 -0.00316,0.00316 m 0,0 -0.025298,0 m 0,0 a 0.00223446,0 45 0 0 -0.00316,-0.00316"
       style="fill:none;stroke:#000000;stroke-width:0.00111111;stroke-miterlimit:4;stroke-dasharray:none"
       id="path3141"
       inkscape:connector-curvature="0" />
    <!-- Polyline -->
    <path
       d="m 3.5098413,7.1126046 0,0.025298 m 0,0 a 0.00223446,0 315 0 0 -0.00316,0.00316 m 0,0 -0.025298,0 m 0,0 a 0.00223446,0 45 0 0 -0.00316,-0.00316 m 0,0 0,-0.025298 m 0,0 a 0.00223446,0 135 0 0 0.00316,-0.00316 m 0,0 0.025298,0 m 0,0 a 0.00223446,0 225 0 0 0.00316,0.00316"
       style="fill:none;stroke:#000000;stroke-width:0.00111111;stroke-miterlimit:4;stroke-dasharray:none"
       id="path3143"
       inkscape:connector-curvature="0" />
    <!-- Polyline -->
    <path
       d="m 3.5492113,7.1126046 0,0.025298 m 0,0 a 0.00223446,0 315 0 0 -0.00316,0.00316 m 0,0 -0.025298,0 m 0,0 a 0.00223446,0 45 0 0 -0.00316,-0.00316 m 0,0 0,-0.025298 m 0,0 a 0.00223446,0 135 0 0 0.00316,-0.00316 m 0,0 0.025298,0 m 0,0 a 0.00223446,0 225 0 0 0.00316,0.00316"
       style="fill:none;stroke:#000000;stroke-width:0.00111111;stroke-miterlimit:4;stroke-dasharray:none"
       id="path3145"
       inkscape:connector-curvature="0" />
    <!-- Polyline -->
    <path
       d="m 3.5443863,6.8957446 0,0.025298 m 0,0 a 0.00223446,0 315 0 0 -0.00316,0.00316 m 0,0 -0.025298,0 m 0,0 a 0.00223446,0 45 0 0 -0.00316,-0.00316 m 0,0 0,-0.025298 m 0,0 a 0.00223446,0 135 0 0 0.00316,-0.00316 m 0,0 0.025298,0 m 0,0 a 0.00223446,0 225 0 0 0.00316,0.00316"
       style="fill:none;stroke:#000000;stroke-width:0.00111111;stroke-miterlimit:4;stroke-dasharray:none"
       id="path3147"
       inkscape:connector-curvature="0" />
    <!-- Polyline -->
    <path
       d="m 3.5837563,6.8957446 0,0.025298 m 0,0 a 0.00223446,0 315 0 0 -0.00316,0.00316 m 0,0 -0.025298,0 m 0,0 a 0.00223446,0 45 0 0 -0.00316,-0.00316 m 0,0 0,-0.025298 m 0,0 a 0.00223446,0 135 0 0 0.00316,-0.00316 m 0,0 0.025298,0 m 0,0 a 0.00223446,0 225 0 0 0.00316,0.00316"
       style="fill:none;stroke:#000000;stroke-width:0.00111111;stroke-miterlimit:4;stroke-dasharray:none"
       id="path3149"
       inkscape:connector-curvature="0" />
    <!-- Polyline -->
    <path
       d="m 4.5082703,7.1423786 0,-0.025298 m 0,0 a 0.00223446,0 135 0 0 0.00316,-0.00316 m 0,0 0.025298,0 m 0,0 a 0.00223446,0 225 0 0 0.00316,0.00316 m 0,0 0,0.025298 m 0,0 a 0.00223446,0 315 0 0 -0.00316,0.00316 m 0,0 -0.025298,0 m 0,0 a 0.00223446,0 45 0 0 -0.00316,-0.00316"
       style="fill:none;stroke:#000000;stroke-width:0.00111111;stroke-miterlimit:4;stroke-dasharray:none"
       id="path3151"
       inkscape:connector-curvature="0" />
    <!-- Polyline -->
    <path
       d="m 4.4689003,7.1423786 0,-0.025298 m 0,0 a 0.00223446,0 135 0 0 0.00316,-0.00316 m 0,0 0.025298,0 m 0,0 a 0.00223446,0 225 0 0 0.00316,0.00316 m 0,0 0,0.025298 m 0,0 a 0.00223446,0 315 0 0 -0.00316,0.00316 m 0,0 -0.025298,0 m 0,0 a 0.00223446,0 45 0 0 -0.00316,-0.00316"
       style="fill:none;stroke:#000000;stroke-width:0.00111111;stroke-miterlimit:4;stroke-dasharray:none"
       id="path3153"
       inkscape:connector-curvature="0" />
    <!-- Polyline -->
    <path
       d="m 4.5176843,7.0755406 0.025298,0 m 0,0 a 0.00223446,0 225 0 0 0.00316,0.00316 m 0,0 0,0.025298 m 0,0 a 0.00223446,0 315 0 0 -0.00316,0.00316 m 0,0 -0.025298,0 m 0,0 a 0.00223446,0 45 0 0 -0.00316,-0.00316 m 0,0 0,-0.025298 m 0,0 a 0.00223446,0 135 0 0 0.00316,-0.00316"
       style="fill:none;stroke:#000000;stroke-width:0.00111111;stroke-miterlimit:4;stroke-dasharray:none"
       id="path3155"
       inkscape:connector-curvature="0" />
    <!-- Polyline -->
    <path
       d="m 4.5176843,7.0361706 0.025298,0 m 0,0 a 0.00223446,0 225 0 0 0.00316,0.00316 m 0,0 0,0.025298 m 0,0 a 0.00223446,0 315 0 0 -0.00316,0.00316 m 0,0 -0.025298,0 m 0,0 a 0.00223446,0 45 0 0 -0.00316,-0.00316 m 0,0 0,-0.025298 m 0,0 a 0.00223446,0 135 0 0 0.00316,-0.00316"
       style="fill:none;stroke:#000000;stroke-width:0.00111111;stroke-miterlimit:4;stroke-dasharray:none"
       id="path3157"
       inkscape:connector-curvature="0" />
    <!-- Polyline -->
    <path
       d="m 4.6276843,6.9345406 0.025298,0 m 0,0 a 0.00223446,0 225 0 0 0.00316,0.00316 m 0,0 0,0.025298 m 0,0 a 0.00223446,0 315 0 0 -0.00316,0.00316 m 0,0 -0.025298,0 m 0,0 a 0.00223446,0 45 0 0 -0.00316,-0.00316 m 0,0 0,-0.025298 m 0,0 a 0.00223446,0 135 0 0 0.00316,-0.00316"
       style="fill:none;stroke:#000000;stroke-width:0.00111111;stroke-miterlimit:4;stroke-dasharray:none"
       id="path3159"
       inkscape:connector-curvature="0" />
    <!-- Polyline -->
    <path
       d="m 4.6276843,6.8951706 0.025298,0 m 0,0 a 0.00223446,0 225 0 0 0.00316,0.00316 m 0,0 0,0.025298 m 0,0 a 0.00223446,0 315 0 0 -0.00316,0.00316 m 0,0 -0.025298,0 m 0,0 a 0.00223446,0 45 0 0 -0.00316,-0.00316 m 0,0 0,-0.025298 m 0,0 a 0.00223446,0 135 0 0 0.00316,-0.00316"
       style="fill:none;stroke:#000000;stroke-width:0.00111111;stroke-miterlimit:4;stroke-dasharray:none"
       id="path3161"
       inkscape:connector-curvature="0" />
    <!-- Polyline -->
    <path
       d="m 4.6786843,6.9715406 0.025298,0 m 0,0 a 0.00223446,0 225 0 0 0.00316,0.00316 m 0,0 0,0.025298 m 0,0 a 0.00223446,0 315 0 0 -0.00316,0.00316 m 0,0 -0.025298,0 m 0,0 a 0.00223446,0 45 0 0 -0.00316,-0.00316 m 0,0 0,-0.025298 m 0,0 a 0.00223446,0 135 0 0 0.00316,-0.00316"
       style="fill:none;stroke:#000000;stroke-width:0.00111111;stroke-miterlimit:4;stroke-dasharray:none"
       id="path3163"
       inkscape:connector-curvature="0" />
    <!-- Polyline -->
    <path
       d="m 4.6786843,6.9321706 0.025298,0 m 0,0 a 0.00223446,0 225 0 0 0.00316,0.00316 m 0,0 0,0.025298 m 0,0 a 0.00223446,0 315 0 0 -0.00316,0.00316 m 0,0 -0.025298,0 m 0,0 a 0.00223446,0 45 0 0 -0.00316,-0.00316 m 0,0 0,-0.025298 m 0,0 a 0.00223446,0 135 0 0 0.00316,-0.00316"
       style="fill:none;stroke:#000000;stroke-width:0.00111111;stroke-miterlimit:4;stroke-dasharray:none"
       id="path3165"
       inkscape:connector-curvature="0" />
    <!-- Polyline -->
    <path
       d="m 4.7486843,6.9715406 0.025298,0 m 0,0 a 0.00223446,0 225 0 0 0.00316,0.00316 m 0,0 0,0.025298 m 0,0 a 0.00223446,0 315 0 0 -0.00316,0.00316 m 0,0 -0.025298,0 m 0,0 a 0.00223446,0 45 0 0 -0.00316,-0.00316 m 0,0 0,-0.025298 m 0,0 a 0.00223446,0 135 0 0 0.00316,-0.00316"
       style="fill:none;stroke:#000000;stroke-width:0.00111111;stroke-miterlimit:4;stroke-dasharray:none"
       id="path3167"
       inkscape:connector-curvature="0" />
    <!-- Polyline -->
    <path
       d="m 4.7486843,6.9321706 0.025298,0 m 0,0 a 0.00223446,0 225 0 0 0.00316,0.00316 m 0,0 0,0.025298 m 0,0 a 0.00223446,0 315 0 0 -0.00316,0.00316 m 0,0 -0.025298,0 m 0,0 a 0.00223446,0 45 0 0 -0.00316,-0.00316 m 0,0 0,-0.025298 m 0,0 a 0.00223446,0 135 0 0 0.00316,-0.00316"
       style="fill:none;stroke:#000000;stroke-width:0.00111111;stroke-miterlimit:4;stroke-dasharray:none"
       id="path3169"
       inkscape:connector-curvature="0" />
    <!-- Polyline -->
    <path
       d="m 4.8704593,6.8490176 0,0.025298 m 0,0 a 0.00223446,0 315 0 0 -0.00316,0.00316 m 0,0 -0.025298,0 m 0,0 a 0.00223446,0 45 0 0 -0.00316,-0.00316 m 0,0 0,-0.025298 m 0,0 a 0.00223446,0 135 0 0 0.00316,-0.00316 m 0,0 0.025298,0 m 0,0 a 0.00223446,0 225 0 0 0.00316,0.00316"
       style="fill:none;stroke:#000000;stroke-width:0.00111111;stroke-miterlimit:4;stroke-dasharray:none"
       id="path3171"
       inkscape:connector-curvature="0" />
    <!-- Polyline -->
    <path
       d="m 4.9098293,6.8490176 0,0.025298 m 0,0 a 0.00223446,0 315 0 0 -0.00316,0.00316 m 0,0 -0.025298,0 m 0,0 a 0.00223446,0 45 0 0 -0.00316,-0.00316 m 0,0 0,-0.025298 m 0,0 a 0.00223446,0 135 0 0 0.00316,-0.00316 m 0,0 0.025298,0 m 0,0 a 0.00223446,0 225 0 0 0.00316,0.00316"
       style="fill:none;stroke:#000000;stroke-width:0.00111111;stroke-miterlimit:4;stroke-dasharray:none"
       id="path3173"
       inkscape:connector-curvature="0" />
    <!-- Polyline -->
    <path
       d="m 4.8012073,6.8753156 0,-0.025298 m 0,0 a 0.00223446,0 135 0 0 0.00316,-0.00316 m 0,0 0.025298,0 m 0,0 a 0.00223446,0 225 0 0 0.00316,0.00316 m 0,0 0,0.025298 m 0,0 a 0.00223446,0 315 0 0 -0.00316,0.00316 m 0,0 -0.025298,0 m 0,0 a 0.00223446,0 45 0 0 -0.00316,-0.00316"
       style="fill:none;stroke:#000000;stroke-width:0.00111111;stroke-miterlimit:4;stroke-dasharray:none"
       id="path3175"
       inkscape:connector-curvature="0" />
    <!-- Polyline -->
    <path
       d="m 4.7618373,6.8753156 0,-0.025298 m 0,0 a 0.00223446,0 135 0 0 0.00316,-0.00316 m 0,0 0.025298,0 m 0,0 a 0.00223446,0 225 0 0 0.00316,0.00316 m 0,0 0,0.025298 m 0,0 a 0.00223446,0 315 0 0 -0.00316,0.00316 m 0,0 -0.025298,0 m 0,0 a 0.00223446,0 45 0 0 -0.00316,-0.00316"
       style="fill:none;stroke:#000000;stroke-width:0.00111111;stroke-miterlimit:4;stroke-dasharray:none"
       id="path3177"
       inkscape:connector-curvature="0" />
    <!-- Polyline -->
    <path
       d="m 4.8406843,6.9255406 0.025298,0 m 0,0 a 0.00223446,0 225 0 0 0.00316,0.00316 m 0,0 0,0.025298 m 0,0 a 0.00223446,0 315 0 0 -0.00316,0.00316 m 0,0 -0.025298,0 m 0,0 a 0.00223446,0 45 0 0 -0.00316,-0.00316 m 0,0 0,-0.025298 m 0,0 a 0.00223446,0 135 0 0 0.00316,-0.00316"
       style="fill:none;stroke:#000000;stroke-width:0.00111111;stroke-miterlimit:4;stroke-dasharray:none"
       id="path3179"
       inkscape:connector-curvature="0" />
    <!-- Polyline -->
    <path
       d="m 4.8406843,6.8861706 0.025298,0 m 0,0 a 0.00223446,0 225 0 0 0.00316,0.00316 m 0,0 0,0.025298 m 0,0 a 0.00223446,0 315 0 0 -0.00316,0.00316 m 0,0 -0.025298,0 m 0,0 a 0.00223446,0 45 0 0 -0.00316,-0.00316 m 0,0 0,-0.025298 m 0,0 a 0.00223446,0 135 0 0 0.00316,-0.00316"
       style="fill:none;stroke:#000000;stroke-width:0.00111111;stroke-miterlimit:4;stroke-dasharray:none"
       id="path3181"
       inkscape:connector-curvature="0" />
    <!-- Polyline -->
    <path
       d="m 5.2494593,7.5040176 0,0.025298 m 0,0 a 0.00223446,0 315 0 0 -0.00316,0.00316 m 0,0 -0.025298,0 m 0,0 a 0.00223446,0 45 0 0 -0.00316,-0.00316 m 0,0 0,-0.025298 m 0,0 a 0.00223446,0 135 0 0 0.00316,-0.00316 m 0,0 0.025298,0 m 0,0 a 0.00223446,0 225 0 0 0.00316,0.00316"
       style="fill:none;stroke:#000000;stroke-width:0.00111111;stroke-miterlimit:4;stroke-dasharray:none"
       id="path3183"
       inkscape:connector-curvature="0" />
    <!-- Polyline -->
    <path
       d="m 5.2888293,7.5040176 0,0.025298 m 0,0 a 0.00223446,0 315 0 0 -0.00316,0.00316 m 0,0 -0.025298,0 m 0,0 a 0.00223446,0 45 0 0 -0.00316,-0.00316 m 0,0 0,-0.025298 m 0,0 a 0.00223446,0 135 0 0 0.00316,-0.00316 m 0,0 0.025298,0 m 0,0 a 0.00223446,0 225 0 0 0.00316,0.00316"
       style="fill:none;stroke:#000000;stroke-width:0.00111111;stroke-miterlimit:4;stroke-dasharray:none"
       id="path3185"
       inkscape:connector-curvature="0" />
    <!-- Polyline -->
    <path
       d="m 4.9014593,7.1870176 0,0.025298 m 0,0 a 0.00223446,0 315 0 0 -0.00316,0.00316 m 0,0 -0.025298,0 m 0,0 a 0.00223446,0 45 0 0 -0.00316,-0.00316 m 0,0 0,-0.025298 m 0,0 a 0.00223446,0 135 0 0 0.00316,-0.00316 m 0,0 0.025298,0 m 0,0 a 0.00223446,0 225 0 0 0.00316,0.00316"
       style="fill:none;stroke:#000000;stroke-width:0.00111111;stroke-miterlimit:4;stroke-dasharray:none"
       id="path3187"
       inkscape:connector-curvature="0" />
    <!-- Polyline -->
    <path
       d="m 4.9408293,7.1870176 0,0.025298 m 0,0 a 0.00223446,0 315 0 0 -0.00316,0.00316 m 0,0 -0.025298,0 m 0,0 a 0.00223446,0 45 0 0 -0.00316,-0.00316 m 0,0 0,-0.025298 m 0,0 a 0.00223446,0 135 0 0 0.00316,-0.00316 m 0,0 0.025298,0 m 0,0 a 0.00223446,0 225 0 0 0.00316,0.00316"
       style="fill:none;stroke:#000000;stroke-width:0.00111111;stroke-miterlimit:4;stroke-dasharray:none"
       id="path3189"
       inkscape:connector-curvature="0" />
    <!-- Polyline -->
    <path
       d="m 4.9014593,7.2240176 0,0.025298 m 0,0 a 0.00223446,0 315 0 0 -0.00316,0.00316 m 0,0 -0.025298,0 m 0,0 a 0.00223446,0 45 0 0 -0.00316,-0.00316 m 0,0 0,-0.025298 m 0,0 a 0.00223446,0 135 0 0 0.00316,-0.00316 m 0,0 0.025298,0 m 0,0 a 0.00223446,0 225 0 0 0.00316,0.00316"
       style="fill:none;stroke:#000000;stroke-width:0.00111111;stroke-miterlimit:4;stroke-dasharray:none"
       id="path3191"
       inkscape:connector-curvature="0" />
    <!-- Polyline -->
    <path
       d="m 4.9408293,7.2240176 0,0.025298 m 0,0 a 0.00223446,0 315 0 0 -0.00316,0.00316 m 0,0 -0.025298,0 m 0,0 a 0.00223446,0 45 0 0 -0.00316,-0.00316 m 0,0 0,-0.025298 m 0,0 a 0.00223446,0 135 0 0 0.00316,-0.00316 m 0,0 0.025298,0 m 0,0 a 0.00223446,0 225 0 0 0.00316,0.00316"
       style="fill:none;stroke:#000000;stroke-width:0.00111111;stroke-miterlimit:4;stroke-dasharray:none"
       id="path3193"
       inkscape:connector-curvature="0" />
    <!-- Polyline -->
    <path
       d="m 4.8534593,7.2600176 0,0.025298 m 0,0 a 0.00223446,0 315 0 0 -0.00316,0.00316 m 0,0 -0.025298,0 m 0,0 a 0.00223446,0 45 0 0 -0.00316,-0.00316 m 0,0 0,-0.025298 m 0,0 a 0.00223446,0 135 0 0 0.00316,-0.00316 m 0,0 0.025298,0 m 0,0 a 0.00223446,0 225 0 0 0.00316,0.00316"
       style="fill:none;stroke:#000000;stroke-width:0.00111111;stroke-miterlimit:4;stroke-dasharray:none"
       id="path3195"
       inkscape:connector-curvature="0" />
    <!-- Polyline -->
    <path
       d="m 4.8928293,7.2600176 0,0.025298 m 0,0 a 0.00223446,0 315 0 0 -0.00316,0.00316 m 0,0 -0.025298,0 m 0,0 a 0.00223446,0 45 0 0 -0.00316,-0.00316 m 0,0 0,-0.025298 m 0,0 a 0.00223446,0 135 0 0 0.00316,-0.00316 m 0,0 0.025298,0 m 0,0 a 0.00223446,0 225 0 0 0.00316,0.00316"
       style="fill:none;stroke:#000000;stroke-width:0.00111111;stroke-miterlimit:4;stroke-dasharray:none"
       id="path3197"
       inkscape:connector-curvature="0" />
    <!-- Polyline -->
    <path
       d="m 4.8049823,7.3117926 -0.025298,0 m 0,0 a 0.00223446,0 45 0 0 -0.00316,-0.00316 m 0,0 0,-0.025298 m 0,0 a 0.00223446,0 135 0 0 0.00316,-0.00316 m 0,0 0.025298,0 m 0,0 a 0.00223446,0 225 0 0 0.00316,0.00316 m 0,0 0,0.025298 m 0,0 a 0.00223446,0 315 0 0 -0.00316,0.00316"
       style="fill:none;stroke:#000000;stroke-width:0.00111111;stroke-miterlimit:4;stroke-dasharray:none"
       id="path3199"
       inkscape:connector-curvature="0" />
    <!-- Polyline -->
    <path
       d="m 4.8049823,7.3511626 -0.025298,0 m 0,0 a 0.00223446,0 45 0 0 -0.00316,-0.00316 m 0,0 0,-0.025298 m 0,0 a 0.00223446,0 135 0 0 0.00316,-0.00316 m 0,0 0.025298,0 m 0,0 a 0.00223446,0 225 0 0 0.00316,0.00316 m 0,0 0,0.025298 m 0,0 a 0.00223446,0 315 0 0 -0.00316,0.00316"
       style="fill:none;stroke:#000000;stroke-width:0.00111111;stroke-miterlimit:4;stroke-dasharray:none"
       id="path3201"
       inkscape:connector-curvature="0" />
    <!-- Polyline -->
    <path
       d="m 4.7709823,7.3117926 -0.025298,0 m 0,0 a 0.00223446,0 45 0 0 -0.00316,-0.00316 m 0,0 0,-0.025298 m 0,0 a 0.00223446,0 135 0 0 0.00316,-0.00316 m 0,0 0.025298,0 m 0,0 a 0.00223446,0 225 0 0 0.00316,0.00316 m 0,0 0,0.025298 m 0,0 a 0.00223446,0 315 0 0 -0.00316,0.00316"
       style="fill:none;stroke:#000000;stroke-width:0.00111111;stroke-miterlimit:4;stroke-dasharray:none"
       id="path3203"
       inkscape:connector-curvature="0" />
    <!-- Polyline -->
    <path
       d="m 4.7709823,7.3511626 -0.025298,0 m 0,0 a 0.00223446,0 45 0 0 -0.00316,-0.00316 m 0,0 0,-0.025298 m 0,0 a 0.00223446,0 135 0 0 0.00316,-0.00316 m 0,0 0.025298,0 m 0,0 a 0.00223446,0 225 0 0 0.00316,0.00316 m 0,0 0,0.025298 m 0,0 a 0.00223446,0 315 0 0 -0.00316,0.00316"
       style="fill:none;stroke:#000000;stroke-width:0.00111111;stroke-miterlimit:4;stroke-dasharray:none"
       id="path3205"
       inkscape:connector-curvature="0" />
    <!-- Polyline -->
    <path
       d="m 4.7349823,7.3107926 -0.025298,0 m 0,0 a 0.00223446,0 45 0 0 -0.00316,-0.00316 m 0,0 0,-0.025298 m 0,0 a 0.00223446,0 135 0 0 0.00316,-0.00316 m 0,0 0.025298,0 m 0,0 a 0.00223446,0 225 0 0 0.00316,0.00316 m 0,0 0,0.025298 m 0,0 a 0.00223446,0 315 0 0 -0.00316,0.00316"
       style="fill:none;stroke:#000000;stroke-width:0.00111111;stroke-miterlimit:4;stroke-dasharray:none"
       id="path3207"
       inkscape:connector-curvature="0" />
    <!-- Polyline -->
    <path
       d="m 4.7349823,7.3501626 -0.025298,0 m 0,0 a 0.00223446,0 45 0 0 -0.00316,-0.00316 m 0,0 0,-0.025298 m 0,0 a 0.00223446,0 135 0 0 0.00316,-0.00316 m 0,0 0.025298,0 m 0,0 a 0.00223446,0 225 0 0 0.00316,0.00316 m 0,0 0,0.025298 m 0,0 a 0.00223446,0 315 0 0 -0.00316,0.00316"
       style="fill:none;stroke:#000000;stroke-width:0.00111111;stroke-miterlimit:4;stroke-dasharray:none"
       id="path3209"
       inkscape:connector-curvature="0" />
    <!-- Polyline -->
    <path
       d="m 4.6869823,7.3357926 -0.025298,0 m 0,0 a 0.00223446,0 45 0 0 -0.00316,-0.00316 m 0,0 0,-0.025298 m 0,0 a 0.00223446,0 135 0 0 0.00316,-0.00316 m 0,0 0.025298,0 m 0,0 a 0.00223446,0 225 0 0 0.00316,0.00316 m 0,0 0,0.025298 m 0,0 a 0.00223446,0 315 0 0 -0.00316,0.00316"
       style="fill:none;stroke:#000000;stroke-width:0.00111111;stroke-miterlimit:4;stroke-dasharray:none"
       id="path3211"
       inkscape:connector-curvature="0" />
    <!-- Polyline -->
    <path
       d="m 4.6869823,7.3751626 -0.025298,0 m 0,0 a 0.00223446,0 45 0 0 -0.00316,-0.00316 m 0,0 0,-0.025298 m 0,0 a 0.00223446,0 135 0 0 0.00316,-0.00316 m 0,0 0.025298,0 m 0,0 a 0.00223446,0 225 0 0 0.00316,0.00316 m 0,0 0,0.025298 m 0,0 a 0.00223446,0 315 0 0 -0.00316,0.00316"
       style="fill:none;stroke:#000000;stroke-width:0.00111111;stroke-miterlimit:4;stroke-dasharray:none"
       id="path3213"
       inkscape:connector-curvature="0" />
    <!-- Polyline -->
    <path
       d="m 4.6619823,7.4497926 -0.025298,0 m 0,0 a 0.00223446,0 45 0 0 -0.00316,-0.00316 m 0,0 0,-0.025298 m 0,0 a 0.00223446,0 135 0 0 0.00316,-0.00316 m 0,0 0.025298,0 m 0,0 a 0.00223446,0 225 0 0 0.00316,0.00316 m 0,0 0,0.025298 m 0,0 a 0.00223446,0 315 0 0 -0.00316,0.00316"
       style="fill:none;stroke:#000000;stroke-width:0.00111111;stroke-miterlimit:4;stroke-dasharray:none"
       id="path3215"
       inkscape:connector-curvature="0" />
    <!-- Polyline -->
    <path
       d="m 4.6619823,7.4891626 -0.025298,0 m 0,0 a 0.00223446,0 45 0 0 -0.00316,-0.00316 m 0,0 0,-0.025298 m 0,0 a 0.00223446,0 135 0 0 0.00316,-0.00316 m 0,0 0.025298,0 m 0,0 a 0.00223446,0 225 0 0 0.00316,0.00316 m 0,0 0,0.025298 m 0,0 a 0.00223446,0 315 0 0 -0.00316,0.00316"
       style="fill:none;stroke:#000000;stroke-width:0.00111111;stroke-miterlimit:4;stroke-dasharray:none"
       id="path3217"
       inkscape:connector-curvature="0" />
    <!-- Polyline -->
    <path
       d="m 4.5642073,7.4483156 0,-0.025298 m 0,0 a 0.00223446,0 135 0 0 0.00316,-0.00316 m 0,0 0.025298,0 m 0,0 a 0.00223446,0 225 0 0 0.00316,0.00316 m 0,0 0,0.025298 m 0,0 a 0.00223446,0 315 0 0 -0.00316,0.00316 m 0,0 -0.025298,0 m 0,0 a 0.00223446,0 45 0 0 -0.00316,-0.00316"
       style="fill:none;stroke:#000000;stroke-width:0.00111111;stroke-miterlimit:4;stroke-dasharray:none"
       id="path3219"
       inkscape:connector-curvature="0" />
    <!-- Polyline -->
    <path
       d="m 4.5248373,7.4483156 0,-0.025298 m 0,0 a 0.00223446,0 135 0 0 0.00316,-0.00316 m 0,0 0.025298,0 m 0,0 a 0.00223446,0 225 0 0 0.00316,0.00316 m 0,0 0,0.025298 m 0,0 a 0.00223446,0 315 0 0 -0.00316,0.00316 m 0,0 -0.025298,0 m 0,0 a 0.00223446,0 45 0 0 -0.00316,-0.00316"
       style="fill:none;stroke:#000000;stroke-width:0.00111111;stroke-miterlimit:4;stroke-dasharray:none"
       id="path3221"
       inkscape:connector-curvature="0" />
    <!-- Polyline -->
    <path
       d="m 4.5139823,7.3657926 -0.025298,0 m 0,0 a 0.00223446,0 45 0 0 -0.00316,-0.00316 m 0,0 0,-0.025298 m 0,0 a 0.00223446,0 135 0 0 0.00316,-0.00316 m 0,0 0.025298,0 m 0,0 a 0.00223446,0 225 0 0 0.00316,0.00316 m 0,0 0,0.025298 m 0,0 a 0.00223446,0 315 0 0 -0.00316,0.00316"
       style="fill:none;stroke:#000000;stroke-width:0.00111111;stroke-miterlimit:4;stroke-dasharray:none"
       id="path3223"
       inkscape:connector-curvature="0" />
    <!-- Polyline -->
    <path
       d="m 4.5139823,7.4051626 -0.025298,0 m 0,0 a 0.00223446,0 45 0 0 -0.00316,-0.00316 m 0,0 0,-0.025298 m 0,0 a 0.00223446,0 135 0 0 0.00316,-0.00316 m 0,0 0.025298,0 m 0,0 a 0.00223446,0 225 0 0 0.00316,0.00316 m 0,0 0,0.025298 m 0,0 a 0.00223446,0 315 0 0 -0.00316,0.00316"
       style="fill:none;stroke:#000000;stroke-width:0.00111111;stroke-miterlimit:4;stroke-dasharray:none"
       id="path3225"
       inkscape:connector-curvature="0" />
    <!-- Solid -->
    <path
       d="m 3.1816558,7.3613281 0.032803,0 0,0.040677 -0.032803,0 0,-0.040677"
       style="fill:none;stroke:#000000;stroke-width:0.00111111;stroke-miterlimit:4;stroke-dasharray:none"
       id="path3227"
       inkscape:connector-curvature="0" />
    <!-- Solid -->
    <path
       d="m 3.2722078,7.3613281 0.032803,0 0,0.040677 -0.032803,0 0,-0.040677"
       style="fill:none;stroke:#000000;stroke-width:0.00111111;stroke-miterlimit:4;stroke-dasharray:none"
       id="path3229"
       inkscape:connector-curvature="0" />
    <!-- Polyline -->
    <path
       d="m 3.1653653,6.9763776 0,-0.031596 m 0,0 a 0.00395,0.00395 0 0 1 0.00395,-0.00395 m 0,0 0.031596,0 m 0,0 a 0.00395,0.00395 0 0 1 0.00395,0.00395 m 0,0 0,0.031596 m 0,0 a 0.00395,0.00395 0 0 1 -0.00395,0.00395 m 0,0 -0.031596,0 m 0,0 a 0.00395,0.00395 0 0 1 -0.00395,-0.00395"
       style="fill:none;stroke:#000000;stroke-width:0.00111111;stroke-miterlimit:4;stroke-dasharray:none"
       id="path3231"
       inkscape:connector-curvature="0" />
    <!-- Polyline -->
    <path
       d="m 3.1653653,6.9173226 0,-0.031596 m 0,0 a 0.00395,0.00395 0 0 1 0.00395,-0.00395 m 0,0 0.031596,0 m 0,0 a 0.00395,0.00395 0 0 1 0.00395,0.00395 m 0,0 0,0.031596 m 0,0 a 0.00395,0.00395 0 0 1 -0.00395,0.00395 m 0,0 -0.031596,0 m 0,0 a 0.00395,0.00395 0 0 1 -0.00395,-0.00395"
       style="fill:none;stroke:#000000;stroke-width:0.00111111;stroke-miterlimit:4;stroke-dasharray:none"
       id="path3233"
       inkscape:connector-curvature="0" />
    <!-- Polyline -->
    <path
       d="m 3.3966563,7.3032526 0,-0.033172 m 0,0 a 0.00223446,0 135 0 0 0.00316,-0.00316 m 0,0 0.025298,0 m 0,0 a 0.00223446,0 225 0 0 0.00316,0.00316 m 0,0 0,0.033172 m 0,0 a 0.00223446,0 315 0 0 -0.00316,0.00316 m 0,0 -0.025298,0 m 0,0 a 0.00223446,0 45 0 0 -0.00316,-0.00316"
       style="fill:none;stroke:#000000;stroke-width:0.00111111;stroke-miterlimit:4;stroke-dasharray:none"
       id="path3235"
       inkscape:connector-curvature="0" />
    <!-- Polyline -->
    <path
       d="m 3.3383883,7.3032526 0,-0.033172 m 0,0 a 0.00223446,0 135 0 0 0.00316,-0.00316 m 0,0 0.025298,0 m 0,0 a 0.00223446,0 225 0 0 0.00316,0.00316 m 0,0 0,0.033172 m 0,0 a 0.00223446,0 315 0 0 -0.00316,0.00316 m 0,0 -0.025298,0 m 0,0 a 0.00223446,0 45 0 0 -0.00316,-0.00316"
       style="fill:none;stroke:#000000;stroke-width:0.00111111;stroke-miterlimit:4;stroke-dasharray:none"
       id="path3237"
       inkscape:connector-curvature="0" />
    <!-- Solid -->
    <!-- Circle -->
    <!-- Circle -->
    <!-- Circle -->
    <!-- Circle -->
    <!-- Circle -->
    <!-- Circle -->
    <!-- Circle -->
    <!-- Circle -->
    <!-- Circle -->
    <!-- Circle -->
    <!-- Circle -->
    <!-- Circle -->
    <!-- Circle -->
    <!-- Circle -->
    <!-- Circle -->
    <!-- Circle -->
    <!-- Circle -->
    <!-- Circle -->
    <!-- Circle -->
    <!-- Solid -->
    <!-- Circle -->
    <!-- Circle -->
    <!-- Circle -->
    <!-- Circle -->
    <!-- Circle -->
    <!-- Circle -->
    <!-- Circle -->
    <!-- Circle -->
    <!-- Circle -->
    <!-- Circle -->
    <!-- Circle -->
    <!-- Circle -->
    <!-- Circle -->
    <!-- Circle -->
    <!-- Circle -->
    <!-- Circle -->
    <!-- Circle -->
    <!-- Circle -->
    <!-- Circle -->
    <!-- Polyline -->
    <path
       d="m 4.8236843,7.0045406 0.025298,0 m 0,0 a 0.00223446,0 225 0 0 0.00316,0.00316 m 0,0 0,0.025298 m 0,0 a 0.00223446,0 315 0 0 -0.00316,0.00316 m 0,0 -0.025298,0 m 0,0 a 0.00223446,0 45 0 0 -0.00316,-0.00316 m 0,0 0,-0.025298 m 0,0 a 0.00223446,0 135 0 0 0.00316,-0.00316"
       style="fill:none;stroke:#000000;stroke-width:0.00111111;stroke-miterlimit:4;stroke-dasharray:none"
       id="path3319"
       inkscape:connector-curvature="0" />
    <!-- Polyline -->
    <path
       d="m 4.8236843,6.9651706 0.025298,0 m 0,0 a 0.00223446,0 225 0 0 0.00316,0.00316 m 0,0 0,0.025298 m 0,0 a 0.00223446,0 315 0 0 -0.00316,0.00316 m 0,0 -0.025298,0 m 0,0 a 0.00223446,0 45 0 0 -0.00316,-0.00316 m 0,0 0,-0.025298 m 0,0 a 0.00223446,0 135 0 0 0.00316,-0.00316"
       style="fill:none;stroke:#000000;stroke-width:0.00111111;stroke-miterlimit:4;stroke-dasharray:none"
       id="path3321"
       inkscape:connector-curvature="0" />
    <!-- Polyline -->
    <path
       d="m 5.3006843,7.5005406 0.025298,0 m 0,0 a 0.00223446,0 225 0 0 0.00316,0.00316 m 0,0 0,0.025298 m 0,0 a 0.00223446,0 315 0 0 -0.00316,0.00316 m 0,0 -0.025298,0 m 0,0 a 0.00223446,0 45 0 0 -0.00316,-0.00316 m 0,0 0,-0.025298 m 0,0 a 0.00223446,0 135 0 0 0.00316,-0.00316"
       style="fill:none;stroke:#000000;stroke-width:0.00111111;stroke-miterlimit:4;stroke-dasharray:none"
       id="path3323"
       inkscape:connector-curvature="0" />
    <!-- Polyline -->
    <path
       d="m 5.3006843,7.4611706 0.025298,0 m 0,0 a 0.00223446,0 225 0 0 0.00316,0.00316 m 0,0 0,0.025298 m 0,0 a 0.00223446,0 315 0 0 -0.00316,0.00316 m 0,0 -0.025298,0 m 0,0 a 0.00223446,0 45 0 0 -0.00316,-0.00316 m 0,0 0,-0.025298 m 0,0 a 0.00223446,0 135 0 0 0.00316,-0.00316"
       style="fill:none;stroke:#000000;stroke-width:0.00111111;stroke-miterlimit:4;stroke-dasharray:none"
       id="path3325"
       inkscape:connector-curvature="0" />
    <!-- Polyline -->
    <path
       d="m 4.3871283,7.0919136 0,-0.055218 m 0,0 a 0.00395,0.00395 0 0 1 0.00395,-0.00395 m 0,0 0.031596,0 m 0,0 a 0.00395,0.00395 0 0 1 0.00395,0.00395 m 0,0 0,0.055218 m 0,0 a 0.00395,0.00395 0 0 1 -0.00395,0.00395 m 0,0 -0.031596,0 m 0,0 a 0.00395,0.00395 0 0 1 -0.00395,-0.00395"
       style="fill:none;stroke:#000000;stroke-width:0.00111111;stroke-miterlimit:4;stroke-dasharray:none"
       id="path3327"
       inkscape:connector-curvature="0" />
    <!-- Polyline -->
    <path
       d="m 4.3871283,7.2966376 0,-0.055218 m 0,0 a 0.00395,0.00395 0 0 1 0.00395,-0.00395 m 0,0 0.031596,0 m 0,0 a 0.00395,0.00395 0 0 1 0.00395,0.00395 m 0,0 0,0.055218 m 0,0 a 0.00395,0.00395 0 0 1 -0.00395,0.00395 m 0,0 -0.031596,0 m 0,0 a 0.00395,0.00395 0 0 1 -0.00395,-0.00395"
       style="fill:none;stroke:#000000;stroke-width:0.00111111;stroke-miterlimit:4;stroke-dasharray:none"
       id="path3329"
       inkscape:connector-curvature="0" />
    <!-- Polyline -->
    <path
       d="m 4.3300423,7.2966376 0,-0.055218 m 0,0 a 0.00395,0.00395 0 0 1 0.00395,-0.00395 m 0,0 0.031596,0 m 0,0 a 0.00395,0.00395 0 0 1 0.00395,0.00395 m 0,0 0,0.055218 m 0,0 a 0.00395,0.00395 0 0 1 -0.00395,0.00395 m 0,0 -0.031596,0 m 0,0 a 0.00395,0.00395 0 0 1 -0.00395,-0.00395"
       style="fill:none;stroke:#000000;stroke-width:0.00111111;stroke-miterlimit:4;stroke-dasharray:none"
       id="path3331"
       inkscape:connector-curvature="0" />
    <!-- Polyline -->
    <path
       d="m 4.3300423,7.0919136 0,-0.055218 m 0,0 a 0.00395,0.00395 0 0 1 0.00395,-0.00395 m 0,0 0.031596,0 m 0,0 a 0.00395,0.00395 0 0 1 0.00395,0.00395 m 0,0 0,0.055218 m 0,0 a 0.00395,0.00395 0 0 1 -0.00395,0.00395 m 0,0 -0.031596,0 m 0,0 a 0.00395,0.00395 0 0 1 -0.00395,-0.00395"
       style="fill:none;stroke:#000000;stroke-width:0.00111111;stroke-miterlimit:4;stroke-dasharray:none"
       id="path3333"
       inkscape:connector-curvature="0" />
    <!-- Polyline -->
    <path
       d="m 3.4794593,7.2040176 0,0.025298 m 0,0 a 0.00223446,0 315 0 0 -0.00316,0.00316 m 0,0 -0.025298,0 m 0,0 a 0.00223446,0 45 0 0 -0.00316,-0.00316 m 0,0 0,-0.025298 m 0,0 a 0.00223446,0 135 0 0 0.00316,-0.00316 m 0,0 0.025298,0 m 0,0 a 0.00223446,0 225 0 0 0.00316,0.00316"
       style="fill:none;stroke:#000000;stroke-width:0.00111111;stroke-miterlimit:4;stroke-dasharray:none"
       id="path3335"
       inkscape:connector-curvature="0" />
    <!-- Polyline -->
    <path
       d="m 3.5188293,7.2040176 0,0.025298 m 0,0 a 0.00223446,0 315 0 0 -0.00316,0.00316 m 0,0 -0.025298,0 m 0,0 a 0.00223446,0 45 0 0 -0.00316,-0.00316 m 0,0 0,-0.025298 m 0,0 a 0.00223446,0 135 0 0 0.00316,-0.00316 m 0,0 0.025298,0 m 0,0 a 0.00223446,0 225 0 0 0.00316,0.00316"
       style="fill:none;stroke:#000000;stroke-width:0.00111111;stroke-miterlimit:4;stroke-dasharray:none"
       id="path3337"
       inkscape:connector-curvature="0" />
    <!-- Polyline -->
    <path
       d="m 4.1872073,7.0743156 0,-0.025298 m 0,0 a 0.00223446,0 135 0 0 0.00316,-0.00316 m 0,0 0.025298,0 m 0,0 a 0.00223446,0 225 0 0 0.00316,0.00316 m 0,0 0,0.025298 m 0,0 a 0.00223446,0 315 0 0 -0.00316,0.00316 m 0,0 -0.025298,0 m 0,0 a 0.00223446,0 45 0 0 -0.00316,-0.00316"
       style="fill:none;stroke:#000000;stroke-width:0.00111111;stroke-miterlimit:4;stroke-dasharray:none"
       id="path3339"
       inkscape:connector-curvature="0" />
    <!-- Polyline -->
    <path
       d="m 4.1478373,7.0743156 0,-0.025298 m 0,0 a 0.00223446,0 135 0 0 0.00316,-0.00316 m 0,0 0.025298,0 m 0,0 a 0.00223446,0 225 0 0 0.00316,0.00316 m 0,0 0,0.025298 m 0,0 a 0.00223446,0 315 0 0 -0.00316,0.00316 m 0,0 -0.025298,0 m 0,0 a 0.00223446,0 45 0 0 -0.00316,-0.00316"
       style="fill:none;stroke:#000000;stroke-width:0.00111111;stroke-miterlimit:4;stroke-dasharray:none"
       id="path3341"
       inkscape:connector-curvature="0" />
    <!-- Polyline -->
    <path
       d="m 3.2615933,6.9292066 0,0.025298 m 0,0 a 0.00223446,0 315 0 0 -0.00316,0.00316 m 0,0 -0.025298,0 m 0,0 a 0.00223446,0 45 0 0 -0.00316,-0.00316 m 0,0 0,-0.025298 m 0,0 a 0.00223446,0 135 0 0 0.00316,-0.00316 m 0,0 0.025298,0 m 0,0 a 0.00223446,0 225 0 0 0.00316,0.00316"
       style="fill:none;stroke:#000000;stroke-width:0.00111111;stroke-miterlimit:4;stroke-dasharray:none"
       id="path3343"
       inkscape:connector-curvature="0" />
    <!-- Polyline -->
    <path
       d="m 3.3009633,6.9292066 0,0.025298 m 0,0 a 0.00223446,0 315 0 0 -0.00316,0.00316 m 0,0 -0.025298,0 m 0,0 a 0.00223446,0 45 0 0 -0.00316,-0.00316 m 0,0 0,-0.025298 m 0,0 a 0.00223446,0 135 0 0 0.00316,-0.00316 m 0,0 0.025298,0 m 0,0 a 0.00223446,0 225 0 0 0.00316,0.00316"
       style="fill:none;stroke:#000000;stroke-width:0.00111111;stroke-miterlimit:4;stroke-dasharray:none"
       id="path3345"
       inkscape:connector-curvature="0" />
    <!-- Polyline -->
    <path
       d="m 3.4794593,7.1690176 0,0.025298 m 0,0 a 0.00223446,0 315 0 0 -0.00316,0.00316 m 0,0 -0.025298,0 m 0,0 a 0.00223446,0 45 0 0 -0.00316,-0.00316 m 0,0 0,-0.025298 m 0,0 a 0.00223446,0 135 0 0 0.00316,-0.00316 m 0,0 0.025298,0 m 0,0 a 0.00223446,0 225 0 0 0.00316,0.00316"
       style="fill:none;stroke:#000000;stroke-width:0.00111111;stroke-miterlimit:4;stroke-dasharray:none"
       id="path3347"
       inkscape:connector-curvature="0" />
    <!-- Polyline -->
    <path
       d="m 3.5188293,7.1690176 0,0.025298 m 0,0 a 0.00223446,0 315 0 0 -0.00316,0.00316 m 0,0 -0.025298,0 m 0,0 a 0.00223446,0 45 0 0 -0.00316,-0.00316 m 0,0 0,-0.025298 m 0,0 a 0.00223446,0 135 0 0 0.00316,-0.00316 m 0,0 0.025298,0 m 0,0 a 0.00223446,0 225 0 0 0.00316,0.00316"
       style="fill:none;stroke:#000000;stroke-width:0.00111111;stroke-miterlimit:4;stroke-dasharray:none"
       id="path3349"
       inkscape:connector-curvature="0" />
    <!-- Polyline -->
    <path
       d="m 3.8122073,6.8423156 0,-0.025298 m 0,0 a 0.00223446,0 135 0 0 0.00316,-0.00316 m 0,0 0.025298,0 m 0,0 a 0.00223446,0 225 0 0 0.00316,0.00316 m 0,0 0,0.025298 m 0,0 a 0.00223446,0 315 0 0 -0.00316,0.00316 m 0,0 -0.025298,0 m 0,0 a 0.00223446,0 45 0 0 -0.00316,-0.00316"
       style="fill:none;stroke:#000000;stroke-width:0.00111111;stroke-miterlimit:4;stroke-dasharray:none"
       id="path3351"
       inkscape:connector-curvature="0" />
    <!-- Polyline -->
    <path
       d="m 3.7728373,6.8423156 0,-0.025298 m 0,0 a 0.00223446,0 135 0 0 0.00316,-0.00316 m 0,0 0.025298,0 m 0,0 a 0.00223446,0 225 0 0 0.00316,0.00316 m 0,0 0,0.025298 m 0,0 a 0.00223446,0 315 0 0 -0.00316,0.00316 m 0,0 -0.025298,0 m 0,0 a 0.00223446,0 45 0 0 -0.00316,-0.00316"
       style="fill:none;stroke:#000000;stroke-width:0.00111111;stroke-miterlimit:4;stroke-dasharray:none"
       id="path3353"
       inkscape:connector-curvature="0" />
    <!-- Polyline -->
    <path
       d="m 3.8044593,6.8540176 0,0.025298 m 0,0 a 0.00223446,0 315 0 0 -0.00316,0.00316 m 0,0 -0.025298,0 m 0,0 a 0.00223446,0 45 0 0 -0.00316,-0.00316 m 0,0 0,-0.025298 m 0,0 a 0.00223446,0 135 0 0 0.00316,-0.00316 m 0,0 0.025298,0 m 0,0 a 0.00223446,0 225 0 0 0.00316,0.00316"
       style="fill:none;stroke:#000000;stroke-width:0.00111111;stroke-miterlimit:4;stroke-dasharray:none"
       id="path3355"
       inkscape:connector-curvature="0" />
    <!-- Polyline -->
    <path
       d="m 3.8438293,6.8540176 0,0.025298 m 0,0 a 0.00223446,0 315 0 0 -0.00316,0.00316 m 0,0 -0.025298,0 m 0,0 a 0.00223446,0 45 0 0 -0.00316,-0.00316 m 0,0 0,-0.025298 m 0,0 a 0.00223446,0 135 0 0 0.00316,-0.00316 m 0,0 0.025298,0 m 0,0 a 0.00223446,0 225 0 0 0.00316,0.00316"
       style="fill:none;stroke:#000000;stroke-width:0.00111111;stroke-miterlimit:4;stroke-dasharray:none"
       id="path3357"
       inkscape:connector-curvature="0" />
    <!-- Polyline -->
    <path
       d="m 5.2059823,7.4927926 -0.025298,0 m 0,0 a 0.00223446,0 45 0 0 -0.00316,-0.00316 m 0,0 0,-0.025298 m 0,0 a 0.00223446,0 135 0 0 0.00316,-0.00316 m 0,0 0.025298,0 m 0,0 a 0.00223446,0 225 0 0 0.00316,0.00316 m 0,0 0,0.025298 m 0,0 a 0.00223446,0 315 0 0 -0.00316,0.00316"
       style="fill:none;stroke:#000000;stroke-width:0.00111111;stroke-miterlimit:4;stroke-dasharray:none"
       id="path3359"
       inkscape:connector-curvature="0" />
    <!-- Polyline -->
    <path
       d="m 5.2059823,7.5321626 -0.025298,0 m 0,0 a 0.00223446,0 45 0 0 -0.00316,-0.00316 m 0,0 0,-0.025298 m 0,0 a 0.00223446,0 135 0 0 0.00316,-0.00316 m 0,0 0.025298,0 m 0,0 a 0.00223446,0 225 0 0 0.00316,0.00316 m 0,0 0,0.025298 m 0,0 a 0.00223446,0 315 0 0 -0.00316,0.00316"
       style="fill:none;stroke:#000000;stroke-width:0.00111111;stroke-miterlimit:4;stroke-dasharray:none"
       id="path3361"
       inkscape:connector-curvature="0" />
    <!-- Polyline -->
    <path
       d="m 3.2690813,6.9943866 0,-0.025298 m 0,0 a 0.00223446,0 135 0 0 0.00316,-0.00316 m 0,0 0.025298,0 m 0,0 a 0.00223446,0 225 0 0 0.00316,0.00316 m 0,0 0,0.025298 m 0,0 a 0.00223446,0 315 0 0 -0.00316,0.00316 m 0,0 -0.025298,0 m 0,0 a 0.00223446,0 45 0 0 -0.00316,-0.00316"
       style="fill:none;stroke:#000000;stroke-width:0.00111111;stroke-miterlimit:4;stroke-dasharray:none"
       id="path3363"
       inkscape:connector-curvature="0" />
    <!-- Polyline -->
    <path
       d="m 3.2297113,6.9943866 0,-0.025298 m 0,0 a 0.00223446,0 135 0 0 0.00316,-0.00316 m 0,0 0.025298,0 m 0,0 a 0.00223446,0 225 0 0 0.00316,0.00316 m 0,0 0,0.025298 m 0,0 a 0.00223446,0 315 0 0 -0.00316,0.00316 m 0,0 -0.025298,0 m 0,0 a 0.00223446,0 45 0 0 -0.00316,-0.00316"
       style="fill:none;stroke:#000000;stroke-width:0.00111111;stroke-miterlimit:4;stroke-dasharray:none"
       id="path3365"
       inkscape:connector-curvature="0" />
    <!-- Polyline -->
    <path
       d="m 4.1872073,6.9793156 0,-0.025298 m 0,0 a 0.00223446,0 135 0 0 0.00316,-0.00316 m 0,0 0.025298,0 m 0,0 a 0.00223446,0 225 0 0 0.00316,0.00316 m 0,0 0,0.025298 m 0,0 a 0.00223446,0 315 0 0 -0.00316,0.00316 m 0,0 -0.025298,0 m 0,0 a 0.00223446,0 45 0 0 -0.00316,-0.00316"
       style="fill:none;stroke:#000000;stroke-width:0.00111111;stroke-miterlimit:4;stroke-dasharray:none"
       id="path3367"
       inkscape:connector-curvature="0" />
    <!-- Polyline -->
    <path
       d="m 4.1478373,6.9793156 0,-0.025298 m 0,0 a 0.00223446,0 135 0 0 0.00316,-0.00316 m 0,0 0.025298,0 m 0,0 a 0.00223446,0 225 0 0 0.00316,0.00316 m 0,0 0,0.025298 m 0,0 a 0.00223446,0 315 0 0 -0.00316,0.00316 m 0,0 -0.025298,0 m 0,0 a 0.00223446,0 45 0 0 -0.00316,-0.00316"
       style="fill:none;stroke:#000000;stroke-width:0.00111111;stroke-miterlimit:4;stroke-dasharray:none"
       id="path3369"
       inkscape:connector-curvature="0" />
    <!-- Polyline -->
    <path
       d="m 4.3172073,7.3493156 0,-0.025298 m 0,0 a 0.00223446,0 135 0 0 0.00316,-0.00316 m 0,0 0.025298,0 m 0,0 a 0.00223446,0 225 0 0 0.00316,0.00316 m 0,0 0,0.025298 m 0,0 a 0.00223446,0 315 0 0 -0.00316,0.00316 m 0,0 -0.025298,0 m 0,0 a 0.00223446,0 45 0 0 -0.00316,-0.00316"
       style="fill:none;stroke:#000000;stroke-width:0.00111111;stroke-miterlimit:4;stroke-dasharray:none"
       id="path3371"
       inkscape:connector-curvature="0" />
    <!-- Polyline -->
    <path
       d="m 4.2778373,7.3493156 0,-0.025298 m 0,0 a 0.00223446,0 135 0 0 0.00316,-0.00316 m 0,0 0.025298,0 m 0,0 a 0.00223446,0 225 0 0 0.00316,0.00316 m 0,0 0,0.025298 m 0,0 a 0.00223446,0 315 0 0 -0.00316,0.00316 m 0,0 -0.025298,0 m 0,0 a 0.00223446,0 45 0 0 -0.00316,-0.00316"
       style="fill:none;stroke:#000000;stroke-width:0.00111111;stroke-miterlimit:4;stroke-dasharray:none"
       id="path3373"
       inkscape:connector-curvature="0" />
    <!-- Polyline -->
    <path
       d="m 3.5034593,7.4813396 0,0.025298 m 0,0 a 0.00223446,0 315 0 0 -0.00316,0.00316 m 0,0 -0.025298,0 m 0,0 a 0.00223446,0 45 0 0 -0.00316,-0.00316 m 0,0 0,-0.025298 m 0,0 a 0.00223446,0 135 0 0 0.00316,-0.00316 m 0,0 0.025298,0 m 0,0 a 0.00223446,0 225 0 0 0.00316,0.00316"
       style="fill:none;stroke:#000000;stroke-width:0.00111111;stroke-miterlimit:4;stroke-dasharray:none"
       id="path3375"
       inkscape:connector-curvature="0" />
    <!-- Polyline -->
    <path
       d="m 3.5428293,7.4813396 0,0.025298 m 0,0 a 0.00223446,0 315 0 0 -0.00316,0.00316 m 0,0 -0.025298,0 m 0,0 a 0.00223446,0 45 0 0 -0.00316,-0.00316 m 0,0 0,-0.025298 m 0,0 a 0.00223446,0 135 0 0 0.00316,-0.00316 m 0,0 0.025298,0 m 0,0 a 0.00223446,0 225 0 0 0.00316,0.00316"
       style="fill:none;stroke:#000000;stroke-width:0.00111111;stroke-miterlimit:4;stroke-dasharray:none"
       id="path3377"
       inkscape:connector-curvature="0" />
    <!-- Polyline -->
    <!-- Polyline -->
    <!-- Polyline -->
    <path
       d="m 3.5034593,7.4465406 0,0.025298 m 0,0 a 0.00223446,0 315 0 0 -0.00316,0.00316 m 0,0 -0.025298,0 m 0,0 a 0.00223446,0 45 0 0 -0.00316,-0.00316 m 0,0 0,-0.025298 m 0,0 a 0.00223446,0 135 0 0 0.00316,-0.00316 m 0,0 0.025298,0 m 0,0 a 0.00223446,0 225 0 0 0.00316,0.00316"
       style="fill:none;stroke:#000000;stroke-width:0.00111111;stroke-miterlimit:4;stroke-dasharray:none"
       id="path3383"
       inkscape:connector-curvature="0" />
    <!-- Polyline -->
    <path
       d="m 3.5428293,7.4465406 0,0.025298 m 0,0 a 0.00223446,0 315 0 0 -0.00316,0.00316 m 0,0 -0.025298,0 m 0,0 a 0.00223446,0 45 0 0 -0.00316,-0.00316 m 0,0 0,-0.025298 m 0,0 a 0.00223446,0 135 0 0 0.00316,-0.00316 m 0,0 0.025298,0 m 0,0 a 0.00223446,0 225 0 0 0.00316,0.00316"
       style="fill:none;stroke:#000000;stroke-width:0.00111111;stroke-miterlimit:4;stroke-dasharray:none"
       id="path3385"
       inkscape:connector-curvature="0" />
    <!-- Polyline -->
    <path
       d="m 3.7191083,6.8497806 -0.025298,0 m 0,0 a 0.00223446,0 45 0 0 -0.00316,-0.00316 m 0,0 0,-0.025298 m 0,0 a 0.00223446,0 135 0 0 0.00316,-0.00316 m 0,0 0.025298,0 m 0,0 a 0.00223446,0 225 0 0 0.00316,0.00316 m 0,0 0,0.025298 m 0,0 a 0.00223446,0 315 0 0 -0.00316,0.00316"
       style="fill:none;stroke:#000000;stroke-width:0.00111111;stroke-miterlimit:4;stroke-dasharray:none"
       id="path3387"
       inkscape:connector-curvature="0" />
    <!-- Polyline -->
    <path
       d="m 3.7191083,6.8891506 -0.025298,0 m 0,0 a 0.00223446,0 45 0 0 -0.00316,-0.00316 m 0,0 0,-0.025298 m 0,0 a 0.00223446,0 135 0 0 0.00316,-0.00316 m 0,0 0.025298,0 m 0,0 a 0.00223446,0 225 0 0 0.00316,0.00316 m 0,0 0,0.025298 m 0,0 a 0.00223446,0 315 0 0 -0.00316,0.00316"
       style="fill:none;stroke:#000000;stroke-width:0.00111111;stroke-miterlimit:4;stroke-dasharray:none"
       id="path3389"
       inkscape:connector-curvature="0" />
    <!-- Polyline -->
    <path
       d="m 3.4872073,7.2693156 0,-0.025298 m 0,0 a 0.00223446,0 135 0 0 0.00316,-0.00316 m 0,0 0.025298,0 m 0,0 a 0.00223446,0 225 0 0 0.00316,0.00316 m 0,0 0,0.025298 m 0,0 a 0.00223446,0 315 0 0 -0.00316,0.00316 m 0,0 -0.025298,0 m 0,0 a 0.00223446,0 45 0 0 -0.00316,-0.00316"
       style="fill:none;stroke:#000000;stroke-width:0.00111111;stroke-miterlimit:4;stroke-dasharray:none"
       id="path3391"
       inkscape:connector-curvature="0" />
    <!-- Polyline -->
    <path
       d="m 3.4478373,7.2693156 0,-0.025298 m 0,0 a 0.00223446,0 135 0 0 0.00316,-0.00316 m 0,0 0.025298,0 m 0,0 a 0.00223446,0 225 0 0 0.00316,0.00316 m 0,0 0,0.025298 m 0,0 a 0.00223446,0 315 0 0 -0.00316,0.00316 m 0,0 -0.025298,0 m 0,0 a 0.00223446,0 45 0 0 -0.00316,-0.00316"
       style="fill:none;stroke:#000000;stroke-width:0.00111111;stroke-miterlimit:4;stroke-dasharray:none"
       id="path3393"
       inkscape:connector-curvature="0" />
    <!-- Polyline -->
    <!-- Polyline -->
    <!-- Polyline -->
    <path
       d="m 5.0166843,7.0912096 0.025298,0 m 0,0 a 0.00223446,0 225 0 0 0.00316,0.00316 m 0,0 0,0.025298 m 0,0 a 0.00223446,0 315 0 0 -0.00316,0.00316 m 0,0 -0.025298,0 m 0,0 a 0.00223446,0 45 0 0 -0.00316,-0.00316 m 0,0 0,-0.025298 m 0,0 a 0.00223446,0 135 0 0 0.00316,-0.00316"
       style="fill:none;stroke:#000000;stroke-width:0.00111111;stroke-miterlimit:4;stroke-dasharray:none"
       id="path3399"
       inkscape:connector-curvature="0" />
    <!-- Polyline -->
    <path
       d="m 5.0166843,7.0518396 0.025298,0 m 0,0 a 0.00223446,0 225 0 0 0.00316,0.00316 m 0,0 0,0.025298 m 0,0 a 0.00223446,0 315 0 0 -0.00316,0.00316 m 0,0 -0.025298,0 m 0,0 a 0.00223446,0 45 0 0 -0.00316,-0.00316 m 0,0 0,-0.025298 m 0,0 a 0.00223446,0 135 0 0 0.00316,-0.00316"
       style="fill:none;stroke:#000000;stroke-width:0.00111111;stroke-miterlimit:4;stroke-dasharray:none"
       id="path3401"
       inkscape:connector-curvature="0" />
    <!-- Polyline -->
    <!-- Polyline -->
    <path
       d="m 5.0419823,7.1616116 -0.025298,0 m 0,0 a 0.00223446,0 45 0 0 -0.00316,-0.00316 m 0,0 0,-0.025298 m 0,0 a 0.00223446,0 135 0 0 0.00316,-0.00316 m 0,0 0.025298,0 m 0,0 a 0.00223446,0 225 0 0 0.00316,0.00316 m 0,0 0,0.025298 m 0,0 a 0.00223446,0 315 0 0 -0.00316,0.00316"
       style="fill:none;stroke:#000000;stroke-width:0.00111111;stroke-miterlimit:4;stroke-dasharray:none"
       id="path3405"
       inkscape:connector-curvature="0" />
    <!-- Polyline -->
    <path
       d="m 5.0056833,7.0550186 0,0.025298 m 0,0 a 0.00223446,0 315 0 0 -0.00316,0.00316 m 0,0 -0.025298,0 m 0,0 a 0.00223446,0 45 0 0 -0.00316,-0.00316 m 0,0 0,-0.025298 m 0,0 a 0.00223446,0 135 0 0 0.00316,-0.00316 m 0,0 0.025298,0 m 0,0 a 0.00223446,0 225 0 0 0.00316,0.00316"
       style="fill:none;stroke:#000000;stroke-width:0.00111111;stroke-miterlimit:4;stroke-dasharray:none"
       id="path3407"
       inkscape:connector-curvature="0" />
    <!-- Polyline -->
    <path
       d="m 5.0450533,7.0550186 0,0.025298 m 0,0 a 0.00223446,0 315 0 0 -0.00316,0.00316 m 0,0 -0.025298,0 m 0,0 a 0.00223446,0 45 0 0 -0.00316,-0.00316 m 0,0 0,-0.025298 m 0,0 a 0.00223446,0 135 0 0 0.00316,-0.00316 m 0,0 0.025298,0 m 0,0 a 0.00223446,0 225 0 0 0.00316,0.00316"
       style="fill:none;stroke:#000000;stroke-width:0.00111111;stroke-miterlimit:4;stroke-dasharray:none"
       id="path3409"
       inkscape:connector-curvature="0" />
    <!-- Polyline -->
    <!-- Polyline -->
    <!-- Polyline -->
    <path
       d="m 3.6706843,7.4205406 0.025298,0 m 0,0 a 0.00223446,0 225 0 0 0.00316,0.00316 m 0,0 0,0.025298 m 0,0 a 0.00223446,0 315 0 0 -0.00316,0.00316 m 0,0 -0.025298,0 m 0,0 a 0.00223446,0 45 0 0 -0.00316,-0.00316 m 0,0 0,-0.025298 m 0,0 a 0.00223446,0 135 0 0 0.00316,-0.00316"
       style="fill:none;stroke:#000000;stroke-width:0.00111111;stroke-miterlimit:4;stroke-dasharray:none"
       id="path3415"
       inkscape:connector-curvature="0" />
    <!-- Polyline -->
    <path
       d="m 3.6706843,7.3811706 0.025298,0 m 0,0 a 0.00223446,0 225 0 0 0.00316,0.00316 m 0,0 0,0.025298 m 0,0 a 0.00223446,0 315 0 0 -0.00316,0.00316 m 0,0 -0.025298,0 m 0,0 a 0.00223446,0 45 0 0 -0.00316,-0.00316 m 0,0 0,-0.025298 m 0,0 a 0.00223446,0 135 0 0 0.00316,-0.00316"
       style="fill:none;stroke:#000000;stroke-width:0.00111111;stroke-miterlimit:4;stroke-dasharray:none"
       id="path3417"
       inkscape:connector-curvature="0" />
    <!-- Polyline -->
    <path
       d="m 3.6706843,7.4905406 0.025298,0 m 0,0 a 0.00223446,0 225 0 0 0.00316,0.00316 m 0,0 0,0.025298 m 0,0 a 0.00223446,0 315 0 0 -0.00316,0.00316 m 0,0 -0.025298,0 m 0,0 a 0.00223446,0 45 0 0 -0.00316,-0.00316 m 0,0 0,-0.025298 m 0,0 a 0.00223446,0 135 0 0 0.00316,-0.00316"
       style="fill:none;stroke:#000000;stroke-width:0.00111111;stroke-miterlimit:4;stroke-dasharray:none"
       id="path3419"
       inkscape:connector-curvature="0" />
    <!-- Polyline -->
    <path
       d="m 3.6706843,7.4511706 0.025298,0 m 0,0 a 0.00223446,0 225 0 0 0.00316,0.00316 m 0,0 0,0.025298 m 0,0 a 0.00223446,0 315 0 0 -0.00316,0.00316 m 0,0 -0.025298,0 m 0,0 a 0.00223446,0 45 0 0 -0.00316,-0.00316 m 0,0 0,-0.025298 m 0,0 a 0.00223446,0 135 0 0 0.00316,-0.00316"
       style="fill:none;stroke:#000000;stroke-width:0.00111111;stroke-miterlimit:4;stroke-dasharray:none"
       id="path3421"
       inkscape:connector-curvature="0" />
    <!-- Polyline -->
    <path
       d="m 4.7379823,6.9627926 -0.025298,0 m 0,0 a 0.00223446,0 45 0 0 -0.00316,-0.00316 m 0,0 0,-0.025298 m 0,0 a 0.00223446,0 135 0 0 0.00316,-0.00316 m 0,0 0.025298,0 m 0,0 a 0.00223446,0 225 0 0 0.00316,0.00316 m 0,0 0,0.025298 m 0,0 a 0.00223446,0 315 0 0 -0.00316,0.00316"
       style="fill:none;stroke:#000000;stroke-width:0.00111111;stroke-miterlimit:4;stroke-dasharray:none"
       id="path3423"
       inkscape:connector-curvature="0" />
    <!-- Polyline -->
    <path
       d="m 4.7379823,7.0021626 -0.025298,0 m 0,0 a 0.00223446,0 45 0 0 -0.00316,-0.00316 m 0,0 0,-0.025298 m 0,0 a 0.00223446,0 135 0 0 0.00316,-0.00316 m 0,0 0.025298,0 m 0,0 a 0.00223446,0 225 0 0 0.00316,0.00316 m 0,0 0,0.025298 m 0,0 a 0.00223446,0 315 0 0 -0.00316,0.00316"
       style="fill:none;stroke:#000000;stroke-width:0.00111111;stroke-miterlimit:4;stroke-dasharray:none"
       id="path3425"
       inkscape:connector-curvature="0" />
    <!-- Polyline -->
    <path
       d="m 4.8299823,6.9177926 -0.025298,0 m 0,0 a 0.00223446,0 45 0 0 -0.00316,-0.00316 m 0,0 0,-0.025298 m 0,0 a 0.00223446,0 135 0 0 0.00316,-0.00316 m 0,0 0.025298,0 m 0,0 a 0.00223446,0 225 0 0 0.00316,0.00316 m 0,0 0,0.025298 m 0,0 a 0.00223446,0 315 0 0 -0.00316,0.00316"
       style="fill:none;stroke:#000000;stroke-width:0.00111111;stroke-miterlimit:4;stroke-dasharray:none"
       id="path3427"
       inkscape:connector-curvature="0" />
    <!-- Polyline -->
    <path
       d="m 4.8299823,6.9571626 -0.025298,0 m 0,0 a 0.00223446,0 45 0 0 -0.00316,-0.00316 m 0,0 0,-0.025298 m 0,0 a 0.00223446,0 135 0 0 0.00316,-0.00316 m 0,0 0.025298,0 m 0,0 a 0.00223446,0 225 0 0 0.00316,0.00316 m 0,0 0,0.025298 m 0,0 a 0.00223446,0 315 0 0 -0.00316,0.00316"
       style="fill:none;stroke:#000000;stroke-width:0.00111111;stroke-miterlimit:4;stroke-dasharray:none"
       id="path3429"
       inkscape:connector-curvature="0" />
    <!-- Polyline -->
    <!-- Polyline -->
    <!-- Solid -->
    <!-- Solid -->
    <!-- Solid -->
    <!-- Solid -->
    <!-- Solid -->
    <path
       d="m 3.1559083,7.2395641 0,-0.067055 0.069024,0 0,0.067055 -0.069024,0"
       style="fill:none;stroke:#000000;stroke-width:0.00111111;stroke-miterlimit:4;stroke-dasharray:none"
       id="path3443"
       inkscape:connector-curvature="0" />
    <!-- Solid -->
    <path
       d="m 3.1563013,7.1608241 0,-0.067055 0.069024,0 0,0.067055 -0.069024,0"
       style="fill:none;stroke:#000000;stroke-width:0.00111111;stroke-miterlimit:4;stroke-dasharray:none"
       id="path3445"
       inkscape:connector-curvature="0" />
    <!-- Polyline -->
    <!-- Polyline -->
    <!-- Polyline -->
    <path
       d="m 3.2604423,7.2571546 0.056806,0 m 0,0 a 0.00223446,0 225 0 0 0.00316,0.00316 m 0,0 0,0.06468 m 0,0 a 0.00223446,0 315 0 0 -0.00316,0.00316 m 0,0 -0.056806,0 m 0,0 a 0.00223446,0 45 0 0 -0.00316,-0.00316 m 0,0 0,-0.06468 m 0,0 a 0.00223446,0 135 0 0 0.00316,-0.00316"
       style="fill:none;stroke:#000000;stroke-width:0.00111111;stroke-miterlimit:4;stroke-dasharray:none"
       id="path3451"
       inkscape:connector-curvature="0" />
    <!-- Polyline -->
    <path
       d="m 3.2604423,7.0051866 0.056806,0 m 0,0 a 0.00223446,0 225 0 0 0.00316,0.00316 m 0,0 0,0.06468 m 0,0 a 0.00223446,0 315 0 0 -0.00316,0.00316 m 0,0 -0.056806,0 m 0,0 a 0.00223446,0 45 0 0 -0.00316,-0.00316 m 0,0 0,-0.06468 m 0,0 a 0.00223446,0 135 0 0 0.00316,-0.00316"
       style="fill:none;stroke:#000000;stroke-width:0.00111111;stroke-miterlimit:4;stroke-dasharray:none"
       id="path3453"
       inkscape:connector-curvature="0" />
    <!-- Solid -->
    <!-- Solid -->
    <path
       d="m 3.4355623,7.5154736 -0.029654,0 0,-0.055244 0.029654,0 0,0.055244"
       style="fill:none;stroke:#000000;stroke-width:0.00111111;stroke-miterlimit:4;stroke-dasharray:none"
       id="path3457"
       inkscape:connector-curvature="0" />
    <!-- Solid -->
    <path
       d="m 3.3981603,7.5154736 -0.029654,0 0,-0.055244 0.029654,0 0,0.055244"
       style="fill:none;stroke:#000000;stroke-width:0.00111111;stroke-miterlimit:4;stroke-dasharray:none"
       id="path3459"
       inkscape:connector-curvature="0" />
    <!-- Solid -->
    <path
       d="m 3.3607583,7.5154736 -0.029654,0 0,-0.055244 0.029654,0 0,0.055244"
       style="fill:none;stroke:#000000;stroke-width:0.00111111;stroke-miterlimit:4;stroke-dasharray:none"
       id="path3461"
       inkscape:connector-curvature="0" />
    <!-- Solid -->
    <path
       d="m 3.3607583,7.4131036 -0.029654,0 0,-0.055244 0.029654,0 0,0.055244"
       style="fill:none;stroke:#000000;stroke-width:0.00111111;stroke-miterlimit:4;stroke-dasharray:none"
       id="path3463"
       inkscape:connector-curvature="0" />
    <!-- Solid -->
    <path
       d="m 3.4355623,7.4131036 -0.029654,0 0,-0.055244 0.029654,0 0,0.055244"
       style="fill:none;stroke:#000000;stroke-width:0.00111111;stroke-miterlimit:4;stroke-dasharray:none"
       id="path3465"
       inkscape:connector-curvature="0" />
    <!-- Polyline -->
    <!-- Polyline -->
    <!-- Polyline -->
    <!-- Polyline -->
    <!-- Polyline -->
    <!-- Polyline -->
    <!-- Polyline -->
    <!-- Polyline -->
    <!-- Polyline -->
    <!-- Polyline -->
    <!-- Polyline -->
    <!-- Polyline -->
    <!-- Polyline -->
    <!-- Polyline -->
    <!-- Polyline -->
    <!-- Polyline -->
    <!-- Polyline -->
    <!-- Polyline -->
    <!-- Polyline -->
    <!-- Polyline -->
    <!-- Polyline -->
    <!-- Polyline -->
    <!-- Polyline -->
    <!-- Polyline -->
    <!-- Polyline -->
    <!-- Polyline -->
    <!-- Polyline -->
    <!-- Polyline -->
    <!-- Polyline -->
    <!-- Polyline -->
    <!-- Polyline -->
    <!-- Polyline -->
    <!-- Polyline -->
    <!-- Polyline -->
    <!-- Polyline -->
    <!-- Polyline -->
    <!-- Polyline -->
    <!-- Polyline -->
    <!-- Polyline -->
    <!-- Polyline -->
    <!-- Polyline -->
    <!-- Polyline -->
    <!-- Polyline -->
    <!-- Polyline -->
    <!-- Polyline -->
    <!-- Polyline -->
    <!-- Polyline -->
    <!-- Polyline -->
    <!-- Polyline -->
    <!-- Polyline -->
    <!-- Polyline -->
    <!-- Polyline -->
    <!-- Polyline -->
    <!-- Polyline -->
    <!-- Polyline -->
    <!-- Polyline -->
    <!-- Polyline -->
    <!-- Polyline -->
    <!-- Polyline -->
    <!-- Polyline -->
    <!-- Polyline -->
    <!-- Polyline -->
    <!-- Polyline -->
    <!-- Polyline -->
    <!-- Polyline -->
    <!-- Polyline -->
    <!-- Polyline -->
    <!-- Polyline -->
    <!-- Polyline -->
    <!-- Polyline -->
    <!-- Polyline -->
    <!-- Polyline -->
    <!-- Polyline -->
    <!-- Polyline -->
    <!-- Polyline -->
    <!-- Polyline -->
    <!-- Polyline -->
    <!-- Polyline -->
    <!-- Polyline -->
    <!-- Polyline -->
    <!-- Solid -->
    <path
       d="m 3.3411043,6.8878596 0.029654,0 0,0.055244 -0.029654,0 0,-0.055244"
       style="fill:none;stroke:#000000;stroke-width:0.00111111;stroke-miterlimit:4;stroke-dasharray:none"
       id="path3627"
       inkscape:connector-curvature="0" />
    <!-- Solid -->
    <path
       d="m 3.3785063,6.8878596 0.029654,0 0,0.055244 -0.029654,0 0,-0.055244"
       style="fill:none;stroke:#000000;stroke-width:0.00111111;stroke-miterlimit:4;stroke-dasharray:none"
       id="path3629"
       inkscape:connector-curvature="0" />
    <!-- Solid -->
    <path
       d="m 3.4159083,6.8878596 0.029654,0 0,0.055244 -0.029654,0 0,-0.055244"
       style="fill:none;stroke:#000000;stroke-width:0.00111111;stroke-miterlimit:4;stroke-dasharray:none"
       id="path3631"
       inkscape:connector-curvature="0" />
    <!-- Solid -->
    <path
       d="m 3.4159083,6.9902296 0.029654,0 0,0.055244 -0.029654,0 0,-0.055244"
       style="fill:none;stroke:#000000;stroke-width:0.00111111;stroke-miterlimit:4;stroke-dasharray:none"
       id="path3633"
       inkscape:connector-curvature="0" />
    <!-- Solid -->
    <path
       d="m 3.3411043,6.9902296 0.029654,0 0,0.055244 -0.029654,0 0,-0.055244"
       style="fill:none;stroke:#000000;stroke-width:0.00111111;stroke-miterlimit:4;stroke-dasharray:none"
       id="path3635"
       inkscape:connector-curvature="0" />
    <!-- Solid -->
    <!-- Solid -->
    <!-- Solid -->
    <!-- Solid -->
    <!-- Solid -->
    <path
       d="m 4.8722388,7.0781706 -0.019811,0 0,-0.039496 0.019811,0 0,0.039496"
       style="fill:none;stroke:#000000;stroke-width:0.00111111;stroke-miterlimit:4;stroke-dasharray:none"
       id="path3645"
       inkscape:connector-curvature="0" />
    <!-- Solid -->
    <!-- Solid -->
    <!-- Solid -->
    <!-- Solid -->
    <!-- Solid -->
    <path
       d="m 4.8722388,7.1726586 -0.019811,0 0,-0.039496 0.019811,0 0,0.039496"
       style="fill:none;stroke:#000000;stroke-width:0.00111111;stroke-miterlimit:4;stroke-dasharray:none"
       id="path3655"
       inkscape:connector-curvature="0" />
    <!-- Solid -->
    <!-- Solid -->
    <!-- Solid -->
    <!-- Solid -->
    <!-- Solid -->
    <!-- Solid -->
    <!-- Solid -->
    <!-- Solid -->
    <!-- Polyline -->
    <path
       d="m 3.6299193,7.4074386 -0.053172,0 m 0,0 a 0.0061545,0.0061545 0 0 1 -0.00615,-0.00616 m 0,0 0,-0.049234 m 0,0 a 0.0061545,0.0061545 0 0 1 0.00615,-0.00615 m 0,0 0.053172,0 m 0,0 a 0.0061545,0.0061545 0 0 1 0.00615,0.00615 m 0,0 0,0.049234 m 0,0 a 0.0061545,0.0061545 0 0 1 -0.00615,0.00616"
       style="fill:none;stroke:#000000;stroke-width:0.00111111;stroke-miterlimit:4;stroke-dasharray:none"
       id="path3673"
       inkscape:connector-curvature="0" />
    <!-- Solid -->
    <!-- Solid -->
    <!-- Solid -->
    <!-- Solid -->
    <!-- Polyline -->
    <path
       d="m 3.5974483,7.0061336 -0.0385,0 m 0,0 a 0.00824999,0.00824999 0 0 1 -0.00825,-0.00825 m 0,0 0,-0.0465 m 0,0 a 0.00824999,0.00824999 0 0 1 0.00825,-0.00825 m 0,0 0.0385,0 m 0,0 a 0.00824999,0.00824999 0 0 1 0.00825,0.00825 m 0,0 0,0.0465 m 0,0 a 0.00824999,0.00824999 0 0 1 -0.00825,0.00825"
       style="fill:none;stroke:#000000;stroke-width:0.00111111;stroke-miterlimit:4;stroke-dasharray:none"
       id="path3683"
       inkscape:connector-curvature="0" />
    <!-- Solid -->
    <path
       d="m 3.6056983,7.0301336 0,0.063 -0.055,0 0,-0.063 0.055,0"
       style="fill:none;stroke:#000000;stroke-width:0.00111111;stroke-miterlimit:4;stroke-dasharray:none"
       id="path3685"
       inkscape:connector-curvature="0" />
    <!-- Solid -->
    <path
       d="m 3.5386983,7.0301336 0,0.063 -0.055,0 0,-0.063 0.055,0"
       style="fill:none;stroke:#000000;stroke-width:0.00111111;stroke-miterlimit:4;stroke-dasharray:none"
       id="path3687"
       inkscape:connector-curvature="0" />
    <!-- Solid -->
    <path
       d="m 3.5386983,6.9431336 0,0.063 -0.055,0 0,-0.063 0.055,0"
       style="fill:none;stroke:#000000;stroke-width:0.00111111;stroke-miterlimit:4;stroke-dasharray:none"
       id="path3689"
       inkscape:connector-curvature="0" />
    <!-- Polyline -->
    <path
       d="m 4.5644913,7.3345156 0,0.029026 m 0,0 a 0.0062195,0.0062195 0 0 1 -0.00622,0.00622 m 0,0 -0.032962,0 m 0,0 a 0.0062195,0.0062195 0 0 1 -0.00622,-0.00622 m 0,0 0,-0.029026 m 0,0 a 0.0062195,0.0062195 0 0 1 0.00622,-0.00622 m 0,0 0.032962,0 m 0,0 a 0.0062195,0.0062195 0 0 1 0.00622,0.00622"
       style="fill:none;stroke:#000000;stroke-width:0.00111111;stroke-miterlimit:4;stroke-dasharray:none"
       id="path3691"
       inkscape:connector-curvature="0" />
    <!-- Solid -->
    <path
       d="m 4.5761753,7.3282961 0.045402,0 0,0.041465 -0.045402,0 0,-0.041465"
       style="fill:none;stroke:#000000;stroke-width:0.00111111;stroke-miterlimit:4;stroke-dasharray:none"
       id="path3693"
       inkscape:connector-curvature="0" />
    <!-- Solid -->
    <path
       d="m 4.5761753,7.3735721 0.045402,0 0,0.041465 -0.045402,0 0,-0.041465"
       style="fill:none;stroke:#000000;stroke-width:0.00111111;stroke-miterlimit:4;stroke-dasharray:none"
       id="path3695"
       inkscape:connector-curvature="0" />
    <!-- Solid -->
    <path
       d="m 4.5190893,7.3735721 0.045402,0 0,0.041465 -0.045402,0 0,-0.041465"
       style="fill:none;stroke:#000000;stroke-width:0.00111111;stroke-miterlimit:4;stroke-dasharray:none"
       id="path3697"
       inkscape:connector-curvature="0" />
    <rect
       style="fill:none;stroke:#000000;stroke-width:0.00111111;stroke-miterlimit:4;stroke-opacity:1;stroke-dasharray:none"
       id="rect4475"
       width="0.044439692"
       height="0.041738939"
       x="4.6356897"
       y="-7.1390533"
       transform="scale(1,-1)"
       ry="0.00020869468" />
    <rect
       style="fill:none;stroke:#000000;stroke-width:0.00111111;stroke-linecap:round;stroke-linejoin:round;stroke-miterlimit:4;stroke-opacity:1;stroke-dasharray:none"
       id="rect4475-0"
       width="0.044439696"
       height="0.041738942"
       x="4.6913009"
       y="-7.1913495"
       ry="0.00020869469"
       transform="scale(1,-1)" />
    <rect
       style="fill:none;stroke:#000000;stroke-width:0.00111111;stroke-linecap:round;stroke-linejoin:round;stroke-miterlimit:4;stroke-opacity:1;stroke-dasharray:none"
       id="rect4475-3"
       width="0.044439696"
       height="0.041738942"
       x="4.6355672"
       y="-7.1915951"
       ry="0.00020869469"
       transform="scale(1,-1)" />
    <rect
       style="fill:none;stroke:#000000;stroke-width:0.00111111;stroke-linecap:round;stroke-linejoin:round;stroke-miterlimit:4;stroke-opacity:1;stroke-dasharray:none"
       id="rect4475-2"
       width="0.044439696"
       height="0.041738942"
       x="4.6915464"
       y="-7.1392989"
       ry="0.00020869469"
       transform="scale(1,-1)" />
    <rect
       style="fill:none;stroke:#000000;stroke-width:0.00111111;stroke-miterlimit:4;stroke-opacity:1;stroke-dasharray:none"
       id="rect4519"
       width="0.0233247"
       height="0.16548261"
       x="4.5804472"
       y="-7.2279325"
       transform="scale(1,-1)"
       ry="2.3188297e-06" />
    <rect
       style="fill:none;stroke:#000000;stroke-width:0.00111111;stroke-linecap:round;stroke-linejoin:round;stroke-miterlimit:4;stroke-opacity:1;stroke-dasharray:none"
       id="rect4519-1"
       width="0.023324702"
       height="0.16548263"
       x="4.7750244"
       y="-7.2284236"
       ry="2.31883e-06"
       transform="scale(1,-1)" />
    <rect
       style="fill:none;stroke:#000000;stroke-width:0.00111111;stroke-linecap:round;stroke-linejoin:round;stroke-miterlimit:4;stroke-opacity:1;stroke-dasharray:none"
       id="rect4519-1-0"
       width="0.023324702"
       height="0.16548263"
       x="7.2319837"
       y="4.6067181"
       ry="2.31883e-06"
       transform="matrix(0,1,1,0,0,0)" />
    <rect
       style="fill:none;stroke:#000000;stroke-width:0.00111111;stroke-linecap:round;stroke-linejoin:round;stroke-miterlimit:4;stroke-opacity:1;stroke-dasharray:none"
       id="rect4519-1-0-9"
       width="0.023324702"
       height="0.16548263"
       x="7.0360565"
       y="4.6062274"
       ry="2.31883e-06"
       transform="matrix(0,1,1,0,0,0)" />
    <rect
       style="fill:none;stroke:#000000;stroke-width:0.00111111;stroke-miterlimit:4;stroke-opacity:1;stroke-dasharray:none"
       id="rect4575"
       width="0.021360517"
       height="0.087897293"
       x="4.8203235"
       y="-7.1496105"
       transform="scale(1,-1)"
       ry="2.5764772e-08" />
    <rect
       style="fill:none;stroke:#000000;stroke-width:0.00111111;stroke-linecap:round;stroke-linejoin:round;stroke-miterlimit:4;stroke-opacity:1;stroke-dasharray:none"
       id="rect4575-7"
       width="0.021360518"
       height="0.087897301"
       x="4.8825636"
       y="-7.1486287"
       ry="2.5764775e-08"
       transform="scale(1,-1)" />
    <rect
       style="fill:none;stroke:#000000;stroke-width:0.00111111;stroke-miterlimit:4;stroke-opacity:1;stroke-dasharray:none"
       id="rect4595"
       width="0.038792659"
       height="0.13601983"
       x="3.2816293"
       y="-7.2348075"
       transform="scale(1,-1)"
       ry="2.8627525e-10" />
    <rect
       style="fill:none;stroke:#000000;stroke-width:0.00111111;stroke-miterlimit:4;stroke-opacity:1;stroke-dasharray:none"
       id="rect4599"
       width="0.083846159"
       height="0.027621357"
       x="3.5612803"
       y="-7.4498854"
       transform="scale(1,-1)"
       ry="3.5342616e-14" />
    <rect
       style="fill:none;stroke:#000000;stroke-width:0.00111111;stroke-linecap:round;stroke-linejoin:round;stroke-miterlimit:4;stroke-opacity:1;stroke-dasharray:none"
       id="rect4599-2"
       width="0.083846167"
       height="0.027621359"
       x="3.5610962"
       y="-7.3317275"
       ry="3.5342619e-14"
       transform="scale(1,-1)" />
    <rect
       style="fill:none;stroke:#000000;stroke-width:0.00111111;stroke-miterlimit:4;stroke-opacity:1;stroke-dasharray:none"
       id="rect4677"
       width="0.023570223"
       height="0.24208583"
       x="3.7216067"
       y="-7.3084641"
       transform="scale(1,-1)"
       ry="3.9269572e-16" />
    <rect
       style="fill:none;stroke:#000000;stroke-width:0.00111111;stroke-linecap:round;stroke-linejoin:round;stroke-miterlimit:4;stroke-opacity:1;stroke-dasharray:none"
       id="rect4677-0"
       width="0.023570223"
       height="0.24208584"
       x="4.0569916"
       y="-7.3082185"
       ry="3.9269572e-16"
       transform="scale(1,-1)" />
    <rect
       style="fill:none;stroke:#000000;stroke-width:0.00111111;stroke-linecap:round;stroke-linejoin:round;stroke-miterlimit:4;stroke-opacity:1;stroke-dasharray:none"
       id="rect4677-0-6"
       width="0.023570223"
       height="0.24208584"
       x="7.3433285"
       y="3.7778316"
       ry="3.9269572e-16"
       transform="matrix(0,1,1,0,0,0)" />
    <rect
       style="fill:none;stroke:#000000;stroke-width:0.00111111;stroke-linecap:round;stroke-linejoin:round;stroke-miterlimit:4;stroke-opacity:1;stroke-dasharray:none"
       id="rect4677-0-6-1"
       width="0.023570223"
       height="0.24208584"
       x="7.0094171"
       y="3.7783227"
       ry="3.9269572e-16"
       transform="matrix(0,1,1,0,0,0)" />
    <rect
       style="fill:none;stroke:#000000;stroke-width:0.00111111;stroke-miterlimit:4;stroke-opacity:1;stroke-dasharray:none"
       id="rect3165"
       width="4.4444442"
       height="2.3999999"
       x="1.8888885"
       y="-8.2555561"
       transform="scale(1,-1)"
       ry="4.3632855e-18" />
  </g>
</svg>
