G75*
%MOIN*%
%OFA0B0*%
%FSLAX24Y24*%
%IPPOS*%
%LPD*%
%AMOC8*
5,1,8,0,0,1.08239X$1,22.5*
%
%ADD10C,0.0000*%
D10*
X008945Y004015D02*
X008945Y012015D01*
X008947Y012075D01*
X008952Y012136D01*
X008961Y012195D01*
X008974Y012254D01*
X008990Y012313D01*
X009010Y012370D01*
X009033Y012425D01*
X009060Y012480D01*
X009089Y012532D01*
X009122Y012583D01*
X009158Y012632D01*
X009196Y012678D01*
X009238Y012722D01*
X009282Y012764D01*
X009328Y012802D01*
X009377Y012838D01*
X009428Y012871D01*
X009480Y012900D01*
X009535Y012927D01*
X009590Y012950D01*
X009647Y012970D01*
X009706Y012986D01*
X009765Y012999D01*
X009824Y013008D01*
X009885Y013013D01*
X009945Y013015D01*
X034845Y013015D01*
X034905Y013013D01*
X034966Y013008D01*
X035025Y012999D01*
X035084Y012986D01*
X035143Y012970D01*
X035200Y012950D01*
X035255Y012927D01*
X035310Y012900D01*
X035362Y012871D01*
X035413Y012838D01*
X035462Y012802D01*
X035508Y012764D01*
X035552Y012722D01*
X035594Y012678D01*
X035632Y012632D01*
X035668Y012583D01*
X035701Y012532D01*
X035730Y012480D01*
X035757Y012425D01*
X035780Y012370D01*
X035800Y012313D01*
X035816Y012254D01*
X035829Y012195D01*
X035838Y012136D01*
X035843Y012075D01*
X035845Y012015D01*
X035845Y004015D01*
X035843Y003955D01*
X035838Y003894D01*
X035829Y003835D01*
X035816Y003776D01*
X035800Y003717D01*
X035780Y003660D01*
X035757Y003605D01*
X035730Y003550D01*
X035701Y003498D01*
X035668Y003447D01*
X035632Y003398D01*
X035594Y003352D01*
X035552Y003308D01*
X035508Y003266D01*
X035462Y003228D01*
X035413Y003192D01*
X035362Y003159D01*
X035310Y003130D01*
X035255Y003103D01*
X035200Y003080D01*
X035143Y003060D01*
X035084Y003044D01*
X035025Y003031D01*
X034966Y003022D01*
X034905Y003017D01*
X034845Y003015D01*
X009945Y003015D01*
X009885Y003017D01*
X009824Y003022D01*
X009765Y003031D01*
X009706Y003044D01*
X009647Y003060D01*
X009590Y003080D01*
X009535Y003103D01*
X009480Y003130D01*
X009428Y003159D01*
X009377Y003192D01*
X009328Y003228D01*
X009282Y003266D01*
X009238Y003308D01*
X009196Y003352D01*
X009158Y003398D01*
X009122Y003447D01*
X009089Y003498D01*
X009060Y003550D01*
X009033Y003605D01*
X009010Y003660D01*
X008990Y003717D01*
X008974Y003776D01*
X008961Y003835D01*
X008952Y003894D01*
X008947Y003955D01*
X008945Y004015D01*
X020765Y008015D02*
X020767Y008065D01*
X020773Y008115D01*
X020783Y008164D01*
X020797Y008212D01*
X020814Y008259D01*
X020835Y008304D01*
X020860Y008348D01*
X020888Y008389D01*
X020920Y008428D01*
X020954Y008465D01*
X020991Y008499D01*
X021031Y008529D01*
X021073Y008556D01*
X021117Y008580D01*
X021163Y008601D01*
X021210Y008617D01*
X021258Y008630D01*
X021308Y008639D01*
X021357Y008644D01*
X021408Y008645D01*
X021458Y008642D01*
X021507Y008635D01*
X021556Y008624D01*
X021604Y008609D01*
X021650Y008591D01*
X021695Y008569D01*
X021738Y008543D01*
X021779Y008514D01*
X021818Y008482D01*
X021854Y008447D01*
X021886Y008409D01*
X021916Y008369D01*
X021943Y008326D01*
X021966Y008282D01*
X021985Y008236D01*
X022001Y008188D01*
X022013Y008139D01*
X022021Y008090D01*
X022025Y008040D01*
X022025Y007990D01*
X022021Y007940D01*
X022013Y007891D01*
X022001Y007842D01*
X021985Y007794D01*
X021966Y007748D01*
X021943Y007704D01*
X021916Y007661D01*
X021886Y007621D01*
X021854Y007583D01*
X021818Y007548D01*
X021779Y007516D01*
X021738Y007487D01*
X021695Y007461D01*
X021650Y007439D01*
X021604Y007421D01*
X021556Y007406D01*
X021507Y007395D01*
X021458Y007388D01*
X021408Y007385D01*
X021357Y007386D01*
X021308Y007391D01*
X021258Y007400D01*
X021210Y007413D01*
X021163Y007429D01*
X021117Y007450D01*
X021073Y007474D01*
X021031Y007501D01*
X020991Y007531D01*
X020954Y007565D01*
X020920Y007602D01*
X020888Y007641D01*
X020860Y007682D01*
X020835Y007726D01*
X020814Y007771D01*
X020797Y007818D01*
X020783Y007866D01*
X020773Y007915D01*
X020767Y007965D01*
X020765Y008015D01*
X013095Y013215D02*
X013097Y013239D01*
X013103Y013263D01*
X013112Y013285D01*
X013125Y013305D01*
X013141Y013323D01*
X013160Y013338D01*
X013181Y013351D01*
X013203Y013359D01*
X013227Y013364D01*
X013251Y013365D01*
X013275Y013362D01*
X013298Y013355D01*
X013320Y013345D01*
X013340Y013331D01*
X013357Y013314D01*
X013372Y013295D01*
X013383Y013274D01*
X013391Y013251D01*
X013395Y013227D01*
X013395Y013203D01*
X013391Y013179D01*
X013383Y013156D01*
X013372Y013135D01*
X013357Y013116D01*
X013340Y013099D01*
X013320Y013085D01*
X013298Y013075D01*
X013275Y013068D01*
X013251Y013065D01*
X013227Y013066D01*
X013203Y013071D01*
X013181Y013079D01*
X013160Y013092D01*
X013141Y013107D01*
X013125Y013125D01*
X013112Y013145D01*
X013103Y013167D01*
X013097Y013191D01*
X013095Y013215D01*
X012695Y013215D02*
X012697Y013239D01*
X012703Y013263D01*
X012712Y013285D01*
X012725Y013305D01*
X012741Y013323D01*
X012760Y013338D01*
X012781Y013351D01*
X012803Y013359D01*
X012827Y013364D01*
X012851Y013365D01*
X012875Y013362D01*
X012898Y013355D01*
X012920Y013345D01*
X012940Y013331D01*
X012957Y013314D01*
X012972Y013295D01*
X012983Y013274D01*
X012991Y013251D01*
X012995Y013227D01*
X012995Y013203D01*
X012991Y013179D01*
X012983Y013156D01*
X012972Y013135D01*
X012957Y013116D01*
X012940Y013099D01*
X012920Y013085D01*
X012898Y013075D01*
X012875Y013068D01*
X012851Y013065D01*
X012827Y013066D01*
X012803Y013071D01*
X012781Y013079D01*
X012760Y013092D01*
X012741Y013107D01*
X012725Y013125D01*
X012712Y013145D01*
X012703Y013167D01*
X012697Y013191D01*
X012695Y013215D01*
X012295Y013215D02*
X012297Y013239D01*
X012303Y013263D01*
X012312Y013285D01*
X012325Y013305D01*
X012341Y013323D01*
X012360Y013338D01*
X012381Y013351D01*
X012403Y013359D01*
X012427Y013364D01*
X012451Y013365D01*
X012475Y013362D01*
X012498Y013355D01*
X012520Y013345D01*
X012540Y013331D01*
X012557Y013314D01*
X012572Y013295D01*
X012583Y013274D01*
X012591Y013251D01*
X012595Y013227D01*
X012595Y013203D01*
X012591Y013179D01*
X012583Y013156D01*
X012572Y013135D01*
X012557Y013116D01*
X012540Y013099D01*
X012520Y013085D01*
X012498Y013075D01*
X012475Y013068D01*
X012451Y013065D01*
X012427Y013066D01*
X012403Y013071D01*
X012381Y013079D01*
X012360Y013092D01*
X012341Y013107D01*
X012325Y013125D01*
X012312Y013145D01*
X012303Y013167D01*
X012297Y013191D01*
X012295Y013215D01*
X011895Y013215D02*
X011897Y013239D01*
X011903Y013263D01*
X011912Y013285D01*
X011925Y013305D01*
X011941Y013323D01*
X011960Y013338D01*
X011981Y013351D01*
X012003Y013359D01*
X012027Y013364D01*
X012051Y013365D01*
X012075Y013362D01*
X012098Y013355D01*
X012120Y013345D01*
X012140Y013331D01*
X012157Y013314D01*
X012172Y013295D01*
X012183Y013274D01*
X012191Y013251D01*
X012195Y013227D01*
X012195Y013203D01*
X012191Y013179D01*
X012183Y013156D01*
X012172Y013135D01*
X012157Y013116D01*
X012140Y013099D01*
X012120Y013085D01*
X012098Y013075D01*
X012075Y013068D01*
X012051Y013065D01*
X012027Y013066D01*
X012003Y013071D01*
X011981Y013079D01*
X011960Y013092D01*
X011941Y013107D01*
X011925Y013125D01*
X011912Y013145D01*
X011903Y013167D01*
X011897Y013191D01*
X011895Y013215D01*
X011495Y013215D02*
X011497Y013239D01*
X011503Y013263D01*
X011512Y013285D01*
X011525Y013305D01*
X011541Y013323D01*
X011560Y013338D01*
X011581Y013351D01*
X011603Y013359D01*
X011627Y013364D01*
X011651Y013365D01*
X011675Y013362D01*
X011698Y013355D01*
X011720Y013345D01*
X011740Y013331D01*
X011757Y013314D01*
X011772Y013295D01*
X011783Y013274D01*
X011791Y013251D01*
X011795Y013227D01*
X011795Y013203D01*
X011791Y013179D01*
X011783Y013156D01*
X011772Y013135D01*
X011757Y013116D01*
X011740Y013099D01*
X011720Y013085D01*
X011698Y013075D01*
X011675Y013068D01*
X011651Y013065D01*
X011627Y013066D01*
X011603Y013071D01*
X011581Y013079D01*
X011560Y013092D01*
X011541Y013107D01*
X011525Y013125D01*
X011512Y013145D01*
X011503Y013167D01*
X011497Y013191D01*
X011495Y013215D01*
X011095Y013215D02*
X011097Y013239D01*
X011103Y013263D01*
X011112Y013285D01*
X011125Y013305D01*
X011141Y013323D01*
X011160Y013338D01*
X011181Y013351D01*
X011203Y013359D01*
X011227Y013364D01*
X011251Y013365D01*
X011275Y013362D01*
X011298Y013355D01*
X011320Y013345D01*
X011340Y013331D01*
X011357Y013314D01*
X011372Y013295D01*
X011383Y013274D01*
X011391Y013251D01*
X011395Y013227D01*
X011395Y013203D01*
X011391Y013179D01*
X011383Y013156D01*
X011372Y013135D01*
X011357Y013116D01*
X011340Y013099D01*
X011320Y013085D01*
X011298Y013075D01*
X011275Y013068D01*
X011251Y013065D01*
X011227Y013066D01*
X011203Y013071D01*
X011181Y013079D01*
X011160Y013092D01*
X011141Y013107D01*
X011125Y013125D01*
X011112Y013145D01*
X011103Y013167D01*
X011097Y013191D01*
X011095Y013215D01*
X028795Y013215D02*
X028797Y013239D01*
X028803Y013263D01*
X028812Y013285D01*
X028825Y013305D01*
X028841Y013323D01*
X028860Y013338D01*
X028881Y013351D01*
X028903Y013359D01*
X028927Y013364D01*
X028951Y013365D01*
X028975Y013362D01*
X028998Y013355D01*
X029020Y013345D01*
X029040Y013331D01*
X029057Y013314D01*
X029072Y013295D01*
X029083Y013274D01*
X029091Y013251D01*
X029095Y013227D01*
X029095Y013203D01*
X029091Y013179D01*
X029083Y013156D01*
X029072Y013135D01*
X029057Y013116D01*
X029040Y013099D01*
X029020Y013085D01*
X028998Y013075D01*
X028975Y013068D01*
X028951Y013065D01*
X028927Y013066D01*
X028903Y013071D01*
X028881Y013079D01*
X028860Y013092D01*
X028841Y013107D01*
X028825Y013125D01*
X028812Y013145D01*
X028803Y013167D01*
X028797Y013191D01*
X028795Y013215D01*
X029195Y013215D02*
X029197Y013239D01*
X029203Y013263D01*
X029212Y013285D01*
X029225Y013305D01*
X029241Y013323D01*
X029260Y013338D01*
X029281Y013351D01*
X029303Y013359D01*
X029327Y013364D01*
X029351Y013365D01*
X029375Y013362D01*
X029398Y013355D01*
X029420Y013345D01*
X029440Y013331D01*
X029457Y013314D01*
X029472Y013295D01*
X029483Y013274D01*
X029491Y013251D01*
X029495Y013227D01*
X029495Y013203D01*
X029491Y013179D01*
X029483Y013156D01*
X029472Y013135D01*
X029457Y013116D01*
X029440Y013099D01*
X029420Y013085D01*
X029398Y013075D01*
X029375Y013068D01*
X029351Y013065D01*
X029327Y013066D01*
X029303Y013071D01*
X029281Y013079D01*
X029260Y013092D01*
X029241Y013107D01*
X029225Y013125D01*
X029212Y013145D01*
X029203Y013167D01*
X029197Y013191D01*
X029195Y013215D01*
X029595Y013215D02*
X029597Y013239D01*
X029603Y013263D01*
X029612Y013285D01*
X029625Y013305D01*
X029641Y013323D01*
X029660Y013338D01*
X029681Y013351D01*
X029703Y013359D01*
X029727Y013364D01*
X029751Y013365D01*
X029775Y013362D01*
X029798Y013355D01*
X029820Y013345D01*
X029840Y013331D01*
X029857Y013314D01*
X029872Y013295D01*
X029883Y013274D01*
X029891Y013251D01*
X029895Y013227D01*
X029895Y013203D01*
X029891Y013179D01*
X029883Y013156D01*
X029872Y013135D01*
X029857Y013116D01*
X029840Y013099D01*
X029820Y013085D01*
X029798Y013075D01*
X029775Y013068D01*
X029751Y013065D01*
X029727Y013066D01*
X029703Y013071D01*
X029681Y013079D01*
X029660Y013092D01*
X029641Y013107D01*
X029625Y013125D01*
X029612Y013145D01*
X029603Y013167D01*
X029597Y013191D01*
X029595Y013215D01*
X029995Y013215D02*
X029997Y013239D01*
X030003Y013263D01*
X030012Y013285D01*
X030025Y013305D01*
X030041Y013323D01*
X030060Y013338D01*
X030081Y013351D01*
X030103Y013359D01*
X030127Y013364D01*
X030151Y013365D01*
X030175Y013362D01*
X030198Y013355D01*
X030220Y013345D01*
X030240Y013331D01*
X030257Y013314D01*
X030272Y013295D01*
X030283Y013274D01*
X030291Y013251D01*
X030295Y013227D01*
X030295Y013203D01*
X030291Y013179D01*
X030283Y013156D01*
X030272Y013135D01*
X030257Y013116D01*
X030240Y013099D01*
X030220Y013085D01*
X030198Y013075D01*
X030175Y013068D01*
X030151Y013065D01*
X030127Y013066D01*
X030103Y013071D01*
X030081Y013079D01*
X030060Y013092D01*
X030041Y013107D01*
X030025Y013125D01*
X030012Y013145D01*
X030003Y013167D01*
X029997Y013191D01*
X029995Y013215D01*
X030395Y013215D02*
X030397Y013239D01*
X030403Y013263D01*
X030412Y013285D01*
X030425Y013305D01*
X030441Y013323D01*
X030460Y013338D01*
X030481Y013351D01*
X030503Y013359D01*
X030527Y013364D01*
X030551Y013365D01*
X030575Y013362D01*
X030598Y013355D01*
X030620Y013345D01*
X030640Y013331D01*
X030657Y013314D01*
X030672Y013295D01*
X030683Y013274D01*
X030691Y013251D01*
X030695Y013227D01*
X030695Y013203D01*
X030691Y013179D01*
X030683Y013156D01*
X030672Y013135D01*
X030657Y013116D01*
X030640Y013099D01*
X030620Y013085D01*
X030598Y013075D01*
X030575Y013068D01*
X030551Y013065D01*
X030527Y013066D01*
X030503Y013071D01*
X030481Y013079D01*
X030460Y013092D01*
X030441Y013107D01*
X030425Y013125D01*
X030412Y013145D01*
X030403Y013167D01*
X030397Y013191D01*
X030395Y013215D01*
X030795Y013215D02*
X030797Y013239D01*
X030803Y013263D01*
X030812Y013285D01*
X030825Y013305D01*
X030841Y013323D01*
X030860Y013338D01*
X030881Y013351D01*
X030903Y013359D01*
X030927Y013364D01*
X030951Y013365D01*
X030975Y013362D01*
X030998Y013355D01*
X031020Y013345D01*
X031040Y013331D01*
X031057Y013314D01*
X031072Y013295D01*
X031083Y013274D01*
X031091Y013251D01*
X031095Y013227D01*
X031095Y013203D01*
X031091Y013179D01*
X031083Y013156D01*
X031072Y013135D01*
X031057Y013116D01*
X031040Y013099D01*
X031020Y013085D01*
X030998Y013075D01*
X030975Y013068D01*
X030951Y013065D01*
X030927Y013066D01*
X030903Y013071D01*
X030881Y013079D01*
X030860Y013092D01*
X030841Y013107D01*
X030825Y013125D01*
X030812Y013145D01*
X030803Y013167D01*
X030797Y013191D01*
X030795Y013215D01*
M02*
