G75*
%MOIN*%
%OFA0B0*%
%FSLAX24Y24*%
%IPPOS*%
%LPD*%
%AMOC8*
5,1,8,0,0,1.08239X$1,22.5*
%
%ADD10R,0.0010X0.2180*%
%ADD11R,0.0010X0.2260*%
%ADD12R,0.0010X0.2340*%
%ADD13R,0.0010X0.2380*%
%ADD14R,0.0010X0.2420*%
%ADD15R,0.0010X0.2460*%
%ADD16R,0.0010X0.2500*%
%ADD17R,0.0010X0.2540*%
%ADD18R,0.0010X0.2560*%
%ADD19R,0.0010X0.2600*%
%ADD20R,0.0010X0.2620*%
%ADD21R,0.0010X0.2640*%
%ADD22R,0.0010X0.2660*%
%ADD23R,0.0010X0.2680*%
%ADD24R,0.0010X0.2720*%
%ADD25R,0.0010X0.2740*%
%ADD26R,0.0010X0.2760*%
%ADD27R,0.0010X0.2780*%
%ADD28R,0.0010X0.2800*%
%ADD29R,0.0010X0.2820*%
%ADD30R,0.0010X0.2840*%
%ADD31R,0.0010X0.2860*%
%ADD32R,0.0010X0.2880*%
%ADD33R,0.0010X0.2900*%
%ADD34R,0.0010X0.2920*%
%ADD35R,0.0010X0.2940*%
%ADD36R,0.0010X0.2960*%
%ADD37R,0.0010X0.2970*%
%ADD38R,0.0010X0.2980*%
%ADD39R,0.0010X0.3000*%
%ADD40R,0.0010X0.0790*%
%ADD41R,0.0010X0.1350*%
%ADD42R,0.0010X0.0650*%
%ADD43R,0.0010X0.0770*%
%ADD44R,0.0010X0.1270*%
%ADD45R,0.0010X0.0630*%
%ADD46R,0.0010X0.0750*%
%ADD47R,0.0010X0.1220*%
%ADD48R,0.0010X0.0610*%
%ADD49R,0.0010X0.0740*%
%ADD50R,0.0010X0.1190*%
%ADD51R,0.0010X0.0600*%
%ADD52R,0.0010X0.0720*%
%ADD53R,0.0010X0.1160*%
%ADD54R,0.0010X0.0590*%
%ADD55R,0.0010X0.0710*%
%ADD56R,0.0010X0.1140*%
%ADD57R,0.0010X0.0580*%
%ADD58R,0.0010X0.1110*%
%ADD59R,0.0010X0.0570*%
%ADD60R,0.0010X0.0700*%
%ADD61R,0.0010X0.1090*%
%ADD62R,0.0010X0.0690*%
%ADD63R,0.0010X0.1080*%
%ADD64R,0.0010X0.0560*%
%ADD65R,0.0010X0.1060*%
%ADD66R,0.0010X0.1050*%
%ADD67R,0.0010X0.0680*%
%ADD68R,0.0010X0.1040*%
%ADD69R,0.0010X0.0550*%
%ADD70R,0.0010X0.1030*%
%ADD71R,0.0010X0.1020*%
%ADD72R,0.0010X0.1010*%
%ADD73R,0.0010X0.1000*%
%ADD74R,0.0010X0.0990*%
%ADD75R,0.0010X0.0980*%
%ADD76R,0.0010X0.0620*%
%ADD77R,0.0010X0.0970*%
%ADD78R,0.0010X0.0640*%
%ADD79R,0.0010X0.0730*%
%ADD80R,0.0010X0.0500*%
%ADD81R,0.0010X0.0460*%
%ADD82R,0.0010X0.0440*%
%ADD83R,0.0010X0.0430*%
%ADD84R,0.0010X0.0410*%
%ADD85R,0.0010X0.0400*%
%ADD86R,0.0010X0.0390*%
%ADD87R,0.0010X0.0380*%
%ADD88R,0.0010X0.0370*%
%ADD89R,0.0010X0.0420*%
%ADD90R,0.0010X0.0320*%
%ADD91R,0.0010X0.0290*%
%ADD92R,0.0010X0.0270*%
%ADD93R,0.0010X0.0260*%
%ADD94R,0.0010X0.0250*%
%ADD95R,0.0010X0.0240*%
%ADD96R,0.0010X0.0230*%
%ADD97R,0.0010X0.0220*%
%ADD98R,0.0010X0.0210*%
%ADD99R,0.0010X0.0200*%
%ADD100R,0.0010X0.0080*%
%ADD101R,0.0010X0.0130*%
%ADD102R,0.0010X0.0760*%
%ADD103R,0.0010X0.0170*%
%ADD104R,0.0010X0.0780*%
%ADD105R,0.0010X0.0300*%
%ADD106R,0.0010X0.0820*%
%ADD107R,0.0010X0.0340*%
%ADD108R,0.0010X0.1980*%
%ADD109R,0.0010X0.1990*%
%ADD110R,0.0010X0.2000*%
%ADD111R,0.0010X0.0280*%
%ADD112R,0.0010X0.2010*%
%ADD113R,0.0010X0.2020*%
%ADD114R,0.0010X0.2030*%
%ADD115R,0.0010X0.2050*%
%ADD116R,0.0010X0.0800*%
%ADD117R,0.0010X0.0310*%
%ADD118R,0.0010X0.2070*%
%ADD119R,0.0010X0.0830*%
%ADD120R,0.0010X0.0330*%
%ADD121R,0.0010X0.2700*%
%ADD122R,0.0010X0.0350*%
%ADD123R,0.0010X0.2580*%
%ADD124R,0.0010X0.2520*%
%ADD125R,0.0010X0.2480*%
%ADD126R,0.0010X0.2440*%
%ADD127R,0.0010X0.2400*%
%ADD128R,0.0010X0.2360*%
%ADD129R,0.0010X0.2300*%
%ADD130R,0.0010X0.0360*%
%ADD131R,0.0010X0.2220*%
%ADD132R,0.0010X0.2100*%
%ADD133R,0.0010X0.0450*%
%ADD134R,0.0010X0.0470*%
%ADD135R,0.0010X0.0490*%
%ADD136R,0.0010X0.0510*%
%ADD137R,0.0010X0.0520*%
%ADD138R,0.0010X0.0540*%
%ADD139R,0.0010X0.0670*%
%ADD140R,0.0010X0.0850*%
%ADD141R,0.0010X0.0880*%
%ADD142R,0.0010X0.0890*%
%ADD143R,0.0010X0.0870*%
%ADD144R,0.0010X0.0860*%
%ADD145R,0.0010X0.0840*%
%ADD146R,0.0010X0.0810*%
%ADD147R,0.0010X0.0480*%
%ADD148R,0.0010X0.0140*%
%ADD149R,0.0010X0.0530*%
%ADD150R,0.0010X0.0660*%
%ADD151R,0.0010X0.1070*%
%ADD152R,0.0010X0.0950*%
%ADD153R,0.0010X0.0930*%
%ADD154R,0.0010X0.0910*%
%ADD155R,0.0010X0.0960*%
%ADD156R,0.0010X0.1240*%
%ADD157R,0.0010X0.1260*%
%ADD158R,0.0010X0.1250*%
%ADD159R,0.0010X0.1230*%
%ADD160R,0.0010X0.1200*%
%ADD161R,0.0010X0.1170*%
%ADD162R,0.0010X0.1150*%
%ADD163R,0.0010X0.1130*%
%ADD164R,0.0010X0.0940*%
%ADD165R,0.0010X0.0190*%
%ADD166C,0.0380*%
%ADD167C,0.1580*%
%ADD168C,0.1080*%
%ADD169R,0.0820X0.0820*%
%ADD170C,0.0820*%
%ADD171C,0.1340*%
%ADD172C,0.0434*%
D10*
X022865Y007290D03*
D11*
X022875Y007290D03*
D12*
X022885Y007290D03*
D13*
X022895Y007290D03*
D14*
X022905Y007290D03*
D15*
X022915Y007290D03*
D16*
X022925Y007290D03*
D17*
X022935Y007290D03*
X025775Y007290D03*
D18*
X022945Y007290D03*
D19*
X022955Y007290D03*
X025755Y007290D03*
D20*
X022965Y007290D03*
D21*
X022975Y007290D03*
X025745Y007290D03*
D22*
X025735Y007290D03*
X022985Y007290D03*
D23*
X022995Y007290D03*
X025725Y007290D03*
D24*
X025705Y007290D03*
X023015Y007290D03*
X023005Y007290D03*
D25*
X023025Y007290D03*
X025695Y007290D03*
D26*
X025685Y007290D03*
X023035Y007290D03*
D27*
X023045Y007290D03*
X025665Y007290D03*
X025675Y007290D03*
D28*
X025655Y007290D03*
X023055Y007290D03*
D29*
X023065Y007290D03*
X023075Y007290D03*
X025645Y007290D03*
D30*
X025635Y007290D03*
X025625Y007290D03*
X023085Y007290D03*
D31*
X023095Y007290D03*
X023105Y007290D03*
X025605Y007290D03*
X025615Y007290D03*
D32*
X025595Y007290D03*
X023125Y007290D03*
X023115Y007290D03*
D33*
X023135Y007290D03*
X023145Y007290D03*
X025565Y007290D03*
X025575Y007290D03*
X025585Y007290D03*
D34*
X025555Y007290D03*
X025545Y007290D03*
X023165Y007290D03*
X023155Y007290D03*
D35*
X023175Y007290D03*
X023185Y007290D03*
X023195Y007290D03*
X025515Y007290D03*
X025525Y007290D03*
X025535Y007290D03*
D36*
X025505Y007290D03*
X025495Y007290D03*
X025485Y007290D03*
X023225Y007290D03*
X023215Y007290D03*
X023205Y007290D03*
D37*
X023235Y007285D03*
D38*
X023245Y007290D03*
X023255Y007290D03*
X023265Y007290D03*
X023275Y007290D03*
X023285Y007290D03*
X025435Y007290D03*
X025445Y007290D03*
X025455Y007290D03*
X025465Y007290D03*
X025475Y007290D03*
D39*
X025425Y007290D03*
X025415Y007290D03*
X025405Y007290D03*
X025395Y007290D03*
X025385Y007290D03*
X025375Y007290D03*
X025365Y007290D03*
X025355Y007290D03*
X025345Y007290D03*
X025335Y007290D03*
X025325Y007290D03*
X025315Y007290D03*
X023475Y007290D03*
X023465Y007290D03*
X023455Y007290D03*
X023445Y007290D03*
X023435Y007290D03*
X023425Y007290D03*
X023415Y007290D03*
X023405Y007290D03*
X023395Y007290D03*
X023385Y007290D03*
X023375Y007290D03*
X023365Y007290D03*
X023355Y007290D03*
X023345Y007290D03*
X023335Y007290D03*
X023325Y007290D03*
X023315Y007290D03*
X023305Y007290D03*
X023295Y007290D03*
D40*
X023485Y006185D03*
X025285Y008395D03*
X026415Y008535D03*
X027465Y009245D03*
D41*
X023485Y007345D03*
D42*
X023485Y008465D03*
X026485Y008475D03*
X027795Y008495D03*
X027385Y009425D03*
X027375Y009445D03*
D43*
X027115Y008535D03*
X025265Y008405D03*
X023495Y006175D03*
D44*
X023495Y007335D03*
D45*
X023495Y008475D03*
X026245Y008845D03*
X026805Y009165D03*
X027365Y009465D03*
X027355Y009485D03*
D46*
X027445Y009295D03*
X026865Y009025D03*
X027775Y008535D03*
X025245Y008415D03*
X023505Y006165D03*
D47*
X023505Y007330D03*
X027605Y008770D03*
D48*
X027335Y009515D03*
X026235Y008865D03*
X023735Y008485D03*
X023505Y008485D03*
D49*
X025225Y008420D03*
X025235Y008420D03*
X026445Y008510D03*
X027125Y008520D03*
X025185Y006160D03*
X023515Y006160D03*
D50*
X023515Y007325D03*
X027625Y008745D03*
D51*
X026785Y009200D03*
X027325Y009540D03*
X023725Y008490D03*
X023515Y008490D03*
D52*
X023775Y008430D03*
X023785Y008430D03*
X026265Y008780D03*
X026455Y008500D03*
X026855Y009050D03*
X027425Y009340D03*
X025165Y006150D03*
X023525Y006150D03*
D53*
X023525Y007320D03*
D54*
X023525Y008495D03*
X023715Y008495D03*
X026505Y008455D03*
X027805Y008475D03*
X026775Y009215D03*
X026765Y009235D03*
X027315Y009555D03*
D55*
X026845Y009075D03*
X027135Y008505D03*
X025155Y006145D03*
X023545Y006145D03*
X023535Y006145D03*
D56*
X023535Y007320D03*
D57*
X023535Y008500D03*
X023705Y008500D03*
X026225Y008890D03*
X027305Y009570D03*
D58*
X027665Y008695D03*
X023545Y007315D03*
D59*
X023545Y008505D03*
X023555Y008505D03*
X023685Y008505D03*
X023695Y008505D03*
X026215Y008905D03*
X026755Y009255D03*
X027295Y009585D03*
X027285Y009605D03*
X027165Y008465D03*
D60*
X027785Y008520D03*
X026465Y008490D03*
X027415Y009360D03*
X023765Y008440D03*
X023555Y006140D03*
X025135Y006140D03*
X025145Y006140D03*
D61*
X023555Y007315D03*
X026925Y008765D03*
X026935Y008745D03*
X026945Y008735D03*
D62*
X027405Y009385D03*
X025125Y006135D03*
X025115Y006135D03*
X023585Y006135D03*
X023575Y006135D03*
X023565Y006135D03*
D63*
X023565Y007310D03*
X026915Y008780D03*
X026955Y008720D03*
X027675Y008680D03*
D64*
X026745Y009270D03*
X027265Y009630D03*
X027275Y009620D03*
X026515Y008440D03*
X023675Y008510D03*
X023665Y008510D03*
X023655Y008510D03*
X023585Y008510D03*
X023575Y008510D03*
X023565Y008510D03*
D65*
X023575Y007310D03*
X026905Y008810D03*
D66*
X026985Y008685D03*
X027685Y008665D03*
X023585Y007305D03*
D67*
X023595Y006130D03*
X023605Y006130D03*
X023615Y006130D03*
X023625Y006130D03*
X023635Y006130D03*
X023645Y006130D03*
X023655Y006130D03*
X023665Y006130D03*
X023675Y006130D03*
X023685Y006130D03*
X023695Y006130D03*
X023705Y006130D03*
X023715Y006130D03*
X023725Y006130D03*
X023735Y006130D03*
X023745Y006130D03*
X023755Y006130D03*
X023765Y006130D03*
X023775Y006130D03*
X023785Y006130D03*
X023795Y006130D03*
X023805Y006130D03*
X023815Y006130D03*
X023825Y006130D03*
X023835Y006130D03*
X023845Y006130D03*
X023855Y006130D03*
X023865Y006130D03*
X023875Y006130D03*
X023885Y006130D03*
X023895Y006130D03*
X023905Y006130D03*
X023915Y006130D03*
X023925Y006130D03*
X023935Y006130D03*
X023945Y006130D03*
X023955Y006130D03*
X023965Y006130D03*
X023975Y006130D03*
X023985Y006130D03*
X023995Y006130D03*
X024005Y006130D03*
X024015Y006130D03*
X024025Y006130D03*
X024035Y006130D03*
X024045Y006130D03*
X024055Y006130D03*
X024065Y006130D03*
X024075Y006130D03*
X024085Y006130D03*
X024095Y006130D03*
X024105Y006130D03*
X024115Y006130D03*
X024125Y006130D03*
X024135Y006130D03*
X024145Y006130D03*
X024155Y006130D03*
X024165Y006130D03*
X024175Y006130D03*
X024185Y006130D03*
X024195Y006130D03*
X024205Y006130D03*
X024215Y006130D03*
X024225Y006130D03*
X024235Y006130D03*
X024245Y006130D03*
X024255Y006130D03*
X024265Y006130D03*
X024275Y006130D03*
X024285Y006130D03*
X024295Y006130D03*
X024305Y006130D03*
X024315Y006130D03*
X024325Y006130D03*
X024335Y006130D03*
X024345Y006130D03*
X024355Y006130D03*
X024365Y006130D03*
X024375Y006130D03*
X024385Y006130D03*
X024395Y006130D03*
X024405Y006130D03*
X024415Y006130D03*
X024425Y006130D03*
X024435Y006130D03*
X024445Y006130D03*
X024455Y006130D03*
X024465Y006130D03*
X024475Y006130D03*
X024485Y006130D03*
X024495Y006130D03*
X024505Y006130D03*
X024515Y006130D03*
X024525Y006130D03*
X024535Y006130D03*
X024545Y006130D03*
X024555Y006130D03*
X024565Y006130D03*
X024575Y006130D03*
X024585Y006130D03*
X024595Y006130D03*
X024605Y006130D03*
X024615Y006130D03*
X024625Y006130D03*
X024635Y006130D03*
X024645Y006130D03*
X024655Y006130D03*
X024665Y006130D03*
X024675Y006130D03*
X024685Y006130D03*
X024695Y006130D03*
X024705Y006130D03*
X024715Y006130D03*
X024725Y006130D03*
X024735Y006130D03*
X024745Y006130D03*
X024755Y006130D03*
X024765Y006130D03*
X024775Y006130D03*
X024785Y006130D03*
X024795Y006130D03*
X024805Y006130D03*
X024815Y006130D03*
X024825Y006130D03*
X024835Y006130D03*
X024845Y006130D03*
X024855Y006130D03*
X024865Y006130D03*
X024875Y006130D03*
X024885Y006130D03*
X024895Y006130D03*
X024905Y006130D03*
X024915Y006130D03*
X024925Y006130D03*
X024935Y006130D03*
X024945Y006130D03*
X024955Y006130D03*
X024965Y006130D03*
X024975Y006130D03*
X024985Y006130D03*
X024995Y006130D03*
X025005Y006130D03*
X025015Y006130D03*
X025025Y006130D03*
X025035Y006130D03*
X025045Y006130D03*
X025055Y006130D03*
X025065Y006130D03*
X025075Y006130D03*
X025085Y006130D03*
X025095Y006130D03*
X025105Y006130D03*
X026475Y008480D03*
X026835Y009100D03*
D68*
X026995Y008670D03*
X023595Y007300D03*
D69*
X023595Y008515D03*
X023605Y008515D03*
X023615Y008515D03*
X023625Y008515D03*
X023635Y008515D03*
X023645Y008515D03*
X026205Y008925D03*
X026735Y009285D03*
X027255Y009645D03*
D70*
X027525Y009015D03*
X027695Y008655D03*
X023605Y007305D03*
D71*
X023615Y007300D03*
X027005Y008660D03*
D72*
X027015Y008645D03*
X023635Y007295D03*
X023625Y007295D03*
D73*
X023645Y007290D03*
X023655Y007290D03*
X023665Y007290D03*
X027705Y008640D03*
D74*
X027025Y008635D03*
X023695Y007285D03*
X023685Y007285D03*
X023675Y007285D03*
D75*
X023705Y007280D03*
X023715Y007280D03*
X023725Y007280D03*
X023735Y007280D03*
X023745Y007280D03*
D76*
X023745Y008480D03*
X026495Y008460D03*
X027155Y008480D03*
X026795Y009180D03*
X027345Y009500D03*
D77*
X027035Y008625D03*
X027715Y008625D03*
X024915Y007275D03*
X024905Y007275D03*
X024895Y007275D03*
X024885Y007275D03*
X024875Y007275D03*
X024865Y007275D03*
X024855Y007275D03*
X024845Y007275D03*
X024835Y007275D03*
X024825Y007275D03*
X024815Y007275D03*
X024805Y007275D03*
X024795Y007275D03*
X024785Y007275D03*
X024775Y007275D03*
X024765Y007275D03*
X024755Y007275D03*
X024745Y007275D03*
X024735Y007275D03*
X024725Y007275D03*
X024715Y007275D03*
X024705Y007275D03*
X024695Y007275D03*
X024685Y007275D03*
X024675Y007275D03*
X024665Y007275D03*
X024655Y007275D03*
X024645Y007275D03*
X024635Y007275D03*
X024625Y007275D03*
X024615Y007275D03*
X024605Y007275D03*
X024595Y007275D03*
X024585Y007275D03*
X024575Y007275D03*
X024565Y007275D03*
X024555Y007275D03*
X024545Y007275D03*
X024535Y007275D03*
X024525Y007275D03*
X024515Y007275D03*
X024505Y007275D03*
X024495Y007275D03*
X024195Y007275D03*
X024185Y007275D03*
X024175Y007275D03*
X024165Y007275D03*
X024155Y007275D03*
X024145Y007275D03*
X024135Y007275D03*
X024125Y007275D03*
X024115Y007275D03*
X024105Y007275D03*
X024095Y007275D03*
X024085Y007275D03*
X024075Y007275D03*
X024065Y007275D03*
X024055Y007275D03*
X024045Y007275D03*
X024035Y007275D03*
X024025Y007275D03*
X024015Y007275D03*
X024005Y007275D03*
X023995Y007275D03*
X023985Y007275D03*
X023975Y007275D03*
X023965Y007275D03*
X023955Y007275D03*
X023945Y007275D03*
X023935Y007275D03*
X023925Y007275D03*
X023915Y007275D03*
X023905Y007275D03*
X023895Y007275D03*
X023885Y007275D03*
X023875Y007275D03*
X023865Y007275D03*
X023855Y007275D03*
X023845Y007275D03*
X023835Y007275D03*
X023825Y007275D03*
X023815Y007275D03*
X023805Y007275D03*
X023795Y007275D03*
X023785Y007275D03*
X023775Y007275D03*
X023765Y007275D03*
X023755Y007275D03*
D78*
X023755Y008470D03*
X026815Y009140D03*
D79*
X027435Y009315D03*
X025215Y008425D03*
X025205Y008425D03*
X025195Y008425D03*
X025185Y008425D03*
X025175Y008425D03*
X025165Y008425D03*
X025155Y008425D03*
X025145Y008425D03*
X025135Y008425D03*
X025125Y008425D03*
X025115Y008425D03*
X025105Y008425D03*
X025095Y008425D03*
X025085Y008425D03*
X025075Y008425D03*
X025065Y008425D03*
X025055Y008425D03*
X025045Y008425D03*
X025035Y008425D03*
X025025Y008425D03*
X025015Y008425D03*
X025005Y008425D03*
X024995Y008425D03*
X024985Y008425D03*
X024975Y008425D03*
X024965Y008425D03*
X024955Y008425D03*
X024945Y008425D03*
X024935Y008425D03*
X024925Y008425D03*
X024915Y008425D03*
X024905Y008425D03*
X024895Y008425D03*
X024885Y008425D03*
X024875Y008425D03*
X024865Y008425D03*
X024855Y008425D03*
X024845Y008425D03*
X024835Y008425D03*
X024825Y008425D03*
X024815Y008425D03*
X024805Y008425D03*
X024795Y008425D03*
X024785Y008425D03*
X024775Y008425D03*
X024765Y008425D03*
X024755Y008425D03*
X024745Y008425D03*
X024735Y008425D03*
X024725Y008425D03*
X024715Y008425D03*
X024705Y008425D03*
X024695Y008425D03*
X024685Y008425D03*
X024675Y008425D03*
X024665Y008425D03*
X024655Y008425D03*
X024645Y008425D03*
X024635Y008425D03*
X024625Y008425D03*
X024615Y008425D03*
X024605Y008425D03*
X024595Y008425D03*
X024585Y008425D03*
X024575Y008425D03*
X024565Y008425D03*
X024555Y008425D03*
X024545Y008425D03*
X024535Y008425D03*
X024525Y008425D03*
X024515Y008425D03*
X024505Y008425D03*
X024495Y008425D03*
X024485Y008425D03*
X024475Y008425D03*
X024465Y008425D03*
X024455Y008425D03*
X024445Y008425D03*
X024435Y008425D03*
X024425Y008425D03*
X024415Y008425D03*
X024405Y008425D03*
X024395Y008425D03*
X024385Y008425D03*
X024375Y008425D03*
X024365Y008425D03*
X024355Y008425D03*
X024345Y008425D03*
X024335Y008425D03*
X024325Y008425D03*
X024315Y008425D03*
X024305Y008425D03*
X024295Y008425D03*
X024285Y008425D03*
X024275Y008425D03*
X024265Y008425D03*
X024255Y008425D03*
X024245Y008425D03*
X024235Y008425D03*
X024225Y008425D03*
X024215Y008425D03*
X024205Y008425D03*
X024195Y008425D03*
X024185Y008425D03*
X024175Y008425D03*
X024165Y008425D03*
X024155Y008425D03*
X024145Y008425D03*
X024135Y008425D03*
X024125Y008425D03*
X024115Y008425D03*
X024105Y008425D03*
X024095Y008425D03*
X024085Y008425D03*
X024075Y008425D03*
X024065Y008425D03*
X024055Y008425D03*
X024045Y008425D03*
X024035Y008425D03*
X024025Y008425D03*
X024015Y008425D03*
X024005Y008425D03*
X023995Y008425D03*
X023985Y008425D03*
X023975Y008425D03*
X023965Y008425D03*
X023955Y008425D03*
X023945Y008425D03*
X023935Y008425D03*
X023925Y008425D03*
X023915Y008425D03*
X023905Y008425D03*
X023895Y008425D03*
X023885Y008425D03*
X023875Y008425D03*
X023865Y008425D03*
X023855Y008425D03*
X023845Y008425D03*
X023835Y008425D03*
X023825Y008425D03*
X023815Y008425D03*
X023805Y008425D03*
X023795Y008425D03*
X025175Y006155D03*
D80*
X024205Y007510D03*
X026155Y009000D03*
X026165Y008990D03*
X026665Y009380D03*
X027155Y009780D03*
X027165Y009770D03*
D81*
X027065Y009890D03*
X027055Y009900D03*
X027045Y009910D03*
X027035Y009920D03*
X026585Y009480D03*
X026575Y009490D03*
X026565Y009500D03*
X026115Y009050D03*
X026105Y009060D03*
X027185Y008430D03*
X024485Y007530D03*
X024215Y007530D03*
D82*
X024225Y007540D03*
X024475Y007540D03*
X026545Y008410D03*
X026085Y009080D03*
X026535Y009530D03*
X026545Y009520D03*
X026525Y009540D03*
X026515Y009550D03*
X026505Y009560D03*
X027825Y008430D03*
D83*
X026075Y009095D03*
X026065Y009105D03*
X026055Y009115D03*
X026495Y009565D03*
X026945Y010015D03*
X026955Y010005D03*
X026965Y009995D03*
X026935Y010025D03*
X026925Y010035D03*
X026915Y010045D03*
X024465Y007545D03*
X024235Y007545D03*
D84*
X024245Y007555D03*
X024445Y007555D03*
X026015Y009145D03*
X026455Y009605D03*
X026445Y009615D03*
X026435Y009625D03*
X026425Y009635D03*
X026865Y010085D03*
X026855Y010095D03*
X026845Y010105D03*
X026835Y010115D03*
X026805Y010135D03*
X026795Y010145D03*
D85*
X026785Y010150D03*
X026775Y010160D03*
X026765Y010170D03*
X026725Y010200D03*
X026815Y010130D03*
X026825Y010120D03*
X026395Y009660D03*
X026385Y009660D03*
X026375Y009670D03*
X026365Y009680D03*
X026405Y009650D03*
X026415Y009640D03*
X025995Y009170D03*
X026005Y009160D03*
X025975Y009180D03*
X024435Y007560D03*
X024265Y007560D03*
X024255Y007560D03*
D86*
X024275Y007565D03*
X024415Y007565D03*
X024425Y007565D03*
X026555Y008395D03*
X027195Y008405D03*
X025985Y009175D03*
X025965Y009185D03*
X025955Y009195D03*
X026315Y009715D03*
X026335Y009705D03*
X026345Y009695D03*
X026355Y009685D03*
X026715Y010205D03*
X026705Y010215D03*
X026735Y010195D03*
X026745Y010185D03*
X026755Y010175D03*
X026675Y010235D03*
D87*
X026685Y010230D03*
X026695Y010220D03*
X026665Y010240D03*
X026655Y010250D03*
X026645Y010260D03*
X026635Y010260D03*
X026625Y010270D03*
X026605Y010280D03*
X026595Y010290D03*
X026285Y009740D03*
X026295Y009730D03*
X026305Y009720D03*
X026325Y009710D03*
X026265Y009750D03*
X026235Y009770D03*
X025925Y009220D03*
X025935Y009210D03*
X025945Y009200D03*
X025905Y009230D03*
X024405Y007570D03*
X024395Y007570D03*
X024305Y007570D03*
X024295Y007570D03*
X024285Y007570D03*
D88*
X024315Y007575D03*
X024325Y007575D03*
X024335Y007575D03*
X024345Y007575D03*
X024355Y007575D03*
X024365Y007575D03*
X024375Y007575D03*
X024385Y007575D03*
X025865Y009255D03*
X025885Y009245D03*
X025895Y009235D03*
X025915Y009225D03*
X026255Y009755D03*
X026245Y009765D03*
X026225Y009775D03*
X026215Y009785D03*
X026205Y009785D03*
X026195Y009795D03*
X026175Y009805D03*
X026275Y009745D03*
X026615Y010275D03*
X026585Y010295D03*
X026575Y010305D03*
X026565Y010305D03*
X026555Y010315D03*
X026535Y010325D03*
X026525Y010335D03*
X026505Y010345D03*
X026485Y010355D03*
D89*
X026875Y010080D03*
X026885Y010070D03*
X026895Y010060D03*
X026905Y010050D03*
X026465Y009600D03*
X026475Y009590D03*
X026485Y009580D03*
X026035Y009130D03*
X026045Y009120D03*
X026025Y009140D03*
X024455Y007550D03*
D90*
X024925Y007600D03*
X025615Y009360D03*
X025585Y009370D03*
X025575Y009370D03*
X025565Y009370D03*
X025545Y009380D03*
X025535Y009380D03*
X025525Y009380D03*
X025515Y009380D03*
X025505Y009380D03*
X025485Y009390D03*
X025475Y009390D03*
X025465Y009390D03*
X025455Y009390D03*
X025445Y009390D03*
X025435Y009390D03*
X025355Y009400D03*
X025345Y009400D03*
X025335Y009400D03*
X025325Y009400D03*
X025325Y010030D03*
X025335Y010030D03*
X025345Y010030D03*
X025355Y010030D03*
X025365Y010030D03*
X025375Y010030D03*
X025385Y010030D03*
X025315Y010030D03*
X025465Y010020D03*
X025475Y010020D03*
X025485Y010020D03*
X025495Y010020D03*
X025505Y010020D03*
X025515Y010020D03*
X025525Y010020D03*
X025555Y010010D03*
X025565Y010010D03*
X025575Y010010D03*
X025585Y010010D03*
X025595Y010010D03*
X025605Y010010D03*
X025615Y010000D03*
X025625Y010000D03*
X025635Y010000D03*
X025645Y010000D03*
X025655Y010000D03*
X025675Y009990D03*
X025685Y009990D03*
X025695Y009990D03*
X025705Y009990D03*
X025725Y009980D03*
X025735Y009980D03*
X025745Y009980D03*
X025775Y009970D03*
X025885Y010590D03*
X025895Y010590D03*
X025905Y010590D03*
X025935Y010580D03*
X026005Y010560D03*
X025865Y010600D03*
X025855Y010600D03*
X025845Y010600D03*
X025825Y010610D03*
X025815Y010610D03*
X025805Y010610D03*
X025795Y010610D03*
X025775Y010620D03*
X025765Y010620D03*
X025755Y010620D03*
X025745Y010620D03*
X025735Y010620D03*
X025725Y010630D03*
X025715Y010630D03*
X025705Y010630D03*
X025695Y010630D03*
X025685Y010630D03*
X025675Y010630D03*
X025655Y010640D03*
X025645Y010640D03*
X025635Y010640D03*
X025625Y010640D03*
X025615Y010640D03*
X025605Y010640D03*
X025565Y010650D03*
X025555Y010650D03*
X025545Y010650D03*
X025535Y010650D03*
X025525Y010650D03*
X025515Y010650D03*
X025505Y010650D03*
X025495Y010650D03*
X025405Y010660D03*
X025395Y010660D03*
X025385Y010660D03*
X025375Y010660D03*
X025365Y010660D03*
X025355Y010660D03*
X025345Y010660D03*
X025335Y010660D03*
X025325Y010660D03*
X025315Y010660D03*
D91*
X025265Y010655D03*
X025265Y010025D03*
X025265Y009395D03*
X024935Y007615D03*
D92*
X024945Y007625D03*
X025195Y007625D03*
X025245Y009395D03*
X025245Y010025D03*
X025245Y010655D03*
D93*
X025235Y010660D03*
X025235Y010030D03*
X025235Y009400D03*
X025185Y007630D03*
X024955Y007630D03*
D94*
X024965Y007635D03*
X025175Y007635D03*
X026575Y008355D03*
D95*
X025165Y007640D03*
X024975Y007640D03*
X025225Y009400D03*
X025225Y010030D03*
X025225Y010660D03*
D96*
X025155Y007645D03*
X025145Y007645D03*
X024985Y007645D03*
D97*
X024995Y007650D03*
X025005Y007650D03*
X025125Y007650D03*
X025135Y007650D03*
X025215Y009400D03*
X025215Y010030D03*
X025215Y010660D03*
D98*
X025115Y007655D03*
X025105Y007655D03*
X025095Y007655D03*
X025085Y007655D03*
X025055Y007655D03*
X025045Y007655D03*
X025035Y007655D03*
X025025Y007655D03*
X025015Y007655D03*
D99*
X025065Y007660D03*
X025075Y007660D03*
X025205Y009400D03*
X025205Y010030D03*
X025205Y010660D03*
D100*
X025175Y010660D03*
X025175Y010030D03*
X025175Y009400D03*
D101*
X025185Y009395D03*
X025185Y010025D03*
X025185Y010655D03*
D102*
X027455Y009270D03*
X026435Y008520D03*
X025255Y008410D03*
X025195Y006170D03*
D103*
X027215Y008345D03*
X025195Y009395D03*
X025195Y010025D03*
X025195Y010655D03*
D104*
X026875Y008990D03*
X026425Y008530D03*
X025275Y008400D03*
X025205Y006180D03*
D105*
X025205Y007620D03*
X027205Y008380D03*
X025285Y009400D03*
X025275Y009400D03*
X025275Y010030D03*
X025285Y010030D03*
X025285Y010660D03*
X025275Y010660D03*
D106*
X025215Y006200D03*
D107*
X025215Y007600D03*
X027835Y008400D03*
X025775Y009300D03*
X025755Y009310D03*
X025735Y009320D03*
X025725Y009320D03*
X025715Y009330D03*
X025705Y009330D03*
X025675Y009340D03*
X025925Y009920D03*
X025935Y009920D03*
X025955Y009910D03*
X025965Y009910D03*
X025975Y009900D03*
X025985Y009900D03*
X026005Y009890D03*
X026025Y009880D03*
X025905Y009930D03*
X025875Y009940D03*
X026095Y010530D03*
X026125Y010520D03*
X026155Y010510D03*
X026175Y010500D03*
X026185Y010500D03*
X026195Y010490D03*
X026205Y010490D03*
X026215Y010490D03*
X026225Y010480D03*
X026235Y010480D03*
X026245Y010470D03*
X026255Y010470D03*
X026275Y010460D03*
X026295Y010450D03*
D108*
X025225Y006780D03*
D109*
X025235Y006785D03*
X025245Y006785D03*
D110*
X025255Y006790D03*
D111*
X025255Y009400D03*
X025255Y010030D03*
X025255Y010660D03*
D112*
X025265Y006795D03*
D113*
X025275Y006800D03*
D114*
X025285Y006805D03*
D115*
X025295Y006815D03*
D116*
X025295Y008390D03*
X027105Y008540D03*
X027765Y008550D03*
D117*
X025495Y009385D03*
X025425Y009395D03*
X025415Y009395D03*
X025405Y009395D03*
X025395Y009395D03*
X025385Y009395D03*
X025375Y009395D03*
X025365Y009395D03*
X025315Y009395D03*
X025305Y009395D03*
X025295Y009395D03*
X025295Y010025D03*
X025305Y010025D03*
X025395Y010025D03*
X025405Y010025D03*
X025415Y010025D03*
X025425Y010025D03*
X025435Y010025D03*
X025445Y010025D03*
X025455Y010025D03*
X025535Y010015D03*
X025545Y010015D03*
X025575Y010645D03*
X025585Y010645D03*
X025595Y010645D03*
X025665Y010635D03*
X025485Y010655D03*
X025475Y010655D03*
X025465Y010655D03*
X025455Y010655D03*
X025445Y010655D03*
X025435Y010655D03*
X025425Y010655D03*
X025415Y010655D03*
X025305Y010655D03*
X025295Y010655D03*
D118*
X025305Y006825D03*
D119*
X025305Y008375D03*
X026395Y008555D03*
X026885Y008955D03*
X027095Y008555D03*
X027755Y008565D03*
D120*
X026565Y008375D03*
X025695Y009335D03*
X025685Y009335D03*
X025665Y009345D03*
X025655Y009345D03*
X025645Y009355D03*
X025635Y009355D03*
X025625Y009355D03*
X025605Y009365D03*
X025595Y009365D03*
X025555Y009375D03*
X025665Y009995D03*
X025715Y009985D03*
X025755Y009975D03*
X025765Y009975D03*
X025785Y009965D03*
X025795Y009965D03*
X025805Y009965D03*
X025815Y009955D03*
X025825Y009955D03*
X025835Y009955D03*
X025845Y009945D03*
X025855Y009945D03*
X025865Y009945D03*
X025885Y009935D03*
X025895Y009935D03*
X025915Y009925D03*
X025945Y009915D03*
X026135Y010515D03*
X026145Y010515D03*
X026165Y010505D03*
X026115Y010525D03*
X026105Y010525D03*
X026085Y010535D03*
X026075Y010535D03*
X026065Y010545D03*
X026055Y010545D03*
X026045Y010545D03*
X026035Y010555D03*
X026025Y010555D03*
X026015Y010555D03*
X025995Y010565D03*
X025985Y010565D03*
X025975Y010565D03*
X025965Y010575D03*
X025955Y010575D03*
X025945Y010575D03*
X025925Y010585D03*
X025915Y010585D03*
X025875Y010595D03*
X025835Y010605D03*
X025785Y010615D03*
D121*
X025715Y007290D03*
D122*
X025825Y009275D03*
X025815Y009285D03*
X025805Y009285D03*
X025795Y009295D03*
X025785Y009295D03*
X025765Y009305D03*
X025745Y009315D03*
X026075Y009855D03*
X026085Y009855D03*
X026095Y009845D03*
X026105Y009845D03*
X026125Y009835D03*
X026065Y009865D03*
X026055Y009865D03*
X026045Y009875D03*
X026035Y009875D03*
X026015Y009885D03*
X025995Y009895D03*
X026285Y010455D03*
X026305Y010445D03*
X026315Y010445D03*
X026325Y010435D03*
X026335Y010435D03*
X026345Y010425D03*
X026355Y010425D03*
X026365Y010415D03*
X026375Y010415D03*
X026395Y010405D03*
X026415Y010395D03*
X026265Y010465D03*
D123*
X025765Y007290D03*
D124*
X025785Y007290D03*
D125*
X025795Y007290D03*
D126*
X025805Y007290D03*
D127*
X025815Y007290D03*
D128*
X025825Y007290D03*
D129*
X025835Y007290D03*
D130*
X025875Y009250D03*
X025855Y009260D03*
X025845Y009270D03*
X025835Y009270D03*
X026145Y009820D03*
X026155Y009820D03*
X026165Y009810D03*
X026185Y009800D03*
X026135Y009830D03*
X026115Y009840D03*
X026495Y010350D03*
X026515Y010340D03*
X026545Y010320D03*
X026475Y010360D03*
X026465Y010370D03*
X026455Y010370D03*
X026445Y010380D03*
X026435Y010380D03*
X026425Y010390D03*
X026405Y010400D03*
X026385Y010410D03*
D131*
X025845Y007290D03*
D132*
X025855Y007290D03*
D133*
X026095Y009075D03*
X026555Y009505D03*
X027005Y009955D03*
X027015Y009945D03*
X027025Y009935D03*
X026995Y009965D03*
X026985Y009975D03*
X026975Y009985D03*
D134*
X027075Y009875D03*
X027085Y009865D03*
X027095Y009855D03*
X026615Y009445D03*
X026605Y009455D03*
X026595Y009465D03*
X026135Y009025D03*
X026125Y009035D03*
D135*
X026145Y009015D03*
X026645Y009405D03*
X026655Y009395D03*
X027135Y009805D03*
X027145Y009795D03*
D136*
X027175Y009755D03*
X027185Y009745D03*
X026685Y009355D03*
X026675Y009365D03*
X026175Y008975D03*
D137*
X026185Y008960D03*
X026695Y009340D03*
X027195Y009730D03*
X027205Y009720D03*
X027815Y008460D03*
X026525Y008430D03*
D138*
X026195Y008940D03*
X026715Y009310D03*
X026725Y009300D03*
X027245Y009660D03*
X027235Y009680D03*
X027225Y009690D03*
D139*
X027395Y009405D03*
X026255Y008815D03*
D140*
X026275Y008705D03*
X026375Y008575D03*
D141*
X026345Y008600D03*
X026335Y008610D03*
X026295Y008660D03*
X026285Y008680D03*
X026895Y008910D03*
X027495Y009150D03*
X027075Y008580D03*
D142*
X026325Y008625D03*
X026315Y008635D03*
X026305Y008645D03*
D143*
X026355Y008595D03*
X027745Y008585D03*
D144*
X027085Y008570D03*
X026365Y008580D03*
D145*
X026385Y008560D03*
X027485Y009180D03*
D146*
X027475Y009215D03*
X026405Y008545D03*
D147*
X026535Y008420D03*
X026635Y009420D03*
X026625Y009430D03*
X027105Y009840D03*
X027115Y009830D03*
X027125Y009820D03*
D148*
X026585Y008330D03*
D149*
X027175Y008445D03*
X026705Y009325D03*
X027215Y009705D03*
D150*
X026825Y009120D03*
X027145Y008490D03*
D151*
X026975Y008695D03*
X026965Y008705D03*
D152*
X027045Y008615D03*
D153*
X027055Y008605D03*
D154*
X027065Y008595D03*
X027735Y008595D03*
X027505Y009115D03*
D155*
X027515Y009070D03*
D156*
X027535Y008900D03*
X027585Y008800D03*
D157*
X027565Y008830D03*
X027555Y008850D03*
X027545Y008870D03*
D158*
X027575Y008815D03*
D159*
X027595Y008785D03*
D160*
X027615Y008760D03*
D161*
X027635Y008735D03*
D162*
X027645Y008715D03*
D163*
X027655Y008705D03*
D164*
X027725Y008610D03*
D165*
X027845Y008355D03*
D166*
X028945Y013215D03*
X029345Y013215D03*
X029745Y013215D03*
X030145Y013215D03*
X030545Y013215D03*
X030945Y013215D03*
X013245Y013215D03*
X012845Y013215D03*
X012445Y013215D03*
X012045Y013215D03*
X011645Y013215D03*
X011245Y013215D03*
D167*
X012445Y008015D03*
X017895Y008015D03*
D168*
X019483Y006603D02*
X019307Y006427D01*
X016483Y006427D02*
X016307Y006603D01*
X014033Y006603D02*
X013857Y006427D01*
X011033Y006427D02*
X010857Y006603D01*
X010857Y009427D02*
X011033Y009603D01*
X013857Y009603D02*
X014033Y009427D01*
X016307Y009427D02*
X016483Y009603D01*
X019307Y009603D02*
X019483Y009427D01*
D169*
X009945Y003515D03*
X028945Y012515D03*
D170*
X027945Y012515D03*
X026945Y012515D03*
X025945Y012515D03*
X024945Y012515D03*
X023945Y012515D03*
X022945Y012515D03*
X021945Y012515D03*
X020945Y012515D03*
X019945Y012515D03*
X018945Y012515D03*
X017945Y012515D03*
X016945Y012515D03*
X015945Y012515D03*
X014945Y012515D03*
X013945Y012515D03*
X012945Y012515D03*
X011945Y012515D03*
X010945Y012515D03*
X009945Y012515D03*
X010945Y003515D03*
X011945Y003515D03*
X012945Y003515D03*
X013945Y003515D03*
X014945Y003515D03*
X015945Y003515D03*
X016945Y003515D03*
X017945Y003515D03*
X018945Y003515D03*
X019945Y003515D03*
X020945Y003515D03*
X021945Y003515D03*
X022945Y003515D03*
X023945Y003515D03*
X024945Y003515D03*
X025945Y003515D03*
X026945Y003515D03*
X027945Y003515D03*
X028945Y003515D03*
D171*
X021395Y008015D03*
D172*
X009658Y006716D02*
X009382Y006716D01*
X009378Y009314D02*
X009654Y009314D01*
M02*
